<svg xmlns="http://www.w3.org/2000/svg" xmlns:xlink="http://www.w3.org/1999/xlink" width="500" zoomAndPan="magnify" viewBox="0 0 375 374.999991" height="500" preserveAspectRatio="xMidYMid meet" version="1.0"><defs><clipPath id="a715f850f8"><path d="M 0 0 L 375 0 L 375 372 L 0 372 Z M 0 0 " clip-rule="nonzero"/></clipPath></defs><path fill="#646b6e" d="M 0.992188 186.257812 C 0.992188 161.714844 5.734375 138.011719 15.1875 115.179688 C 24.644531 92.347656 38.070312 72.292969 55.492188 54.996094 C 73.089844 37.351562 93.117188 23.925781 115.601562 14.691406 C 138.085938 5.460938 162.011719 0.84375 187.402344 0.84375 C 208.148438 0.84375 228.203125 4.09375 247.632812 10.621094 C 267.042969 17.125 284.886719 26.578125 301.140625 38.9375 C 324.371094 56.558594 342.3125 78.226562 355.019531 103.960938 C 367.703125 129.648438 374.058594 157.097656 374.058594 186.257812 C 374.058594 206.707031 370.832031 226.464844 364.351562 245.597656 C 357.875 264.707031 348.34375 282.355469 335.738281 298.511719 C 317.820312 321.738281 295.929688 339.683594 270.042969 352.390625 C 244.160156 365.074219 216.636719 371.425781 187.425781 371.425781 C 162.707031 371.425781 138.980469 366.734375 116.246094 357.355469 C 93.515625 347.949219 73.289062 334.445312 55.519531 316.800781 C 37.921875 299.328125 24.445312 279.351562 15.089844 256.839844 C 5.707031 234.332031 1.019531 210.828125 1.019531 186.257812 Z M 187.375 24.246094 C 165.3125 24.246094 144.367188 28.316406 124.535156 36.480469 C 104.707031 44.621094 87.160156 56.4375 71.898438 71.898438 C 56.808594 86.886719 45.195312 104.210938 37.054688 123.890625 C 28.914062 143.570312 24.867188 164.34375 24.867188 186.257812 C 24.867188 204.226562 27.648438 221.402344 33.207031 237.878906 C 38.765625 254.335938 47.03125 269.648438 57.976562 283.816406 C 73.5625 304.070312 92.71875 319.828125 115.453125 331.097656 C 138.1875 342.386719 162.160156 348.023438 187.375 348.023438 C 208.941406 348.023438 229.765625 343.851562 249.84375 335.5625 C 269.921875 327.25 287.664062 315.335938 303.101562 299.875 C 318.363281 284.738281 330.105469 267.363281 338.320312 247.757812 C 346.535156 228.152344 350.628906 207.675781 350.628906 186.257812 C 350.628906 164.839844 346.484375 144.066406 338.195312 124.386719 C 329.90625 104.707031 318.042969 87.234375 302.605469 71.898438 C 287.167969 56.585938 269.597656 44.820312 249.84375 36.605469 C 230.113281 28.367188 209.289062 24.246094 187.375 24.246094 Z M 173.703125 198.691406 L 68.695312 198.691406 L 68.695312 170.574219 L 173.703125 170.574219 L 173.703125 68.050781 L 201.820312 68.050781 L 201.820312 170.574219 L 306.328125 170.574219 L 306.328125 198.691406 L 201.820312 198.691406 L 201.820312 305.085938 L 173.703125 305.085938 Z M 173.703125 198.691406 " fill-opacity="1" fill-rule="nonzero"/><g clip-path="url(#a715f850f8)"><path fill="#646b6e" d="M 187.375 372.269531 C 162.632812 372.269531 138.582031 367.503906 115.875 358.125 C 93.167969 348.742188 72.640625 335.042969 54.871094 317.398438 C 37.277344 299.898438 23.601562 279.648438 14.246094 257.164062 C 4.863281 234.652344 0.125 210.804688 0.125 186.257812 C 0.125 161.714844 4.914062 137.691406 14.371094 114.859375 C 23.824219 92.050781 37.449219 71.699219 54.871094 54.402344 C 72.445312 36.78125 92.746094 23.15625 115.253906 13.921875 C 137.738281 4.691406 162.011719 0 187.375 0 C 208.097656 0 228.472656 3.300781 247.882812 9.804688 C 267.289062 16.304688 285.382812 25.886719 301.636719 38.246094 C 324.867188 55.867188 343.082031 77.855469 355.765625 103.566406 C 368.449219 129.253906 374.902344 157.074219 374.902344 186.257812 C 374.902344 206.683594 371.625 226.738281 365.148438 245.871094 C 358.667969 264.980469 349.015625 282.875 336.382812 299.03125 C 318.464844 322.261719 296.253906 340.453125 270.390625 353.160156 C 244.53125 365.867188 216.585938 372.292969 187.402344 372.292969 Z M 187.375 1.738281 C 162.234375 1.738281 138.1875 6.378906 115.898438 15.535156 C 93.613281 24.695312 73.484375 38.171875 56.089844 55.640625 C 38.816406 72.792969 25.316406 92.941406 15.957031 115.550781 C 6.578125 138.1875 1.835938 161.988281 1.835938 186.285156 C 1.835938 210.582031 6.550781 234.230469 15.835938 256.519531 C 25.117188 278.78125 38.640625 298.859375 56.089844 316.179688 C 73.683594 333.652344 94.035156 347.226562 116.519531 356.535156 C 139.03125 365.839844 162.855469 370.558594 187.351562 370.558594 C 216.289062 370.558594 243.960938 364.179688 269.597656 351.597656 C 295.234375 339.011719 317.25 320.972656 334.992188 297.964844 C 347.476562 281.957031 357.082031 264.238281 363.484375 245.300781 C 369.886719 226.363281 373.136719 206.484375 373.136719 186.257812 C 373.136719 157.347656 366.761719 129.796875 354.203125 104.335938 C 341.621094 78.871094 323.578125 57.082031 300.570312 39.632812 C 284.464844 27.398438 266.546875 17.917969 247.3125 11.464844 C 228.078125 5.011719 207.898438 1.738281 187.375 1.738281 Z M 187.375 348.867188 C 162.136719 348.867188 137.8125 343.132812 115.082031 331.867188 C 92.371094 320.625 72.914062 304.617188 57.304688 284.339844 C 46.335938 270.167969 37.972656 254.632812 32.414062 238.152344 C 26.851562 221.675781 24.023438 204.226562 24.023438 186.257812 C 24.023438 164.371094 28.144531 143.273438 36.285156 123.570312 C 44.398438 103.886719 56.1875 86.316406 71.300781 71.300781 C 86.589844 55.789062 104.410156 43.828125 124.214844 35.6875 C 144.019531 27.523438 165.261719 23.378906 187.375 23.378906 C 209.488281 23.378906 230.386719 27.546875 250.164062 35.8125 C 269.894531 44.027344 287.738281 55.964844 303.203125 71.300781 C 318.636719 86.640625 330.675781 104.410156 338.964844 124.066406 C 347.253906 143.769531 351.472656 164.691406 351.472656 186.257812 C 351.472656 207.824219 347.304688 228.472656 339.089844 248.082031 C 330.875 267.710938 318.960938 285.332031 303.699219 300.472656 C 288.261719 315.957031 270.242188 328.019531 250.164062 336.332031 C 230.039062 344.648438 208.917969 348.867188 187.375 348.867188 Z M 187.375 25.117188 C 165.488281 25.117188 144.464844 29.210938 124.859375 37.277344 C 105.253906 45.316406 87.65625 57.15625 72.519531 72.492188 C 57.554688 87.359375 45.914062 104.757812 37.871094 124.214844 C 29.832031 143.695312 25.738281 164.566406 25.738281 186.234375 C 25.738281 204.003906 28.515625 221.277344 34.027344 237.582031 C 39.511719 253.863281 47.800781 269.226562 58.644531 283.273438 C 74.105469 303.351562 93.339844 319.183594 115.824219 330.300781 C 138.335938 341.46875 162.382812 347.128906 187.351562 347.128906 C 208.667969 347.128906 229.566406 342.960938 249.46875 334.71875 C 269.324219 326.480469 287.144531 314.542969 302.433594 299.207031 C 317.546875 284.214844 329.335938 266.792969 337.449219 247.359375 C 345.589844 227.953125 349.710938 207.378906 349.710938 186.210938 C 349.710938 165.039062 345.539062 144.167969 337.324219 124.683594 C 329.136719 105.226562 317.222656 87.65625 301.9375 72.46875 C 286.648438 57.304688 268.976562 45.492188 249.445312 37.351562 C 229.890625 29.1875 208.96875 25.066406 187.328125 25.066406 Z M 202.664062 305.980469 L 172.808594 305.980469 L 172.808594 199.585938 L 67.804688 199.585938 L 67.804688 169.730469 L 172.808594 169.730469 L 172.808594 67.207031 L 202.664062 67.207031 L 202.664062 169.730469 L 307.171875 169.730469 L 307.171875 199.585938 L 202.664062 199.585938 Z M 174.546875 304.242188 L 200.925781 304.242188 L 200.925781 197.847656 L 305.433594 197.847656 L 305.433594 171.46875 L 200.925781 171.46875 L 200.925781 68.945312 L 174.546875 68.945312 L 174.546875 171.46875 L 69.539062 171.46875 L 69.539062 197.847656 L 174.546875 197.847656 Z M 174.546875 304.242188 " fill-opacity="1" fill-rule="nonzero"/></g></svg>