<svg xmlns="http://www.w3.org/2000/svg" xmlns:xlink="http://www.w3.org/1999/xlink" width="500" zoomAndPan="magnify" viewBox="0 0 375 374.999991" height="500" preserveAspectRatio="xMidYMid meet" version="1.0"><defs><filter x="0%" y="0%" width="100%" height="100%" id="992891fde7"><feColorMatrix values="0 0 0 0 1 0 0 0 0 1 0 0 0 0 1 0 0 0 1 0" color-interpolation-filters="sRGB"/></filter><mask id="ee2ca5580f"><g filter="url(#992891fde7)"><rect x="-37.5" width="450" fill="#000000" y="-37.499999" height="449.999989" fill-opacity="0.97"/></g></mask><clipPath id="c06a54582a"><path d="M 0.558594 1 L 49.761719 1 L 49.761719 50.800781 L 0.558594 50.800781 Z M 0.558594 1 " clip-rule="nonzero"/></clipPath><clipPath id="1cdb61a1d3"><rect x="0" width="50" y="0" height="51"/></clipPath></defs><path fill="#646b6e" d="M 79.339844 301.359375 L 339.140625 301.359375 C 339.140625 301.359375 267.054688 154.675781 252.824219 151.855469 C 238.589844 149.039062 176.371094 249.660156 176.371094 249.660156 C 176.371094 249.660156 142.3125 185.488281 128.496094 187.105469 C 114.683594 188.722656 79.347656 301.363281 79.347656 301.363281 Z M 79.339844 301.359375 " fill-opacity="1" fill-rule="nonzero"/><g mask="url(#ee2ca5580f)"><g transform="matrix(1, 0, 0, 1, 136, 110)"><g clip-path="url(#1cdb61a1d3)"><g clip-path="url(#c06a54582a)"><path fill="#646b6e" d="M 49.304688 26.042969 C 49.304688 26.835938 49.265625 27.628906 49.1875 28.417969 C 49.109375 29.210938 48.992188 29.992188 48.839844 30.773438 C 48.683594 31.550781 48.492188 32.320312 48.261719 33.082031 C 48.03125 33.84375 47.761719 34.589844 47.457031 35.324219 C 47.15625 36.058594 46.816406 36.773438 46.441406 37.476562 C 46.066406 38.175781 45.660156 38.855469 45.21875 39.515625 C 44.777344 40.175781 44.304688 40.816406 43.800781 41.429688 C 43.296875 42.042969 42.761719 42.628906 42.199219 43.191406 C 41.640625 43.753906 41.050781 44.285156 40.4375 44.789062 C 39.824219 45.296875 39.1875 45.765625 38.523438 46.207031 C 37.863281 46.648438 37.183594 47.058594 36.484375 47.433594 C 35.78125 47.808594 35.066406 48.144531 34.332031 48.449219 C 33.597656 48.753906 32.851562 49.023438 32.089844 49.253906 C 31.332031 49.484375 30.558594 49.675781 29.78125 49.832031 C 29.003906 49.984375 28.21875 50.101562 27.425781 50.179688 C 26.636719 50.257812 25.84375 50.296875 25.050781 50.296875 C 24.253906 50.296875 23.460938 50.257812 22.671875 50.179688 C 21.882812 50.101562 21.097656 49.984375 20.316406 49.832031 C 19.539062 49.675781 18.769531 49.484375 18.007812 49.253906 C 17.25 49.023438 16.5 48.753906 15.765625 48.449219 C 15.03125 48.144531 14.316406 47.808594 13.617188 47.433594 C 12.914062 47.058594 12.234375 46.648438 11.574219 46.207031 C 10.914062 45.765625 10.277344 45.296875 9.660156 44.789062 C 9.046875 44.285156 8.460938 43.753906 7.898438 43.191406 C 7.335938 42.628906 6.804688 42.042969 6.300781 41.429688 C 5.796875 40.816406 5.324219 40.175781 4.882812 39.515625 C 4.441406 38.855469 4.03125 38.175781 3.65625 37.476562 C 3.285156 36.773438 2.945312 36.058594 2.640625 35.324219 C 2.335938 34.589844 2.070312 33.84375 1.839844 33.082031 C 1.609375 32.320312 1.414062 31.550781 1.261719 30.773438 C 1.105469 29.992188 0.988281 29.210938 0.910156 28.417969 C 0.832031 27.628906 0.792969 26.835938 0.792969 26.042969 C 0.792969 25.246094 0.832031 24.453125 0.910156 23.664062 C 0.988281 22.875 1.105469 22.089844 1.261719 21.308594 C 1.414062 20.53125 1.609375 19.761719 1.839844 19 C 2.070312 18.238281 2.335938 17.492188 2.640625 16.757812 C 2.945312 16.023438 3.285156 15.308594 3.65625 14.605469 C 4.03125 13.90625 4.441406 13.226562 4.882812 12.566406 C 5.324219 11.90625 5.796875 11.265625 6.300781 10.652344 C 6.804688 10.039062 7.335938 9.453125 7.898438 8.890625 C 8.460938 8.328125 9.046875 7.796875 9.660156 7.292969 C 10.277344 6.789062 10.914062 6.316406 11.574219 5.875 C 12.234375 5.433594 12.914062 5.023438 13.617188 4.648438 C 14.316406 4.273438 15.035156 3.9375 15.765625 3.632812 C 16.5 3.328125 17.25 3.058594 18.007812 2.828125 C 18.769531 2.597656 19.539062 2.40625 20.316406 2.25 C 21.097656 2.097656 21.882812 1.980469 22.671875 1.902344 C 23.460938 1.824219 24.253906 1.785156 25.050781 1.785156 C 25.84375 1.785156 26.636719 1.824219 27.425781 1.902344 C 28.21875 1.980469 29.003906 2.097656 29.78125 2.25 C 30.558594 2.40625 31.332031 2.597656 32.089844 2.828125 C 32.851562 3.058594 33.597656 3.328125 34.332031 3.632812 C 35.066406 3.9375 35.78125 4.273438 36.484375 4.648438 C 37.183594 5.023438 37.863281 5.433594 38.523438 5.875 C 39.1875 6.316406 39.824219 6.789062 40.4375 7.292969 C 41.050781 7.796875 41.640625 8.328125 42.199219 8.890625 C 42.761719 9.453125 43.296875 10.039062 43.800781 10.652344 C 44.304688 11.269531 44.777344 11.90625 45.21875 12.566406 C 45.660156 13.226562 46.066406 13.90625 46.441406 14.605469 C 46.816406 15.308594 47.15625 16.023438 47.457031 16.757812 C 47.761719 17.492188 48.03125 18.238281 48.261719 19 C 48.492188 19.761719 48.683594 20.53125 48.839844 21.308594 C 48.992188 22.089844 49.109375 22.875 49.1875 23.664062 C 49.265625 24.453125 49.304688 25.246094 49.304688 26.042969 Z M 49.304688 26.042969 " fill-opacity="1" fill-rule="nonzero"/></g></g></g></g><path fill="#646b6e" d="M 43.457031 82.238281 L 43.457031 330.914062 L 375.023438 330.914062 L 375.023438 82.238281 Z M 64.179688 98.816406 L 354.296875 98.816406 L 354.296875 314.335938 L 64.179688 314.335938 Z M 64.179688 98.816406 " fill-opacity="1" fill-rule="nonzero"/><path fill="#646b6e" d="M 0 44.09375 L 0 292.769531 L 33.15625 292.769531 L 33.15625 276.191406 L 20.722656 276.191406 L 20.722656 60.671875 L 310.84375 60.671875 L 310.84375 73.410156 L 331.566406 73.410156 L 331.566406 44.09375 Z M 0 44.09375 " fill-opacity="1" fill-rule="nonzero"/></svg>