<svg xmlns="http://www.w3.org/2000/svg" xmlns:xlink="http://www.w3.org/1999/xlink" width="500" zoomAndPan="magnify" viewBox="0 0 375 374.999991" height="500" preserveAspectRatio="xMidYMid meet" version="1.0"><defs><clipPath id="19ed5ab081"><path d="M 2 8.203125 L 372 8.203125 L 372 366.703125 L 2 366.703125 Z M 2 8.203125 " clip-rule="nonzero"/></clipPath></defs><g clip-path="url(#19ed5ab081)"><path fill="#02d7c2" d="M 367.695312 219.566406 C 364.175781 213.6875 349.71875 196.230469 311.550781 218.457031 L 244.230469 257.671875 C 240.832031 259.648438 237.378906 261.042969 233.773438 261.867188 C 235.121094 259.734375 236.175781 257.3125 236.894531 254.628906 C 240.332031 241.792969 232.703125 228.394531 219.527344 224.121094 C 219.269531 224.039062 219.011719 223.972656 218.746094 223.925781 C 199.394531 220.4375 180.296875 213.53125 164.953125 207.984375 C 159.621094 206.054688 154.585938 204.238281 150.304688 202.847656 C 133.066406 197.253906 117.492188 204.175781 104.535156 211.6875 L 54.441406 240.707031 L 50.8125 234.292969 C 48.730469 230.617188 45.328125 227.964844 41.238281 226.832031 C 37.144531 225.695312 32.863281 226.21875 29.1875 228.300781 L 10.296875 238.992188 C 2.683594 243.300781 -0.0078125 253 4.300781 260.617188 L 59.835938 358.738281 C 61.917969 362.417969 65.320312 365.070312 69.410156 366.203125 C 70.824219 366.597656 72.261719 366.789062 73.691406 366.789062 C 76.390625 366.789062 79.054688 366.09375 81.460938 364.734375 L 100.351562 354.042969 C 107.964844 349.734375 110.652344 340.03125 106.34375 332.417969 L 99.5 320.324219 L 110.941406 313.71875 L 197.171875 336.824219 C 202.042969 338.132812 206.820312 338.78125 211.496094 338.78125 C 220.816406 338.78125 229.730469 336.191406 238.117188 331.027344 L 360.289062 255.800781 C 371.417969 248.949219 374.949219 231.679688 367.695312 219.566406 Z M 94.484375 343.675781 L 75.59375 354.367188 C 74.683594 354.882812 73.617188 355.011719 72.59375 354.726562 C 71.566406 354.441406 70.71875 353.785156 70.203125 352.871094 L 14.667969 254.75 C 13.613281 252.882812 14.296875 250.414062 16.164062 249.355469 L 35.054688 238.664062 C 35.644531 238.332031 36.304688 238.160156 36.976562 238.160156 C 37.335938 238.160156 37.699219 238.207031 38.054688 238.308594 C 39.082031 238.59375 39.929688 239.25 40.445312 240.160156 L 95.980469 338.285156 C 97.035156 340.152344 96.351562 342.621094 94.484375 343.675781 Z M 354.046875 245.65625 L 231.871094 320.886719 C 222.179688 326.855469 211.542969 328.347656 200.257812 325.320312 L 111.640625 301.578125 C 110.113281 301.167969 108.488281 301.382812 107.121094 302.171875 L 93.632812 309.957031 L 60.308594 251.074219 L 110.503906 221.992188 C 121.730469 215.488281 133.875 210.039062 146.628906 214.175781 C 150.722656 215.503906 155.441406 217.210938 160.902344 219.183594 C 176.558594 224.84375 196.015625 231.878906 216.203125 235.570312 C 223.246094 238.03125 227.1875 244.835938 225.390625 251.546875 C 223.050781 260.265625 215.710938 261.339844 209.875 260.667969 C 199.359375 258.554688 189.8125 255.847656 179.820312 253.015625 C 175.347656 251.746094 170.726562 250.433594 165.863281 249.132812 C 162.6875 248.28125 159.417969 250.164062 158.566406 253.34375 C 157.714844 256.519531 159.601562 259.785156 162.777344 260.636719 C 167.558594 261.917969 172.140625 263.21875 176.570312 264.472656 C 186.867188 267.394531 196.707031 270.183594 207.710938 272.382812 C 207.738281 272.386719 207.761719 272.394531 207.785156 272.398438 C 210.535156 272.945312 213.355469 273.457031 216.273438 273.925781 C 228.789062 275.929688 239.894531 273.976562 250.222656 267.964844 L 317.546875 228.753906 C 336.9375 217.457031 351.863281 216.3125 357.480469 225.6875 C 361.347656 232.148438 359.617188 242.226562 354.046875 245.65625 Z M 39.433594 255.671875 C 39.972656 259.359375 37.417969 262.78125 33.734375 263.320312 C 30.046875 263.859375 26.625 261.308594 26.085938 257.625 C 25.546875 253.9375 28.097656 250.515625 31.785156 249.976562 C 35.46875 249.4375 38.894531 251.988281 39.433594 255.671875 Z M 159.886719 156.960938 L 239.222656 202.765625 C 240.144531 203.296875 241.171875 203.5625 242.199219 203.5625 C 243.226562 203.5625 244.257812 203.296875 245.179688 202.765625 L 324.515625 156.960938 C 326.355469 155.898438 327.492188 153.929688 327.492188 151.804688 L 327.492188 60.191406 C 327.492188 58.066406 326.355469 56.097656 324.515625 55.035156 L 245.179688 9.230469 C 243.335938 8.167969 241.066406 8.167969 239.222656 9.230469 L 159.886719 55.035156 C 158.042969 56.097656 156.910156 58.066406 156.910156 60.191406 L 156.910156 151.800781 C 156.910156 153.929688 158.042969 155.894531 159.886719 156.960938 Z M 168.820312 70.507812 L 185.074219 79.890625 L 185.074219 112.527344 C 185.074219 114.65625 186.207031 116.621094 188.050781 117.683594 L 211.058594 130.96875 C 211.980469 131.5 213.007812 131.765625 214.035156 131.765625 C 215.0625 131.765625 216.09375 131.5 217.015625 130.96875 C 218.855469 129.90625 219.992188 127.9375 219.992188 125.8125 L 219.992188 100.050781 L 236.246094 109.4375 L 236.246094 187.292969 L 168.820312 148.363281 Z M 242.199219 99.121094 L 225.945312 89.738281 L 293.371094 50.808594 L 309.625 60.191406 Z M 196.984375 86.769531 L 208.082031 93.175781 L 208.082031 115.496094 L 196.984375 109.089844 Z M 214.035156 82.859375 L 202.941406 76.453125 L 270.363281 37.527344 L 281.460938 43.933594 Z M 248.15625 187.292969 L 248.15625 109.4375 L 315.582031 70.507812 L 315.582031 148.363281 Z M 242.199219 21.265625 L 258.453125 30.648438 L 191.027344 69.578125 L 174.773438 60.191406 Z M 242.199219 21.265625 " fill-opacity="1" fill-rule="nonzero"/></g></svg>