<svg xmlns="http://www.w3.org/2000/svg" xmlns:xlink="http://www.w3.org/1999/xlink" width="500" zoomAndPan="magnify" viewBox="0 0 375 374.999991" height="500" preserveAspectRatio="xMidYMid meet" version="1.0"><defs><clipPath id="7374537a97"><path d="M 78.066406 0 L 297 0 L 297 289 L 78.066406 289 Z M 78.066406 0 " clip-rule="nonzero"/></clipPath></defs><rect x="-37.5" width="450" fill="#ffffff" y="-37.499999" height="449.999989" fill-opacity="1"/><rect x="-37.5" width="450" fill="#d9d9d9" y="-37.499999" height="449.999989" fill-opacity="1"/><path fill="#02d7c2" d="M 218.761719 343.4375 C 218.761719 344.460938 218.714844 345.484375 218.613281 346.5 C 218.511719 347.519531 218.363281 348.53125 218.164062 349.535156 C 217.964844 350.542969 217.714844 351.535156 217.417969 352.511719 C 217.121094 353.492188 216.773438 354.457031 216.382812 355.402344 C 215.992188 356.347656 215.554688 357.273438 215.070312 358.175781 C 214.589844 359.078125 214.0625 359.957031 213.496094 360.808594 C 212.925781 361.660156 212.316406 362.480469 211.667969 363.273438 C 211.015625 364.0625 210.328125 364.820312 209.605469 365.546875 C 208.882812 366.269531 208.125 366.957031 207.332031 367.605469 C 206.539062 368.253906 205.71875 368.863281 204.867188 369.433594 C 204.015625 370.003906 203.140625 370.527344 202.238281 371.011719 C 201.332031 371.492188 200.410156 371.929688 199.460938 372.324219 C 198.515625 372.714844 197.554688 373.058594 196.574219 373.355469 C 195.59375 373.652344 194.601562 373.902344 193.597656 374.101562 C 192.59375 374.300781 191.582031 374.453125 190.5625 374.550781 C 189.542969 374.652344 188.523438 374.703125 187.496094 374.703125 C 186.472656 374.703125 185.453125 374.652344 184.433594 374.550781 C 183.414062 374.453125 182.402344 374.300781 181.398438 374.101562 C 180.394531 373.902344 179.402344 373.652344 178.421875 373.355469 C 177.441406 373.058594 176.480469 372.714844 175.53125 372.324219 C 174.585938 371.929688 173.664062 371.492188 172.757812 371.011719 C 171.855469 370.527344 170.980469 370.003906 170.128906 369.433594 C 169.277344 368.863281 168.453125 368.253906 167.664062 367.605469 C 166.871094 366.957031 166.113281 366.269531 165.390625 365.546875 C 164.664062 364.820312 163.980469 364.0625 163.328125 363.273438 C 162.679688 362.480469 162.070312 361.660156 161.5 360.808594 C 160.933594 359.957031 160.40625 359.078125 159.925781 358.175781 C 159.441406 357.273438 159.003906 356.347656 158.613281 355.402344 C 158.21875 354.457031 157.875 353.492188 157.578125 352.511719 C 157.28125 351.535156 157.03125 350.542969 156.832031 349.535156 C 156.632812 348.53125 156.484375 347.519531 156.382812 346.5 C 156.28125 345.484375 156.230469 344.460938 156.230469 343.4375 C 156.230469 342.414062 156.28125 341.390625 156.382812 340.371094 C 156.484375 339.355469 156.632812 338.34375 156.832031 337.335938 C 157.03125 336.332031 157.28125 335.339844 157.578125 334.363281 C 157.875 333.382812 158.21875 332.417969 158.613281 331.472656 C 159.003906 330.527344 159.441406 329.601562 159.925781 328.699219 C 160.40625 327.796875 160.933594 326.917969 161.5 326.066406 C 162.070312 325.214844 162.679688 324.394531 163.328125 323.601562 C 163.980469 322.8125 164.664062 322.054688 165.390625 321.328125 C 166.113281 320.605469 166.871094 319.917969 167.664062 319.269531 C 168.453125 318.617188 169.277344 318.007812 170.128906 317.441406 C 170.980469 316.871094 171.855469 316.347656 172.757812 315.863281 C 173.664062 315.378906 174.585938 314.945312 175.53125 314.550781 C 176.480469 314.160156 177.441406 313.816406 178.421875 313.519531 C 179.402344 313.21875 180.394531 312.972656 181.398438 312.773438 C 182.402344 312.574219 183.414062 312.421875 184.433594 312.320312 C 185.453125 312.222656 186.472656 312.171875 187.496094 312.171875 C 188.523438 312.171875 189.542969 312.222656 190.5625 312.320312 C 191.582031 312.421875 192.59375 312.574219 193.597656 312.773438 C 194.601562 312.972656 195.59375 313.21875 196.574219 313.519531 C 197.554688 313.816406 198.515625 314.160156 199.460938 314.550781 C 200.410156 314.945312 201.332031 315.378906 202.238281 315.863281 C 203.140625 316.347656 204.015625 316.871094 204.867188 317.441406 C 205.71875 318.007812 206.539062 318.617188 207.332031 319.269531 C 208.125 319.917969 208.882812 320.605469 209.605469 321.328125 C 210.328125 322.054688 211.015625 322.8125 211.667969 323.601562 C 212.316406 324.394531 212.925781 325.214844 213.496094 326.066406 C 214.0625 326.917969 214.589844 327.796875 215.070312 328.699219 C 215.554688 329.601562 215.992188 330.527344 216.382812 331.472656 C 216.773438 332.417969 217.121094 333.382812 217.417969 334.363281 C 217.714844 335.339844 217.964844 336.332031 218.164062 337.335938 C 218.363281 338.34375 218.511719 339.355469 218.613281 340.371094 C 218.714844 341.390625 218.761719 342.414062 218.761719 343.4375 Z M 218.761719 343.4375 " fill-opacity="1" fill-rule="nonzero"/><g clip-path="url(#7374537a97)"><path fill="#02d7c2" d="M 296.925781 108.945312 C 296.925781 107.152344 296.882812 105.363281 296.796875 103.574219 C 296.707031 101.785156 296.574219 100 296.402344 98.21875 C 296.226562 96.4375 296.007812 94.660156 295.742188 92.886719 C 295.480469 91.117188 295.175781 89.351562 294.824219 87.597656 C 294.476562 85.839844 294.082031 84.09375 293.648438 82.355469 C 293.210938 80.617188 292.734375 78.894531 292.214844 77.179688 C 291.695312 75.464844 291.132812 73.765625 290.53125 72.078125 C 289.925781 70.394531 289.28125 68.722656 288.597656 67.066406 C 287.914062 65.414062 287.1875 63.777344 286.421875 62.15625 C 285.65625 60.539062 284.851562 58.941406 284.007812 57.359375 C 283.160156 55.78125 282.28125 54.222656 281.359375 52.6875 C 280.4375 51.152344 279.480469 49.636719 278.484375 48.148438 C 277.492188 46.660156 276.460938 45.195312 275.390625 43.757812 C 274.324219 42.320312 273.222656 40.90625 272.089844 39.523438 C 270.953125 38.140625 269.78125 36.785156 268.578125 35.457031 C 267.378906 34.128906 266.144531 32.832031 264.875 31.566406 C 263.609375 30.300781 262.3125 29.066406 260.984375 27.863281 C 259.660156 26.660156 258.304688 25.492188 256.917969 24.355469 C 255.535156 23.21875 254.125 22.117188 252.683594 21.050781 C 251.246094 19.984375 249.78125 18.953125 248.292969 17.957031 C 246.804688 16.960938 245.292969 16.003906 243.757812 15.085938 C 242.21875 14.164062 240.660156 13.28125 239.082031 12.4375 C 237.503906 11.59375 235.902344 10.789062 234.285156 10.023438 C 232.667969 9.257812 231.03125 8.53125 229.375 7.84375 C 227.71875 7.160156 226.050781 6.515625 224.363281 5.914062 C 222.675781 5.308594 220.976562 4.746094 219.261719 4.226562 C 217.550781 3.707031 215.824219 3.230469 214.085938 2.792969 C 212.351562 2.359375 210.601562 1.96875 208.847656 1.617188 C 207.089844 1.269531 205.324219 0.960938 203.554688 0.699219 C 201.78125 0.4375 200.007812 0.21875 198.222656 0.0429688 C 196.441406 -0.132812 194.65625 -0.265625 192.867188 -0.351562 C 191.078125 -0.441406 189.289062 -0.484375 187.496094 -0.484375 C 185.707031 -0.484375 183.917969 -0.441406 182.128906 -0.351562 C 180.339844 -0.265625 178.554688 -0.132812 176.773438 0.0429688 C 174.988281 0.21875 173.210938 0.4375 171.441406 0.699219 C 169.667969 0.960938 167.90625 1.269531 166.148438 1.617188 C 164.394531 1.96875 162.644531 2.359375 160.910156 2.792969 C 159.171875 3.230469 157.445312 3.707031 155.730469 4.226562 C 154.019531 4.746094 152.316406 5.308594 150.632812 5.914062 C 148.945312 6.515625 147.277344 7.160156 145.621094 7.84375 C 143.964844 8.53125 142.328125 9.257812 140.710938 10.023438 C 139.089844 10.789062 137.492188 11.59375 135.914062 12.4375 C 134.332031 13.28125 132.777344 14.164062 131.238281 15.085938 C 129.703125 16.003906 128.191406 16.960938 126.703125 17.957031 C 125.214844 18.953125 123.75 19.984375 122.3125 21.050781 C 120.871094 22.117188 119.460938 23.21875 118.078125 24.355469 C 116.691406 25.492188 115.335938 26.660156 114.007812 27.863281 C 112.683594 29.066406 111.386719 30.300781 110.121094 31.566406 C 108.851562 32.832031 107.617188 34.128906 106.414062 35.457031 C 105.214844 36.785156 104.042969 38.140625 102.90625 39.523438 C 101.769531 40.90625 100.671875 42.320312 99.601562 43.757812 C 98.535156 45.195312 97.503906 46.660156 96.511719 48.148438 C 95.515625 49.636719 94.558594 51.152344 93.636719 52.6875 C 92.714844 54.222656 91.832031 55.78125 90.988281 57.359375 C 90.144531 58.941406 89.339844 60.539062 88.574219 62.15625 C 87.808594 63.777344 87.082031 65.414062 86.398438 67.066406 C 85.710938 68.722656 85.066406 70.394531 84.464844 72.078125 C 83.863281 73.765625 83.300781 75.464844 82.78125 77.179688 C 82.261719 78.894531 81.78125 80.617188 81.347656 82.355469 C 80.914062 84.09375 80.519531 85.839844 80.171875 87.597656 C 79.820312 89.351562 79.515625 91.117188 79.253906 92.886719 C 78.988281 94.660156 78.769531 96.4375 78.59375 98.21875 C 78.417969 100 78.289062 101.785156 78.199219 103.574219 C 78.113281 105.363281 78.066406 107.152344 78.066406 108.945312 C 78.066406 109.96875 78.117188 110.992188 78.21875 112.007812 C 78.320312 113.027344 78.46875 114.039062 78.667969 115.042969 C 78.867188 116.050781 79.117188 117.042969 79.414062 118.019531 C 79.710938 119 80.054688 119.964844 80.449219 120.910156 C 80.839844 121.855469 81.277344 122.78125 81.761719 123.683594 C 82.242188 124.585938 82.769531 125.464844 83.335938 126.316406 C 83.90625 127.167969 84.515625 127.988281 85.164062 128.78125 C 85.816406 129.570312 86.5 130.328125 87.226562 131.054688 C 87.949219 131.777344 88.707031 132.464844 89.5 133.113281 C 90.289062 133.761719 91.113281 134.371094 91.964844 134.941406 C 92.816406 135.511719 93.691406 136.035156 94.59375 136.519531 C 95.5 137 96.421875 137.4375 97.367188 137.832031 C 98.316406 138.222656 99.277344 138.566406 100.257812 138.863281 C 101.238281 139.160156 102.230469 139.410156 103.234375 139.609375 C 104.238281 139.808594 105.25 139.960938 106.269531 140.058594 C 107.289062 140.160156 108.308594 140.210938 109.332031 140.210938 C 110.359375 140.210938 111.378906 140.160156 112.398438 140.058594 C 113.417969 139.960938 114.429688 139.808594 115.433594 139.609375 C 116.4375 139.410156 117.429688 139.160156 118.410156 138.863281 C 119.390625 138.566406 120.351562 138.222656 121.296875 137.832031 C 122.246094 137.4375 123.167969 137 124.074219 136.519531 C 124.976562 136.035156 125.851562 135.511719 126.703125 134.941406 C 127.554688 134.371094 128.375 133.761719 129.167969 133.113281 C 129.960938 132.464844 130.71875 131.777344 131.441406 131.054688 C 132.164062 130.328125 132.851562 129.570312 133.503906 128.78125 C 134.152344 127.988281 134.761719 127.167969 135.332031 126.316406 C 135.898438 125.464844 136.425781 124.585938 136.90625 123.683594 C 137.390625 122.78125 137.828125 121.855469 138.21875 120.910156 C 138.613281 119.964844 138.957031 119 139.253906 118.019531 C 139.550781 117.042969 139.800781 116.050781 140 115.042969 C 140.199219 114.039062 140.347656 113.027344 140.449219 112.007812 C 140.550781 110.992188 140.597656 109.96875 140.597656 108.945312 C 140.597656 107.410156 140.675781 105.875 140.824219 104.347656 C 140.976562 102.820312 141.199219 101.300781 141.5 99.796875 C 141.800781 98.289062 142.171875 96.800781 142.617188 95.332031 C 143.066406 93.863281 143.582031 92.417969 144.167969 90.996094 C 144.757812 89.578125 145.414062 88.191406 146.136719 86.835938 C 146.859375 85.484375 147.648438 84.167969 148.503906 82.890625 C 149.355469 81.613281 150.269531 80.378906 151.246094 79.191406 C 152.21875 78.003906 153.25 76.867188 154.335938 75.78125 C 155.421875 74.695312 156.558594 73.667969 157.746094 72.691406 C 158.933594 71.71875 160.164062 70.804688 161.441406 69.949219 C 162.71875 69.097656 164.035156 68.308594 165.390625 67.585938 C 166.746094 66.859375 168.132812 66.203125 169.550781 65.617188 C 170.96875 65.027344 172.414062 64.511719 173.882812 64.066406 C 175.355469 63.621094 176.84375 63.246094 178.347656 62.949219 C 179.855469 62.648438 181.371094 62.421875 182.902344 62.273438 C 184.429688 62.121094 185.960938 62.046875 187.496094 62.046875 C 189.035156 62.046875 190.566406 62.121094 192.09375 62.273438 C 193.625 62.421875 195.140625 62.648438 196.648438 62.949219 C 198.152344 63.246094 199.640625 63.621094 201.113281 64.066406 C 202.582031 64.511719 204.027344 65.027344 205.445312 65.617188 C 206.863281 66.203125 208.25 66.859375 209.605469 67.585938 C 210.960938 68.308594 212.277344 69.097656 213.554688 69.949219 C 214.832031 70.804688 216.0625 71.71875 217.25 72.691406 C 218.4375 73.667969 219.574219 74.695312 220.660156 75.78125 C 221.746094 76.867188 222.777344 78.003906 223.75 79.191406 C 224.726562 80.378906 225.640625 81.613281 226.492188 82.890625 C 227.347656 84.167969 228.132812 85.484375 228.859375 86.835938 C 229.582031 88.191406 230.238281 89.578125 230.828125 90.996094 C 231.414062 92.417969 231.929688 93.863281 232.375 95.332031 C 232.824219 96.800781 233.195312 98.289062 233.496094 99.796875 C 233.792969 101.300781 234.019531 102.820312 234.171875 104.347656 C 234.320312 105.875 234.394531 107.410156 234.394531 108.945312 C 234.394531 110.480469 234.320312 112.011719 234.171875 113.542969 C 234.019531 115.070312 233.792969 116.589844 233.496094 118.09375 C 233.195312 119.601562 232.824219 121.089844 232.375 122.558594 C 231.929688 124.027344 231.414062 125.472656 230.828125 126.890625 C 230.238281 128.3125 229.582031 129.699219 228.859375 131.054688 C 228.132812 132.40625 227.347656 133.722656 226.492188 135 C 225.640625 136.277344 224.726562 137.511719 223.75 138.695312 C 222.777344 139.882812 221.746094 141.019531 220.660156 142.105469 C 219.574219 143.195312 218.4375 144.222656 217.25 145.199219 C 216.0625 146.171875 214.832031 147.085938 213.554688 147.941406 C 212.277344 148.792969 210.960938 149.582031 209.605469 150.304688 C 208.25 151.03125 206.863281 151.6875 205.445312 152.273438 C 204.027344 152.863281 202.582031 153.378906 201.113281 153.824219 C 199.640625 154.269531 198.152344 154.644531 196.648438 154.941406 C 195.140625 155.242188 193.625 155.46875 192.09375 155.617188 C 190.566406 155.769531 189.035156 155.84375 187.496094 155.84375 C 186.472656 155.84375 185.453125 155.894531 184.433594 155.996094 C 183.414062 156.09375 182.402344 156.246094 181.398438 156.445312 C 180.394531 156.644531 179.402344 156.894531 178.421875 157.191406 C 177.441406 157.488281 176.480469 157.832031 175.535156 158.222656 C 174.585938 158.617188 173.664062 159.054688 172.757812 159.535156 C 171.855469 160.019531 170.980469 160.542969 170.128906 161.113281 C 169.277344 161.683594 168.457031 162.292969 167.664062 162.941406 C 166.871094 163.589844 166.113281 164.277344 165.390625 165 C 164.667969 165.726562 163.980469 166.484375 163.328125 167.273438 C 162.679688 168.066406 162.070312 168.886719 161.5 169.738281 C 160.933594 170.589844 160.40625 171.46875 159.925781 172.371094 C 159.441406 173.273438 159.003906 174.199219 158.613281 175.144531 C 158.222656 176.089844 157.875 177.054688 157.578125 178.035156 C 157.28125 179.011719 157.03125 180.003906 156.832031 181.007812 C 156.632812 182.015625 156.484375 183.027344 156.382812 184.042969 C 156.28125 185.0625 156.230469 186.085938 156.230469 187.109375 L 156.230469 257.457031 C 156.230469 258.480469 156.28125 259.503906 156.382812 260.519531 C 156.484375 261.539062 156.632812 262.550781 156.832031 263.554688 C 157.03125 264.5625 157.28125 265.554688 157.578125 266.53125 C 157.875 267.511719 158.21875 268.476562 158.613281 269.421875 C 159.003906 270.367188 159.441406 271.292969 159.925781 272.195312 C 160.40625 273.097656 160.933594 273.976562 161.5 274.828125 C 162.070312 275.679688 162.679688 276.5 163.328125 277.292969 C 163.980469 278.082031 164.664062 278.839844 165.390625 279.566406 C 166.113281 280.289062 166.871094 280.976562 167.664062 281.625 C 168.453125 282.273438 169.277344 282.882812 170.128906 283.453125 C 170.980469 284.023438 171.855469 284.546875 172.757812 285.03125 C 173.664062 285.511719 174.585938 285.949219 175.53125 286.34375 C 176.480469 286.734375 177.441406 287.078125 178.421875 287.375 C 179.402344 287.671875 180.394531 287.921875 181.398438 288.121094 C 182.402344 288.320312 183.414062 288.472656 184.433594 288.570312 C 185.453125 288.671875 186.472656 288.722656 187.496094 288.722656 C 188.523438 288.722656 189.542969 288.671875 190.5625 288.570312 C 191.582031 288.472656 192.59375 288.320312 193.597656 288.121094 C 194.601562 287.921875 195.59375 287.671875 196.574219 287.375 C 197.554688 287.078125 198.515625 286.734375 199.460938 286.34375 C 200.410156 285.949219 201.332031 285.511719 202.238281 285.03125 C 203.140625 284.546875 204.015625 284.023438 204.867188 283.453125 C 205.71875 282.882812 206.539062 282.273438 207.332031 281.625 C 208.125 280.976562 208.882812 280.289062 209.605469 279.566406 C 210.328125 278.839844 211.015625 278.082031 211.667969 277.292969 C 212.316406 276.5 212.925781 275.679688 213.496094 274.828125 C 214.0625 273.976562 214.589844 273.097656 215.070312 272.195312 C 215.554688 271.292969 215.992188 270.367188 216.382812 269.421875 C 216.773438 268.476562 217.121094 267.511719 217.417969 266.53125 C 217.714844 265.554688 217.964844 264.5625 218.164062 263.554688 C 218.363281 262.550781 218.511719 261.539062 218.613281 260.519531 C 218.714844 259.503906 218.761719 258.480469 218.761719 257.457031 L 218.761719 213.765625 C 221.5625 212.929688 224.320312 211.980469 227.042969 210.921875 C 229.765625 209.867188 232.441406 208.699219 235.070312 207.429688 C 237.699219 206.15625 240.273438 204.78125 242.792969 203.304688 C 245.3125 201.828125 247.765625 200.25 250.160156 198.578125 C 252.550781 196.902344 254.875 195.136719 257.125 193.277344 C 259.378906 191.417969 261.550781 189.46875 263.648438 187.4375 C 265.746094 185.402344 267.757812 183.289062 269.683594 181.09375 C 271.609375 178.898438 273.445312 176.632812 275.191406 174.292969 C 276.9375 171.949219 278.589844 169.542969 280.140625 167.070312 C 281.695312 164.597656 283.148438 162.066406 284.496094 159.476562 C 285.847656 156.886719 287.09375 154.25 288.234375 151.558594 C 289.375 148.871094 290.40625 146.140625 291.328125 143.371094 C 292.25 140.597656 293.058594 137.796875 293.753906 134.960938 C 294.453125 132.125 295.035156 129.265625 295.503906 126.382812 C 295.972656 123.5 296.328125 120.601562 296.566406 117.691406 C 296.800781 114.78125 296.921875 111.867188 296.925781 108.945312 Z M 296.925781 108.945312 " fill-opacity="1" fill-rule="nonzero"/></g></svg>