<svg xmlns="http://www.w3.org/2000/svg" xmlns:xlink="http://www.w3.org/1999/xlink" width="500" zoomAndPan="magnify" viewBox="0 0 375 374.999991" height="500" preserveAspectRatio="xMidYMid meet" version="1.0"><defs><clipPath id="a1e83d28c6"><path d="M 109 3.28125 L 266 3.28125 L 266 171 L 109 171 Z M 109 3.28125 " clip-rule="nonzero"/></clipPath><clipPath id="6bd4ef76b5"><path d="M 109 204 L 266 204 L 266 371.53125 L 109 371.53125 Z M 109 204 " clip-rule="nonzero"/></clipPath></defs><rect x="-37.5" width="450" fill="#ffffff" y="-37.499999" height="449.999989" fill-opacity="1"/><rect x="-37.5" width="450" fill="#252732" y="-37.499999" height="449.999989" fill-opacity="1"/><g clip-path="url(#a1e83d28c6)"><path fill="#ffffff" d="M 215.871094 89.902344 C 215.871094 92.082031 214.105469 93.859375 211.929688 93.859375 L 194.472656 93.859375 L 194.472656 112.351562 C 194.472656 114.527344 192.707031 116.292969 190.527344 116.292969 L 184.472656 116.292969 C 182.292969 116.292969 180.527344 114.527344 180.527344 112.351562 L 180.527344 93.859375 L 163.070312 93.859375 C 160.894531 93.859375 159.128906 92.082031 159.128906 89.902344 L 159.128906 84.222656 C 159.128906 82.042969 160.894531 80.28125 163.070312 80.28125 L 180.527344 80.28125 L 180.527344 61.984375 C 180.527344 59.792969 182.292969 58.03125 184.472656 58.03125 L 190.527344 58.03125 C 192.707031 58.03125 194.472656 59.792969 194.472656 61.984375 L 194.472656 80.28125 L 211.929688 80.28125 C 214.105469 80.28125 215.871094 82.042969 215.871094 84.222656 Z M 257.804688 62.605469 L 206.503906 11.289062 C 201.417969 6.214844 194.679688 3.417969 187.5 3.417969 C 180.320312 3.417969 173.582031 6.214844 168.496094 11.289062 L 117.195312 62.605469 C 112.109375 67.675781 109.324219 74.429688 109.324219 81.59375 C 109.324219 88.773438 112.109375 95.523438 117.195312 100.597656 L 187.5 170.902344 L 257.804688 100.597656 C 262.890625 95.523438 265.675781 88.773438 265.675781 81.59375 C 265.675781 74.429688 262.890625 67.675781 257.804688 62.605469 " fill-opacity="1" fill-rule="nonzero"/></g><g clip-path="url(#6bd4ef76b5)"><path fill="#ffffff" d="M 209.640625 300.542969 C 211.1875 302.085938 211.1875 304.582031 209.640625 306.125 L 205.628906 310.152344 C 204.886719 310.882812 203.886719 311.308594 202.828125 311.308594 C 201.78125 311.308594 200.785156 310.882812 200.042969 310.152344 L 187.707031 297.804688 L 174.628906 310.882812 C 173.851562 311.648438 172.839844 312.039062 171.832031 312.039062 C 170.832031 312.039062 169.8125 311.648438 169.042969 310.882812 L 164.761719 306.601562 C 164.019531 305.859375 163.605469 304.859375 163.605469 303.800781 C 163.605469 302.769531 164.019531 301.757812 164.761719 301.015625 L 177.839844 287.9375 L 165.492188 275.601562 C 164.75 274.859375 164.335938 273.851562 164.335938 272.804688 C 164.335938 271.757812 164.75 270.761719 165.492188 270.019531 L 169.519531 266.003906 C 170.285156 265.222656 171.296875 264.847656 172.304688 264.847656 C 173.316406 264.847656 174.324219 265.222656 175.101562 266.003906 L 187.4375 278.339844 L 200.371094 265.40625 C 201.148438 264.628906 202.160156 264.25 203.167969 264.25 C 204.179688 264.25 205.1875 264.628906 205.957031 265.40625 L 210.238281 269.6875 C 210.980469 270.429688 211.394531 271.429688 211.394531 272.476562 C 211.394531 273.523438 210.980469 274.53125 210.238281 275.273438 L 197.304688 288.207031 Z M 257.804688 274.703125 L 187.5 204.394531 L 117.195312 274.703125 C 112.109375 279.785156 109.324219 286.527344 109.324219 293.703125 C 109.324219 300.882812 112.109375 307.632812 117.195312 312.707031 L 168.496094 364.023438 C 173.582031 369.097656 180.320312 371.894531 187.5 371.894531 C 194.679688 371.894531 201.417969 369.097656 206.503906 364.023438 L 257.804688 312.707031 C 262.890625 307.632812 265.675781 300.882812 265.675781 293.703125 C 265.675781 286.527344 262.890625 279.785156 257.804688 274.703125 " fill-opacity="1" fill-rule="nonzero"/></g><path fill="#ffffff" d="M 313.222656 190.734375 C 313.222656 192.910156 311.457031 194.675781 309.265625 194.675781 L 266.6875 194.675781 C 264.507812 194.675781 262.746094 192.910156 262.746094 190.734375 L 262.746094 184.578125 C 262.746094 182.398438 264.507812 180.625 266.6875 180.625 L 309.265625 180.625 C 311.457031 180.625 313.222656 182.398438 313.222656 184.578125 Z M 363.867188 168.652344 L 312.550781 117.351562 C 307.480469 112.277344 300.726562 109.480469 293.550781 109.480469 C 286.371094 109.480469 279.632812 112.277344 274.558594 117.351562 L 204.238281 187.644531 L 274.558594 257.960938 C 279.632812 263.035156 286.371094 265.832031 293.550781 265.832031 C 300.726562 265.832031 307.480469 263.035156 312.550781 257.960938 L 363.867188 206.644531 C 374.339844 196.171875 374.339844 179.128906 363.867188 168.652344 " fill-opacity="1" fill-rule="nonzero"/><path fill="#ffffff" d="M 105.476562 185.417969 L 68.554688 185.417969 C 66.378906 185.417969 64.613281 183.652344 64.613281 181.476562 L 64.613281 177.179688 C 64.613281 174.992188 66.378906 173.226562 68.554688 173.226562 L 105.476562 173.226562 C 107.65625 173.226562 109.421875 174.992188 109.421875 177.179688 L 109.421875 181.476562 C 109.421875 183.652344 107.65625 185.417969 105.476562 185.417969 Z M 109.421875 198.457031 C 109.421875 200.636719 107.65625 202.402344 105.476562 202.402344 L 68.554688 202.402344 C 66.378906 202.402344 64.613281 200.636719 64.613281 198.457031 L 64.613281 194.164062 C 64.613281 191.972656 66.378906 190.210938 68.554688 190.210938 L 105.476562 190.210938 C 107.65625 190.210938 109.421875 191.972656 109.421875 194.164062 Z M 100.441406 117.351562 C 95.367188 112.277344 88.628906 109.480469 81.449219 109.480469 C 74.273438 109.480469 67.519531 112.277344 62.449219 117.351562 L 11.132812 168.652344 C 0.660156 179.128906 0.660156 196.171875 11.132812 206.644531 L 62.449219 257.960938 C 67.519531 263.035156 74.273438 265.832031 81.449219 265.832031 C 88.628906 265.832031 95.367188 263.035156 100.441406 257.960938 L 170.761719 187.644531 L 100.441406 117.351562 " fill-opacity="1" fill-rule="nonzero"/></svg>