<svg xmlns="http://www.w3.org/2000/svg" xmlns:xlink="http://www.w3.org/1999/xlink" width="500" zoomAndPan="magnify" viewBox="0 0 375 374.999991" height="500" preserveAspectRatio="xMidYMid meet" version="1.0"><defs><clipPath id="881b33211f"><path d="M 8.4375 0 L 366.9375 0 L 366.9375 375 L 8.4375 375 Z M 8.4375 0 " clip-rule="nonzero"/></clipPath></defs><g clip-path="url(#881b33211f)"><path fill="#ffffff" d="M 301.875 37.515625 L 284.464844 37.515625 L 284.464844 11.519531 C 284.464844 5.265625 279.375 0.222656 273.167969 0.222656 C 266.914062 0.222656 261.875 5.308594 261.875 11.519531 L 261.875 37.5625 L 106.636719 37.5625 L 106.636719 11.519531 C 106.636719 5.265625 101.550781 0.222656 95.34375 0.222656 C 89.089844 0.222656 84.046875 5.308594 84.046875 11.519531 L 84.046875 37.5625 L 73.082031 37.5625 C 37.375 37.5625 8.4375 66.5 8.4375 102.203125 L 8.4375 310.132812 C 8.4375 345.839844 37.375 374.777344 73.082031 374.777344 L 301.875 374.777344 C 337.578125 374.777344 366.515625 345.839844 366.515625 310.132812 L 366.515625 102.203125 C 366.5625 66.5 337.578125 37.515625 301.875 37.515625 Z M 261.828125 49.464844 L 261.828125 72.941406 C 261.828125 79.195312 266.914062 84.234375 273.121094 84.234375 C 279.375 84.234375 284.417969 79.148438 284.417969 72.941406 L 284.417969 50.351562 C 291.652344 54.550781 296.550781 62.390625 296.550781 71.351562 C 296.550781 84.75 285.675781 95.625 272.28125 95.625 C 258.886719 95.625 248.011719 84.75 248.011719 71.351562 C 248.105469 61.691406 253.707031 53.382812 261.828125 49.464844 Z M 84 49.882812 L 84 72.941406 C 84 79.195312 89.089844 84.234375 95.296875 84.234375 C 101.550781 84.234375 106.589844 79.148438 106.589844 72.941406 L 106.589844 49.882812 C 114.292969 53.945312 119.519531 62.019531 119.519531 71.304688 C 119.519531 84.703125 108.644531 95.578125 95.25 95.578125 C 81.855469 95.578125 70.980469 84.703125 70.980469 71.304688 C 71.074219 62.019531 76.347656 53.945312 84 49.882812 Z M 343.925781 310.085938 C 343.925781 333.285156 325.070312 352.09375 301.917969 352.09375 L 73.082031 352.09375 C 49.882812 352.09375 31.074219 333.238281 31.074219 310.085938 L 31.074219 137.863281 L 343.925781 137.863281 Z M 343.925781 310.085938 " fill-opacity="1" fill-rule="nonzero"/></g><path fill="#ffffff" d="M 106.964844 203.066406 L 75.648438 203.066406 C 73.125 203.066406 71.074219 201.011719 71.074219 198.492188 L 71.074219 167.171875 C 71.074219 164.652344 73.125 162.601562 75.648438 162.601562 L 106.964844 162.601562 C 109.484375 162.601562 111.539062 164.652344 111.539062 167.171875 L 111.539062 198.492188 C 111.492188 201.011719 109.484375 203.066406 106.964844 203.066406 Z M 106.964844 203.066406 " fill-opacity="1" fill-rule="nonzero"/><path fill="#ffffff" d="M 106.964844 267.289062 L 75.648438 267.289062 C 73.125 267.289062 71.074219 265.234375 71.074219 262.714844 L 71.074219 231.394531 C 71.074219 228.875 73.125 226.824219 75.648438 226.824219 L 106.964844 226.824219 C 109.484375 226.824219 111.539062 228.875 111.539062 231.394531 L 111.539062 262.714844 C 111.492188 265.28125 109.484375 267.289062 106.964844 267.289062 Z M 106.964844 267.289062 " fill-opacity="1" fill-rule="nonzero"/><path fill="#ffffff" d="M 106.964844 331.558594 L 75.648438 331.558594 C 73.125 331.558594 71.074219 329.503906 71.074219 326.984375 L 71.074219 295.664062 C 71.074219 293.144531 73.125 291.089844 75.648438 291.089844 L 106.964844 291.089844 C 109.484375 291.089844 111.539062 293.144531 111.539062 295.664062 L 111.539062 327.03125 C 111.492188 329.503906 109.484375 331.558594 106.964844 331.558594 Z M 106.964844 331.558594 " fill-opacity="1" fill-rule="nonzero"/><path fill="#ffffff" d="M 171.1875 203.066406 L 139.871094 203.066406 C 137.347656 203.066406 135.296875 201.011719 135.296875 198.492188 L 135.296875 167.171875 C 135.296875 164.652344 137.347656 162.601562 139.871094 162.601562 L 171.1875 162.601562 C 173.707031 162.601562 175.761719 164.652344 175.761719 167.171875 L 175.761719 198.492188 C 175.761719 201.011719 173.707031 203.066406 171.1875 203.066406 Z M 171.1875 203.066406 " fill-opacity="1" fill-rule="nonzero"/><path fill="#ffffff" d="M 171.1875 267.289062 L 139.871094 267.289062 C 137.347656 267.289062 135.296875 265.234375 135.296875 262.714844 L 135.296875 231.394531 C 135.296875 228.875 137.347656 226.824219 139.871094 226.824219 L 171.1875 226.824219 C 173.707031 226.824219 175.761719 228.875 175.761719 231.394531 L 175.761719 262.714844 C 175.761719 265.28125 173.707031 267.289062 171.1875 267.289062 Z M 171.1875 267.289062 " fill-opacity="1" fill-rule="nonzero"/><path fill="#ffffff" d="M 171.1875 331.558594 L 139.871094 331.558594 C 137.347656 331.558594 135.296875 329.503906 135.296875 326.984375 L 135.296875 295.664062 C 135.296875 293.144531 137.347656 291.089844 139.871094 291.089844 L 171.1875 291.089844 C 173.707031 291.089844 175.761719 293.144531 175.761719 295.664062 L 175.761719 327.03125 C 175.761719 329.503906 173.707031 331.558594 171.1875 331.558594 Z M 171.1875 331.558594 " fill-opacity="1" fill-rule="nonzero"/><path fill="#ffffff" d="M 235.457031 203.066406 L 204.140625 203.066406 C 201.617188 203.066406 199.566406 201.011719 199.566406 198.492188 L 199.566406 167.171875 C 199.566406 164.652344 201.617188 162.601562 204.140625 162.601562 L 235.457031 162.601562 C 237.976562 162.601562 240.03125 164.652344 240.03125 167.171875 L 240.03125 198.492188 C 239.984375 201.011719 237.976562 203.066406 235.457031 203.066406 Z M 235.457031 203.066406 " fill-opacity="1" fill-rule="nonzero"/><path fill="#ffffff" d="M 235.457031 267.289062 L 204.140625 267.289062 C 201.617188 267.289062 199.566406 265.234375 199.566406 262.714844 L 199.566406 231.394531 C 199.566406 228.875 201.617188 226.824219 204.140625 226.824219 L 235.457031 226.824219 C 237.976562 226.824219 240.03125 228.875 240.03125 231.394531 L 240.03125 262.714844 C 239.984375 265.28125 237.976562 267.289062 235.457031 267.289062 Z M 235.457031 267.289062 " fill-opacity="1" fill-rule="nonzero"/><path fill="#ffffff" d="M 235.457031 331.558594 L 204.140625 331.558594 C 201.617188 331.558594 199.566406 329.503906 199.566406 326.984375 L 199.566406 295.664062 C 199.566406 293.144531 201.617188 291.089844 204.140625 291.089844 L 235.457031 291.089844 C 237.976562 291.089844 240.03125 293.144531 240.03125 295.664062 L 240.03125 327.03125 C 239.984375 329.503906 237.976562 331.558594 235.457031 331.558594 Z M 235.457031 331.558594 " fill-opacity="1" fill-rule="nonzero"/><path fill="#ffffff" d="M 299.726562 203.066406 L 268.410156 203.066406 C 265.886719 203.066406 263.835938 201.011719 263.835938 198.492188 L 263.835938 167.171875 C 263.835938 164.652344 265.886719 162.601562 268.410156 162.601562 L 299.726562 162.601562 C 302.246094 162.601562 304.300781 164.652344 304.300781 167.171875 L 304.300781 198.492188 C 304.253906 201.011719 302.199219 203.066406 299.726562 203.066406 Z M 299.726562 203.066406 " fill-opacity="1" fill-rule="nonzero"/><path fill="#ffffff" d="M 299.726562 267.289062 L 268.410156 267.289062 C 265.886719 267.289062 263.835938 265.234375 263.835938 262.714844 L 263.835938 231.394531 C 263.835938 228.875 265.886719 226.824219 268.410156 226.824219 L 299.726562 226.824219 C 302.246094 226.824219 304.300781 228.875 304.300781 231.394531 L 304.300781 262.714844 C 304.253906 265.28125 302.199219 267.289062 299.726562 267.289062 Z M 299.726562 267.289062 " fill-opacity="1" fill-rule="nonzero"/></svg>