<svg xmlns="http://www.w3.org/2000/svg" xmlns:xlink="http://www.w3.org/1999/xlink" width="500" zoomAndPan="magnify" viewBox="0 0 375 374.999991" height="500" preserveAspectRatio="xMidYMid meet" version="1.0"><defs><clipPath id="63920c785b"><path d="M 129 15.234375 L 200 15.234375 L 200 62 L 129 62 Z M 129 15.234375 " clip-rule="nonzero"/></clipPath><clipPath id="a9dba4fab2"><path d="M 279 301 L 375 301 L 375 359.484375 L 279 359.484375 Z M 279 301 " clip-rule="nonzero"/></clipPath></defs><rect x="-37.5" width="450" fill="#ffffff" y="-37.499999" height="449.999989" fill-opacity="1"/><rect x="-37.5" width="450" fill="#ffffff" y="-37.499999" height="449.999989" fill-opacity="1"/><path fill="#d9d9d9" d="M 342.347656 202.851562 C 342.347656 152.554688 317.765625 105.195312 276.597656 76.179688 C 274.378906 74.613281 271.316406 75.148438 269.753906 77.367188 C 268.191406 79.585938 268.722656 82.648438 270.941406 84.210938 C 309.507812 111.386719 332.53125 155.738281 332.53125 202.851562 C 332.53125 207.667969 332.292969 212.523438 331.824219 217.285156 C 331.554688 219.980469 333.527344 222.386719 336.230469 222.660156 C 336.394531 222.675781 336.558594 222.683594 336.714844 222.683594 C 339.210938 222.683594 341.347656 220.785156 341.601562 218.253906 C 342.09375 213.167969 342.347656 207.984375 342.347656 202.851562 Z M 342.347656 202.851562 " fill-opacity="1" fill-rule="evenodd"/><path fill="#d9d9d9" d="M 239.1875 149.3125 C 231.933594 142.304688 223.273438 136.761719 213.667969 133.140625 C 216.28125 136.417969 218.71875 140.214844 220.945312 144.507812 C 222.585938 147.660156 224.066406 151.015625 225.394531 154.542969 C 230.339844 153.078125 234.980469 151.328125 239.1875 149.3125 Z M 239.1875 149.3125 " fill-opacity="1" fill-rule="evenodd"/><path fill="#d9d9d9" d="M 246.027344 156.863281 C 240.746094 159.613281 234.832031 161.960938 228.464844 163.863281 C 231.410156 174.335938 233.128906 185.910156 233.507812 197.9375 L 261.796875 197.9375 C 260.78125 182.496094 255.050781 168.332031 246.027344 156.863281 Z M 246.027344 156.863281 " fill-opacity="1" fill-rule="evenodd"/><path fill="#d9d9d9" d="M 261.789062 207.765625 L 233.5 207.765625 C 233.128906 219.800781 231.402344 231.378906 228.457031 241.84375 C 234.824219 243.742188 240.738281 246.089844 246.019531 248.84375 C 255.050781 237.371094 260.78125 223.207031 261.789062 207.765625 Z M 261.789062 207.765625 " fill-opacity="1" fill-rule="evenodd"/><path fill="#d9d9d9" d="M 239.1875 256.390625 C 234.980469 254.371094 230.339844 252.625 225.394531 251.160156 C 224.058594 254.679688 222.585938 258.046875 220.945312 261.199219 C 218.71875 265.488281 216.28125 269.289062 213.667969 272.5625 C 223.273438 268.953125 231.933594 263.402344 239.1875 256.390625 Z M 239.1875 256.390625 " fill-opacity="1" fill-rule="evenodd"/><path fill="#d9d9d9" d="M 192.394531 276.609375 C 201.746094 273.871094 210.082031 263.5 215.804688 248.769531 C 208.402344 247.246094 200.511719 246.320312 192.394531 246.050781 Z M 192.394531 276.609375 " fill-opacity="1" fill-rule="evenodd"/><path fill="#d9d9d9" d="M 192.394531 236.21875 C 201.574219 236.503906 210.53125 237.601562 218.925781 239.410156 C 221.609375 229.894531 223.296875 219.128906 223.683594 207.765625 L 192.394531 207.765625 Z M 192.394531 236.21875 " fill-opacity="1" fill-rule="evenodd"/><path fill="#d9d9d9" d="M 192.394531 197.9375 L 223.683594 197.9375 C 223.296875 186.574219 221.609375 175.808594 218.925781 166.292969 C 210.53125 168.101562 201.574219 169.199219 192.394531 169.488281 Z M 192.394531 197.9375 " fill-opacity="1" fill-rule="evenodd"/><path fill="#d9d9d9" d="M 192.394531 159.652344 C 200.511719 159.382812 208.402344 158.457031 215.804688 156.933594 C 210.082031 142.207031 201.746094 131.832031 192.394531 129.097656 Z M 192.394531 159.652344 " fill-opacity="1" fill-rule="evenodd"/><path fill="#d9d9d9" d="M 182.570312 159.652344 L 182.570312 129.097656 C 173.21875 131.832031 164.886719 142.195312 159.164062 156.933594 C 166.5625 158.457031 174.457031 159.390625 182.570312 159.652344 Z M 182.570312 159.652344 " fill-opacity="1" fill-rule="evenodd"/><path fill="#d9d9d9" d="M 182.570312 169.488281 C 173.390625 169.199219 164.441406 168.101562 156.042969 166.292969 C 153.363281 175.808594 151.671875 186.566406 151.285156 197.9375 L 182.570312 197.9375 Z M 182.570312 169.488281 " fill-opacity="1" fill-rule="evenodd"/><path fill="#d9d9d9" d="M 182.570312 207.765625 L 151.285156 207.765625 C 151.671875 219.128906 153.355469 229.894531 156.042969 239.410156 C 164.441406 237.601562 173.390625 236.503906 182.570312 236.21875 Z M 182.570312 207.765625 " fill-opacity="1" fill-rule="evenodd"/><path fill="#d9d9d9" d="M 182.570312 246.050781 C 174.457031 246.320312 166.5625 247.246094 159.164062 248.769531 C 164.886719 263.5 173.21875 273.871094 182.570312 276.609375 Z M 182.570312 246.050781 " fill-opacity="1" fill-rule="evenodd"/><path fill="#d9d9d9" d="M 154.019531 261.207031 C 152.382812 258.054688 150.902344 254.6875 149.574219 251.167969 C 144.636719 252.625 139.996094 254.378906 135.777344 256.398438 C 143.03125 263.410156 151.695312 268.960938 161.308594 272.578125 C 158.6875 269.296875 156.246094 265.496094 154.019531 261.207031 Z M 154.019531 261.207031 " fill-opacity="1" fill-rule="evenodd"/><path fill="#d9d9d9" d="M 128.941406 248.84375 C 134.222656 246.089844 140.132812 243.742188 146.503906 241.84375 C 143.554688 231.371094 141.828125 219.792969 141.460938 207.765625 L 113.171875 207.765625 C 114.1875 223.207031 119.917969 237.371094 128.941406 248.84375 Z M 128.941406 248.84375 " fill-opacity="1" fill-rule="evenodd"/><path fill="#d9d9d9" d="M 113.171875 197.9375 L 141.460938 197.9375 C 141.828125 185.902344 143.554688 174.335938 146.503906 163.863281 C 140.132812 161.960938 134.222656 159.621094 128.941406 156.871094 C 119.917969 168.332031 114.1875 182.496094 113.171875 197.9375 Z M 113.171875 197.9375 " fill-opacity="1" fill-rule="evenodd"/><path fill="#d9d9d9" d="M 135.777344 149.3125 C 139.996094 151.335938 144.628906 153.078125 149.574219 154.542969 C 150.910156 151.015625 152.390625 147.648438 154.019531 144.507812 C 156.246094 140.207031 158.6875 136.417969 161.300781 133.140625 C 151.695312 136.753906 143.03125 142.304688 135.777344 149.3125 Z M 135.777344 149.3125 " fill-opacity="1" fill-rule="evenodd"/><path fill="#d9d9d9" d="M 212.585938 86.90625 C 214.640625 80.894531 220.324219 76.5625 227.023438 76.5625 C 233.710938 76.5625 239.402344 80.902344 241.449219 86.90625 L 245.078125 86.90625 L 245.078125 63.347656 L 222.617188 63.347656 C 219.898438 63.347656 217.703125 61.15625 217.703125 58.4375 L 217.703125 43.058594 C 217.703125 40.339844 219.90625 38.148438 222.617188 38.148438 L 230.96875 38.148438 L 228.324219 34.0625 L 208.953125 34.0625 L 208.953125 86.914062 L 212.585938 86.914062 Z M 212.585938 86.90625 " fill-opacity="1" fill-rule="evenodd"/><path fill="#d9d9d9" d="M 227.015625 86.390625 C 224.015625 86.390625 221.578125 88.828125 221.578125 91.816406 C 221.578125 94.8125 224.015625 97.246094 227.015625 97.246094 C 230.003906 97.246094 232.441406 94.804688 232.441406 91.816406 C 232.449219 88.828125 230.011719 86.390625 227.015625 86.390625 Z M 227.015625 86.390625 " fill-opacity="1" fill-rule="evenodd"/><path fill="#d9d9d9" d="M 147.738281 97.253906 C 150.738281 97.253906 153.175781 94.8125 153.175781 91.824219 C 153.175781 88.835938 150.738281 86.398438 147.738281 86.398438 C 144.75 86.398438 142.3125 88.835938 142.3125 91.824219 C 142.3125 94.8125 144.742188 97.253906 147.738281 97.253906 Z M 147.738281 97.253906 " fill-opacity="1" fill-rule="evenodd"/><path fill="#d9d9d9" d="M 162.167969 86.90625 L 199.136719 86.90625 L 199.136719 71.808594 L 129.890625 71.808594 L 129.890625 86.90625 L 133.304688 86.90625 C 135.359375 80.894531 141.042969 76.5625 147.730469 76.5625 C 154.429688 76.5625 160.121094 80.902344 162.167969 86.90625 Z M 162.167969 86.90625 " fill-opacity="1" fill-rule="evenodd"/><g clip-path="url(#63920c785b)"><path fill="#d9d9d9" d="M 129.890625 61.980469 L 199.136719 61.980469 L 199.136719 15.425781 C 199.136719 15.402344 199.09375 15.351562 199.0625 15.351562 L 129.964844 15.351562 C 129.941406 15.351562 129.890625 15.394531 129.890625 15.425781 Z M 129.890625 61.980469 " fill-opacity="1" fill-rule="evenodd"/></g><path fill="#d9d9d9" d="M 227.53125 47.964844 L 227.53125 53.53125 L 240.949219 53.53125 L 237.339844 47.964844 Z M 227.53125 47.964844 " fill-opacity="1" fill-rule="evenodd"/><path fill="#d9d9d9" d="M 42.445312 202.851562 C 42.445312 155.738281 65.46875 111.386719 104.035156 84.210938 C 106.253906 82.648438 106.785156 79.578125 105.222656 77.367188 C 103.65625 75.148438 100.59375 74.613281 98.375 76.179688 C 57.207031 105.195312 32.621094 152.546875 32.621094 202.851562 C 32.621094 209.207031 33.011719 215.601562 33.773438 221.863281 C 34.078125 224.363281 36.199219 226.179688 38.644531 226.179688 C 38.84375 226.179688 39.046875 226.171875 39.253906 226.144531 C 41.945312 225.820312 43.863281 223.363281 43.527344 220.667969 C 42.804688 214.804688 42.445312 208.804688 42.445312 202.851562 Z M 42.445312 202.851562 " fill-opacity="1" fill-rule="evenodd"/><path fill="#d9d9d9" d="M 100.75 272.480469 L 52.957031 245.855469 L 43.746094 250.988281 L 89.394531 278.808594 Z M 100.75 272.480469 " fill-opacity="1" fill-rule="evenodd"/><path fill="#d9d9d9" d="M 79.527344 284.304688 L 33.890625 256.480469 L 30.269531 258.488281 L 76.375 286.054688 Z M 79.527344 284.304688 " fill-opacity="1" fill-rule="evenodd"/><path fill="#d9d9d9" d="M 66.46875 291.582031 L 20.363281 264.015625 L 5.167969 272.480469 L 52.957031 299.109375 Z M 66.46875 291.582031 " fill-opacity="1" fill-rule="evenodd"/><path fill="#d9d9d9" d="M 71.609375 299.960938 L 57.871094 307.613281 L 57.871094 355.675781 L 105.933594 328.902344 L 105.933594 280.839844 L 94.191406 287.382812 L 94.191406 311.960938 C 94.191406 313.714844 93.257812 315.335938 91.734375 316.210938 L 78.980469 323.589844 C 78.21875 324.03125 77.375 324.253906 76.523438 324.253906 C 75.671875 324.253906 74.828125 324.03125 74.066406 323.597656 C 72.550781 322.710938 71.609375 321.089844 71.609375 319.339844 Z M 71.609375 299.960938 " fill-opacity="1" fill-rule="evenodd"/><path fill="#d9d9d9" d="M 81.4375 294.488281 L 81.4375 310.832031 L 84.367188 309.136719 L 84.367188 292.851562 Z M 81.4375 294.488281 " fill-opacity="1" fill-rule="evenodd"/><path fill="#d9d9d9" d="M 48.046875 355.683594 L 48.046875 307.613281 L -0.015625 280.839844 L -0.015625 328.902344 Z M 48.046875 355.683594 " fill-opacity="1" fill-rule="evenodd"/><path fill="#d9d9d9" d="M 129.777344 341.390625 C 128.816406 343.925781 130.09375 346.761719 132.632812 347.726562 C 150.140625 354.359375 168.59375 357.722656 187.484375 357.722656 C 210.621094 357.722656 232.886719 352.738281 253.648438 342.910156 C 256.105469 341.757812 257.152344 338.828125 255.992188 336.371094 C 254.828125 333.921875 251.898438 332.875 249.449219 334.035156 C 230.011719 343.230469 209.164062 347.898438 187.492188 347.898438 C 169.796875 347.898438 152.511719 344.746094 136.121094 338.539062 C 133.574219 337.566406 130.742188 338.84375 129.777344 341.390625 Z M 129.777344 341.390625 " fill-opacity="1" fill-rule="evenodd"/><g clip-path="url(#a9dba4fab2)"><path fill="#d9d9d9" d="M 327.125 301.949219 C 298.050781 301.949219 279.261719 316.164062 279.261719 338.179688 L 279.261719 359.679688 L 295.003906 359.679688 L 295.003906 342.601562 C 295.003906 339.890625 297.199219 337.6875 299.917969 337.6875 C 302.628906 337.6875 304.832031 339.890625 304.832031 342.601562 L 304.832031 359.679688 L 349.414062 359.679688 L 349.414062 342.601562 C 349.414062 339.890625 351.617188 337.6875 354.324219 337.6875 C 357.042969 337.6875 359.238281 339.890625 359.238281 342.601562 L 359.238281 359.679688 L 374.984375 359.679688 L 374.984375 338.179688 C 374.984375 316.164062 356.199219 301.949219 327.125 301.949219 Z M 327.125 301.949219 " fill-opacity="1" fill-rule="evenodd"/></g><path fill="#d9d9d9" d="M 303.734375 267.976562 C 303.734375 280.875 314.222656 291.371094 327.125 291.371094 C 340.023438 291.371094 350.511719 280.882812 350.511719 267.976562 C 350.511719 255.082031 340.023438 244.585938 327.125 244.585938 C 314.222656 244.585938 303.734375 255.082031 303.734375 267.976562 Z M 303.734375 267.976562 " fill-opacity="1" fill-rule="evenodd"/></svg>