<svg xmlns="http://www.w3.org/2000/svg" xmlns:xlink="http://www.w3.org/1999/xlink" width="500" zoomAndPan="magnify" viewBox="0 0 375 374.999991" height="500" preserveAspectRatio="xMidYMid meet" version="1.0"><defs><clipPath id="92c5b4b8fb"><path d="M 58 122 L 289 122 L 289 294.09375 L 58 294.09375 Z M 58 122 " clip-rule="nonzero"/></clipPath><clipPath id="05f3baf17f"><path d="M 143 259.144531 L 180 259.144531 L 180 294 L 143 294 Z M 143 259.144531 " clip-rule="nonzero"/></clipPath><clipPath id="13423de78f"><path d="M 0 81.09375 L 109 81.09375 L 109 214 L 0 214 Z M 0 81.09375 " clip-rule="nonzero"/></clipPath></defs><rect x="-37.5" width="450" fill="#ffffff" y="-37.499999" height="449.999989" fill-opacity="1"/><rect x="-37.5" width="450" fill="#02d7c2" y="-37.499999" height="449.999989" fill-opacity="1"/><path fill="#252732" d="M 156.597656 151.835938 C 174.351562 156.871094 193.394531 154.585938 209.457031 145.511719 L 289.078125 210.160156 C 290.734375 211.484375 292.15625 213.140625 293.21875 214.960938 L 315.839844 194.230469 L 272.417969 124.710938 L 246.417969 134.21875 L 212.371094 122.0625 C 205.253906 119.511719 197.371094 120.570312 191.144531 124.84375 C 180.347656 132.296875 168.621094 138.324219 156.300781 142.730469 C 153.816406 143.65625 152.527344 146.371094 153.421875 148.855469 C 153.949219 150.3125 155.109375 151.441406 156.597656 151.835938 " fill-opacity="1" fill-rule="nonzero"/><g clip-path="url(#92c5b4b8fb)"><path fill="#252732" d="M 163.257812 253.015625 C 164.480469 242.75 157.128906 233.476562 146.863281 232.285156 C 145.605469 232.117188 144.3125 232.117188 143.054688 232.25 C 145.503906 222.214844 139.410156 212.082031 129.375 209.5625 C 123.644531 208.140625 117.550781 209.53125 112.980469 213.308594 L 111.722656 214.332031 C 111.625 204 103.144531 195.71875 92.8125 195.851562 C 88.539062 195.886719 84.433594 197.410156 81.121094 200.125 L 69.164062 210.027344 L 58.234375 202.011719 L 103.773438 127.03125 C 118.777344 127.394531 133.78125 126.898438 148.71875 125.539062 C 159.316406 122.226562 170.507812 121.300781 181.503906 122.855469 C 172.828125 128.257812 163.554688 132.726562 153.949219 136.203125 C 147.824219 138.390625 144.675781 145.113281 146.863281 151.207031 C 148.152344 154.785156 151.070312 157.5 154.710938 158.527344 C 172.664062 163.628906 191.839844 161.9375 208.628906 153.789062 L 284.707031 215.558594 C 289.476562 219.433594 290.171875 226.457031 286.296875 231.222656 C 282.585938 235.792969 275.960938 236.65625 271.191406 233.277344 L 214.261719 192.375 C 212.703125 191.25 210.550781 191.648438 209.425781 193.203125 C 208.332031 194.761719 208.695312 196.878906 210.21875 198.003906 L 265.132812 237.484375 C 270.398438 241.292969 271.558594 248.644531 267.78125 253.878906 C 264.007812 259.109375 256.6875 260.304688 251.453125 256.5625 L 199.589844 219.300781 C 198 218.207031 195.8125 218.640625 194.753906 220.195312 C 193.691406 221.753906 194.058594 223.839844 195.546875 224.929688 L 241.285156 257.820312 C 246.550781 261.59375 247.746094 268.949219 243.96875 274.214844 C 240.191406 279.480469 232.839844 280.671875 227.574219 276.894531 L 184.550781 245.996094 C 182.996094 244.871094 180.808594 245.265625 179.71875 246.824219 C 178.625 248.378906 178.957031 250.5 180.480469 251.625 L 213.433594 275.304688 C 218.070312 278.683594 219.128906 285.210938 215.75 289.847656 C 212.371094 294.484375 205.914062 295.542969 201.246094 292.230469 L 184.386719 280.074219 C 189.320312 271.035156 185.976562 259.675781 176.933594 254.707031 C 172.761719 252.421875 167.859375 251.824219 163.257812 253.015625 " fill-opacity="1" fill-rule="nonzero"/></g><path fill="#252732" d="M 86.652344 235.03125 L 100.496094 223.605469 C 105.496094 219.46875 106.160156 212.046875 102.019531 207.082031 C 97.878906 202.113281 90.558594 201.417969 85.558594 205.492188 L 71.714844 216.949219 C 66.746094 221.15625 66.148438 228.542969 70.324219 233.476562 C 74.464844 238.34375 81.683594 239.039062 86.652344 235.03125 " fill-opacity="1" fill-rule="nonzero"/><path fill="#252732" d="M 132.355469 236.789062 C 137.324219 232.617188 137.953125 225.195312 133.78125 220.230469 C 129.671875 215.359375 122.386719 214.632812 117.417969 218.671875 L 92.347656 239.371094 C 87.378906 243.511719 86.683594 250.929688 90.824219 255.898438 C 94.964844 260.867188 102.316406 261.5625 107.285156 257.488281 L 132.355469 236.789062 " fill-opacity="1" fill-rule="nonzero"/><path fill="#252732" d="M 132.554688 276.101562 L 152.160156 259.90625 C 157.164062 255.765625 157.824219 248.347656 153.683594 243.378906 C 149.546875 238.410156 142.191406 237.714844 137.226562 241.824219 L 117.617188 257.984375 C 112.617188 262.125 111.953125 269.542969 116.09375 274.511719 C 120.234375 279.480469 127.554688 280.175781 132.554688 276.101562 " fill-opacity="1" fill-rule="nonzero"/><g clip-path="url(#05f3baf17f)"><path fill="#252732" d="M 160.472656 262.058594 L 147.492188 272.789062 C 142.523438 276.929688 141.828125 284.347656 145.96875 289.316406 C 150.109375 294.285156 157.460938 294.980469 162.429688 290.90625 L 175.445312 280.175781 C 180.414062 276.035156 181.109375 268.617188 176.96875 263.648438 C 172.828125 258.679688 165.476562 257.984375 160.472656 262.058594 " fill-opacity="1" fill-rule="nonzero"/></g><g clip-path="url(#13423de78f)"><path fill="#252732" d="M 108.113281 106.53125 L 42.835938 213.96875 L 0.972656 188.535156 L 66.25 81.09375 L 108.113281 106.53125 " fill-opacity="1" fill-rule="nonzero"/></g><path fill="#252732" d="M 312.160156 82.714844 L 374.027344 181.777344 L 332.464844 207.710938 L 270.597656 108.683594 L 312.160156 82.714844 " fill-opacity="1" fill-rule="nonzero"/></svg>