<svg xmlns="http://www.w3.org/2000/svg" xmlns:xlink="http://www.w3.org/1999/xlink" width="500" zoomAndPan="magnify" viewBox="0 0 375 374.999991" height="500" preserveAspectRatio="xMidYMid meet" version="1.0"><defs><clipPath id="6e8a6e28a3"><path d="M 0 0 L 375 0 L 375 357.75 L 0 357.75 Z M 0 0 " clip-rule="nonzero"/></clipPath></defs><rect x="-37.5" width="450" fill="#ffffff" y="-37.499999" height="449.999989" fill-opacity="1"/><rect x="-37.5" width="450" fill="#02d7c2" y="-37.499999" height="449.999989" fill-opacity="1"/><g clip-path="url(#6e8a6e28a3)"><path fill="#252732" d="M 363.613281 0.09375 C 363.039062 0.101562 362.445312 0.152344 361.878906 0.253906 L 361.847656 0.253906 L 304.613281 10.027344 C 300.972656 10.652344 297.921875 13.148438 296.574219 16.589844 C 296.574219 16.597656 296.574219 16.609375 296.574219 16.621094 L 270.019531 84.71875 L 10.832031 91.183594 C 7.851562 91.257812 5.054688 92.601562 3.117188 94.847656 C 1.175781 97.09375 0.246094 100.078125 0.605469 103.046875 L 14.914062 221.398438 C 15.503906 226.363281 19.609375 230.304688 24.59375 230.691406 L 209.371094 245.386719 L 245.992188 274.195312 C 246.035156 274.226562 246.078125 274.257812 246.121094 274.289062 C 246.160156 274.316406 246.210938 274.328125 246.25 274.355469 C 246.289062 274.382812 246.332031 274.421875 246.378906 274.449219 C 253.0625 279.441406 254.71875 286.234375 253.773438 290.011719 C 253.234375 292.164062 252.414062 293.746094 250.460938 294.964844 C 248.511719 296.183594 245.136719 297.0625 239.371094 296.734375 C 239.347656 296.734375 239.328125 296.734375 239.304688 296.734375 C 239.121094 296.726562 238.910156 296.730469 238.726562 296.734375 L 238.628906 296.734375 L 18.253906 297.375 L 18.21875 297.375 C 12.429688 297.339844 7.554688 302.195312 7.578125 307.984375 C 7.601562 313.773438 12.492188 318.617188 18.285156 318.53125 L 18.316406 318.53125 L 34.425781 318.5 C 28.4375 322.316406 24.425781 328.988281 24.425781 336.570312 C 24.425781 348.359375 34.082031 358.015625 45.871094 358.015625 C 57.660156 358.015625 67.316406 348.359375 67.316406 336.570312 C 67.316406 328.949219 63.292969 322.207031 57.253906 318.402344 L 238.726562 317.890625 C 232.191406 321.574219 227.730469 328.574219 227.730469 336.570312 C 227.730469 348.359375 237.386719 358.015625 249.175781 358.015625 C 260.96875 358.015625 270.625 348.359375 270.625 336.570312 C 270.625 326.332031 263.351562 317.699219 253.710938 315.605469 C 262.824219 312.382812 269.824219 305.734375 274.160156 295.574219 C 274.222656 295.449219 274.277344 295.320312 274.320312 295.1875 C 277.644531 281.898438 271.75 267.449219 259.59375 258.050781 C 259.5625 258.019531 259.53125 257.988281 259.5 257.957031 C 259.46875 257.933594 259.464844 257.882812 259.433594 257.859375 C 259.328125 257.730469 259.210938 257.613281 259.082031 257.503906 L 233.132812 237.152344 L 314.0625 29.863281 L 365.410156 21.117188 L 365.441406 21.117188 C 370.835938 20.25 374.78125 15.222656 374.316406 9.769531 C 373.851562 4.300781 369.085938 0.015625 363.609375 0.0898438 Z M 262.203125 101.054688 L 247.285156 139.316406 L 227.832031 139.316406 L 227.832031 101.921875 Z M 220.40625 102.113281 L 220.40625 139.3125 L 184.492188 139.3125 L 184.492188 103.015625 Z M 177.0625 103.175781 L 177.0625 139.316406 L 141.148438 139.316406 L 141.148438 104.074219 Z M 133.722656 104.269531 L 133.722656 139.3125 L 97.808594 139.3125 L 97.808594 105.167969 L 133.722656 104.265625 Z M 90.378906 105.363281 L 90.378906 139.316406 L 54.464844 139.316406 L 54.464844 106.261719 Z M 47.039062 106.421875 L 47.039062 139.316406 L 20.707031 139.316406 L 16.816406 107.195312 Z M 21.605469 146.710938 L 47.039062 146.710938 L 47.039062 180.308594 L 25.65625 180.308594 Z M 54.464844 146.710938 L 90.378906 146.710938 L 90.378906 180.308594 L 54.464844 180.308594 Z M 97.808594 146.710938 L 133.722656 146.710938 L 133.722656 180.308594 L 97.808594 180.308594 Z M 141.148438 146.710938 L 177.0625 146.710938 L 177.0625 180.308594 L 141.148438 180.308594 Z M 184.492188 146.710938 L 220.40625 146.710938 L 220.40625 180.308594 L 184.492188 180.308594 Z M 227.832031 146.710938 L 244.425781 146.710938 L 231.304688 180.308594 L 227.832031 180.308594 Z M 26.5625 187.703125 L 47.042969 187.703125 L 47.042969 211.820312 L 29.296875 210.40625 L 26.5625 187.707031 Z M 54.472656 187.703125 L 90.386719 187.703125 L 90.386719 215.257812 L 54.472656 212.398438 Z M 97.8125 187.703125 L 133.726562 187.703125 L 133.726562 218.699219 L 97.8125 215.871094 Z M 141.15625 187.703125 L 177.070312 187.703125 L 177.070312 222.171875 L 141.15625 219.308594 Z M 184.496094 187.703125 L 220.410156 187.703125 L 220.410156 208.152344 L 213.59375 225.613281 C 212.710938 225.183594 211.746094 224.921875 210.765625 224.839844 L 184.496094 222.75 Z M 227.839844 187.703125 L 228.386719 187.703125 L 227.839844 189.214844 Z M 45.890625 323.96875 C 52.898438 323.96875 58.496094 329.566406 58.496094 336.574219 C 58.496094 343.582031 52.898438 349.144531 45.890625 349.144531 C 38.882812 349.144531 33.285156 343.582031 33.285156 336.574219 C 33.285156 329.566406 38.882812 323.96875 45.890625 323.96875 Z M 249.1875 323.96875 C 256.195312 323.96875 261.792969 329.566406 261.792969 336.574219 C 261.792969 343.582031 256.195312 349.144531 249.1875 349.144531 C 242.179688 349.144531 236.585938 343.582031 236.585938 336.574219 C 236.585938 329.566406 242.179688 323.96875 249.1875 323.96875 Z M 45.890625 329.949219 C 42.082031 329.949219 39.042969 332.992188 39.042969 336.796875 C 39.042969 340.605469 42.082031 343.613281 45.890625 343.613281 C 49.699219 343.613281 52.738281 340.605469 52.738281 336.796875 C 52.738281 332.992188 49.699219 329.949219 45.890625 329.949219 Z M 249.1875 329.949219 C 245.378906 329.949219 242.339844 332.992188 242.339844 336.796875 C 242.339844 340.605469 245.378906 343.613281 249.1875 343.613281 C 252.996094 343.613281 256.035156 340.605469 256.035156 336.796875 C 256.035156 332.992188 252.996094 329.949219 249.1875 329.949219 Z M 249.1875 329.949219 " fill-opacity="1" fill-rule="nonzero"/></g></svg>