<svg xmlns="http://www.w3.org/2000/svg" xmlns:xlink="http://www.w3.org/1999/xlink" width="500" zoomAndPan="magnify" viewBox="0 0 375 374.999991" height="500" preserveAspectRatio="xMidYMid meet" version="1.0"><rect x="-37.5" width="450" fill="#ffffff" y="-37.499999" height="449.999989" fill-opacity="1"/><rect x="-37.5" width="450" fill="#d9d9d9" y="-37.499999" height="449.999989" fill-opacity="1"/><path fill="#02d7c2" d="M 187.5 0 C 122.339844 0 64.863281 33.375 31.25 83.984375 L 31.25 46.875 L 0 46.875 L 0 140.625 L 93.75 140.625 L 93.75 109.375 L 52.15625 109.375 C 79.140625 62.707031 129.550781 31.25 187.5 31.25 C 273.976562 31.25 343.75 101.023438 343.75 187.5 L 375 187.5 C 375 84.132812 290.867188 0 187.5 0 Z M 109.375 109.375 L 109.375 265.625 L 265.625 265.625 L 265.625 109.375 Z M 140.625 140.625 L 171.875 140.625 L 171.875 171.875 L 203.125 171.875 L 203.125 140.625 L 234.375 140.625 L 234.375 234.375 L 140.625 234.375 Z M 0 187.5 C 0 290.867188 84.132812 375 187.5 375 C 252.660156 375 310.136719 341.625 343.75 291.015625 L 343.75 328.125 L 375 328.125 L 375 234.375 L 281.25 234.375 L 281.25 265.625 L 322.84375 265.625 C 295.859375 312.292969 245.449219 343.75 187.5 343.75 C 101.023438 343.75 31.25 273.976562 31.25 187.5 Z M 0 187.5 " fill-opacity="1" fill-rule="nonzero"/></svg>