<svg xmlns="http://www.w3.org/2000/svg" xmlns:xlink="http://www.w3.org/1999/xlink" width="500" zoomAndPan="magnify" viewBox="0 0 375 374.999991" height="500" preserveAspectRatio="xMidYMid meet" version="1.0"><defs><clipPath id="a5954412ea"><path d="M 12.65625 0 L 288 0 L 288 375 L 12.65625 375 Z M 12.65625 0 " clip-rule="nonzero"/></clipPath><clipPath id="cd279b97bd"><path d="M 162 56 L 362.15625 56 L 362.15625 319 L 162 319 Z M 162 56 " clip-rule="nonzero"/></clipPath></defs><rect x="-37.5" width="450" fill="#ffffff" y="-37.499999" height="449.999989" fill-opacity="1"/><rect x="-37.5" width="450" fill="#02d7c2" y="-37.499999" height="449.999989" fill-opacity="1"/><path fill="#252732" d="M 43.878906 218.722656 L 93.832031 218.722656 L 93.832031 268.675781 L 43.878906 268.675781 Z M 43.878906 218.722656 " fill-opacity="1" fill-rule="nonzero"/><path fill="#252732" d="M 43.878906 143.789062 L 93.832031 143.789062 L 93.832031 193.746094 L 43.878906 193.746094 Z M 43.878906 143.789062 " fill-opacity="1" fill-rule="nonzero"/><path fill="#252732" d="M 43.878906 293.65625 L 93.832031 293.65625 L 93.832031 343.609375 L 43.878906 343.609375 Z M 43.878906 293.65625 " fill-opacity="1" fill-rule="nonzero"/><g clip-path="url(#a5954412ea)"><path fill="#252732" d="M 274.921875 343.609375 C 274.921875 344.222656 274.890625 344.835938 274.832031 345.445312 C 274.769531 346.058594 274.679688 346.664062 274.5625 347.265625 C 274.441406 347.867188 274.292969 348.460938 274.113281 349.046875 C 273.9375 349.636719 273.730469 350.210938 273.496094 350.78125 C 273.261719 351.347656 273 351.898438 272.710938 352.441406 C 272.421875 352.980469 272.105469 353.507812 271.765625 354.019531 C 271.425781 354.527344 271.058594 355.019531 270.667969 355.496094 C 270.28125 355.96875 269.867188 356.421875 269.433594 356.855469 C 269 357.289062 268.546875 357.703125 268.074219 358.089844 C 267.597656 358.480469 267.105469 358.847656 266.597656 359.1875 C 266.085938 359.527344 265.558594 359.84375 265.019531 360.132812 C 264.476562 360.421875 263.925781 360.683594 263.359375 360.917969 C 262.789062 361.152344 262.214844 361.359375 261.625 361.535156 C 261.039062 361.714844 260.445312 361.863281 259.84375 361.984375 C 259.242188 362.101562 258.636719 362.191406 258.023438 362.253906 C 257.414062 362.3125 256.800781 362.34375 256.1875 362.34375 L 43.878906 362.34375 C 43.265625 362.34375 42.652344 362.3125 42.042969 362.253906 C 41.429688 362.191406 40.824219 362.101562 40.222656 361.984375 C 39.621094 361.863281 39.027344 361.714844 38.441406 361.535156 C 37.851562 361.359375 37.277344 361.152344 36.710938 360.917969 C 36.144531 360.683594 35.589844 360.421875 35.046875 360.132812 C 34.507812 359.84375 33.980469 359.527344 33.46875 359.1875 C 32.960938 358.84375 32.46875 358.480469 31.992188 358.089844 C 31.519531 357.703125 31.066406 357.289062 30.632812 356.855469 C 30.199219 356.421875 29.785156 355.96875 29.398438 355.496094 C 29.007812 355.019531 28.644531 354.527344 28.300781 354.019531 C 27.960938 353.507812 27.644531 352.980469 27.355469 352.441406 C 27.066406 351.898438 26.804688 351.347656 26.570312 350.78125 C 26.335938 350.210938 26.128906 349.636719 25.953125 349.046875 C 25.773438 348.460938 25.625 347.867188 25.503906 347.265625 C 25.386719 346.664062 25.296875 346.058594 25.234375 345.445312 C 25.175781 344.835938 25.144531 344.222656 25.144531 343.609375 L 25.144531 31.390625 C 25.144531 30.777344 25.175781 30.164062 25.234375 29.554688 C 25.296875 28.941406 25.386719 28.335938 25.503906 27.734375 C 25.625 27.132812 25.773438 26.539062 25.953125 25.953125 C 26.128906 25.363281 26.335938 24.789062 26.570312 24.21875 C 26.804688 23.652344 27.066406 23.101562 27.355469 22.558594 C 27.644531 22.019531 27.960938 21.492188 28.300781 20.980469 C 28.644531 20.472656 29.007812 19.980469 29.398438 19.503906 C 29.785156 19.03125 30.199219 18.578125 30.632812 18.144531 C 31.066406 17.710938 31.519531 17.296875 31.992188 16.910156 C 32.46875 16.519531 32.960938 16.152344 33.472656 15.8125 C 33.980469 15.472656 34.507812 15.15625 35.046875 14.867188 C 35.589844 14.578125 36.144531 14.316406 36.710938 14.082031 C 37.277344 13.847656 37.851562 13.640625 38.441406 13.464844 C 39.027344 13.285156 39.621094 13.136719 40.222656 13.015625 C 40.824219 12.898438 41.429688 12.804688 42.042969 12.746094 C 42.652344 12.6875 43.265625 12.65625 43.878906 12.65625 L 256.1875 12.65625 C 256.800781 12.65625 257.414062 12.6875 258.023438 12.746094 C 258.636719 12.804688 259.242188 12.898438 259.84375 13.015625 C 260.445312 13.136719 261.039062 13.285156 261.625 13.464844 C 262.214844 13.640625 262.789062 13.847656 263.359375 14.082031 C 263.925781 14.316406 264.476562 14.578125 265.019531 14.867188 C 265.558594 15.15625 266.085938 15.472656 266.597656 15.8125 C 267.105469 16.152344 267.597656 16.519531 268.074219 16.910156 C 268.546875 17.296875 269 17.710938 269.433594 18.144531 C 269.867188 18.578125 270.28125 19.03125 270.667969 19.503906 C 271.058594 19.980469 271.425781 20.472656 271.765625 20.980469 C 272.105469 21.492188 272.421875 22.019531 272.710938 22.558594 C 273 23.101562 273.261719 23.652344 273.496094 24.21875 C 273.730469 24.789062 273.9375 25.363281 274.113281 25.953125 C 274.292969 26.539062 274.441406 27.132812 274.5625 27.734375 C 274.679688 28.335938 274.769531 28.941406 274.832031 29.554688 C 274.890625 30.164062 274.921875 30.777344 274.921875 31.390625 L 274.921875 43.878906 L 287.410156 43.878906 L 287.410156 31.390625 C 287.410156 30.367188 287.359375 29.347656 287.261719 28.328125 C 287.160156 27.3125 287.011719 26.300781 286.8125 25.296875 C 286.609375 24.296875 286.363281 23.304688 286.066406 22.328125 C 285.769531 21.347656 285.425781 20.386719 285.035156 19.441406 C 284.644531 18.496094 284.207031 17.574219 283.722656 16.671875 C 283.242188 15.769531 282.71875 14.894531 282.148438 14.042969 C 281.582031 13.191406 280.972656 12.371094 280.324219 11.582031 C 279.675781 10.792969 278.988281 10.035156 278.265625 9.3125 C 277.542969 8.589844 276.785156 7.902344 275.996094 7.253906 C 275.207031 6.605469 274.386719 5.996094 273.535156 5.429688 C 272.683594 4.859375 271.808594 4.335938 270.90625 3.855469 C 270.003906 3.371094 269.082031 2.933594 268.136719 2.542969 C 267.191406 2.152344 266.230469 1.808594 265.25 1.511719 C 264.273438 1.214844 263.28125 0.96875 262.28125 0.765625 C 261.277344 0.566406 260.265625 0.417969 259.25 0.316406 C 258.230469 0.21875 257.210938 0.167969 256.1875 0.167969 L 43.878906 0.167969 C 42.855469 0.167969 41.835938 0.21875 40.816406 0.316406 C 39.800781 0.417969 38.789062 0.566406 37.789062 0.765625 C 36.785156 0.96875 35.792969 1.214844 34.816406 1.511719 C 33.835938 1.808594 32.875 2.152344 31.929688 2.542969 C 30.984375 2.933594 30.0625 3.371094 29.160156 3.855469 C 28.257812 4.335938 27.382812 4.859375 26.53125 5.429688 C 25.683594 5.996094 24.863281 6.605469 24.070312 7.253906 C 23.28125 7.902344 22.523438 8.589844 21.800781 9.3125 C 21.078125 10.035156 20.390625 10.792969 19.742188 11.582031 C 19.09375 12.371094 18.484375 13.191406 17.917969 14.042969 C 17.351562 14.894531 16.824219 15.769531 16.34375 16.671875 C 15.859375 17.574219 15.425781 18.496094 15.03125 19.441406 C 14.640625 20.386719 14.296875 21.347656 14 22.328125 C 13.703125 23.304688 13.457031 24.296875 13.257812 25.296875 C 13.058594 26.300781 12.90625 27.3125 12.804688 28.328125 C 12.707031 29.347656 12.65625 30.367188 12.65625 31.390625 L 12.65625 343.609375 C 12.65625 344.632812 12.707031 345.652344 12.804688 346.671875 C 12.90625 347.6875 13.058594 348.699219 13.257812 349.703125 C 13.457031 350.703125 13.703125 351.695312 14 352.671875 C 14.296875 353.652344 14.640625 354.613281 15.03125 355.558594 C 15.425781 356.503906 15.859375 357.425781 16.34375 358.328125 C 16.824219 359.230469 17.351562 360.105469 17.917969 360.957031 C 18.484375 361.808594 19.09375 362.628906 19.742188 363.417969 C 20.390625 364.207031 21.078125 364.964844 21.800781 365.6875 C 22.523438 366.410156 23.28125 367.097656 24.070312 367.746094 C 24.863281 368.394531 25.683594 369.003906 26.53125 369.570312 C 27.382812 370.140625 28.257812 370.664062 29.160156 371.144531 C 30.0625 371.628906 30.984375 372.066406 31.929688 372.457031 C 32.875 372.847656 33.835938 373.191406 34.816406 373.488281 C 35.792969 373.785156 36.785156 374.03125 37.789062 374.234375 C 38.789062 374.433594 39.800781 374.582031 40.816406 374.683594 C 41.835938 374.78125 42.855469 374.832031 43.878906 374.832031 L 256.1875 374.832031 C 257.210938 374.832031 258.230469 374.78125 259.25 374.683594 C 260.265625 374.582031 261.277344 374.433594 262.28125 374.234375 C 263.28125 374.03125 264.273438 373.785156 265.25 373.488281 C 266.230469 373.191406 267.191406 372.847656 268.136719 372.457031 C 269.082031 372.066406 270.003906 371.628906 270.90625 371.144531 C 271.808594 370.664062 272.683594 370.140625 273.535156 369.570312 C 274.386719 369.003906 275.207031 368.394531 275.996094 367.746094 C 276.785156 367.097656 277.542969 366.410156 278.265625 365.6875 C 278.988281 364.964844 279.675781 364.207031 280.324219 363.417969 C 280.972656 362.628906 281.582031 361.808594 282.148438 360.957031 C 282.71875 360.105469 283.242188 359.230469 283.722656 358.328125 C 284.207031 357.425781 284.644531 356.503906 285.035156 355.558594 C 285.425781 354.613281 285.769531 353.652344 286.066406 352.671875 C 286.363281 351.695312 286.609375 350.703125 286.8125 349.703125 C 287.011719 348.699219 287.160156 347.6875 287.261719 346.671875 C 287.359375 345.652344 287.410156 344.632812 287.410156 343.609375 L 287.410156 331.121094 L 274.921875 331.121094 Z M 274.921875 343.609375 " fill-opacity="1" fill-rule="nonzero"/></g><path fill="#252732" d="M 125.054688 218.722656 L 150.035156 218.722656 L 150.035156 268.675781 L 125.054688 268.675781 Z M 125.054688 218.722656 " fill-opacity="1" fill-rule="nonzero"/><path fill="#252732" d="M 125.054688 143.789062 L 150.035156 143.789062 L 150.035156 193.746094 L 125.054688 193.746094 Z M 125.054688 143.789062 " fill-opacity="1" fill-rule="nonzero"/><path fill="#252732" d="M 125.054688 343.609375 L 175.011719 343.609375 L 175.011719 331.121094 L 162.523438 331.121094 C 161.703125 331.121094 160.890625 331.042969 160.085938 330.882812 C 159.28125 330.722656 158.5 330.484375 157.742188 330.171875 C 156.984375 329.855469 156.265625 329.472656 155.582031 329.015625 C 154.902344 328.5625 154.269531 328.042969 153.691406 327.464844 C 153.113281 326.882812 152.59375 326.253906 152.136719 325.570312 C 151.683594 324.890625 151.296875 324.167969 150.984375 323.410156 C 150.671875 322.65625 150.433594 321.875 150.273438 321.070312 C 150.113281 320.265625 150.035156 319.453125 150.035156 318.632812 L 150.035156 293.65625 L 125.054688 293.65625 Z M 125.054688 343.609375 " fill-opacity="1" fill-rule="nonzero"/><path fill="#252732" d="M 206.234375 331.121094 L 256.1875 331.121094 L 256.1875 343.609375 L 206.234375 343.609375 Z M 206.234375 331.121094 " fill-opacity="1" fill-rule="nonzero"/><path fill="#252732" d="M 162.523438 43.878906 L 256.1875 43.878906 L 256.1875 31.390625 L 43.878906 31.390625 L 43.878906 106.324219 L 150.035156 106.324219 L 150.035156 56.367188 C 150.035156 55.546875 150.113281 54.734375 150.273438 53.929688 C 150.433594 53.125 150.671875 52.34375 150.984375 51.589844 C 151.296875 50.832031 151.683594 50.109375 152.136719 49.429688 C 152.59375 48.746094 153.113281 48.117188 153.691406 47.535156 C 154.269531 46.957031 154.902344 46.4375 155.582031 45.984375 C 156.265625 45.527344 156.984375 45.144531 157.742188 44.828125 C 158.5 44.515625 159.28125 44.277344 160.085938 44.117188 C 160.890625 43.957031 161.703125 43.878906 162.523438 43.878906 Z M 162.523438 43.878906 " fill-opacity="1" fill-rule="nonzero"/><g clip-path="url(#cd279b97bd)"><path fill="#252732" d="M 162.523438 56.367188 L 162.523438 318.632812 L 362.34375 318.632812 L 362.34375 56.367188 Z M 262.433594 75.101562 C 263.660156 75.101562 264.886719 75.128906 266.109375 75.191406 C 267.335938 75.25 268.558594 75.339844 269.777344 75.460938 C 271 75.582031 272.214844 75.730469 273.429688 75.910156 C 274.640625 76.089844 275.847656 76.300781 277.050781 76.539062 C 278.253906 76.78125 279.449219 77.046875 280.640625 77.347656 C 281.828125 77.644531 283.011719 77.972656 284.183594 78.328125 C 285.359375 78.683594 286.523438 79.066406 287.675781 79.480469 C 288.832031 79.894531 289.976562 80.335938 291.109375 80.804688 C 292.242188 81.273438 293.363281 81.769531 294.472656 82.292969 C 295.578125 82.820312 296.675781 83.371094 297.757812 83.949219 C 298.835938 84.527344 299.90625 85.128906 300.957031 85.761719 C 302.007812 86.390625 303.042969 87.046875 304.0625 87.730469 C 305.082031 88.410156 306.085938 89.117188 307.070312 89.847656 C 308.054688 90.578125 309.023438 91.332031 309.96875 92.109375 C 310.917969 92.886719 311.847656 93.6875 312.753906 94.511719 C 313.664062 95.335938 314.550781 96.179688 315.417969 97.046875 C 316.285156 97.914062 317.132812 98.804688 317.953125 99.710938 C 318.777344 100.621094 319.578125 101.546875 320.355469 102.496094 C 321.136719 103.445312 321.890625 104.410156 322.621094 105.394531 C 323.351562 106.382812 324.054688 107.382812 324.738281 108.402344 C 325.417969 109.421875 326.074219 110.457031 326.707031 111.511719 C 327.335938 112.5625 327.941406 113.628906 328.519531 114.710938 C 329.097656 115.792969 329.648438 116.886719 330.171875 117.996094 C 330.695312 119.105469 331.191406 120.226562 331.660156 121.359375 C 332.132812 122.492188 332.574219 123.632812 332.984375 124.789062 C 333.398438 125.945312 333.785156 127.109375 334.140625 128.28125 C 334.496094 129.453125 334.824219 130.636719 335.121094 131.828125 C 335.417969 133.015625 335.6875 134.210938 335.925781 135.414062 C 336.164062 136.617188 336.375 137.824219 336.554688 139.039062 C 336.734375 140.25 336.886719 141.46875 337.003906 142.6875 C 337.125 143.910156 337.214844 145.132812 337.277344 146.355469 C 337.335938 147.582031 337.367188 148.808594 337.367188 150.035156 C 337.367188 151.261719 337.335938 152.484375 337.277344 153.710938 C 337.214844 154.933594 337.125 156.15625 337.003906 157.378906 C 336.886719 158.597656 336.734375 159.816406 336.554688 161.027344 C 336.375 162.242188 336.164062 163.449219 335.925781 164.652344 C 335.6875 165.855469 335.417969 167.050781 335.121094 168.242188 C 334.824219 169.429688 334.496094 170.613281 334.140625 171.785156 C 333.785156 172.957031 333.398438 174.121094 332.984375 175.277344 C 332.574219 176.433594 332.132812 177.574219 331.660156 178.710938 C 331.191406 179.84375 330.695312 180.960938 330.171875 182.070312 C 329.648438 183.179688 329.097656 184.273438 328.519531 185.355469 C 327.941406 186.4375 327.335938 187.503906 326.707031 188.558594 C 326.074219 189.609375 325.417969 190.644531 324.738281 191.664062 C 324.054688 192.683594 323.351562 193.6875 322.621094 194.671875 C 321.890625 195.65625 321.136719 196.621094 320.355469 197.570312 C 319.578125 198.519531 318.777344 199.445312 317.953125 200.355469 C 317.132812 201.265625 316.285156 202.152344 315.417969 203.019531 C 314.550781 203.886719 313.664062 204.730469 312.753906 205.554688 C 311.847656 206.378906 310.917969 207.179688 309.96875 207.957031 C 309.023438 208.734375 308.054688 209.488281 307.070312 210.21875 C 306.085938 210.949219 305.082031 211.65625 304.0625 212.339844 C 303.042969 213.019531 302.007812 213.675781 300.957031 214.304688 C 299.90625 214.9375 298.835938 215.539062 297.757812 216.117188 C 296.675781 216.695312 295.578125 217.246094 294.472656 217.773438 C 293.363281 218.296875 292.242188 218.792969 291.109375 219.261719 C 289.976562 219.730469 288.832031 220.171875 287.675781 220.585938 C 286.523438 221 285.359375 221.382812 284.183594 221.738281 C 283.011719 222.097656 281.828125 222.421875 280.640625 222.722656 C 279.449219 223.019531 278.253906 223.289062 277.050781 223.527344 C 275.847656 223.765625 274.640625 223.976562 273.429688 224.15625 C 272.214844 224.335938 271 224.484375 269.777344 224.605469 C 268.558594 224.726562 267.335938 224.816406 266.109375 224.875 C 264.886719 224.9375 263.660156 224.964844 262.433594 224.964844 C 261.207031 224.964844 259.980469 224.9375 258.757812 224.875 C 257.53125 224.816406 256.308594 224.726562 255.089844 224.605469 C 253.867188 224.484375 252.652344 224.335938 251.4375 224.15625 C 250.226562 223.976562 249.015625 223.765625 247.8125 223.527344 C 246.613281 223.289062 245.414062 223.019531 244.226562 222.722656 C 243.035156 222.421875 241.855469 222.097656 240.679688 221.738281 C 239.507812 221.382812 238.34375 221 237.1875 220.585938 C 236.035156 220.171875 234.890625 219.730469 233.757812 219.261719 C 232.625 218.792969 231.503906 218.296875 230.394531 217.773438 C 229.285156 217.246094 228.191406 216.695312 227.109375 216.117188 C 226.027344 215.539062 224.960938 214.9375 223.910156 214.304688 C 222.859375 213.675781 221.820312 213.019531 220.800781 212.339844 C 219.78125 211.65625 218.78125 210.949219 217.796875 210.21875 C 216.808594 209.488281 215.84375 208.734375 214.894531 207.957031 C 213.949219 207.179688 213.019531 206.378906 212.109375 205.554688 C 211.203125 204.730469 210.316406 203.886719 209.449219 203.019531 C 208.582031 202.152344 207.734375 201.265625 206.910156 200.355469 C 206.085938 199.445312 205.285156 198.519531 204.507812 197.570312 C 203.730469 196.621094 202.976562 195.65625 202.246094 194.671875 C 201.515625 193.6875 200.808594 192.683594 200.128906 191.664062 C 199.445312 190.644531 198.792969 189.609375 198.160156 188.558594 C 197.53125 187.503906 196.925781 186.4375 196.347656 185.355469 C 195.769531 184.273438 195.21875 183.179688 194.695312 182.070312 C 194.171875 180.960938 193.671875 179.84375 193.203125 178.710938 C 192.734375 177.574219 192.292969 176.433594 191.878906 175.277344 C 191.46875 174.121094 191.082031 172.957031 190.726562 171.785156 C 190.371094 170.613281 190.042969 169.429688 189.746094 168.242188 C 189.449219 167.050781 189.179688 165.855469 188.941406 164.652344 C 188.699219 163.449219 188.492188 162.242188 188.3125 161.027344 C 188.132812 159.816406 187.980469 158.597656 187.859375 157.378906 C 187.742188 156.15625 187.652344 154.933594 187.589844 153.710938 C 187.53125 152.484375 187.5 151.261719 187.5 150.035156 C 187.5 148.808594 187.53125 147.582031 187.589844 146.355469 C 187.652344 145.132812 187.742188 143.910156 187.859375 142.6875 C 187.980469 141.46875 188.132812 140.25 188.3125 139.039062 C 188.492188 137.824219 188.699219 136.617188 188.941406 135.414062 C 189.179688 134.210938 189.449219 133.015625 189.746094 131.828125 C 190.042969 130.636719 190.371094 129.453125 190.726562 128.28125 C 191.082031 127.109375 191.46875 125.945312 191.878906 124.789062 C 192.292969 123.632812 192.734375 122.492188 193.203125 121.359375 C 193.671875 120.226562 194.171875 119.105469 194.695312 117.996094 C 195.21875 116.886719 195.769531 115.792969 196.347656 114.710938 C 196.925781 113.628906 197.53125 112.5625 198.160156 111.511719 C 198.792969 110.457031 199.445312 109.421875 200.128906 108.402344 C 200.808594 107.382812 201.515625 106.382812 202.246094 105.394531 C 202.976562 104.410156 203.730469 103.445312 204.507812 102.496094 C 205.285156 101.546875 206.085938 100.621094 206.910156 99.710938 C 207.734375 98.804688 208.582031 97.914062 209.449219 97.046875 C 210.316406 96.179688 211.203125 95.335938 212.109375 94.511719 C 213.019531 93.6875 213.949219 92.886719 214.894531 92.109375 C 215.84375 91.332031 216.808594 90.578125 217.796875 89.847656 C 218.78125 89.117188 219.78125 88.410156 220.800781 87.730469 C 221.820312 87.046875 222.859375 86.390625 223.910156 85.761719 C 224.960938 85.128906 226.027344 84.527344 227.109375 83.949219 C 228.191406 83.371094 229.285156 82.820312 230.394531 82.292969 C 231.503906 81.769531 232.625 81.273438 233.757812 80.804688 C 234.890625 80.335938 236.035156 79.894531 237.1875 79.480469 C 238.34375 79.066406 239.507812 78.683594 240.679688 78.328125 C 241.855469 77.972656 243.035156 77.644531 244.226562 77.347656 C 245.414062 77.046875 246.613281 76.78125 247.8125 76.539062 C 249.015625 76.300781 250.226562 76.089844 251.4375 75.910156 C 252.652344 75.730469 253.867188 75.582031 255.089844 75.460938 C 256.308594 75.339844 257.53125 75.25 258.757812 75.191406 C 259.980469 75.128906 261.207031 75.101562 262.433594 75.101562 Z M 343.609375 299.898438 L 181.253906 299.898438 L 181.253906 287.410156 L 343.609375 287.410156 Z M 343.609375 274.921875 L 181.253906 274.921875 L 181.253906 262.433594 L 343.609375 262.433594 Z M 343.609375 249.945312 L 181.253906 249.945312 L 181.253906 237.457031 L 343.609375 237.457031 Z M 343.609375 249.945312 " fill-opacity="1" fill-rule="nonzero"/></g><path fill="#252732" d="M 256.1875 199.988281 L 268.675781 199.988281 L 268.675781 187.5 L 281.167969 187.5 C 281.578125 187.5 281.980469 187.460938 282.382812 187.378906 C 282.785156 187.300781 283.175781 187.179688 283.554688 187.023438 C 283.933594 186.867188 284.292969 186.675781 284.636719 186.449219 C 284.976562 186.21875 285.292969 185.960938 285.582031 185.671875 C 285.871094 185.382812 286.128906 185.066406 286.359375 184.726562 C 286.585938 184.382812 286.777344 184.023438 286.933594 183.644531 C 287.09375 183.265625 287.210938 182.875 287.289062 182.472656 C 287.371094 182.070312 287.410156 181.664062 287.410156 181.253906 L 287.410156 150.035156 C 287.410156 149.625 287.371094 149.21875 287.289062 148.816406 C 287.210938 148.414062 287.09375 148.023438 286.933594 147.644531 C 286.777344 147.265625 286.585938 146.90625 286.359375 146.5625 C 286.128906 146.222656 285.871094 145.90625 285.582031 145.617188 C 285.292969 145.328125 284.976562 145.070312 284.636719 144.839844 C 284.292969 144.613281 283.933594 144.421875 283.554688 144.265625 C 283.175781 144.109375 282.785156 143.988281 282.382812 143.910156 C 281.980469 143.828125 281.578125 143.789062 281.167969 143.789062 L 249.945312 143.789062 L 249.945312 125.054688 L 287.410156 125.054688 L 287.410156 112.566406 L 268.675781 112.566406 L 268.675781 100.078125 L 256.1875 100.078125 L 256.1875 112.566406 L 243.699219 112.566406 C 243.289062 112.566406 242.882812 112.605469 242.480469 112.6875 C 242.078125 112.765625 241.6875 112.886719 241.308594 113.042969 C 240.929688 113.199219 240.570312 113.390625 240.230469 113.621094 C 239.890625 113.847656 239.574219 114.105469 239.285156 114.394531 C 238.996094 114.6875 238.734375 115 238.507812 115.34375 C 238.28125 115.683594 238.085938 116.042969 237.929688 116.421875 C 237.773438 116.800781 237.65625 117.191406 237.574219 117.59375 C 237.496094 117.996094 237.457031 118.402344 237.457031 118.8125 L 237.457031 150.035156 C 237.457031 150.445312 237.496094 150.847656 237.574219 151.25 C 237.65625 151.652344 237.773438 152.042969 237.929688 152.421875 C 238.085938 152.800781 238.28125 153.160156 238.507812 153.503906 C 238.734375 153.84375 238.996094 154.160156 239.285156 154.449219 C 239.574219 154.738281 239.890625 154.996094 240.230469 155.226562 C 240.570312 155.453125 240.929688 155.644531 241.308594 155.800781 C 241.6875 155.960938 242.078125 156.078125 242.480469 156.15625 C 242.882812 156.238281 243.289062 156.277344 243.699219 156.277344 L 274.921875 156.277344 L 274.921875 175.011719 L 237.457031 175.011719 L 237.457031 187.5 L 256.1875 187.5 Z M 256.1875 199.988281 " fill-opacity="1" fill-rule="nonzero"/></svg>