<svg xmlns="http://www.w3.org/2000/svg" xmlns:xlink="http://www.w3.org/1999/xlink" width="500" zoomAndPan="magnify" viewBox="0 0 375 374.999991" height="500" preserveAspectRatio="xMidYMid meet" version="1.0"><path fill="#e7e7e7" d="M 362.5 275 L 343.75 275 L 343.75 181.25 L 362.5 181.25 Z M 294.066406 293.457031 C 290.429688 297.117188 284.449219 297.117188 280.785156 293.457031 C 278.34375 291.015625 274.390625 291.015625 271.949219 293.457031 C 270.726562 294.675781 270.117188 296.289062 270.117188 297.875 C 270.117188 299.488281 270.726562 301.074219 271.949219 302.292969 C 273.730469 304.078125 274.730469 306.445312 274.730469 308.933594 C 274.730469 311.449219 273.730469 313.792969 271.972656 315.550781 C 268.308594 319.214844 262.304688 319.1875 258.640625 315.550781 C 256.175781 313.132812 252.222656 313.160156 249.804688 315.601562 C 248.609375 316.820312 247.996094 318.40625 247.996094 319.996094 C 247.996094 321.605469 248.609375 323.21875 249.851562 324.4375 C 251.609375 326.195312 252.585938 328.515625 252.585938 331.03125 C 252.585938 333.519531 251.609375 335.863281 249.804688 337.671875 C 248.070312 339.429688 245.75 340.40625 243.261719 340.40625 C 243.261719 340.40625 243.238281 340.40625 243.238281 340.40625 C 240.746094 340.40625 238.402344 339.429688 236.597656 337.644531 C 234.179688 335.203125 230.222656 335.203125 227.78125 337.644531 C 226.539062 338.867188 225.953125 340.476562 225.953125 342.066406 C 225.953125 343.675781 226.539062 345.261719 227.78125 346.484375 C 229.539062 348.265625 230.542969 350.632812 230.542969 353.125 C 230.542969 355.613281 229.539062 357.984375 227.808594 359.742188 C 224.097656 363.402344 218.140625 363.378906 214.304688 359.59375 C 214.109375 359.398438 209.714844 355.371094 202.269531 348.972656 C 206.25 340.113281 203.953125 329.296875 195.945312 322.925781 C 192.234375 319.945312 187.792969 318.480469 183.347656 318.285156 C 184.179688 311.035156 181.421875 303.492188 175.242188 298.582031 C 171.53125 295.652344 167.164062 294.1875 162.742188 293.96875 C 162.9375 292.332031 162.988281 290.671875 162.792969 288.988281 C 162.132812 283.152344 159.203125 277.953125 154.636719 274.363281 C 150.097656 270.726562 144.359375 269.066406 138.550781 269.773438 C 136.839844 269.96875 135.203125 270.410156 133.640625 270.972656 C 132.421875 266.722656 129.957031 262.792969 126.269531 259.839844 C 116.820312 252.390625 103.003906 253.980469 95.484375 263.425781 L 87.132812 274 C 71.191406 267.457031 56.640625 263.671875 43.75 262.742188 L 43.75 193.75 L 106.25 193.75 C 109.226562 193.75 112.15625 193.066406 114.625 191.773438 L 155.808594 171.042969 C 160.59375 168.578125 166.578125 168.238281 171.921875 169.824219 L 136.914062 206.6875 C 132.8125 211.253906 130.808594 217.457031 131.445312 223.730469 C 132.054688 229.980469 135.230469 235.667969 140.136719 239.332031 C 148.972656 245.898438 161.449219 244.996094 168.945312 237.378906 L 200.414062 207.910156 C 201.121094 208.421875 272.460938 261.15625 294.359375 280.492188 C 295.945312 281.882812 296.851562 283.910156 296.949219 286.179688 C 297.019531 288.890625 295.972656 291.550781 294.066406 293.457031 Z M 189.722656 345.875 L 179.417969 358.910156 C 176.195312 362.988281 170.238281 363.671875 166.210938 360.472656 C 162.15625 357.273438 161.472656 351.367188 164.648438 347.339844 C 164.648438 347.3125 164.648438 347.3125 164.671875 347.3125 L 175.023438 334.277344 C 176.878906 331.910156 179.636719 330.6875 182.421875 330.6875 C 184.449219 330.6875 186.472656 331.347656 188.160156 332.691406 C 192.234375 335.9375 192.917969 341.84375 189.722656 345.847656 C 189.722656 345.847656 189.722656 345.875 189.722656 345.875 Z M 141.648438 341.113281 C 137.621094 337.890625 136.914062 331.980469 140.085938 327.953125 C 140.085938 327.929688 140.085938 327.929688 140.085938 327.929688 L 154.417969 309.863281 C 156.273438 307.59375 159.007812 306.394531 161.742188 306.394531 C 163.769531 306.394531 165.796875 307.054688 167.480469 308.375 C 171.558594 311.621094 172.265625 317.527344 169.066406 321.53125 C 169.042969 321.558594 169.042969 321.558594 169.042969 321.558594 L 154.832031 339.574219 C 151.609375 343.578125 145.703125 344.238281 141.648438 341.113281 Z M 117.136719 321.726562 C 115.183594 320.164062 113.941406 317.917969 113.648438 315.429688 C 113.355469 312.964844 114.039062 310.523438 115.601562 308.570312 C 115.601562 308.570312 133.714844 285.691406 133.738281 285.667969 C 136.816406 281.785156 142.820312 280.90625 146.898438 284.15625 C 150.878906 287.328125 151.609375 293.285156 148.414062 297.3125 L 130.296875 320.191406 C 127.097656 324.242188 121.214844 324.925781 117.136719 321.726562 Z M 92.652344 302.367188 C 88.597656 299.121094 87.890625 293.1875 91.113281 289.109375 L 105.273438 271.191406 C 107.152344 268.847656 109.910156 267.625 112.695312 267.625 C 114.722656 267.625 116.773438 268.285156 118.503906 269.628906 C 122.535156 272.851562 123.21875 278.757812 120.042969 282.8125 L 105.808594 300.78125 C 102.585938 304.832031 96.679688 305.515625 92.652344 302.367188 Z M 144.996094 162.5 L 125 162.5 L 125 143.75 L 156.25 143.75 L 156.25 157.640625 C 154.125 158.226562 152.050781 158.910156 150.121094 159.910156 Z M 100 175 L 100 25 C 100 18.117188 105.613281 12.5 112.5 12.5 L 143.75 12.5 L 143.75 67.40625 C 143.75 72.460938 146.363281 76.953125 150.757812 79.441406 C 152.90625 80.664062 155.25 81.273438 157.566406 81.273438 C 160.007812 81.273438 162.449219 80.589844 164.671875 79.273438 L 187.5 65.574219 L 210.328125 79.273438 C 214.648438 81.859375 219.847656 81.933594 224.242188 79.441406 C 228.636719 76.953125 231.25 72.460938 231.25 67.40625 L 231.25 12.5 L 262.5 12.5 C 269.382812 12.5 275 18.117188 275 25 L 275 175 C 275 177.222656 274.390625 179.371094 273.289062 181.25 L 258.863281 181.25 C 257.910156 181.25 256.957031 181.03125 256.128906 180.613281 L 215.0625 159.960938 C 210.375 157.542969 205.027344 156.25 199.632812 156.25 C 193.601562 156.25 187.695312 157.886719 182.542969 160.816406 C 178.320312 158.445312 173.582031 157.03125 168.75 156.566406 L 168.75 143.75 C 168.75 136.863281 163.132812 131.25 156.25 131.25 L 125 131.25 C 118.113281 131.25 112.5 136.863281 112.5 143.75 L 112.5 162.5 C 112.5 168.113281 116.234375 172.828125 121.335938 174.390625 L 108.933594 180.640625 C 108.179688 181.03125 107.226562 181.25 106.25 181.25 L 101.707031 181.25 C 100.609375 179.371094 100 177.222656 100 175 Z M 156.25 12.5 L 218.75 12.5 L 218.75 67.40625 C 218.75 67.921875 218.53125 68.308594 218.089844 68.554688 C 217.773438 68.75 217.285156 68.894531 216.746094 68.554688 L 190.722656 52.929688 C 188.746094 51.757812 186.253906 51.757812 184.277344 52.929688 L 158.25 68.554688 C 157.691406 68.894531 157.226562 68.75 156.910156 68.554688 C 156.46875 68.308594 156.25 67.921875 156.25 67.40625 Z M 207.738281 197.777344 C 202.929688 194.359375 196.335938 194.824219 192.066406 198.851562 L 160.253906 228.417969 C 156.882812 231.8125 151.464844 232.175781 147.605469 229.296875 C 145.507812 227.734375 144.164062 225.242188 143.871094 222.484375 C 143.601562 219.726562 144.457031 217.015625 146.09375 215.183594 L 183.714844 175.5625 C 190.210938 168.773438 201.195312 166.871094 209.375 171.09375 L 250.4375 191.722656 C 252.976562 193.066406 255.90625 193.75 258.863281 193.75 L 331.25 193.75 L 331.25 262.671875 C 316.308594 263.425781 305.199219 266.625 299.707031 268.601562 C 274.828125 247.363281 210.667969 199.925781 207.738281 197.777344 Z M 31.25 275 L 12.5 275 L 12.5 181.25 L 31.25 181.25 Z M 362.5 168.75 L 343.75 168.75 C 336.863281 168.75 331.25 174.363281 331.25 181.25 L 286.597656 181.25 C 287.132812 179.222656 287.5 177.148438 287.5 175 L 287.5 25 C 287.5 11.207031 276.292969 0 262.5 0 L 112.5 0 C 98.707031 0 87.5 11.207031 87.5 25 L 87.5 175 C 87.5 177.148438 87.867188 179.222656 88.402344 181.25 L 43.75 181.25 C 43.75 174.363281 38.132812 168.75 31.25 168.75 L 12.5 168.75 C 5.617188 168.75 0 174.363281 0 181.25 L 0 275 C 0 281.882812 5.617188 287.5 12.5 287.5 L 31.25 287.5 C 38.039062 287.5 43.554688 282.054688 43.726562 275.292969 C 54.273438 276.148438 66.234375 279.175781 79.417969 284.324219 C 74.292969 293.53125 76.367188 305.371094 84.886719 312.15625 C 88.890625 315.308594 93.652344 316.820312 98.386719 316.820312 C 99.339844 316.820312 100.269531 316.625 101.21875 316.503906 C 101.246094 316.648438 101.21875 316.773438 101.21875 316.894531 C 101.902344 322.679688 104.808594 327.855469 109.398438 331.519531 C 113.402344 334.691406 118.1875 336.230469 122.949219 336.230469 C 123.902344 336.230469 124.828125 336.035156 125.757812 335.914062 C 126.34375 341.601562 129.101562 347.070312 133.910156 350.925781 C 137.914062 354.050781 142.699219 355.566406 147.4375 355.566406 C 148.386719 355.566406 149.363281 355.371094 150.316406 355.25 C 150.878906 360.9375 153.613281 366.429688 158.445312 370.289062 C 162.425781 373.4375 167.234375 374.976562 171.972656 374.976562 C 178.441406 374.976562 184.886719 372.144531 189.234375 366.675781 L 195.066406 359.277344 C 201.707031 364.988281 205.664062 368.628906 205.664062 368.628906 C 209.9375 372.851562 215.503906 374.949219 221.117188 374.949219 C 226.734375 374.949219 232.324219 372.851562 236.597656 368.601562 C 240.746094 364.453125 243.042969 358.960938 243.042969 353.125 C 243.042969 353.050781 243.042969 352.976562 243.042969 352.90625 C 243.113281 352.90625 243.1875 352.878906 243.285156 352.90625 C 249.121094 352.878906 254.589844 350.609375 258.640625 346.507812 C 262.792969 342.382812 265.085938 336.890625 265.085938 331.03125 C 265.085938 330.933594 265.085938 330.859375 265.085938 330.761719 C 265.160156 330.761719 265.234375 330.761719 265.308594 330.761719 C 270.898438 330.761719 276.511719 328.636719 280.785156 324.414062 C 284.9375 320.261719 287.230469 314.769531 287.230469 308.933594 C 287.230469 308.863281 287.230469 308.765625 287.230469 308.691406 C 287.28125 308.691406 287.351562 308.691406 287.425781 308.691406 C 293.042969 308.691406 298.65625 306.542969 302.929688 302.269531 C 307.273438 297.898438 309.617188 291.894531 309.421875 285.765625 C 309.351562 283.398438 308.8125 281.175781 308.007812 279.078125 C 313.230469 277.539062 321.191406 275.78125 331.273438 275.21875 C 331.394531 282.007812 336.9375 287.5 343.75 287.5 L 362.5 287.5 C 369.382812 287.5 375 281.882812 375 275 L 375 181.25 C 375 174.363281 369.382812 168.75 362.5 168.75 " fill-opacity="1" fill-rule="nonzero"/></svg>