<svg xmlns="http://www.w3.org/2000/svg" xmlns:xlink="http://www.w3.org/1999/xlink" width="500" zoomAndPan="magnify" viewBox="0 0 375 374.999991" height="500" preserveAspectRatio="xMidYMid meet" version="1.0"><path fill="#e7e7e7" d="M 163.804688 96.820312 L 40.953125 96.820312 C 37.734375 96.820312 35.101562 99.453125 35.101562 102.671875 C 35.101562 105.890625 37.734375 108.523438 40.953125 108.523438 L 163.804688 108.523438 C 167.023438 108.523438 169.65625 105.890625 169.65625 102.671875 C 169.65625 99.453125 167.023438 96.820312 163.804688 96.820312 Z M 163.804688 96.820312 " fill-opacity="1" fill-rule="nonzero"/><path fill="#e7e7e7" d="M 163.804688 120.222656 L 40.953125 120.222656 C 37.734375 120.222656 35.101562 122.855469 35.101562 126.074219 C 35.101562 129.289062 37.734375 131.921875 40.953125 131.921875 L 163.804688 131.921875 C 167.023438 131.921875 169.65625 129.289062 169.65625 126.074219 C 169.65625 122.855469 167.023438 120.222656 163.804688 120.222656 Z M 163.804688 120.222656 " fill-opacity="1" fill-rule="nonzero"/><path fill="#e7e7e7" d="M 163.804688 143.625 L 40.953125 143.625 C 37.734375 143.625 35.101562 146.253906 35.101562 149.472656 C 35.101562 152.691406 37.734375 155.324219 40.953125 155.324219 L 163.804688 155.324219 C 167.023438 155.324219 169.65625 152.691406 169.65625 149.472656 C 169.65625 146.253906 167.023438 143.625 163.804688 143.625 Z M 163.804688 143.625 " fill-opacity="1" fill-rule="nonzero"/><path fill="#e7e7e7" d="M 169.65625 316.207031 C 169.65625 312.988281 167.023438 310.355469 163.804688 310.355469 L 40.953125 310.355469 C 37.734375 310.355469 35.101562 312.988281 35.101562 316.207031 C 35.101562 319.421875 37.734375 322.054688 40.953125 322.054688 L 163.804688 322.054688 C 167.023438 322.054688 169.65625 319.421875 169.65625 316.207031 Z M 169.65625 316.207031 " fill-opacity="1" fill-rule="nonzero"/><path fill="#e7e7e7" d="M 40.953125 333.753906 C 37.734375 333.753906 35.101562 336.386719 35.101562 339.605469 C 35.101562 342.824219 37.734375 345.457031 40.953125 345.457031 L 125.78125 345.457031 C 128.996094 345.457031 131.628906 342.824219 131.628906 339.605469 C 131.628906 336.386719 128.996094 333.753906 125.78125 333.753906 Z M 40.953125 333.753906 " fill-opacity="1" fill-rule="nonzero"/><path fill="#e7e7e7" d="M 125.78125 228.453125 C 128.996094 228.453125 131.628906 225.820312 131.628906 222.601562 C 131.628906 219.382812 128.996094 216.75 125.78125 216.75 L 40.953125 216.75 C 37.734375 216.75 35.101562 219.382812 35.101562 222.601562 C 35.101562 225.820312 37.734375 228.453125 40.953125 228.453125 Z M 125.78125 228.453125 " fill-opacity="1" fill-rule="nonzero"/><path fill="#e7e7e7" d="M 35.101562 275.253906 C 35.101562 281.6875 40.367188 286.953125 46.800781 286.953125 L 70.203125 286.953125 C 76.636719 286.953125 81.902344 281.6875 81.902344 275.253906 L 81.902344 251.851562 C 81.902344 245.417969 76.636719 240.152344 70.203125 240.152344 L 46.800781 240.152344 C 40.367188 240.152344 35.101562 245.417969 35.101562 251.851562 Z M 46.800781 251.851562 L 70.203125 251.851562 L 70.203125 275.253906 L 46.800781 275.253906 Z M 46.800781 251.851562 " fill-opacity="1" fill-rule="nonzero"/><path fill="#e7e7e7" d="M 160.296875 201.539062 L 168.488281 193.351562 L 40.953125 193.351562 C 37.734375 193.351562 35.101562 195.984375 35.101562 199.199219 C 35.101562 202.417969 37.734375 205.050781 40.953125 205.050781 L 157.371094 205.050781 C 158.25 203.589844 159.125 202.417969 160.296875 201.539062 Z M 160.296875 201.539062 " fill-opacity="1" fill-rule="nonzero"/><path fill="#e7e7e7" d="M 268.527344 93.019531 C 267.0625 88.339844 262.675781 85.121094 257.410156 85.121094 L 198.90625 85.121094 C 192.472656 85.121094 187.207031 90.386719 187.207031 96.820312 L 187.207031 155.324219 C 187.207031 160.589844 190.71875 164.683594 195.105469 166.4375 L 206.222656 155.324219 L 198.90625 155.324219 L 198.90625 96.820312 L 257.410156 96.820312 L 257.410156 104.132812 Z M 268.527344 93.019531 " fill-opacity="1" fill-rule="nonzero"/><path fill="#e7e7e7" d="M 216.167969 262.675781 L 210.609375 264.429688 L 210.609375 275.253906 C 210.609375 281.6875 215.875 286.953125 222.308594 286.953125 L 245.710938 286.953125 C 252.144531 286.953125 257.410156 281.6875 257.410156 275.253906 L 257.410156 251.851562 C 257.410156 245.417969 252.144531 240.152344 245.710938 240.152344 L 241.320312 240.152344 L 229.621094 251.851562 L 245.710938 251.851562 L 245.710938 275.253906 L 222.308594 275.253906 L 222.308594 259.164062 C 220.554688 260.628906 218.507812 261.796875 216.167969 262.675781 Z M 216.167969 262.675781 " fill-opacity="1" fill-rule="nonzero"/><path fill="#e7e7e7" d="M 143.039062 251.851562 L 146.546875 240.152344 L 134.554688 240.152344 C 128.121094 240.152344 122.855469 245.417969 122.855469 251.851562 L 122.855469 275.253906 C 122.855469 281.6875 128.121094 286.953125 134.554688 286.953125 L 157.957031 286.953125 C 163.222656 286.953125 167.902344 283.152344 169.070312 278.179688 L 163.515625 279.933594 C 161.757812 280.8125 159.710938 281.105469 157.957031 281.105469 C 153.277344 281.105469 149.179688 279.347656 145.671875 276.132812 C 145.378906 275.839844 145.085938 275.546875 144.792969 275.253906 L 134.554688 275.253906 L 134.554688 251.851562 Z M 143.039062 251.851562 " fill-opacity="1" fill-rule="nonzero"/><path fill="#e7e7e7" d="M 304.210938 57.332031 L 304.210938 23.695312 C 304.210938 10.824219 293.683594 0.292969 280.8125 0.292969 L 23.402344 0.292969 C 10.53125 0.292969 0 10.824219 0 23.695312 L 0 351.304688 C 0 364.175781 10.53125 374.707031 23.402344 374.707031 L 280.8125 374.707031 C 293.683594 374.707031 304.210938 364.175781 304.210938 351.304688 L 304.210938 177.261719 L 292.511719 188.960938 L 292.511719 351.304688 C 292.511719 357.742188 287.246094 363.007812 280.8125 363.007812 L 23.402344 363.007812 C 16.964844 363.007812 11.699219 357.742188 11.699219 351.304688 L 11.699219 52.945312 L 292.511719 52.945312 L 292.511719 69.03125 Z M 11.699219 41.246094 L 11.699219 23.695312 C 11.699219 17.257812 16.964844 11.992188 23.402344 11.992188 L 280.8125 11.992188 C 287.246094 11.992188 292.511719 17.257812 292.511719 23.695312 L 292.511719 41.246094 Z M 11.699219 41.246094 " fill-opacity="1" fill-rule="nonzero"/><path fill="#e7e7e7" d="M 337.558594 48.847656 C 335.21875 46.507812 331.707031 46.507812 329.367188 48.847656 L 168.488281 209.730469 C 167.902344 210.316406 167.316406 211.195312 167.023438 212.070312 L 152.398438 261.796875 C 151.8125 263.84375 152.398438 266.1875 153.859375 267.648438 C 155.03125 268.816406 156.492188 269.402344 157.957031 269.402344 C 158.542969 269.402344 159.125 269.402344 159.710938 269.109375 L 212.363281 251.558594 C 213.242188 251.265625 214.117188 250.683594 214.703125 250.097656 L 372.660156 92.140625 C 375 89.800781 375 86.289062 372.660156 83.949219 Z M 166.730469 254.484375 L 177.847656 217.042969 L 178.433594 216.457031 L 204.171875 242.199219 Z M 213.535156 234.886719 L 186.621094 207.976562 L 312.988281 81.609375 L 339.898438 108.523438 Z M 348.089844 100.332031 L 321.179688 73.421875 L 333.464844 61.136719 L 360.375 88.046875 Z M 348.089844 100.332031 " fill-opacity="1" fill-rule="nonzero"/></svg>