<svg xmlns="http://www.w3.org/2000/svg" xmlns:xlink="http://www.w3.org/1999/xlink" width="500" zoomAndPan="magnify" viewBox="0 0 375 374.999991" height="500" preserveAspectRatio="xMidYMid meet" version="1.0"><defs><clipPath id="2f67804784"><path d="M 42 1 L 334.546875 1 L 334.546875 375 L 42 375 Z M 42 1 " clip-rule="nonzero"/></clipPath></defs><g clip-path="url(#2f67804784)"><path fill="#646b6e" d="M 156.507812 110.878906 L 326.832031 110.878906 L 304.429688 354.785156 C 303.371094 366.269531 293.617188 374.996094 281.839844 374.996094 L 114.9375 374.996094 C 103.160156 374.996094 93.40625 366.269531 92.351562 354.785156 L 72.027344 133.515625 Z M 62.542969 72.578125 C 50.839844 75.714844 40.574219 85.332031 43.105469 94.777344 L 50.734375 123.25 C 51.175781 124.898438 52.695312 126.019531 54.714844 125.476562 L 331.664062 51.269531 C 333.6875 50.726562 334.441406 48.996094 334 47.351562 L 326.367188 18.878906 C 323.816406 9.351562 310.136719 6.238281 298.433594 9.375 L 226.042969 28.769531 L 221.640625 12.328125 C 219.574219 4.617188 211.523438 -0.0390625 203.808594 2.027344 L 140.808594 18.910156 C 133.089844 20.988281 128.457031 29.015625 130.523438 36.734375 L 134.933594 53.183594 Z M 146.746094 50.015625 L 142.339844 33.578125 C 142.007812 32.332031 142.742188 31.050781 143.984375 30.71875 L 206.96875 13.839844 C 208.222656 13.503906 209.488281 14.226562 209.824219 15.484375 L 214.234375 31.933594 Z M 114.824219 163.421875 L 127.328125 299.550781 L 152.738281 299.550781 L 140.234375 163.421875 Z M 211.21875 163.421875 L 185.914062 163.421875 L 185.570312 299.550781 L 210.875 299.550781 Z M 277.417969 163.421875 L 252.007812 163.421875 L 239.503906 299.550781 L 264.914062 299.550781 Z M 277.417969 163.421875 " fill-opacity="1" fill-rule="evenodd"/></g></svg>