<svg xmlns="http://www.w3.org/2000/svg" xmlns:xlink="http://www.w3.org/1999/xlink" width="500" zoomAndPan="magnify" viewBox="0 0 375 374.999991" height="500" preserveAspectRatio="xMidYMid meet" version="1.0"><defs><clipPath id="4b532c5609"><path d="M 0 57.890625 L 375 57.890625 L 375 317 L 0 317 Z M 0 57.890625 " clip-rule="nonzero"/></clipPath></defs><g clip-path="url(#4b532c5609)"><path fill="#252732" d="M 187.5 57.933594 C 164.476562 57.933594 145.808594 76.597656 145.808594 99.621094 C 145.808594 122.648438 164.476562 141.3125 187.5 141.3125 C 210.523438 141.3125 229.191406 122.648438 229.191406 99.621094 C 229.191406 76.597656 210.523438 57.933594 187.5 57.933594 Z M 187.5 189.972656 C 222.574219 189.972656 251.007812 218.40625 251.007812 253.480469 C 251.007812 288.554688 222.574219 316.988281 187.5 316.988281 C 152.425781 316.988281 123.992188 288.554688 123.992188 253.480469 C 123.992188 218.40625 152.425781 189.972656 187.5 189.972656 Z M 207.8125 226.3125 L 177.773438 256.632812 L 167.054688 246.1875 C 162.558594 241.808594 155.359375 241.910156 150.984375 246.410156 C 146.609375 250.910156 146.707031 258.105469 151.207031 262.480469 L 169.988281 280.785156 C 174.445312 285.121094 181.574219 285.074219 185.96875 280.652344 L 223.925781 242.339844 C 228.351562 237.886719 228.332031 230.691406 223.882812 226.265625 C 219.433594 221.839844 212.238281 221.859375 207.8125 226.3125 Z M 297.832031 78.074219 C 274.808594 78.074219 256.140625 96.742188 256.140625 119.765625 C 256.140625 142.792969 274.808594 161.457031 297.832031 161.457031 C 320.859375 161.457031 339.523438 142.792969 339.523438 119.765625 C 339.523438 96.742188 320.859375 78.074219 297.832031 78.074219 Z M 0.242188 236.839844 C 0.0078125 239.980469 2.460938 242.621094 5.609375 242.621094 L 112.640625 242.621094 C 115.320312 224 124.78125 207.570312 138.445312 195.914062 C 124.316406 177.449219 102.074219 165.484375 77.167969 165.484375 C 36.683594 165.484375 3.226562 197.085938 0.242188 236.839844 Z M 236.554688 195.914062 C 250.21875 207.570312 259.679688 224 262.359375 242.621094 L 369.390625 242.621094 C 372.539062 242.621094 374.992188 239.980469 374.757812 236.839844 C 371.773438 197.085938 338.316406 165.484375 297.835938 165.484375 C 272.925781 165.484375 250.683594 177.449219 236.554688 195.914062 Z M 77.167969 78.074219 C 54.140625 78.074219 35.476562 96.742188 35.476562 119.765625 C 35.476562 142.792969 54.140625 161.457031 77.167969 161.457031 C 100.191406 161.457031 118.855469 142.792969 118.855469 119.765625 C 118.855469 96.742188 100.191406 78.074219 77.167969 78.074219 Z M 130.226562 170.945312 C 160.972656 136.828125 214.027344 136.828125 244.773438 170.945312 C 237.953125 176.011719 231.867188 182.023438 226.71875 188.796875 C 202.679688 174.1875 172.320312 174.1875 148.277344 188.796875 C 143.132812 182.023438 137.046875 176.011719 130.226562 170.945312 Z M 130.226562 170.945312 " fill-opacity="1" fill-rule="evenodd"/></g></svg>