<svg xmlns="http://www.w3.org/2000/svg" xmlns:xlink="http://www.w3.org/1999/xlink" width="500" zoomAndPan="magnify" viewBox="0 0 375 374.999991" height="500" preserveAspectRatio="xMidYMid meet" version="1.0"><defs><clipPath id="d40fd7b846"><path d="M 51 140.152344 L 324 140.152344 L 324 375 L 51 375 Z M 51 140.152344 " clip-rule="nonzero"/></clipPath><clipPath id="33a4cd1e05"><path d="M 140 0.527344 L 235 0.527344 L 235 140.140625 L 140 140.140625 Z M 140 0.527344 " clip-rule="nonzero"/></clipPath></defs><rect x="-37.5" width="450" fill="#ffffff" y="-37.499999" height="449.999989" fill-opacity="1"/><rect x="-37.5" width="450" fill="#d9d9d9" y="-37.499999" height="449.999989" fill-opacity="1"/><g clip-path="url(#d40fd7b846)"><path fill="#02d7c2" d="M 323.710938 189.835938 C 323.523438 189.097656 323.1875 188.433594 322.699219 187.851562 C 322.210938 187.265625 321.621094 186.816406 320.929688 186.5 L 221.535156 141.183594 C 221.011719 140.949219 220.46875 140.804688 219.898438 140.753906 C 219.328125 140.703125 218.769531 140.746094 218.214844 140.886719 C 217.660156 141.027344 217.144531 141.257812 216.667969 141.574219 C 216.191406 141.890625 215.78125 142.277344 215.4375 142.730469 L 185.671875 182.222656 L 159.761719 144.441406 C 159.425781 143.953125 159.015625 143.539062 158.535156 143.195312 C 158.050781 142.851562 157.527344 142.601562 156.957031 142.445312 C 156.386719 142.289062 155.804688 142.230469 155.214844 142.277344 C 154.625 142.324219 154.0625 142.472656 153.523438 142.71875 L 58.378906 186.371094 C 58.042969 186.523438 57.730469 186.710938 57.441406 186.933594 C 57.148438 187.152344 56.882812 187.402344 56.644531 187.683594 C 56.40625 187.960938 56.203125 188.261719 56.03125 188.585938 C 55.859375 188.910156 55.726562 189.246094 55.628906 189.601562 C 55.53125 189.953125 55.472656 190.3125 55.453125 190.675781 C 55.433594 191.042969 55.453125 191.40625 55.515625 191.769531 C 55.574219 192.128906 55.675781 192.480469 55.8125 192.820312 C 55.949219 193.160156 56.121094 193.480469 56.328125 193.78125 L 84.171875 234.367188 L 52.308594 276.660156 C 52.082031 276.960938 51.890625 277.28125 51.738281 277.625 C 51.585938 277.96875 51.46875 278.324219 51.398438 278.695312 C 51.324219 279.0625 51.289062 279.433594 51.300781 279.808594 C 51.308594 280.1875 51.359375 280.554688 51.453125 280.921875 C 51.546875 281.285156 51.675781 281.632812 51.847656 281.96875 C 52.019531 282.304688 52.226562 282.613281 52.464844 282.902344 C 52.707031 283.191406 52.976562 283.449219 53.277344 283.679688 C 53.574219 283.90625 53.894531 284.097656 54.238281 284.253906 L 85.101562 298.320312 L 85 324.617188 C 84.996094 325.101562 85.0625 325.574219 85.199219 326.039062 C 85.335938 326.503906 85.53125 326.9375 85.792969 327.347656 C 86.054688 327.753906 86.367188 328.117188 86.730469 328.433594 C 87.097656 328.75 87.5 329.007812 87.941406 329.210938 L 187.324219 374.507812 C 187.476562 374.574219 187.632812 374.609375 187.785156 374.660156 C 187.9375 374.710938 188.019531 374.746094 188.144531 374.777344 C 188.558594 374.894531 188.976562 374.953125 189.40625 374.960938 C 189.832031 374.953125 190.253906 374.894531 190.664062 374.78125 C 190.792969 374.746094 190.914062 374.699219 191.039062 374.65625 C 191.195312 374.613281 191.351562 374.5625 191.503906 374.503906 L 286.636719 330.839844 C 287.070312 330.640625 287.464844 330.382812 287.824219 330.066406 C 288.1875 329.753906 288.496094 329.398438 288.753906 328.996094 C 289.011719 328.59375 289.207031 328.164062 289.34375 327.703125 C 289.480469 327.246094 289.550781 326.777344 289.550781 326.300781 L 289.65625 296.757812 L 316.761719 284.316406 C 317.09375 284.164062 317.40625 283.976562 317.699219 283.757812 C 317.992188 283.535156 318.257812 283.285156 318.492188 283.007812 C 318.730469 282.726562 318.933594 282.425781 319.105469 282.105469 C 319.277344 281.78125 319.414062 281.441406 319.511719 281.089844 C 319.609375 280.738281 319.667969 280.378906 319.683594 280.011719 C 319.703125 279.644531 319.683594 279.28125 319.625 278.921875 C 319.5625 278.558594 319.464844 278.210938 319.328125 277.871094 C 319.191406 277.53125 319.019531 277.210938 318.8125 276.90625 L 290.988281 236.351562 L 322.851562 194.09375 C 323.3125 193.488281 323.617188 192.808594 323.769531 192.0625 C 323.917969 191.316406 323.898438 190.574219 323.710938 189.835938 Z M 190.375 273.976562 L 189.707031 274.28125 L 102.410156 234.480469 L 185.484375 196.355469 L 272.78125 236.15625 Z M 153.867188 153.613281 L 177.964844 188.75 L 92.085938 228.164062 L 67.972656 193.027344 Z M 91.859375 240.878906 L 181.871094 281.898438 L 154.101562 318.75 L 64.085938 277.71875 Z M 95.128906 302.917969 L 153.605469 329.5625 C 154.078125 329.769531 154.570312 329.898438 155.082031 329.949219 C 155.195312 329.964844 155.304688 329.980469 155.414062 329.988281 C 155.527344 329.992188 155.597656 330.015625 155.6875 330.015625 C 156.09375 330.015625 156.492188 329.964844 156.882812 329.863281 C 156.949219 329.863281 157.007812 329.816406 157.074219 329.792969 C 157.492188 329.671875 157.886719 329.5 158.257812 329.273438 C 158.371094 329.207031 158.480469 329.136719 158.589844 329.058594 C 159.015625 328.769531 159.386719 328.417969 159.703125 328.011719 L 184.628906 294.933594 L 184.511719 329.554688 L 184.398438 362.148438 L 95.042969 321.425781 Z M 279.503906 323.058594 L 194.433594 362.097656 L 194.664062 296.074219 L 215.351562 326.246094 C 215.566406 326.554688 215.816406 326.832031 216.09375 327.085938 C 216.167969 327.152344 216.25 327.21875 216.324219 327.28125 C 216.550781 327.464844 216.789062 327.628906 217.039062 327.769531 C 217.113281 327.808594 217.175781 327.855469 217.246094 327.890625 C 217.566406 328.050781 217.902344 328.175781 218.25 328.269531 C 218.320312 328.285156 218.394531 328.289062 218.464844 328.304688 C 218.75 328.363281 219.035156 328.398438 219.324219 328.410156 C 219.382812 328.410156 219.4375 328.429688 219.492188 328.429688 C 219.546875 328.429688 219.59375 328.429688 219.648438 328.414062 C 219.875 328.40625 220.101562 328.382812 220.324219 328.34375 C 220.425781 328.324219 220.527344 328.316406 220.625 328.292969 C 220.957031 328.21875 221.277344 328.113281 221.585938 327.976562 L 279.574219 301.367188 Z M 221.257812 317.082031 L 197.164062 281.941406 L 218.714844 272.050781 L 283.039062 242.527344 L 307.15625 277.671875 Z M 283.265625 229.890625 L 193.25 188.839844 L 221.027344 151.992188 L 311.042969 193.042969 Z M 283.265625 229.890625 " fill-opacity="1" fill-rule="nonzero"/></g><g clip-path="url(#33a4cd1e05)"><path fill="#02d7c2" d="M 177.179688 10.285156 L 177.179688 104.863281 C 177.179688 104.863281 157.398438 84.9375 156.722656 84.414062 C 154.96875 83.046875 152.769531 82.226562 150.378906 82.226562 C 147.734375 82.226562 145.332031 83.222656 143.5 84.855469 L 142.664062 85.691406 C 141.03125 87.523438 140.03125 89.929688 140.03125 92.570312 C 140.03125 95.289062 141.089844 97.757812 142.808594 99.605469 C 142.808594 99.605469 180.910156 137.765625 181.160156 137.960938 C 182.910156 139.3125 185.089844 140.121094 187.472656 140.121094 C 189.847656 140.121094 192.03125 139.3125 193.777344 137.964844 C 194.484375 137.417969 232.609375 99.128906 232.609375 99.128906 C 234.050781 97.351562 234.914062 95.089844 234.914062 92.625 C 234.914062 86.914062 230.285156 82.277344 224.574219 82.277344 C 222.066406 82.277344 219.769531 83.171875 217.980469 84.652344 L 197.765625 104.863281 L 197.765625 10.285156 C 197.765625 4.597656 193.15625 -0.0078125 187.472656 -0.0078125 C 181.785156 -0.0078125 177.179688 4.597656 177.179688 10.285156 " fill-opacity="1" fill-rule="nonzero"/></g></svg>