<svg xmlns="http://www.w3.org/2000/svg" xmlns:xlink="http://www.w3.org/1999/xlink" width="500" zoomAndPan="magnify" viewBox="0 0 375 374.999991" height="500" preserveAspectRatio="xMidYMid meet" version="1.0"><path fill="#02d7c2" d="M 347.886719 169.265625 C 348.695312 174.84375 349.308594 180.5 349.542969 186.246094 L 338.253906 186.246094 C 335.464844 190.886719 332.496094 195.53125 329.414062 200.1875 L 349.53125 200.1875 C 347.957031 238.285156 333.722656 273.164062 310.734375 300.570312 C 299.511719 294.101562 286.769531 288.554688 272.96875 283.953125 C 275.101562 277.597656 277 270.988281 278.671875 264.1875 C 274.640625 268.496094 270.613281 272.789062 266.390625 277.011719 C 261.273438 282.128906 256.058594 287.089844 250.816406 291.914062 C 252.269531 292.261719 253.773438 292.554688 255.179688 292.917969 C 239.945312 330.597656 216.414062 356.039062 189.5625 359.847656 L 189.5625 340.023438 C 184.90625 343.105469 180.265625 346.074219 175.621094 348.863281 L 175.621094 359.847656 C 171.316406 359.234375 167.148438 357.882812 163.035156 356.195312 C 154.53125 360.878906 146.097656 364.90625 137.761719 368.585938 C 152.117188 372.269531 167.078125 374.441406 182.605469 374.441406 C 234.171875 374.441406 280.582031 352.808594 313.578125 318.25 C 316.699219 314.984375 319.796875 311.683594 322.667969 308.195312 C 348.402344 276.902344 363.847656 236.863281 363.847656 193.214844 C 363.847656 177.644531 361.796875 162.546875 358.105469 148.117188 C 355.039062 155.101562 351.675781 162.15625 347.886719 169.265625 Z M 231.707031 353.113281 C 246.328125 339.5625 258.847656 320.171875 268.300781 296.75 C 280.398438 300.683594 291.59375 305.351562 301.464844 310.761719 C 282.28125 330.167969 258.414062 344.902344 231.707031 353.113281 Z M 231.707031 353.113281 " fill-opacity="1" fill-rule="nonzero"/><path fill="#02d7c2" d="M 42.546875 308.195312 C 45.417969 311.683594 48.527344 314.972656 51.636719 318.25 C 60.460938 327.476562 70.289062 335.714844 80.867188 342.9375 C 86.945312 341.933594 93.304688 340.484375 100.039062 338.378906 C 86.75 330.78125 74.46875 321.609375 63.765625 310.789062 C 73.632812 305.382812 84.828125 300.710938 96.929688 296.78125 C 102.324219 310.164062 108.832031 322.039062 116.039062 332.453125 C 120.179688 330.738281 124.335938 328.96875 128.546875 326.960938 C 121.546875 317.285156 115.273438 305.898438 110.03125 292.945312 C 130.039062 287.703125 152.203125 284.566406 175.652344 284.039062 L 175.652344 299.136719 C 180.308594 295.886719 184.949219 292.472656 189.589844 288.945312 L 189.589844 284.039062 C 191.558594 284.078125 193.4375 284.261719 195.390625 284.34375 C 200.632812 280.191406 205.832031 275.867188 211.003906 271.394531 C 203.976562 270.753906 196.855469 270.277344 189.589844 270.113281 L 189.589844 200.1875 L 273.039062 200.1875 C 272.984375 202.613281 272.730469 204.941406 272.632812 207.335938 C 278.210938 200.324219 283.578125 193.300781 288.527344 186.246094 L 286.980469 186.246094 C 286.308594 155.800781 281.332031 127.304688 272.996094 102.476562 C 286.796875 97.875 299.539062 92.328125 310.761719 85.859375 C 317.1875 93.511719 322.835938 101.808594 327.8125 110.535156 C 329.929688 103.730469 331.394531 97.304688 332.382812 91.210938 C 329.332031 86.75 326.125 82.402344 322.710938 78.234375 C 319.835938 74.75 316.730469 71.460938 313.621094 68.183594 C 280.59375 33.609375 234.1875 11.988281 182.621094 11.988281 C 131.054688 11.988281 84.648438 33.625 51.636719 68.183594 C 48.527344 71.445312 45.417969 74.75 42.546875 78.234375 C 16.839844 109.515625 1.394531 149.566406 1.394531 193.214844 C 1.394531 236.863281 16.839844 276.902344 42.546875 308.195312 Z M 301.464844 75.65625 C 291.59375 81.0625 280.398438 85.734375 268.300781 89.664062 C 258.847656 66.246094 246.328125 46.855469 231.707031 33.304688 C 258.414062 41.527344 282.28125 56.25 301.464844 75.65625 Z M 189.589844 26.585938 C 216.441406 30.375 239.972656 55.832031 255.210938 93.511719 C 235.191406 98.753906 213.039062 101.890625 189.589844 102.421875 Z M 189.589844 116.332031 C 214.683594 115.777344 238.4375 112.289062 259.933594 106.40625 C 267.699219 129.882812 272.398438 157.082031 273.039062 186.246094 L 189.589844 186.246094 Z M 175.652344 270.082031 C 150.558594 270.640625 126.804688 274.125 105.308594 280.007812 C 97.542969 256.535156 92.84375 229.335938 92.203125 200.171875 L 175.652344 200.171875 Z M 175.652344 186.246094 L 92.203125 186.246094 C 92.859375 157.082031 97.554688 129.882812 105.308594 106.40625 C 126.804688 112.289062 150.558594 115.777344 175.652344 116.332031 Z M 175.652344 26.585938 L 175.652344 102.40625 C 152.203125 101.878906 130.039062 98.742188 110.03125 93.5 C 125.269531 55.816406 148.800781 30.375 175.652344 26.585938 Z M 133.523438 33.304688 C 118.914062 46.855469 106.378906 66.246094 96.929688 89.664062 C 84.828125 85.734375 73.648438 81.0625 63.777344 75.65625 C 82.960938 56.25 106.8125 41.527344 133.523438 33.304688 Z M 54.492188 85.847656 C 65.714844 92.3125 78.457031 97.863281 92.257812 102.460938 C 83.921875 127.277344 78.945312 155.785156 78.277344 186.230469 L 15.683594 186.230469 C 17.273438 148.132812 31.492188 113.253906 54.492188 85.847656 Z M 78.277344 200.1875 C 78.945312 230.632812 83.921875 259.125 92.257812 283.953125 C 78.457031 288.554688 65.714844 294.117188 54.492188 300.570312 C 31.503906 273.164062 17.273438 238.285156 15.695312 200.1875 Z M 78.277344 200.1875 " fill-opacity="1" fill-rule="nonzero"/><path fill="#02d7c2" d="M 122.441406 360.015625 C 166.128906 342.921875 213.765625 309.925781 256.5625 267.140625 C 299.34375 224.34375 332.34375 176.710938 349.433594 133.019531 C 365.757812 91.308594 365.703125 57.433594 349.867188 36.257812 L 364.238281 32.453125 L 374.597656 29.707031 L 356.125 21.941406 L 340.664062 15.460938 L 305.519531 0.695312 L 320.285156 35.828125 L 327.394531 52.75 L 332.578125 65.101562 L 334.542969 69.773438 L 340.582031 47.007812 C 351.371094 64.433594 350.046875 93.234375 336.453125 127.933594 C 320.046875 169.878906 288.179688 215.828125 246.707031 257.285156 C 205.230469 298.746094 159.285156 330.628906 117.351562 347.035156 C 98 354.605469 80.519531 358.328125 65.800781 358.3125 C 50.4375 358.285156 38.058594 354.214844 29.832031 346.003906 C 19.585938 335.757812 15.753906 319.085938 18.261719 298.171875 C 14.386719 292.109375 10.886719 285.824219 7.679688 279.328125 C -0.460938 312.6875 3.539062 339.4375 19.976562 355.847656 C 30.988281 366.859375 46.5625 372.378906 65.6875 372.378906 C 65.703125 372.378906 65.714844 372.378906 65.730469 372.378906 C 82.234375 372.378906 101.347656 368.265625 122.441406 360.015625 Z M 122.441406 360.015625 " fill-opacity="1" fill-rule="nonzero"/></svg>