<svg xmlns="http://www.w3.org/2000/svg" xmlns:xlink="http://www.w3.org/1999/xlink" width="500" zoomAndPan="magnify" viewBox="0 0 375 374.999991" height="500" preserveAspectRatio="xMidYMid meet" version="1.0"><rect x="-37.5" width="450" fill="#ffffff" y="-37.499999" height="449.999989" fill-opacity="1"/><rect x="-37.5" width="450" fill="#ffffff" y="-37.499999" height="449.999989" fill-opacity="1"/><path fill="#252732" d="M 362.683594 218.566406 C 349.199219 218.566406 338.167969 224.535156 330.871094 233.382812 L 330.871094 195.742188 C 330.871094 187.554688 324.214844 180.898438 316.027344 180.898438 L 278.890625 180.898438 C 275.503906 133.375 235.882812 95.871094 187.5 95.871094 C 139.117188 95.871094 99.496094 133.375 96.109375 180.898438 L 58.972656 180.898438 C 50.785156 180.898438 44.128906 187.554688 44.128906 195.742188 L 44.128906 233.382812 C 36.832031 224.535156 25.800781 218.566406 12.316406 218.566406 C 5.511719 218.566406 0 213.050781 0 206.25 L 0 168.75 C 0 161.949219 5.511719 156.433594 12.316406 156.433594 C 49.242188 156.433594 67.765625 111.699219 41.660156 85.59375 C 36.851562 80.785156 36.851562 72.984375 41.660156 68.175781 L 68.175781 41.660156 C 72.984375 36.847656 80.785156 36.847656 85.59375 41.660156 C 111.703125 67.765625 156.433594 49.238281 156.433594 12.316406 C 156.433594 5.511719 161.949219 0 168.75 0 L 206.25 0 C 213.050781 0 218.566406 5.511719 218.566406 12.316406 C 218.566406 49.242188 263.300781 67.765625 289.40625 41.660156 C 294.214844 36.847656 302.015625 36.847656 306.824219 41.660156 L 333.34375 68.175781 C 338.152344 72.984375 338.152344 80.785156 333.34375 85.59375 C 307.234375 111.703125 325.761719 156.433594 362.683594 156.433594 C 369.488281 156.433594 375 161.949219 375 168.75 L 375 206.25 C 375 213.050781 369.488281 218.566406 362.683594 218.566406 Z M 144.203125 187.542969 L 144.203125 165.800781 L 230.796875 165.800781 L 230.796875 187.542969 C 230.796875 190.566406 233.246094 193.011719 236.265625 193.011719 C 239.285156 193.011719 241.734375 190.566406 241.734375 187.542969 L 241.734375 160.332031 C 241.734375 157.308594 239.285156 154.863281 236.265625 154.863281 L 192.96875 154.863281 L 192.96875 127.527344 C 200.894531 125.15625 206.71875 117.789062 206.730469 109.121094 C 194.148438 106.042969 180.851562 106.042969 168.269531 109.121094 C 168.28125 117.789062 174.105469 125.15625 182.03125 127.527344 L 182.03125 154.863281 L 138.734375 154.863281 C 135.714844 154.863281 133.265625 157.308594 133.265625 160.332031 L 133.265625 187.542969 C 133.265625 190.566406 135.714844 193.011719 138.734375 193.011719 C 141.757812 193.011719 144.203125 190.566406 144.203125 187.542969 Z M 257.5625 191.835938 C 255.410156 191.835938 253.65625 193.589844 253.65625 195.742188 L 253.65625 254.207031 C 253.65625 256.359375 255.410156 258.113281 257.5625 258.113281 L 316.027344 258.113281 C 318.179688 258.113281 319.933594 256.359375 319.933594 254.207031 L 319.933594 195.742188 C 319.933594 193.589844 318.179688 191.835938 316.027344 191.835938 L 301.796875 191.835938 L 301.796875 213.96875 C 301.796875 216.988281 299.347656 219.4375 296.328125 219.4375 L 277.261719 219.4375 C 274.242188 219.4375 271.792969 216.988281 271.792969 213.96875 L 271.792969 191.835938 Z M 282.730469 191.835938 L 282.730469 208.5 L 290.859375 208.5 L 290.859375 191.835938 Z M 58.972656 191.835938 C 56.820312 191.835938 55.066406 193.589844 55.066406 195.742188 L 55.066406 254.207031 C 55.066406 256.359375 56.820312 258.113281 58.972656 258.113281 L 117.4375 258.113281 C 119.589844 258.113281 121.34375 256.359375 121.34375 254.207031 L 121.34375 195.742188 C 121.34375 193.589844 119.589844 191.835938 117.4375 191.835938 L 103.207031 191.835938 L 103.207031 213.96875 C 103.207031 216.988281 100.757812 219.4375 97.738281 219.4375 L 78.671875 219.4375 C 75.652344 219.4375 73.203125 216.988281 73.203125 213.96875 L 73.203125 191.835938 Z M 84.140625 191.835938 L 84.140625 208.5 L 92.269531 208.5 L 92.269531 191.835938 Z M 158.265625 191.835938 C 156.117188 191.835938 154.359375 193.589844 154.359375 195.742188 L 154.359375 254.207031 C 154.359375 256.359375 156.117188 258.113281 158.265625 258.113281 L 216.734375 258.113281 C 218.882812 258.113281 220.640625 256.359375 220.640625 254.207031 L 220.640625 195.742188 C 220.640625 193.589844 218.882812 191.835938 216.734375 191.835938 L 202.503906 191.835938 L 202.503906 213.96875 C 202.503906 216.988281 200.054688 219.4375 197.035156 219.4375 L 177.96875 219.4375 C 174.945312 219.4375 172.5 216.988281 172.5 213.96875 L 172.5 191.835938 Z M 183.433594 191.835938 L 183.433594 208.5 L 191.5625 208.5 L 191.5625 191.835938 Z M 236.222656 296.394531 C 228.371094 296.503906 222.230469 302.734375 222.230469 310.382812 C 222.230469 318.03125 228.371094 324.265625 236.222656 324.375 C 244.074219 324.265625 250.214844 318.03125 250.214844 310.382812 C 250.214844 302.734375 244.070312 296.503906 236.222656 296.394531 Z M 236.222656 315.855469 C 233.203125 315.855469 230.753906 313.40625 230.753906 310.386719 C 230.753906 307.363281 233.203125 304.917969 236.222656 304.917969 C 239.242188 304.917969 241.691406 307.363281 241.691406 310.386719 C 241.691406 313.40625 239.242188 315.855469 236.222656 315.855469 Z M 41.335938 296.394531 C 33.605469 296.394531 27.34375 302.65625 27.34375 310.382812 C 27.34375 318.113281 33.605469 324.375 41.335938 324.375 C 49.066406 324.375 55.328125 318.117188 55.328125 310.382812 C 55.328125 302.652344 49.066406 296.394531 41.335938 296.394531 Z M 41.335938 315.855469 C 38.316406 315.855469 35.867188 313.40625 35.867188 310.386719 C 35.867188 307.363281 38.316406 304.917969 41.335938 304.917969 C 44.355469 304.917969 46.804688 307.363281 46.804688 310.386719 C 46.804688 313.40625 44.355469 315.855469 41.335938 315.855469 Z M 138.777344 296.394531 C 130.925781 296.503906 124.785156 302.734375 124.785156 310.382812 C 124.785156 318.03125 130.929688 324.265625 138.777344 324.375 C 146.628906 324.265625 152.769531 318.03125 152.769531 310.382812 C 152.769531 302.734375 146.628906 296.503906 138.777344 296.394531 Z M 138.777344 315.855469 C 135.757812 315.855469 133.308594 313.40625 133.308594 310.386719 C 133.308594 307.363281 135.757812 304.917969 138.777344 304.917969 C 141.796875 304.917969 144.246094 307.363281 144.246094 310.386719 C 144.246094 313.40625 141.796875 315.855469 138.777344 315.855469 Z M 333.664062 296.394531 C 325.933594 296.394531 319.671875 302.652344 319.671875 310.382812 C 319.671875 318.117188 325.933594 324.375 333.664062 324.375 C 341.394531 324.375 347.65625 318.113281 347.65625 310.382812 C 347.65625 302.65625 341.394531 296.394531 333.664062 296.394531 Z M 333.664062 315.734375 C 330.644531 315.734375 328.195312 313.285156 328.195312 310.265625 C 328.195312 307.246094 330.644531 304.796875 333.664062 304.796875 C 336.683594 304.796875 339.132812 307.246094 339.132812 310.265625 C 339.132812 313.285156 336.683594 315.734375 333.664062 315.734375 Z M 333.664062 269.050781 L 41.335938 269.050781 C 18.601562 269.050781 0 287.652344 0 310.386719 C 0 333.117188 18.601562 351.71875 41.335938 351.71875 L 333.667969 351.71875 C 356.402344 351.71875 375 333.117188 375 310.386719 C 375 287.652344 356.398438 269.050781 333.664062 269.050781 Z M 333.414062 335.3125 C 236.136719 335.3125 138.863281 335.3125 41.585938 335.3125 C 27.695312 335.398438 16.40625 324.292969 16.40625 310.386719 C 16.40625 296.617188 27.570312 285.457031 41.335938 285.457031 C 138.722656 285.457031 236.300781 286.058594 333.664062 285.457031 C 347.429688 285.457031 358.59375 296.617188 358.59375 310.386719 C 358.59375 324.292969 347.304688 335.398438 333.414062 335.3125 Z M 61.972656 324.375 L 118.144531 324.375 C 112.441406 315.984375 112.441406 304.785156 118.144531 296.394531 L 61.972656 296.394531 C 67.671875 304.785156 67.671875 315.984375 61.972656 324.375 Z M 159.414062 324.375 L 215.585938 324.375 C 209.886719 315.984375 209.886719 304.785156 215.585938 296.394531 L 159.414062 296.394531 C 165.113281 304.785156 165.113281 315.984375 159.414062 324.375 Z M 256.855469 324.375 L 313.027344 324.375 C 307.328125 315.984375 307.328125 304.785156 313.027344 296.394531 L 256.855469 296.394531 C 262.558594 304.785156 262.558594 315.984375 256.855469 324.375 Z M 333.664062 362.65625 L 333.664062 371.09375 C 333.664062 373.246094 331.910156 375 329.757812 375 L 45.242188 375 C 43.089844 375 41.335938 373.246094 41.335938 371.09375 L 41.335938 362.65625 Z M 333.664062 362.65625 " fill-opacity="1" fill-rule="evenodd"/></svg>