<svg xmlns="http://www.w3.org/2000/svg" xmlns:xlink="http://www.w3.org/1999/xlink" width="500" zoomAndPan="magnify" viewBox="0 0 375 374.999991" height="500" preserveAspectRatio="xMidYMid meet" version="1.0"><defs><clipPath id="8159d81368"><path d="M 120.558594 147.304688 L 171.433594 147.304688 L 171.433594 226.980469 L 120.558594 226.980469 Z M 120.558594 147.304688 " clip-rule="nonzero"/></clipPath><clipPath id="98fa68c5af"><path d="M 147.25 158.785156 C 149.796875 174.160156 150.703125 179.710938 152.511719 184.398438 C 154.28125 188.960938 156.707031 193.6875 159.582031 197.390625 C 162.253906 200.800781 167.105469 203.558594 168.917969 206.066406 C 169.984375 207.503906 170.355469 208.613281 170.726562 209.96875 C 171.136719 211.328125 171.300781 212.847656 171.21875 214.246094 C 171.136719 215.683594 170.808594 217.164062 170.3125 218.480469 C 169.78125 219.796875 169 221.113281 168.09375 222.179688 C 167.148438 223.292969 165.996094 224.277344 164.804688 225.019531 C 163.570312 225.757812 162.171875 226.292969 160.777344 226.621094 C 159.378906 226.910156 157.855469 226.992188 156.457031 226.867188 C 155.0625 226.703125 153.582031 226.292969 152.304688 225.71875 C 150.992188 225.101562 149.757812 224.277344 148.6875 223.292969 C 147.660156 222.304688 146.753906 221.113281 146.097656 219.839844 C 145.398438 218.605469 144.945312 217.164062 144.699219 215.769531 C 144.453125 214.371094 144.453125 212.847656 144.699219 211.449219 C 144.90625 210.054688 145.398438 208.613281 146.058594 207.339844 C 146.714844 206.066406 147.621094 204.871094 148.648438 203.886719 C 149.675781 202.898438 150.949219 202.078125 152.222656 201.460938 C 153.539062 200.84375 154.980469 200.433594 156.417969 200.308594 C 157.816406 200.144531 159.335938 200.226562 160.734375 200.515625 C 162.089844 200.800781 163.53125 201.378906 164.722656 202.117188 C 165.957031 202.859375 167.105469 203.804688 168.054688 204.914062 C 168.957031 205.984375 169.738281 207.296875 170.273438 208.613281 C 170.808594 209.929688 171.136719 211.410156 171.21875 212.808594 C 171.300781 214.246094 171.136719 215.769531 170.765625 217.125 C 170.394531 218.480469 169.738281 219.878906 168.957031 221.03125 C 168.136719 222.222656 167.105469 223.332031 165.996094 224.195312 C 164.847656 225.058594 163.53125 225.757812 162.171875 226.210938 C 160.816406 226.664062 159.335938 226.949219 157.898438 226.949219 C 156.5 226.949219 154.980469 226.703125 153.621094 226.25 C 152.304688 225.800781 149.796875 224.277344 149.796875 224.238281 C 149.839844 224.195312 151.113281 224.894531 151.195312 224.8125 C 151.359375 224.523438 144 219.753906 140.835938 216.21875 C 137.175781 212.109375 133.679688 206.269531 131.007812 201.214844 C 128.542969 196.566406 126.773438 192.578125 125.171875 187.109375 C 123.15625 180.246094 121.265625 167.171875 120.8125 162.855469 C 120.648438 161.292969 120.605469 160.714844 120.730469 159.648438 C 120.8125 158.578125 121.058594 157.507812 121.386719 156.480469 C 121.757812 155.496094 122.210938 154.464844 122.785156 153.601562 C 123.363281 152.699219 124.101562 151.835938 124.84375 151.09375 C 125.621094 150.394531 126.527344 149.738281 127.433594 149.203125 C 128.378906 148.667969 129.40625 148.257812 130.433594 147.96875 C 131.460938 147.683594 132.53125 147.519531 133.597656 147.476562 C 134.667969 147.4375 135.777344 147.519531 136.804688 147.765625 C 137.875 147.96875 138.902344 148.339844 139.847656 148.792969 C 140.835938 149.285156 141.738281 149.863281 142.5625 150.558594 C 143.382812 151.21875 144.164062 152.039062 144.78125 152.902344 C 145.398438 153.765625 145.972656 154.714844 146.386719 155.699219 C 146.796875 156.6875 147.25 158.785156 147.25 158.785156 " clip-rule="nonzero"/></clipPath><clipPath id="36ac3a8ef9"><path d="M 64.273438 124.320312 L 154.695312 124.320312 L 154.695312 162.277344 L 64.273438 162.277344 Z M 64.273438 124.320312 " clip-rule="nonzero"/></clipPath><clipPath id="509ca9d2e5"><path d="M 149.46875 148.257812 C 142.519531 153.191406 136.148438 156.933594 131.132812 158.535156 C 126.445312 160.058594 121.46875 160.140625 116.660156 160.714844 C 112.015625 161.25 108.148438 161.660156 102.847656 161.90625 C 95.691406 162.195312 82.535156 162.320312 77.683594 161.90625 C 75.628906 161.742188 74.765625 161.660156 73.40625 161.210938 C 72.050781 160.757812 70.734375 160.058594 69.585938 159.195312 C 68.433594 158.332031 67.40625 157.222656 66.625 156.027344 C 65.800781 154.878906 65.183594 153.480469 64.816406 152.121094 C 64.402344 150.765625 64.238281 149.246094 64.320312 147.804688 C 64.402344 146.40625 64.734375 144.929688 65.265625 143.613281 C 65.800781 142.253906 66.582031 140.980469 67.488281 139.871094 C 68.390625 138.800781 69.585938 137.816406 70.777344 137.074219 C 72.011719 136.375 73.40625 135.800781 74.804688 135.472656 C 76.203125 135.183594 77.683594 135.101562 79.121094 135.265625 C 80.519531 135.429688 82 135.800781 83.273438 136.417969 C 84.589844 136.992188 85.824219 137.855469 86.851562 138.84375 C 87.878906 139.828125 88.824219 141.023438 89.484375 142.296875 C 90.140625 143.53125 90.636719 144.96875 90.839844 146.367188 C 91.085938 147.804688 91.085938 149.285156 90.839844 150.726562 C 90.636719 152.121094 90.140625 153.5625 89.484375 154.796875 C 88.824219 156.070312 87.878906 157.261719 86.851562 158.25 C 85.824219 159.234375 84.589844 160.058594 83.273438 160.675781 C 82 161.25 80.519531 161.660156 79.121094 161.824219 C 77.683594 161.988281 76.203125 161.90625 74.804688 161.578125 C 73.40625 161.292969 72.011719 160.714844 70.777344 159.976562 C 69.542969 159.277344 68.390625 158.289062 67.488281 157.179688 C 66.582031 156.109375 65.800781 154.796875 65.265625 153.480469 C 64.734375 152.164062 64.402344 150.683594 64.320312 149.246094 C 64.238281 147.847656 64.402344 146.324219 64.816406 144.96875 C 65.183594 143.613281 65.800781 142.214844 66.625 141.023438 C 67.40625 139.871094 68.472656 138.761719 69.585938 137.898438 C 70.734375 137.035156 72.050781 136.335938 73.40625 135.882812 C 74.765625 135.429688 75.546875 135.347656 77.683594 135.183594 C 83.644531 134.730469 102.722656 136.910156 112.136719 135.511719 C 118.960938 134.484375 125.089844 132.183594 129.324219 130.042969 C 132.117188 128.6875 133.96875 126.386719 135.820312 125.480469 C 136.96875 124.945312 137.832031 124.742188 138.902344 124.535156 C 139.929688 124.371094 141.039062 124.289062 142.109375 124.371094 C 143.179688 124.453125 144.246094 124.660156 145.277344 124.945312 C 146.304688 125.273438 147.289062 125.726562 148.195312 126.304688 C 149.140625 126.835938 150.003906 127.535156 150.742188 128.277344 C 151.484375 129.058594 152.183594 129.921875 152.71875 130.824219 C 153.25 131.730469 153.703125 132.757812 154.03125 133.785156 C 154.320312 134.773438 154.527344 135.882812 154.609375 136.953125 C 154.648438 138.019531 154.566406 139.128906 154.402344 140.160156 C 154.199219 141.226562 153.867188 142.253906 153.417969 143.242188 C 152.964844 144.1875 152.386719 145.132812 151.730469 145.996094 C 151.074219 146.820312 149.46875 148.257812 149.46875 148.257812 " clip-rule="nonzero"/></clipPath><clipPath id="98b7388f65"><path d="M 43.066406 141.472656 L 139 141.472656 L 139 225.554688 L 43.066406 225.554688 Z M 43.066406 141.472656 " clip-rule="nonzero"/></clipPath><clipPath id="b879367d2e"><path d="M 43.351562 155.246094 C 43.929688 151.011719 44.300781 149.984375 44.792969 149.039062 C 45.285156 148.09375 45.863281 147.148438 46.558594 146.367188 C 47.257812 145.542969 48.082031 144.804688 48.945312 144.1875 C 49.808594 143.570312 50.796875 143.035156 51.78125 142.625 C 52.769531 142.253906 53.835938 141.96875 54.90625 141.804688 C 55.933594 141.679688 57.042969 141.636719 58.113281 141.761719 C 59.183594 141.886719 60.25 142.132812 61.238281 142.460938 C 62.265625 142.832031 64.117188 143.941406 64.117188 143.941406 C 64.117188 143.941406 67.117188 145.875 69.132812 147.269531 C 72.175781 149.328125 77.109375 152.902344 80.644531 155.328125 C 83.5625 157.386719 87.757812 161.375 88.703125 160.921875 C 89.15625 160.675781 88.210938 159.316406 88.742188 158.453125 C 90.304688 156.070312 100.296875 152.164062 105.722656 150.4375 C 110.371094 149 114.6875 147.96875 119.167969 148.175781 C 123.773438 148.421875 129.816406 149.121094 133.105469 151.875 C 136.273438 154.589844 138.328125 160.097656 138.699219 164.414062 C 139.109375 168.691406 136.804688 173.050781 135.574219 177.613281 C 134.214844 182.589844 131.214844 187.933594 130.761719 193.074219 C 130.351562 198.007812 132.613281 207.710938 132.613281 207.792969 C 132.652344 207.792969 132.816406 208.820312 132.941406 209.355469 C 133.023438 209.886719 133.230469 210.917969 133.230469 210.917969 C 133.230469 210.957031 133.1875 212.027344 133.148438 212.5625 C 133.148438 213.09375 133.105469 214.125 133.105469 214.164062 C 133.066406 214.164062 132.777344 215.191406 132.613281 215.683594 C 132.488281 216.21875 132.160156 217.207031 132.160156 217.246094 C 132.160156 217.246094 131.625 218.152344 131.339844 218.605469 C 131.089844 219.097656 130.558594 220.003906 130.515625 220.003906 C 130.515625 220.042969 129.777344 220.785156 129.40625 221.152344 C 129.035156 221.566406 128.296875 222.304688 128.296875 222.304688 C 128.296875 222.304688 128.296875 222.304688 128.253906 222.304688 C 128.253906 222.347656 127.351562 222.878906 126.898438 223.167969 C 126.445312 223.457031 125.539062 223.992188 125.539062 224.03125 C 125.5 224.03125 124.511719 224.359375 124.019531 224.523438 C 123.484375 224.691406 122.5 225.019531 122.457031 225.019531 C 122.457031 225.019531 121.386719 225.101562 120.855469 225.101562 C 120.320312 225.140625 119.292969 225.222656 119.25 225.222656 C 119.25 225.222656 118.179688 225.058594 117.6875 224.976562 C 117.152344 224.855469 116.125 224.691406 116.085938 224.691406 C 116.042969 224.691406 115.097656 224.277344 114.605469 224.03125 C 114.109375 223.824219 113.164062 223.414062 113.125 223.414062 C 113.125 223.375 112.261719 222.757812 111.851562 222.429688 C 111.4375 222.097656 110.574219 221.441406 110.574219 221.441406 C 110.574219 221.441406 109.917969 220.617188 109.546875 220.167969 C 109.21875 219.753906 108.5625 218.933594 108.5625 218.933594 C 108.5625 218.890625 108.109375 217.945312 107.902344 217.453125 C 107.65625 216.960938 107.203125 216.015625 107.203125 216.015625 C 107.203125 215.972656 107.246094 215.644531 107.082031 215.355469 C 106.382812 214.039062 101.449219 209.558594 98.691406 206.394531 C 95.855469 203.105469 93.390625 199.199219 90.304688 195.910156 C 87.179688 192.621094 83.851562 189.703125 80.070312 186.742188 C 75.832031 183.410156 70.367188 180.121094 65.882812 177.121094 C 61.855469 174.40625 57.332031 171.527344 54.289062 169.472656 C 52.273438 168.15625 50.628906 167.171875 49.316406 166.144531 C 48.328125 165.402344 47.589844 164.867188 46.847656 164.046875 C 46.148438 163.265625 45.492188 162.359375 44.996094 161.457031 C 44.464844 160.511719 44.050781 159.480469 43.804688 158.453125 C 43.519531 157.425781 43.351562 155.246094 43.351562 155.246094 " clip-rule="nonzero"/></clipPath><clipPath id="0c016ae31c"><path d="M 88.578125 49.007812 L 334 49.007812 L 334 323.734375 L 88.578125 323.734375 Z M 88.578125 49.007812 " clip-rule="nonzero"/></clipPath><clipPath id="7943980197"><path d="M 88.578125 297.667969 C 92.9375 279.988281 94.335938 275.710938 95.691406 270.984375 C 97.214844 265.722656 99.1875 259.761719 100.503906 254.332031 C 101.695312 249.277344 102.105469 243.765625 103.339844 239.492188 C 104.367188 236.035156 107.574219 232.707031 107 230.363281 C 106.546875 228.429688 103.175781 228.183594 101.980469 226.046875 C 100.253906 223.003906 99.886719 217.164062 99.722656 212.644531 C 99.554688 208.160156 99.472656 203.433594 100.914062 199.117188 C 102.433594 194.550781 105.558594 189.496094 108.929688 186 C 112.054688 182.753906 117.976562 179.421875 120.195312 178.640625 C 120.976562 178.355469 121.964844 178.558594 122.003906 178.4375 C 122.003906 178.394531 121.882812 178.3125 121.882812 178.3125 C 121.882812 178.3125 121.386719 177.367188 121.140625 176.914062 C 120.855469 176.421875 120.359375 175.515625 120.359375 175.476562 C 120.359375 175.476562 120.113281 174.449219 119.949219 173.914062 C 119.824219 173.421875 119.578125 172.390625 119.578125 172.351562 C 119.578125 172.351562 119.539062 171.28125 119.539062 170.746094 C 119.539062 170.214844 119.539062 169.144531 119.539062 169.144531 C 119.539062 169.101562 119.785156 168.074219 119.90625 167.582031 C 120.03125 167.046875 120.277344 166.019531 120.277344 166.019531 C 120.277344 165.976562 120.773438 165.03125 121.019531 164.582031 C 121.265625 164.085938 121.757812 163.140625 121.757812 163.140625 C 121.757812 163.101562 122.457031 162.320312 122.828125 161.90625 C 123.15625 161.539062 123.855469 160.714844 123.855469 160.714844 C 123.894531 160.675781 124.757812 160.097656 125.171875 159.769531 C 125.621094 159.480469 126.488281 158.867188 126.488281 158.867188 C 126.527344 158.824219 127.515625 158.453125 128.007812 158.289062 C 128.5 158.085938 129.488281 157.671875 129.488281 157.671875 C 129.527344 157.671875 130.558594 157.550781 131.089844 157.46875 C 131.625 157.425781 132.488281 157.304688 132.695312 157.261719 C 132.734375 157.261719 132.734375 157.261719 132.777344 157.261719 C 133.433594 157.140625 144.328125 155.945312 144.453125 155.289062 C 144.496094 155.082031 143.507812 154.714844 143.507812 154.714844 C 143.464844 154.671875 142.726562 153.933594 142.355469 153.519531 C 141.988281 153.152344 141.246094 152.410156 141.246094 152.371094 C 141.246094 152.371094 140.710938 151.464844 140.425781 150.972656 C 140.175781 150.519531 139.644531 149.613281 139.644531 149.613281 C 139.601562 149.574219 139.3125 148.585938 139.148438 148.050781 C 139.027344 147.558594 138.699219 146.53125 138.699219 146.53125 C 138.699219 146.488281 138.699219 146.488281 138.699219 146.488281 C 138.699219 146.488281 138.65625 145.421875 138.65625 144.886719 C 138.613281 144.351562 138.574219 143.324219 138.574219 143.285156 C 138.574219 143.285156 138.78125 142.253906 138.902344 141.722656 C 138.984375 141.1875 139.191406 140.160156 139.191406 140.117188 C 139.191406 140.117188 139.5625 139.460938 139.683594 139.046875 C 139.808594 138.679688 139.847656 138.265625 139.890625 137.816406 C 139.972656 137.320312 140.175781 136.253906 140.175781 136.210938 C 140.175781 136.210938 140.589844 135.226562 140.792969 134.730469 C 141 134.238281 141.410156 133.292969 141.453125 133.25 C 141.453125 133.167969 142.152344 123.878906 142.972656 119.027344 C 143.835938 113.84375 145.441406 108.378906 146.507812 103.113281 C 147.578125 97.976562 148.03125 92.753906 149.429688 87.820312 C 150.785156 82.96875 152.265625 78.199219 154.730469 73.757812 C 157.320312 69.03125 161.390625 64.386719 164.929688 60.398438 C 168.09375 56.738281 170.5625 52.378906 174.835938 50.652344 C 179.894531 48.636719 189.0625 48.351562 193.996094 50.859375 C 198.558594 53.203125 201.480469 59.535156 203.863281 64.261719 C 206.164062 68.785156 206.742188 73.800781 208.34375 78.488281 C 209.949219 83.214844 211.796875 87.945312 213.523438 92.589844 C 215.210938 97.152344 216.730469 101.714844 218.582031 106.117188 C 220.433594 110.472656 222.28125 114.875 224.667969 118.863281 C 227.011719 122.765625 231.328125 128.03125 232.765625 129.878906 C 233.21875 130.496094 233.425781 130.703125 233.753906 131.113281 C 234.042969 131.484375 234.042969 131.894531 234.617188 132.183594 C 236.425781 133.046875 243.660156 132.140625 248.183594 132.304688 C 252.789062 132.429688 257.1875 132.632812 261.957031 133.003906 C 267.097656 133.414062 272.894531 134.15625 277.992188 134.773438 C 282.636719 135.347656 286.667969 135.71875 291.3125 136.621094 C 296.574219 137.609375 302.742188 139.335938 307.921875 140.691406 C 312.527344 141.886719 319.023438 143.613281 320.832031 144.230469 C 321.328125 144.394531 321.410156 144.476562 321.738281 144.597656 C 322.191406 144.722656 322.808594 144.84375 323.339844 144.929688 C 323.835938 145.050781 324.863281 145.296875 324.902344 145.296875 C 324.902344 145.296875 325.847656 145.75 326.34375 145.996094 C 326.835938 146.242188 327.78125 146.695312 327.78125 146.695312 C 327.824219 146.738281 328.605469 147.394531 329.015625 147.765625 C 329.425781 148.09375 330.25 148.75 330.25 148.792969 C 330.289062 148.792969 330.90625 149.65625 331.195312 150.066406 C 331.523438 150.519531 332.140625 151.382812 332.140625 151.382812 C 332.179688 151.425781 332.550781 152.371094 332.757812 152.863281 C 332.960938 153.355469 333.375 154.34375 333.375 154.382812 C 333.375 154.382812 333.539062 155.410156 333.621094 155.945312 C 333.703125 156.480469 333.867188 157.550781 333.867188 157.550781 C 333.867188 157.589844 333.742188 158.617188 333.703125 159.152344 C 333.660156 159.6875 333.539062 160.757812 333.539062 160.757812 C 333.539062 160.796875 333.167969 161.785156 333.003906 162.277344 C 332.839844 162.769531 332.46875 163.800781 332.46875 163.800781 C 332.46875 163.839844 331.894531 164.703125 331.605469 165.15625 C 331.316406 165.609375 330.742188 166.472656 330.699219 166.511719 C 330.699219 166.511719 329.917969 167.210938 329.550781 167.582031 C 329.136719 167.953125 328.398438 168.691406 328.359375 168.691406 C 328.359375 168.691406 327.410156 169.226562 326.960938 169.472656 C 326.507812 169.761719 325.5625 170.253906 325.5625 170.253906 C 325.519531 170.296875 324.492188 170.542969 324 170.707031 C 323.464844 170.828125 322.476562 171.117188 322.4375 171.117188 C 322.4375 171.117188 321.367188 171.160156 320.832031 171.160156 C 320.300781 171.160156 319.230469 171.199219 319.230469 171.199219 C 319.148438 171.242188 314.5 178.722656 311.253906 181.972656 C 307.800781 185.425781 302.578125 187.769531 298.960938 191.097656 C 295.507812 194.304688 293.410156 198.335938 289.914062 201.5 C 286.175781 204.914062 281.074219 207.378906 276.964844 210.710938 C 272.851562 214.082031 268.371094 220.167969 265.328125 221.605469 C 263.808594 222.347656 261.546875 221.730469 261.382812 222.140625 C 261.257812 222.347656 261.585938 222.46875 261.792969 222.839844 C 262.65625 224.484375 265.824219 231.351562 267.21875 235.832031 C 268.617188 240.355469 269.316406 244.917969 270.261719 249.808594 C 271.289062 255.195312 271.867188 261.488281 273.101562 266.832031 C 274.210938 271.722656 275.855469 276.042969 277.171875 280.644531 C 278.527344 285.292969 281.691406 290.882812 281.035156 294.664062 C 280.542969 297.625 275.9375 301.367188 275.976562 301.941406 C 275.976562 302.023438 276.019531 302.023438 276.058594 302.066406 C 276.222656 302.273438 277.046875 303.300781 277.089844 303.339844 C 277.089844 303.339844 277.539062 304.328125 277.746094 304.78125 C 277.992188 305.273438 278.445312 306.21875 278.445312 306.261719 C 278.445312 306.261719 278.445312 306.425781 278.484375 306.507812 C 278.484375 306.546875 278.527344 306.589844 278.527344 306.589844 C 278.527344 306.589844 278.484375 306.546875 278.484375 306.546875 C 278.445312 306.589844 278.648438 307.371094 278.734375 307.824219 C 278.855469 308.355469 279.0625 309.386719 279.0625 309.425781 C 279.0625 309.425781 279.019531 310.496094 278.980469 311.03125 C 278.9375 311.5625 278.898438 312.632812 278.898438 312.632812 C 278.898438 312.675781 278.609375 313.660156 278.445312 314.195312 C 278.28125 314.6875 277.992188 315.714844 277.992188 315.714844 C 277.953125 315.757812 277.417969 316.660156 277.171875 317.113281 C 276.882812 317.566406 276.347656 318.472656 276.347656 318.511719 C 276.308594 318.511719 275.609375 319.253906 275.195312 319.664062 C 274.828125 320.035156 274.085938 320.773438 274.085938 320.816406 C 274.085938 320.816406 273.183594 321.390625 272.730469 321.636719 C 272.277344 321.925781 271.375 322.5 271.332031 322.5 C 271.332031 322.5 270.34375 322.828125 269.8125 322.992188 C 269.316406 323.15625 268.289062 323.488281 268.289062 323.488281 C 268.25 323.488281 267.21875 323.570312 266.6875 323.609375 C 266.152344 323.652344 265.082031 323.734375 265.082031 323.734375 C 265.042969 323.691406 259.449219 323.15625 256.449219 321.84375 C 252.460938 320.117188 247.9375 316.128906 243.828125 312.960938 C 239.632812 309.714844 235.933594 305.230469 231.492188 302.640625 C 227.257812 300.175781 222.160156 299.96875 217.925781 297.503906 C 213.484375 294.914062 209.371094 290.84375 205.507812 287.265625 C 201.726562 283.8125 195.023438 276.492188 194.984375 276.492188 C 194.941406 276.492188 193.914062 276.371094 193.378906 276.289062 C 192.84375 276.207031 191.777344 276.082031 191.777344 276.082031 C 191.734375 276.082031 190.746094 275.710938 190.253906 275.507812 C 189.761719 275.34375 188.773438 274.972656 188.773438 274.972656 C 188.734375 274.929688 187.871094 274.355469 187.417969 274.027344 C 187.007812 273.738281 186.101562 273.121094 186.101562 273.121094 C 186.101562 273.121094 185.980469 272.792969 185.8125 272.792969 C 184.621094 272.628906 176.480469 279.042969 172.042969 282.085938 C 167.804688 284.964844 163.859375 287.839844 159.707031 290.511719 C 155.675781 293.144531 151.855469 295.324219 147.496094 297.996094 C 142.5625 301.078125 136.273438 304.492188 131.667969 307.945312 C 127.636719 310.945312 125.171875 315.304688 121.140625 317.320312 C 117.195312 319.335938 112.300781 320.117188 107.820312 320.15625 C 103.378906 320.15625 97.625 320.402344 94.417969 317.484375 C 90.511719 313.949219 88.578125 297.667969 88.578125 297.667969 M 118.878906 287.304688 C 120.9375 285.703125 119.785156 285.167969 119.414062 285.332031 C 119.042969 285.539062 118.878906 287.304688 118.878906 287.304688 M 141.371094 206.804688 C 150.042969 210.175781 156.007812 211.367188 160.242188 212.109375 C 163.859375 212.808594 170.355469 213.753906 170.394531 213.546875 C 170.394531 213.464844 169.121094 213.136719 167.972656 212.808594 C 165.175781 212.027344 156.992188 210.011719 153.582031 209.023438 C 151.691406 208.492188 150.867188 207.996094 149.179688 207.667969 C 146.960938 207.214844 141.371094 206.804688 141.371094 206.804688 " clip-rule="nonzero"/></clipPath><clipPath id="5d169bae60"><path d="M 115.898438 129.308594 L 177.332031 129.308594 L 177.332031 148.363281 L 115.898438 148.363281 Z M 115.898438 129.308594 " clip-rule="nonzero"/></clipPath><clipPath id="f802160c90"><path d="M 118.304688 131.03125 C 127.226562 131.976562 137.710938 132.140625 144.414062 132.101562 C 150.167969 132.019531 155.308594 131.769531 160.527344 131.441406 C 165.503906 131.074219 172.574219 129.59375 175.082031 130.042969 C 175.988281 130.207031 176.523438 130.457031 176.890625 130.949219 C 177.222656 131.441406 177.386719 132.429688 177.179688 132.964844 C 176.976562 133.539062 176.5625 133.992188 175.660156 134.363281 C 172.945312 135.429688 158.964844 134.976562 156.457031 134.691406 C 155.84375 134.609375 155.636719 134.609375 155.308594 134.402344 C 154.894531 134.15625 154.363281 133.621094 154.15625 133.085938 C 153.949219 132.59375 153.949219 131.851562 154.15625 131.359375 C 154.363281 130.867188 154.894531 130.332031 155.308594 130.042969 C 155.636719 129.839844 156.046875 129.675781 156.457031 129.757812 C 157.035156 129.921875 157.773438 130.703125 158.269531 131.484375 C 158.84375 132.46875 159.832031 134.445312 159.417969 135.472656 C 159.050781 136.457031 157.445312 136.828125 155.964844 137.527344 C 153.582031 138.636719 148.605469 139.789062 146.304688 140.859375 C 144.90625 141.554688 144.164062 142.335938 143.179688 142.832031 C 142.273438 143.285156 141.535156 143.324219 140.507812 143.859375 C 138.945312 144.722656 136.273438 147.269531 134.914062 147.886719 C 134.257812 148.21875 133.847656 148.382812 133.3125 148.339844 C 132.777344 148.300781 132.160156 148.050781 131.75 147.722656 C 131.378906 147.355469 131.007812 146.820312 130.925781 146.285156 C 130.84375 145.585938 131.089844 144.433594 131.585938 143.898438 C 132.117188 143.40625 133.230469 143.035156 133.929688 143.160156 C 134.628906 143.285156 135.53125 144.0625 135.859375 144.640625 C 136.105469 145.132812 136.148438 145.792969 136.023438 146.324219 C 135.902344 146.820312 135.613281 147.4375 135.160156 147.722656 C 134.585938 148.132812 133.433594 148.421875 132.734375 148.257812 C 132.078125 148.050781 131.253906 147.148438 131.007812 146.53125 C 130.761719 146.039062 130.84375 145.378906 131.007812 144.886719 C 131.171875 144.394531 131.542969 143.980469 132.035156 143.570312 C 132.777344 142.953125 134.460938 142.625 135.324219 141.96875 C 136.023438 141.433594 136.273438 140.570312 136.96875 140.035156 C 137.792969 139.460938 138.984375 139.296875 140.09375 138.71875 C 141.410156 138.019531 142.5625 136.910156 144.328125 136.089844 C 146.921875 134.855469 152.265625 132.101562 154.320312 132.550781 C 155.390625 132.800781 156.539062 134.484375 156.457031 134.691406 C 156.375 134.773438 155.636719 134.609375 155.308594 134.402344 C 154.894531 134.15625 154.363281 133.621094 154.15625 133.085938 C 153.949219 132.59375 153.949219 131.851562 154.15625 131.359375 C 154.363281 130.867188 154.566406 130.375 155.308594 130.042969 C 157.816406 128.933594 172.042969 129.304688 175.082031 130.042969 C 176.027344 130.292969 176.523438 130.457031 176.890625 130.949219 C 177.222656 131.441406 177.386719 132.429688 177.179688 132.964844 C 176.976562 133.539062 176.441406 134.03125 175.660156 134.363281 C 174.21875 134.9375 170.847656 134.238281 168.382812 134.402344 C 165.832031 134.566406 163.695312 135.019531 160.652344 135.265625 C 156.210938 135.636719 150.210938 135.964844 144.371094 136.089844 C 137.546875 136.210938 126.773438 136.128906 122.210938 135.839844 C 120.15625 135.71875 118.796875 135.675781 117.769531 135.347656 C 117.152344 135.183594 116.703125 135.019531 116.414062 134.648438 C 116.042969 134.195312 115.835938 133.210938 115.921875 132.675781 C 116.003906 132.183594 116.414062 131.648438 116.824219 131.402344 C 117.195312 131.113281 118.304688 131.03125 118.304688 131.03125 " clip-rule="nonzero"/></clipPath><clipPath id="d2188274a4"><path d="M 96 134.25 L 137.203125 134.25 L 137.203125 156.207031 L 96 156.207031 Z M 96 134.25 " clip-rule="nonzero"/></clipPath><clipPath id="74f86d8da5"><path d="M 96.554688 154.589844 C 103.050781 152.738281 110.289062 151.835938 114.6875 151.339844 C 118.222656 151.011719 121.71875 151.300781 124.265625 150.765625 C 125.992188 150.355469 127.351562 149.328125 128.542969 149.039062 C 129.324219 148.875 130.105469 149.410156 130.558594 148.957031 C 131.378906 148.050781 130.433594 143.488281 130.722656 141.636719 C 130.925781 140.527344 131.089844 139.871094 131.585938 138.925781 C 132.160156 137.816406 133.230469 136.375 134.132812 135.554688 C 134.792969 134.976562 135.65625 134.363281 136.1875 134.320312 C 136.558594 134.277344 136.96875 134.527344 137.09375 134.730469 C 137.21875 134.9375 137.21875 135.347656 137.09375 135.511719 C 136.929688 135.71875 136.1875 135.921875 135.941406 135.800781 C 135.738281 135.71875 135.574219 135.390625 135.53125 135.144531 C 135.53125 134.9375 135.695312 134.566406 135.859375 134.445312 C 136.105469 134.320312 136.683594 134.320312 136.886719 134.484375 C 137.09375 134.648438 137.257812 135.144531 137.136719 135.429688 C 136.96875 135.839844 136.023438 136.007812 135.449219 136.539062 C 134.667969 137.238281 133.640625 138.433594 133.105469 139.378906 C 132.695312 140.160156 132.53125 140.734375 132.367188 141.761719 C 132.078125 143.40625 132.652344 146.902344 132.203125 148.421875 C 131.953125 149.285156 131.667969 149.902344 131.089844 150.355469 C 130.390625 150.847656 129.078125 150.601562 128.046875 150.890625 C 126.855469 151.257812 125.871094 152.039062 124.308594 152.410156 C 121.964844 152.945312 118.46875 152.617188 115.015625 152.984375 C 110.699219 153.398438 103.585938 154.300781 100.421875 155.042969 C 98.816406 155.410156 97.625 156.316406 96.882812 156.191406 C 96.472656 156.109375 96.0625 155.824219 96.019531 155.535156 C 95.9375 155.289062 96.554688 154.589844 96.554688 154.589844 " clip-rule="nonzero"/></clipPath><clipPath id="835e4d5e03"><path d="M 80.367188 139.191406 L 140.328125 139.191406 L 140.328125 165.597656 L 80.367188 165.597656 Z M 80.367188 139.191406 " clip-rule="nonzero"/></clipPath><clipPath id="eff764e88b"><path d="M 89.6875 139.335938 C 107.945312 143.816406 123.484375 149.285156 129.445312 150.3125 C 132.035156 150.808594 133.722656 150.3125 135.160156 150.726562 C 136.066406 150.972656 136.683594 151.382812 137.300781 151.875 C 137.957031 152.371094 138.53125 152.984375 138.984375 153.683594 C 139.4375 154.34375 139.808594 155.125 140.011719 155.90625 C 140.21875 156.6875 140.34375 157.550781 140.257812 158.371094 C 140.21875 159.152344 140.054688 160.015625 139.726562 160.757812 C 139.4375 161.496094 138.984375 162.238281 138.449219 162.855469 C 137.917969 163.46875 137.257812 164.046875 136.558594 164.457031 C 135.902344 164.867188 135.078125 165.195312 134.296875 165.363281 C 133.515625 165.527344 132.652344 165.566406 131.832031 165.484375 C 131.007812 165.363281 130.1875 165.15625 129.445312 164.785156 C 128.746094 164.457031 128.007812 163.964844 127.433594 163.429688 C 126.855469 162.855469 126.320312 162.15625 125.953125 161.457031 C 125.582031 160.714844 125.292969 159.894531 125.171875 159.113281 C 125.046875 158.289062 125.046875 157.425781 125.171875 156.644531 C 125.335938 155.863281 125.582031 155.042969 125.992188 154.300781 C 126.363281 153.601562 126.898438 152.902344 127.472656 152.371094 C 128.089844 151.792969 128.789062 151.339844 129.527344 151.011719 C 130.269531 150.644531 131.089844 150.4375 131.914062 150.355469 C 132.695312 150.273438 133.558594 150.3125 134.339844 150.476562 C 135.160156 150.683594 135.941406 150.972656 136.640625 151.425781 C 137.339844 151.835938 138 152.410156 138.492188 153.027344 C 139.027344 153.644531 139.480469 154.382812 139.765625 155.125 C 140.054688 155.863281 140.257812 156.726562 140.300781 157.550781 C 140.34375 158.332031 140.21875 159.195312 140.011719 159.976562 C 139.765625 160.757812 139.4375 161.539062 138.945312 162.195312 C 138.492188 162.894531 137.917969 163.511719 137.257812 164.003906 C 136.601562 164.457031 135.859375 164.867188 135.078125 165.113281 C 134.296875 165.402344 133.679688 165.484375 132.652344 165.527344 C 130.804688 165.566406 128.296875 165.484375 124.964844 164.867188 C 118.511719 163.675781 104.285156 158.578125 97.128906 156.6875 C 92.648438 155.535156 88.742188 155.042969 86.195312 154.136719 C 84.753906 153.601562 83.851562 153.234375 82.945312 152.453125 C 82.082031 151.710938 81.261719 150.394531 80.847656 149.492188 C 80.5625 148.875 80.4375 148.421875 80.398438 147.722656 C 80.316406 146.738281 80.519531 145.050781 80.808594 144.105469 C 81.015625 143.449219 81.21875 143.035156 81.628906 142.460938 C 82.246094 141.679688 83.480469 140.527344 84.34375 140.035156 C 84.917969 139.664062 85.332031 139.5 86.03125 139.378906 C 87.015625 139.171875 89.6875 139.335938 89.6875 139.335938 " clip-rule="nonzero"/></clipPath><clipPath id="a51ef6f540"><path d="M 50.957031 115.734375 L 198.867188 115.734375 L 198.867188 233.242188 L 50.957031 233.242188 Z M 50.957031 115.734375 " clip-rule="nonzero"/></clipPath><clipPath id="111a3484c2"><path d="M 50.960938 147.269531 C 56.140625 134.691406 59.675781 134.8125 62.472656 134.03125 C 65.308594 133.292969 68.144531 132.757812 71.0625 132.101562 C 74.066406 131.441406 77.148438 130.578125 80.152344 130.085938 C 83.109375 129.59375 86.113281 129.140625 88.949219 129.097656 C 91.582031 129.058594 94.007812 129.261719 96.597656 129.714844 C 99.269531 130.167969 102.640625 131.195312 104.695312 131.8125 C 106.050781 132.183594 106.710938 132.675781 107.945312 132.839844 C 109.589844 133.046875 111.601562 132.46875 113.660156 132.429688 C 115.960938 132.347656 119.742188 132.882812 121.058594 132.386719 C 121.636719 132.183594 121.59375 131.769531 122.167969 131.484375 C 123.484375 130.867188 127.472656 131.03125 129.324219 129.839844 C 131.007812 128.6875 131.542969 126.386719 132.984375 124.699219 C 134.628906 122.765625 136.519531 120.421875 138.820312 118.945312 C 141.164062 117.382812 144.328125 115.695312 147.085938 115.738281 C 149.878906 115.777344 153.949219 117.214844 155.511719 119.230469 C 156.910156 121.121094 156.746094 124.410156 156.5 127.003906 C 156.210938 129.714844 154.445312 132.386719 153.746094 135.183594 C 153.046875 138.019531 152.921875 140.898438 152.265625 143.898438 C 151.523438 147.1875 150.414062 150.972656 149.429688 154.136719 C 148.566406 156.851562 147.703125 158.988281 146.753906 161.703125 C 145.6875 164.828125 144.082031 171.570312 143.261719 171.773438 C 143.097656 171.859375 142.890625 171.324219 142.769531 171.363281 C 142.355469 171.570312 143.796875 176.214844 142.769531 177.449219 C 141.699219 178.765625 137.710938 177.859375 136.273438 178.765625 C 135.242188 179.339844 134.339844 180.121094 134.214844 181.191406 C 134.050781 182.875 137.011719 185.714844 137.917969 188.222656 C 138.863281 190.851562 138.121094 194.429688 139.644531 196.730469 C 141.289062 199.199219 144.90625 200.800781 147.785156 202.40625 C 150.660156 204.007812 154.03125 205.117188 156.910156 206.433594 C 159.460938 207.585938 161.679688 208.777344 164.105469 209.847656 C 166.53125 210.917969 168.957031 211.820312 171.507812 212.847656 C 174.179688 213.957031 177.015625 215.480469 179.851562 216.34375 C 182.523438 217.164062 185.980469 217.742188 188.035156 217.945312 C 189.226562 218.070312 190.253906 217.945312 190.914062 217.988281 C 191.242188 218.027344 191.445312 218.109375 191.695312 218.109375 C 191.980469 218.152344 192.308594 218.109375 192.515625 218.195312 C 192.679688 218.195312 192.804688 218.277344 192.925781 218.316406 C 193.050781 218.359375 193.171875 218.359375 193.339844 218.398438 C 193.542969 218.480469 193.789062 218.6875 194.039062 218.769531 C 194.285156 218.890625 194.613281 218.972656 194.816406 219.097656 C 194.941406 219.179688 195.023438 219.304688 195.148438 219.386719 C 195.230469 219.425781 195.351562 219.46875 195.476562 219.550781 C 195.683594 219.714844 195.847656 219.960938 196.050781 220.167969 C 196.257812 220.371094 196.546875 220.535156 196.667969 220.703125 C 196.792969 220.824219 196.832031 220.949219 196.914062 221.070312 C 196.996094 221.152344 197.078125 221.234375 197.160156 221.359375 C 197.285156 221.566406 197.410156 221.851562 197.53125 222.097656 C 197.65625 222.347656 197.859375 222.59375 197.941406 222.796875 C 197.984375 222.960938 197.984375 223.085938 198.023438 223.210938 C 198.066406 223.332031 198.148438 223.457031 198.191406 223.578125 C 198.273438 223.824219 198.230469 224.15625 198.273438 224.402344 C 198.3125 224.691406 198.4375 225.019531 198.476562 225.222656 C 198.476562 225.386719 198.394531 225.511719 198.394531 225.636719 C 198.394531 225.757812 198.476562 225.882812 198.4375 226.046875 C 198.4375 226.25 198.3125 226.582031 198.273438 226.867188 C 198.230469 227.113281 198.230469 227.445312 198.191406 227.648438 C 198.148438 227.8125 198.066406 227.894531 197.984375 228.0625 C 197.941406 228.183594 197.984375 228.308594 197.902344 228.429688 C 197.820312 228.636719 197.613281 228.925781 197.492188 229.171875 C 197.367188 229.375 197.242188 229.707031 197.121094 229.910156 C 197.039062 230.035156 196.914062 230.074219 196.832031 230.199219 C 196.75 230.320312 196.75 230.445312 196.628906 230.570312 C 196.503906 230.734375 196.214844 230.898438 196.011719 231.0625 C 195.804688 231.269531 195.597656 231.554688 195.433594 231.679688 C 195.3125 231.761719 195.1875 231.800781 195.066406 231.882812 C 194.941406 231.925781 194.902344 232.050781 194.734375 232.132812 C 194.570312 232.253906 194.242188 232.335938 193.996094 232.417969 C 193.75 232.542969 193.460938 232.746094 193.257812 232.828125 C 193.089844 232.871094 192.96875 232.828125 192.84375 232.871094 C 192.722656 232.914062 192.597656 232.996094 192.476562 233.035156 C 192.226562 233.078125 191.898438 233.035156 191.652344 233.078125 C 191.363281 233.117188 191.035156 233.199219 190.832031 233.199219 C 190.664062 233.199219 190.5 233.160156 190.378906 233.117188 C 190.253906 233.117188 190.132812 233.160156 190.007812 233.160156 C 189.84375 233.117188 189.761719 233.078125 189.472656 232.996094 C 188.40625 232.789062 184.582031 232.417969 181.867188 231.882812 C 178.742188 231.269531 175 230.40625 171.753906 229.417969 C 168.546875 228.472656 165.296875 227.28125 162.421875 226.085938 C 159.746094 224.976562 157.40625 223.742188 154.9375 222.550781 C 152.46875 221.359375 150.003906 220.125 147.535156 218.933594 C 145.027344 217.742188 142.480469 216.796875 139.972656 215.398438 C 137.300781 213.957031 134.296875 212.480469 131.953125 210.421875 C 129.609375 208.410156 127.226562 205.898438 125.910156 203.1875 C 124.675781 200.597656 125.089844 197.347656 124.101562 194.636719 C 123.113281 191.878906 121.59375 189.207031 119.992188 186.824219 C 118.429688 184.480469 116.703125 182.507812 114.6875 180.410156 C 112.464844 178.148438 109.628906 175.722656 107.082031 173.832031 C 104.738281 172.0625 102.351562 170.664062 100.089844 169.265625 C 97.996094 167.992188 96.144531 165.976562 94.046875 165.773438 C 91.867188 165.566406 89.730469 167.828125 87.179688 168.074219 C 84.054688 168.363281 79.453125 168.15625 76.574219 166.636719 C 73.859375 165.238281 71.3125 162.277344 70.242188 159.648438 C 69.253906 157.222656 71.433594 153.027344 69.953125 151.628906 C 68.1875 149.984375 62.144531 152.863281 58.851562 152 C 55.851562 151.257812 50.960938 147.269531 50.960938 147.269531 " clip-rule="nonzero"/></clipPath></defs><path fill="#02d7c2" d="M 295.675781 354.675781 C 293.828125 354.691406 292.113281 354.21875 290.53125 353.265625 L 186.515625 290.460938 L 82.5 353.265625 C 81.671875 353.761719 80.792969 354.132812 79.855469 354.371094 C 78.921875 354.609375 77.972656 354.707031 77.007812 354.664062 C 76.046875 354.621094 75.109375 354.441406 74.195312 354.125 C 73.285156 353.804688 72.441406 353.363281 71.660156 352.796875 C 70.878906 352.226562 70.199219 351.558594 69.617188 350.792969 C 69.03125 350.023438 68.574219 349.1875 68.234375 348.28125 C 67.898438 347.378906 67.699219 346.445312 67.640625 345.480469 C 67.578125 344.519531 67.660156 343.566406 67.878906 342.628906 L 95.492188 224.226562 L 3.464844 144.5625 C 2.738281 143.933594 2.113281 143.207031 1.597656 142.394531 C 1.082031 141.578125 0.695312 140.707031 0.4375 139.777344 C 0.179688 138.847656 0.0625 137.898438 0.0820312 136.933594 C 0.105469 135.972656 0.261719 135.03125 0.5625 134.113281 C 0.859375 133.195312 1.285156 132.339844 1.835938 131.550781 C 2.386719 130.757812 3.039062 130.0625 3.792969 129.460938 C 4.550781 128.863281 5.375 128.382812 6.273438 128.027344 C 7.167969 127.671875 8.097656 127.453125 9.058594 127.371094 L 130.152344 117.085938 L 177.488281 5.4375 C 177.925781 4.617188 178.464844 3.871094 179.101562 3.199219 C 179.742188 2.527344 180.460938 1.953125 181.257812 1.476562 C 182.050781 0.996094 182.898438 0.636719 183.792969 0.386719 C 184.6875 0.140625 185.597656 0.015625 186.527344 0.015625 C 187.453125 0.015625 188.363281 0.140625 189.257812 0.386719 C 190.152344 0.636719 191 0.996094 191.792969 1.476562 C 192.589844 1.953125 193.308594 2.527344 193.949219 3.199219 C 194.589844 3.871094 195.125 4.617188 195.5625 5.4375 L 242.882812 117.085938 L 363.992188 127.371094 C 364.953125 127.457031 365.878906 127.675781 366.777344 128.03125 C 367.671875 128.390625 368.496094 128.867188 369.25 129.46875 C 370.003906 130.070312 370.65625 130.765625 371.203125 131.558594 C 371.753906 132.347656 372.175781 133.203125 372.472656 134.121094 C 372.773438 135.039062 372.929688 135.976562 372.949219 136.941406 C 372.972656 137.90625 372.851562 138.851562 372.59375 139.78125 C 372.335938 140.710938 371.949219 141.582031 371.433594 142.394531 C 370.917969 143.210938 370.292969 143.933594 369.566406 144.5625 L 277.617188 224.226562 L 305.230469 342.628906 C 305.316406 342.988281 305.378906 343.347656 305.421875 343.714844 C 305.464844 344.082031 305.488281 344.449219 305.492188 344.816406 C 305.492188 345.183594 305.472656 345.554688 305.433594 345.917969 C 305.394531 346.285156 305.335938 346.648438 305.253906 347.007812 C 305.171875 347.367188 305.074219 347.722656 304.953125 348.070312 C 304.832031 348.417969 304.691406 348.761719 304.535156 349.09375 C 304.375 349.425781 304.199219 349.746094 304.003906 350.058594 C 303.808594 350.375 303.59375 350.675781 303.367188 350.960938 C 303.136719 351.25 302.890625 351.527344 302.632812 351.789062 C 302.371094 352.050781 302.097656 352.292969 301.8125 352.523438 C 301.523438 352.753906 301.222656 352.96875 300.910156 353.164062 C 300.597656 353.363281 300.277344 353.539062 299.945312 353.699219 C 299.613281 353.863281 299.273438 354.003906 298.925781 354.125 C 298.578125 354.246094 298.226562 354.347656 297.867188 354.429688 C 297.507812 354.511719 297.144531 354.574219 296.777344 354.617188 C 296.410156 354.65625 296.042969 354.679688 295.675781 354.675781 Z M 186.515625 269.167969 C 188.335938 269.175781 190.023438 269.652344 191.578125 270.601562 L 280.835938 324.453125 L 257.167969 222.910156 C 256.96875 222.039062 256.886719 221.160156 256.925781 220.265625 C 256.964844 219.375 257.121094 218.503906 257.398438 217.65625 C 257.675781 216.804688 258.058594 216.007812 258.554688 215.265625 C 259.046875 214.523438 259.632812 213.859375 260.308594 213.273438 L 339.164062 144.957031 L 235.324219 136.144531 C 234.4375 136.070312 233.578125 135.882812 232.742188 135.574219 C 231.910156 135.269531 231.128906 134.855469 230.40625 134.335938 C 229.683594 133.816406 229.046875 133.210938 228.488281 132.519531 C 227.929688 131.828125 227.472656 131.074219 227.121094 130.257812 L 186.515625 34.402344 L 145.929688 130.199219 C 145.578125 131.015625 145.121094 131.769531 144.5625 132.460938 C 144.007812 133.152344 143.367188 133.757812 142.644531 134.277344 C 141.921875 134.796875 141.140625 135.207031 140.308594 135.515625 C 139.472656 135.824219 138.613281 136.011719 137.726562 136.085938 L 33.886719 144.898438 L 112.742188 213.214844 C 113.417969 213.800781 114.003906 214.464844 114.496094 215.207031 C 114.992188 215.949219 115.375 216.746094 115.652344 217.597656 C 115.929688 218.445312 116.085938 219.316406 116.125 220.207031 C 116.164062 221.101562 116.085938 221.980469 115.882812 222.851562 L 92.195312 324.453125 L 181.453125 270.601562 C 183.007812 269.652344 184.695312 269.175781 186.515625 269.167969 Z M 186.515625 269.167969 " fill-opacity="1" fill-rule="nonzero"/><path stroke-linecap="round" transform="matrix(0, -0.411143, 0.411143, 0, 178.864709, 280.233526)" fill="none" stroke-linejoin="miter" d="M 21.004559 21.003151 L 660.599702 21.003151 " stroke="#02d7c2" stroke-width="42" stroke-opacity="1" stroke-miterlimit="4"/><path stroke-linecap="round" transform="matrix(-0.411143, 0, 0, -0.411143, 349.649132, 158.140096)" fill="none" stroke-linejoin="miter" d="M 20.998811 20.995836 L 763.137818 20.995836 " stroke="#02d7c2" stroke-width="42" stroke-opacity="1" stroke-miterlimit="4"/><path stroke-linecap="round" transform="matrix(-0.240309, 0.333601, -0.333601, -0.240309, 241.727069, 136.41752)" fill="none" stroke-linejoin="miter" d="M 20.99557 21.000699 L 587.422354 20.999262 " stroke="#02d7c2" stroke-width="42" stroke-opacity="1" stroke-miterlimit="4"/><path stroke-linecap="round" transform="matrix(0.246526, 0.329034, -0.329034, 0.246526, 147.178032, 126.194053)" fill="none" stroke-linejoin="miter" d="M 21.000799 21.000732 L 590.256596 21.001417 " stroke="#02d7c2" stroke-width="42" stroke-opacity="1" stroke-miterlimit="4"/><g clip-path="url(#8159d81368)"><g clip-path="url(#98fa68c5af)"><path fill="#252732" d="M 119.085938 145.832031 L 172.90625 145.832031 L 172.90625 228.664062 L 119.085938 228.664062 Z M 119.085938 145.832031 " fill-opacity="1" fill-rule="nonzero"/></g></g><g clip-path="url(#36ac3a8ef9)"><g clip-path="url(#509ca9d2e5)"><path fill="#252732" d="M 62.675781 122.726562 L 156.289062 122.726562 L 156.289062 163.550781 L 62.675781 163.550781 Z M 62.675781 122.726562 " fill-opacity="1" fill-rule="nonzero"/></g></g><g clip-path="url(#98b7388f65)"><g clip-path="url(#b879367d2e)"><path fill="#02d7c2" d="M 41.707031 140.117188 L 140.367188 140.117188 L 140.367188 226.910156 L 41.707031 226.910156 Z M 41.707031 140.117188 " fill-opacity="1" fill-rule="nonzero"/></g></g><g clip-path="url(#0c016ae31c)"><g clip-path="url(#7943980197)"><path fill="#02d7c2" d="M 86.933594 49.007812 L 335.378906 49.007812 L 335.378906 325.378906 L 86.933594 325.378906 Z M 86.933594 49.007812 " fill-opacity="1" fill-rule="nonzero"/></g></g><g clip-path="url(#5d169bae60)"><g clip-path="url(#f802160c90)"><path fill="#02d7c2" d="M 114.277344 128.113281 L 178.78125 128.113281 L 178.78125 149.984375 L 114.277344 149.984375 Z M 114.277344 128.113281 " fill-opacity="1" fill-rule="nonzero"/></g></g><g clip-path="url(#d2188274a4)"><g clip-path="url(#74f86d8da5)"><path fill="#0571d3" d="M 94.375 132.675781 L 138.777344 132.675781 L 138.777344 157.878906 L 94.375 157.878906 Z M 94.375 132.675781 " fill-opacity="1" fill-rule="nonzero"/></g></g><g clip-path="url(#835e4d5e03)"><g clip-path="url(#eff764e88b)"><path fill="#02d7c2" d="M 78.753906 137.691406 L 141.945312 137.691406 L 141.945312 167.210938 L 78.753906 167.210938 Z M 78.753906 137.691406 " fill-opacity="1" fill-rule="nonzero"/></g></g><g clip-path="url(#a51ef6f540)"><g clip-path="url(#111a3484c2)"><path fill="#02d7c2" d="M 49.316406 114.09375 L 200.101562 114.09375 L 200.101562 234.886719 L 49.316406 234.886719 Z M 49.316406 114.09375 " fill-opacity="1" fill-rule="nonzero"/></g></g></svg>