<svg xmlns="http://www.w3.org/2000/svg" xmlns:xlink="http://www.w3.org/1999/xlink" width="500" zoomAndPan="magnify" viewBox="0 0 375 374.999991" height="500" preserveAspectRatio="xMidYMid meet" version="1.0"><defs><clipPath id="c9bc2e596f"><path d="M 0 9.886719 L 373 9.886719 L 373 365 L 0 365 Z M 0 9.886719 " clip-rule="nonzero"/></clipPath><clipPath id="816d858512"><path d="M 120.558594 157.191406 L 171.433594 157.191406 L 171.433594 236.867188 L 120.558594 236.867188 Z M 120.558594 157.191406 " clip-rule="nonzero"/></clipPath><clipPath id="adc506e886"><path d="M 147.25 168.667969 C 149.796875 184.046875 150.703125 189.597656 152.511719 194.285156 C 154.28125 198.847656 156.707031 203.574219 159.582031 207.277344 C 162.253906 210.6875 167.105469 213.441406 168.917969 215.949219 C 169.984375 217.390625 170.355469 218.5 170.726562 219.855469 C 171.136719 221.214844 171.300781 222.734375 171.21875 224.132812 C 171.136719 225.570312 170.808594 227.050781 170.3125 228.367188 C 169.78125 229.683594 169 231 168.09375 232.066406 C 167.148438 233.179688 165.996094 234.164062 164.804688 234.90625 C 163.570312 235.644531 162.171875 236.179688 160.777344 236.507812 C 159.378906 236.796875 157.855469 236.878906 156.457031 236.753906 C 155.0625 236.589844 153.582031 236.179688 152.304688 235.605469 C 150.992188 234.988281 149.757812 234.164062 148.6875 233.179688 C 147.660156 232.191406 146.753906 231 146.097656 229.722656 C 145.398438 228.492188 144.945312 227.050781 144.699219 225.652344 C 144.453125 224.257812 144.453125 222.734375 144.699219 221.335938 C 144.90625 219.9375 145.398438 218.5 146.058594 217.226562 C 146.714844 215.949219 147.621094 214.757812 148.648438 213.773438 C 149.675781 212.785156 150.949219 211.964844 152.222656 211.347656 C 153.539062 210.730469 154.980469 210.320312 156.417969 210.195312 C 157.816406 210.03125 159.335938 210.113281 160.734375 210.402344 C 162.089844 210.6875 163.53125 211.265625 164.722656 212.003906 C 165.957031 212.746094 167.105469 213.691406 168.054688 214.800781 C 168.957031 215.867188 169.738281 217.183594 170.273438 218.5 C 170.808594 219.816406 171.136719 221.296875 171.21875 222.695312 C 171.300781 224.132812 171.136719 225.652344 170.765625 227.011719 C 170.394531 228.367188 169.738281 229.765625 168.957031 230.917969 C 168.136719 232.109375 167.105469 233.21875 165.996094 234.082031 C 164.847656 234.945312 163.53125 235.644531 162.171875 236.097656 C 160.816406 236.550781 159.335938 236.835938 157.898438 236.835938 C 156.5 236.835938 154.980469 236.589844 153.621094 236.136719 C 152.304688 235.6875 149.796875 234.164062 149.796875 234.125 C 149.839844 234.082031 151.113281 234.78125 151.195312 234.699219 C 151.359375 234.410156 144 229.640625 140.835938 226.105469 C 137.175781 221.996094 133.679688 216.15625 131.007812 211.097656 C 128.542969 206.453125 126.773438 202.464844 125.171875 196.996094 C 123.15625 190.132812 121.265625 177.058594 120.8125 172.738281 C 120.648438 171.175781 120.605469 170.601562 120.730469 169.53125 C 120.8125 168.464844 121.058594 167.394531 121.386719 166.367188 C 121.757812 165.378906 122.210938 164.351562 122.785156 163.488281 C 123.363281 162.585938 124.101562 161.722656 124.84375 160.980469 C 125.621094 160.28125 126.527344 159.625 127.433594 159.089844 C 128.378906 158.554688 129.40625 158.144531 130.433594 157.855469 C 131.460938 157.570312 132.53125 157.40625 133.597656 157.363281 C 134.667969 157.320312 135.777344 157.40625 136.804688 157.652344 C 137.875 157.855469 138.902344 158.226562 139.847656 158.679688 C 140.835938 159.171875 141.738281 159.746094 142.5625 160.445312 C 143.382812 161.105469 144.164062 161.925781 144.78125 162.789062 C 145.398438 163.652344 145.972656 164.597656 146.386719 165.585938 C 146.796875 166.574219 147.25 168.667969 147.25 168.667969 " clip-rule="nonzero"/></clipPath><clipPath id="8554f5f9e0"><path d="M 64.273438 134.207031 L 154.695312 134.207031 L 154.695312 172.164062 L 64.273438 172.164062 Z M 64.273438 134.207031 " clip-rule="nonzero"/></clipPath><clipPath id="2fee64e0b3"><path d="M 149.46875 158.144531 C 142.519531 163.078125 136.148438 166.820312 131.132812 168.421875 C 126.445312 169.945312 121.46875 170.027344 116.660156 170.601562 C 112.015625 171.136719 108.148438 171.546875 102.847656 171.792969 C 95.691406 172.082031 82.535156 172.207031 77.683594 171.792969 C 75.628906 171.628906 74.765625 171.546875 73.40625 171.09375 C 72.050781 170.644531 70.734375 169.945312 69.585938 169.082031 C 68.433594 168.21875 67.40625 167.105469 66.625 165.914062 C 65.800781 164.765625 65.183594 163.367188 64.816406 162.007812 C 64.402344 160.652344 64.238281 159.132812 64.320312 157.691406 C 64.402344 156.292969 64.734375 154.8125 65.265625 153.5 C 65.800781 152.140625 66.582031 150.867188 67.488281 149.757812 C 68.390625 148.6875 69.585938 147.703125 70.777344 146.960938 C 72.011719 146.261719 73.40625 145.6875 74.804688 145.359375 C 76.203125 145.070312 77.683594 144.988281 79.121094 145.152344 C 80.519531 145.316406 82 145.6875 83.273438 146.304688 C 84.589844 146.878906 85.824219 147.742188 86.851562 148.730469 C 87.878906 149.714844 88.824219 150.910156 89.484375 152.183594 C 90.140625 153.417969 90.636719 154.855469 90.839844 156.253906 C 91.085938 157.691406 91.085938 159.171875 90.839844 160.609375 C 90.636719 162.007812 90.140625 163.449219 89.484375 164.679688 C 88.824219 165.957031 87.878906 167.148438 86.851562 168.136719 C 85.824219 169.121094 84.589844 169.945312 83.273438 170.5625 C 82 171.136719 80.519531 171.546875 79.121094 171.710938 C 77.683594 171.875 76.203125 171.792969 74.804688 171.464844 C 73.40625 171.175781 72.011719 170.601562 70.777344 169.863281 C 69.542969 169.164062 68.390625 168.175781 67.488281 167.066406 C 66.582031 165.996094 65.800781 164.679688 65.265625 163.367188 C 64.734375 162.050781 64.402344 160.570312 64.320312 159.132812 C 64.238281 157.734375 64.402344 156.210938 64.816406 154.855469 C 65.183594 153.5 65.800781 152.101562 66.625 150.910156 C 67.40625 149.757812 68.472656 148.648438 69.585938 147.785156 C 70.734375 146.921875 72.050781 146.222656 73.40625 145.769531 C 74.765625 145.316406 75.546875 145.234375 77.683594 145.070312 C 83.644531 144.617188 102.722656 146.796875 112.136719 145.398438 C 118.960938 144.371094 125.089844 142.070312 129.324219 139.929688 C 132.117188 138.574219 133.96875 136.273438 135.820312 135.367188 C 136.96875 134.832031 137.832031 134.628906 138.902344 134.421875 C 139.929688 134.257812 141.039062 134.175781 142.109375 134.257812 C 143.179688 134.339844 144.246094 134.542969 145.277344 134.832031 C 146.304688 135.160156 147.289062 135.613281 148.195312 136.1875 C 149.140625 136.722656 150.003906 137.421875 150.742188 138.164062 C 151.484375 138.945312 152.183594 139.808594 152.71875 140.710938 C 153.25 141.617188 153.703125 142.644531 154.03125 143.671875 C 154.320312 144.660156 154.527344 145.769531 154.609375 146.839844 C 154.648438 147.90625 154.566406 149.015625 154.402344 150.042969 C 154.199219 151.113281 153.867188 152.140625 153.417969 153.128906 C 152.964844 154.074219 152.386719 155.019531 151.730469 155.882812 C 151.074219 156.707031 149.46875 158.144531 149.46875 158.144531 " clip-rule="nonzero"/></clipPath><clipPath id="b96a31dc93"><path d="M 43.066406 151.359375 L 139 151.359375 L 139 235.441406 L 43.066406 235.441406 Z M 43.066406 151.359375 " clip-rule="nonzero"/></clipPath><clipPath id="5d398110be"><path d="M 43.351562 165.132812 C 43.929688 160.898438 44.300781 159.871094 44.792969 158.925781 C 45.285156 157.980469 45.863281 157.035156 46.558594 156.253906 C 47.257812 155.429688 48.082031 154.691406 48.945312 154.074219 C 49.808594 153.457031 50.796875 152.921875 51.78125 152.511719 C 52.769531 152.140625 53.835938 151.855469 54.90625 151.691406 C 55.933594 151.566406 57.042969 151.523438 58.113281 151.648438 C 59.183594 151.773438 60.25 152.019531 61.238281 152.347656 C 62.265625 152.71875 64.117188 153.828125 64.117188 153.828125 C 64.117188 153.828125 67.117188 155.761719 69.132812 157.15625 C 72.175781 159.214844 77.109375 162.789062 80.644531 165.214844 C 83.5625 167.273438 87.757812 171.261719 88.703125 170.808594 C 89.15625 170.5625 88.210938 169.203125 88.742188 168.339844 C 90.304688 165.957031 100.296875 162.050781 105.722656 160.324219 C 110.371094 158.882812 114.6875 157.855469 119.167969 158.0625 C 123.773438 158.308594 129.816406 159.007812 133.105469 161.761719 C 136.273438 164.476562 138.328125 169.984375 138.699219 174.300781 C 139.109375 178.578125 136.804688 182.9375 135.574219 187.5 C 134.214844 192.476562 131.214844 197.820312 130.761719 202.957031 C 130.351562 207.894531 132.613281 217.59375 132.613281 217.679688 C 132.652344 217.679688 132.816406 218.707031 132.941406 219.238281 C 133.023438 219.773438 133.230469 220.800781 133.230469 220.800781 C 133.230469 220.84375 133.1875 221.914062 133.148438 222.445312 C 133.148438 222.980469 133.105469 224.007812 133.105469 224.050781 C 133.066406 224.050781 132.777344 225.078125 132.613281 225.570312 C 132.488281 226.105469 132.160156 227.09375 132.160156 227.132812 C 132.160156 227.132812 131.625 228.039062 131.339844 228.492188 C 131.089844 228.984375 130.558594 229.890625 130.515625 229.890625 C 130.515625 229.929688 129.777344 230.671875 129.40625 231.039062 C 129.035156 231.449219 128.296875 232.191406 128.296875 232.191406 C 128.296875 232.191406 128.296875 232.191406 128.253906 232.191406 C 128.253906 232.230469 127.351562 232.765625 126.898438 233.054688 C 126.445312 233.34375 125.539062 233.875 125.539062 233.917969 C 125.5 233.917969 124.511719 234.246094 124.019531 234.410156 C 123.484375 234.574219 122.5 234.90625 122.457031 234.90625 C 122.457031 234.90625 121.386719 234.988281 120.855469 234.988281 C 120.320312 235.027344 119.292969 235.109375 119.25 235.109375 C 119.25 235.109375 118.179688 234.945312 117.6875 234.863281 C 117.152344 234.742188 116.125 234.574219 116.085938 234.574219 C 116.042969 234.574219 115.097656 234.164062 114.605469 233.917969 C 114.109375 233.710938 113.164062 233.300781 113.125 233.300781 C 113.125 233.261719 112.261719 232.644531 111.851562 232.316406 C 111.4375 231.984375 110.574219 231.328125 110.574219 231.328125 C 110.574219 231.328125 109.917969 230.503906 109.546875 230.054688 C 109.21875 229.640625 108.5625 228.820312 108.5625 228.820312 C 108.5625 228.777344 108.109375 227.832031 107.902344 227.339844 C 107.65625 226.847656 107.203125 225.902344 107.203125 225.902344 C 107.203125 225.859375 107.246094 225.53125 107.082031 225.242188 C 106.382812 223.925781 101.449219 219.445312 98.691406 216.28125 C 95.855469 212.992188 93.390625 209.085938 90.304688 205.796875 C 87.179688 202.507812 83.851562 199.585938 80.070312 196.628906 C 75.832031 193.296875 70.367188 190.007812 65.882812 187.007812 C 61.855469 184.292969 57.332031 181.414062 54.289062 179.359375 C 52.273438 178.042969 50.628906 177.058594 49.316406 176.027344 C 48.328125 175.289062 47.589844 174.753906 46.847656 173.933594 C 46.148438 173.152344 45.492188 172.246094 44.996094 171.34375 C 44.464844 170.394531 44.050781 169.367188 43.804688 168.339844 C 43.519531 167.3125 43.351562 165.132812 43.351562 165.132812 " clip-rule="nonzero"/></clipPath><clipPath id="da27cc5ef8"><path d="M 88.578125 58.894531 L 334 58.894531 L 334 333.621094 L 88.578125 333.621094 Z M 88.578125 58.894531 " clip-rule="nonzero"/></clipPath><clipPath id="43604f185f"><path d="M 88.578125 307.554688 C 92.9375 289.875 94.335938 285.597656 95.691406 280.871094 C 97.214844 275.609375 99.1875 269.644531 100.503906 264.21875 C 101.695312 259.164062 102.105469 253.652344 103.339844 249.375 C 104.367188 245.921875 107.574219 242.59375 107 240.25 C 106.546875 238.316406 103.175781 238.070312 101.980469 235.933594 C 100.253906 232.890625 99.886719 227.050781 99.722656 222.53125 C 99.554688 218.046875 99.472656 213.320312 100.914062 209.003906 C 102.433594 204.4375 105.558594 199.382812 108.929688 195.886719 C 112.054688 192.640625 117.976562 189.308594 120.195312 188.527344 C 120.976562 188.238281 121.964844 188.445312 122.003906 188.320312 C 122.003906 188.28125 121.882812 188.199219 121.882812 188.199219 C 121.882812 188.199219 121.386719 187.253906 121.140625 186.800781 C 120.855469 186.308594 120.359375 185.402344 120.359375 185.363281 C 120.359375 185.363281 120.113281 184.335938 119.949219 183.800781 C 119.824219 183.304688 119.578125 182.277344 119.578125 182.238281 C 119.578125 182.238281 119.539062 181.167969 119.539062 180.632812 C 119.539062 180.097656 119.539062 179.03125 119.539062 179.03125 C 119.539062 178.988281 119.785156 177.960938 119.90625 177.46875 C 120.03125 176.933594 120.277344 175.90625 120.277344 175.90625 C 120.277344 175.863281 120.773438 174.917969 121.019531 174.464844 C 121.265625 173.972656 121.757812 173.027344 121.757812 173.027344 C 121.757812 172.988281 122.457031 172.207031 122.828125 171.792969 C 123.15625 171.425781 123.855469 170.601562 123.855469 170.601562 C 123.894531 170.5625 124.757812 169.984375 125.171875 169.65625 C 125.621094 169.367188 126.488281 168.75 126.488281 168.75 C 126.527344 168.710938 127.515625 168.339844 128.007812 168.175781 C 128.5 167.972656 129.488281 167.558594 129.488281 167.558594 C 129.527344 167.558594 130.558594 167.4375 131.089844 167.355469 C 131.625 167.3125 132.488281 167.191406 132.695312 167.148438 C 132.734375 167.148438 132.734375 167.148438 132.777344 167.148438 C 133.433594 167.023438 144.328125 165.832031 144.453125 165.175781 C 144.496094 164.96875 143.507812 164.597656 143.507812 164.597656 C 143.464844 164.558594 142.726562 163.816406 142.355469 163.40625 C 141.988281 163.035156 141.246094 162.296875 141.246094 162.253906 C 141.246094 162.253906 140.710938 161.351562 140.425781 160.859375 C 140.175781 160.40625 139.644531 159.5 139.644531 159.5 C 139.601562 159.460938 139.3125 158.472656 139.148438 157.9375 C 139.027344 157.445312 138.699219 156.417969 138.699219 156.417969 C 138.699219 156.375 138.699219 156.375 138.699219 156.375 C 138.699219 156.375 138.65625 155.308594 138.65625 154.773438 C 138.613281 154.238281 138.574219 153.210938 138.574219 153.167969 C 138.574219 153.167969 138.78125 152.140625 138.902344 151.605469 C 138.984375 151.074219 139.191406 150.042969 139.191406 150.003906 C 139.191406 150.003906 139.5625 149.347656 139.683594 148.933594 C 139.808594 148.566406 139.847656 148.152344 139.890625 147.703125 C 139.972656 147.207031 140.175781 146.140625 140.175781 146.097656 C 140.175781 146.097656 140.589844 145.109375 140.792969 144.617188 C 141 144.125 141.410156 143.179688 141.453125 143.136719 C 141.453125 143.054688 142.152344 133.761719 142.972656 128.914062 C 143.835938 123.730469 145.441406 118.261719 146.507812 113 C 147.578125 107.863281 148.03125 102.640625 149.429688 97.707031 C 150.785156 92.855469 152.265625 88.085938 154.730469 83.644531 C 157.320312 78.917969 161.390625 74.269531 164.929688 70.285156 C 168.09375 66.625 170.5625 62.265625 174.835938 60.539062 C 179.894531 58.523438 189.0625 58.238281 193.996094 60.746094 C 198.558594 63.089844 201.480469 69.417969 203.863281 74.148438 C 206.164062 78.671875 206.742188 83.6875 208.34375 88.375 C 209.949219 93.101562 211.796875 97.828125 213.523438 102.476562 C 215.210938 107.039062 216.730469 111.601562 218.582031 116.003906 C 220.433594 120.359375 222.28125 124.757812 224.667969 128.746094 C 227.011719 132.652344 231.328125 137.917969 232.765625 139.765625 C 233.21875 140.382812 233.425781 140.589844 233.753906 141 C 234.042969 141.371094 234.042969 141.78125 234.617188 142.070312 C 236.425781 142.933594 243.660156 142.027344 248.183594 142.191406 C 252.789062 142.316406 257.1875 142.519531 261.957031 142.890625 C 267.097656 143.300781 272.894531 144.042969 277.992188 144.660156 C 282.636719 145.234375 286.667969 145.605469 291.3125 146.507812 C 296.574219 147.496094 302.742188 149.222656 307.921875 150.578125 C 312.527344 151.773438 319.023438 153.5 320.832031 154.113281 C 321.328125 154.28125 321.410156 154.363281 321.738281 154.484375 C 322.191406 154.609375 322.808594 154.730469 323.339844 154.8125 C 323.835938 154.9375 324.863281 155.183594 324.902344 155.183594 C 324.902344 155.183594 325.847656 155.636719 326.34375 155.882812 C 326.835938 156.128906 327.78125 156.582031 327.78125 156.582031 C 327.824219 156.625 328.605469 157.28125 329.015625 157.652344 C 329.425781 157.980469 330.25 158.636719 330.25 158.679688 C 330.289062 158.679688 330.90625 159.542969 331.195312 159.953125 C 331.523438 160.40625 332.140625 161.269531 332.140625 161.269531 C 332.179688 161.308594 332.550781 162.253906 332.757812 162.75 C 332.960938 163.242188 333.375 164.230469 333.375 164.269531 C 333.375 164.269531 333.539062 165.296875 333.621094 165.832031 C 333.703125 166.367188 333.867188 167.4375 333.867188 167.4375 C 333.867188 167.476562 333.742188 168.503906 333.703125 169.039062 C 333.660156 169.574219 333.539062 170.644531 333.539062 170.644531 C 333.539062 170.683594 333.167969 171.671875 333.003906 172.164062 C 332.839844 172.65625 332.46875 173.6875 332.46875 173.6875 C 332.46875 173.726562 331.894531 174.589844 331.605469 175.042969 C 331.316406 175.496094 330.742188 176.359375 330.699219 176.398438 C 330.699219 176.398438 329.917969 177.097656 329.550781 177.46875 C 329.136719 177.839844 328.398438 178.578125 328.359375 178.578125 C 328.359375 178.578125 327.410156 179.113281 326.960938 179.359375 C 326.507812 179.648438 325.5625 180.140625 325.5625 180.140625 C 325.519531 180.179688 324.492188 180.429688 324 180.59375 C 323.464844 180.714844 322.476562 181.003906 322.4375 181.003906 C 322.4375 181.003906 321.367188 181.046875 320.832031 181.046875 C 320.300781 181.046875 319.230469 181.085938 319.230469 181.085938 C 319.148438 181.128906 314.5 188.609375 311.253906 191.859375 C 307.800781 195.3125 302.578125 197.65625 298.960938 200.984375 C 295.507812 204.191406 293.410156 208.222656 289.914062 211.386719 C 286.175781 214.800781 281.074219 217.265625 276.964844 220.597656 C 272.851562 223.96875 268.371094 230.054688 265.328125 231.492188 C 263.808594 232.230469 261.546875 231.617188 261.382812 232.027344 C 261.257812 232.230469 261.585938 232.355469 261.792969 232.726562 C 262.65625 234.371094 265.824219 241.234375 267.21875 245.71875 C 268.617188 250.242188 269.316406 254.804688 270.261719 259.695312 C 271.289062 265.082031 271.867188 271.375 273.101562 276.71875 C 274.210938 281.609375 275.855469 285.925781 277.171875 290.53125 C 278.527344 295.179688 281.691406 300.769531 281.035156 304.550781 C 280.542969 307.511719 275.9375 311.253906 275.976562 311.828125 C 275.976562 311.910156 276.019531 311.910156 276.058594 311.953125 C 276.222656 312.160156 277.046875 313.1875 277.089844 313.226562 C 277.089844 313.226562 277.539062 314.214844 277.746094 314.667969 C 277.992188 315.160156 278.445312 316.105469 278.445312 316.148438 C 278.445312 316.148438 278.445312 316.3125 278.484375 316.394531 C 278.484375 316.433594 278.527344 316.476562 278.527344 316.476562 C 278.527344 316.476562 278.484375 316.433594 278.484375 316.433594 C 278.445312 316.476562 278.648438 317.257812 278.734375 317.707031 C 278.855469 318.242188 279.0625 319.269531 279.0625 319.3125 C 279.0625 319.3125 279.019531 320.382812 278.980469 320.914062 C 278.9375 321.449219 278.898438 322.519531 278.898438 322.519531 C 278.898438 322.558594 278.609375 323.546875 278.445312 324.082031 C 278.28125 324.574219 277.992188 325.601562 277.992188 325.601562 C 277.953125 325.644531 277.417969 326.546875 277.171875 327 C 276.882812 327.453125 276.347656 328.359375 276.347656 328.398438 C 276.308594 328.398438 275.609375 329.136719 275.195312 329.550781 C 274.828125 329.917969 274.085938 330.660156 274.085938 330.699219 C 274.085938 330.699219 273.183594 331.277344 272.730469 331.523438 C 272.277344 331.8125 271.375 332.386719 271.332031 332.386719 C 271.332031 332.386719 270.34375 332.714844 269.8125 332.878906 C 269.316406 333.042969 268.289062 333.375 268.289062 333.375 C 268.25 333.375 267.21875 333.457031 266.6875 333.496094 C 266.152344 333.539062 265.082031 333.621094 265.082031 333.621094 C 265.042969 333.578125 259.449219 333.042969 256.449219 331.730469 C 252.460938 330.003906 247.9375 326.015625 243.828125 322.847656 C 239.632812 319.601562 235.933594 315.117188 231.492188 312.527344 C 227.257812 310.0625 222.160156 309.855469 217.925781 307.390625 C 213.484375 304.800781 209.371094 300.730469 205.507812 297.152344 C 201.726562 293.699219 195.023438 286.378906 194.984375 286.378906 C 194.941406 286.378906 193.914062 286.257812 193.378906 286.175781 C 192.84375 286.09375 191.777344 285.96875 191.777344 285.96875 C 191.734375 285.96875 190.746094 285.597656 190.253906 285.394531 C 189.761719 285.230469 188.773438 284.859375 188.773438 284.859375 C 188.734375 284.816406 187.871094 284.242188 187.417969 283.914062 C 187.007812 283.625 186.101562 283.007812 186.101562 283.007812 C 186.101562 283.007812 185.980469 282.679688 185.8125 282.679688 C 184.621094 282.515625 176.480469 288.929688 172.042969 291.972656 C 167.804688 294.847656 163.859375 297.726562 159.707031 300.398438 C 155.675781 303.03125 151.855469 305.210938 147.496094 307.882812 C 142.5625 310.964844 136.273438 314.378906 131.667969 317.832031 C 127.636719 320.832031 125.171875 325.191406 121.140625 327.207031 C 117.195312 329.222656 112.300781 330.003906 107.820312 330.042969 C 103.378906 330.042969 97.625 330.289062 94.417969 327.371094 C 90.511719 323.835938 88.578125 307.554688 88.578125 307.554688 M 118.878906 297.191406 C 120.9375 295.589844 119.785156 295.054688 119.414062 295.21875 C 119.042969 295.425781 118.878906 297.191406 118.878906 297.191406 M 141.371094 216.691406 C 150.042969 220.0625 156.007812 221.253906 160.242188 221.996094 C 163.859375 222.695312 170.355469 223.640625 170.394531 223.433594 C 170.394531 223.351562 169.121094 223.023438 167.972656 222.695312 C 165.175781 221.914062 156.992188 219.898438 153.582031 218.910156 C 151.691406 218.375 150.867188 217.882812 149.179688 217.554688 C 146.960938 217.101562 141.371094 216.691406 141.371094 216.691406 " clip-rule="nonzero"/></clipPath></defs><rect x="-37.5" width="450" fill="#ffffff" y="-37.499999" height="449.999989" fill-opacity="1"/><rect x="-37.5" width="450" fill="#d9d9d9" y="-37.499999" height="449.999989" fill-opacity="1"/><g clip-path="url(#c9bc2e596f)"><path fill="#252732" d="M 295.675781 364.5625 C 293.828125 364.578125 292.113281 364.105469 290.53125 363.152344 L 186.515625 300.347656 L 82.5 363.152344 C 81.671875 363.648438 80.792969 364.015625 79.855469 364.253906 C 78.921875 364.492188 77.972656 364.59375 77.007812 364.550781 C 76.046875 364.507812 75.109375 364.328125 74.195312 364.011719 C 73.285156 363.691406 72.441406 363.25 71.660156 362.683594 C 70.878906 362.113281 70.199219 361.445312 69.617188 360.675781 C 69.03125 359.910156 68.574219 359.074219 68.234375 358.167969 C 67.898438 357.265625 67.699219 356.332031 67.640625 355.367188 C 67.578125 354.40625 67.660156 353.453125 67.878906 352.515625 L 95.492188 234.109375 L 3.464844 154.449219 C 2.738281 153.816406 2.113281 153.09375 1.597656 152.28125 C 1.082031 151.464844 0.695312 150.59375 0.4375 149.664062 C 0.179688 148.734375 0.0625 147.785156 0.0820312 146.820312 C 0.105469 145.859375 0.261719 144.917969 0.5625 144 C 0.859375 143.082031 1.285156 142.226562 1.835938 141.433594 C 2.386719 140.644531 3.039062 139.949219 3.792969 139.347656 C 4.550781 138.75 5.375 138.269531 6.273438 137.914062 C 7.167969 137.558594 8.097656 137.339844 9.058594 137.257812 L 130.152344 126.972656 L 177.488281 15.324219 C 177.925781 14.503906 178.464844 13.757812 179.101562 13.085938 C 179.742188 12.414062 180.460938 11.839844 181.257812 11.359375 C 182.050781 10.882812 182.898438 10.519531 183.792969 10.273438 C 184.6875 10.027344 185.597656 9.902344 186.527344 9.902344 C 187.453125 9.902344 188.363281 10.027344 189.257812 10.273438 C 190.152344 10.519531 191 10.882812 191.792969 11.359375 C 192.589844 11.839844 193.308594 12.414062 193.949219 13.085938 C 194.589844 13.757812 195.125 14.503906 195.5625 15.324219 L 242.882812 126.972656 L 363.992188 137.257812 C 364.953125 137.339844 365.878906 137.5625 366.777344 137.917969 C 367.671875 138.277344 368.496094 138.753906 369.25 139.355469 C 370.003906 139.957031 370.65625 140.652344 371.203125 141.445312 C 371.753906 142.234375 372.175781 143.089844 372.472656 144.007812 C 372.773438 144.925781 372.929688 145.863281 372.949219 146.828125 C 372.972656 147.792969 372.851562 148.738281 372.59375 149.667969 C 372.335938 150.59375 371.949219 151.46875 371.433594 152.28125 C 370.917969 153.097656 370.292969 153.820312 369.566406 154.449219 L 277.617188 234.109375 L 305.230469 352.515625 C 305.316406 352.871094 305.378906 353.234375 305.421875 353.601562 C 305.464844 353.96875 305.488281 354.335938 305.492188 354.703125 C 305.492188 355.070312 305.472656 355.4375 305.433594 355.804688 C 305.394531 356.171875 305.335938 356.535156 305.253906 356.894531 C 305.171875 357.253906 305.074219 357.609375 304.953125 357.957031 C 304.832031 358.304688 304.691406 358.644531 304.535156 358.980469 C 304.375 359.3125 304.199219 359.632812 304.003906 359.945312 C 303.808594 360.257812 303.59375 360.558594 303.367188 360.847656 C 303.136719 361.136719 302.890625 361.414062 302.632812 361.675781 C 302.371094 361.933594 302.097656 362.179688 301.8125 362.410156 C 301.523438 362.640625 301.222656 362.855469 300.910156 363.050781 C 300.597656 363.25 300.277344 363.425781 299.945312 363.585938 C 299.613281 363.746094 299.273438 363.890625 298.925781 364.011719 C 298.578125 364.132812 298.226562 364.234375 297.867188 364.316406 C 297.507812 364.398438 297.144531 364.460938 296.777344 364.503906 C 296.410156 364.542969 296.042969 364.5625 295.675781 364.5625 Z M 186.515625 279.054688 C 188.335938 279.0625 190.023438 279.539062 191.578125 280.488281 L 280.835938 334.339844 L 257.167969 232.796875 C 256.96875 231.925781 256.886719 231.046875 256.925781 230.152344 C 256.964844 229.261719 257.121094 228.390625 257.398438 227.542969 C 257.675781 226.691406 258.058594 225.894531 258.554688 225.152344 C 259.046875 224.410156 259.632812 223.746094 260.308594 223.160156 L 339.164062 154.84375 L 235.324219 146.03125 C 234.4375 145.957031 233.578125 145.769531 232.742188 145.460938 C 231.910156 145.152344 231.128906 144.742188 230.40625 144.222656 C 229.683594 143.703125 229.046875 143.097656 228.488281 142.40625 C 227.929688 141.714844 227.472656 140.960938 227.121094 140.144531 L 186.515625 44.289062 L 145.929688 140.085938 C 145.578125 140.898438 145.121094 141.65625 144.5625 142.347656 C 144.007812 143.039062 143.367188 143.644531 142.644531 144.164062 C 141.921875 144.683594 141.140625 145.09375 140.308594 145.402344 C 139.472656 145.707031 138.613281 145.898438 137.726562 145.972656 L 33.886719 154.785156 L 112.742188 223.101562 C 113.417969 223.683594 114.003906 224.347656 114.496094 225.09375 C 114.992188 225.835938 115.375 226.632812 115.652344 227.484375 C 115.929688 228.332031 116.085938 229.203125 116.125 230.09375 C 116.164062 230.988281 116.085938 231.867188 115.882812 232.738281 L 92.195312 334.339844 L 181.453125 280.488281 C 183.007812 279.539062 184.695312 279.0625 186.515625 279.054688 Z M 186.515625 279.054688 " fill-opacity="1" fill-rule="nonzero"/></g><path stroke-linecap="round" transform="matrix(0, -0.411143, 0.411143, 0, 178.864709, 290.119903)" fill="none" stroke-linejoin="miter" d="M 21.003728 21.003151 L 660.59887 21.003151 " stroke="#252732" stroke-width="42" stroke-opacity="1" stroke-miterlimit="4"/><path stroke-linecap="round" transform="matrix(-0.411143, 0, 0, -0.411143, 349.649132, 168.026473)" fill="none" stroke-linejoin="miter" d="M 20.998811 21.004505 L 763.137818 21.004505 " stroke="#252732" stroke-width="42" stroke-opacity="1" stroke-miterlimit="4"/><path stroke-linecap="round" transform="matrix(-0.240309, 0.333601, -0.333601, -0.240309, 241.727069, 146.303882)" fill="none" stroke-linejoin="miter" d="M 20.996273 21.000192 L 587.423057 20.998756 " stroke="#252732" stroke-width="42" stroke-opacity="1" stroke-miterlimit="4"/><path stroke-linecap="round" transform="matrix(0.246526, 0.329034, -0.329034, 0.246526, 147.178032, 136.080416)" fill="none" stroke-linejoin="miter" d="M 21.001493 21.001252 L 590.25729 21.001936 " stroke="#252732" stroke-width="42" stroke-opacity="1" stroke-miterlimit="4"/><g clip-path="url(#816d858512)"><g clip-path="url(#adc506e886)"><path fill="#252732" d="M 119.085938 155.71875 L 172.90625 155.71875 L 172.90625 238.546875 L 119.085938 238.546875 Z M 119.085938 155.71875 " fill-opacity="1" fill-rule="nonzero"/></g></g><g clip-path="url(#8554f5f9e0)"><g clip-path="url(#2fee64e0b3)"><path fill="#252732" d="M 62.675781 132.613281 L 156.289062 132.613281 L 156.289062 173.4375 L 62.675781 173.4375 Z M 62.675781 132.613281 " fill-opacity="1" fill-rule="nonzero"/></g></g><g clip-path="url(#b96a31dc93)"><g clip-path="url(#5d398110be)"><path fill="#252732" d="M 41.707031 150.003906 L 140.367188 150.003906 L 140.367188 236.796875 L 41.707031 236.796875 Z M 41.707031 150.003906 " fill-opacity="1" fill-rule="nonzero"/></g></g><g clip-path="url(#da27cc5ef8)"><g clip-path="url(#43604f185f)"><path fill="#252732" d="M 86.933594 58.894531 L 335.378906 58.894531 L 335.378906 335.265625 L 86.933594 335.265625 Z M 86.933594 58.894531 " fill-opacity="1" fill-rule="nonzero"/></g></g></svg>