<svg xmlns="http://www.w3.org/2000/svg" xmlns:xlink="http://www.w3.org/1999/xlink" width="500" zoomAndPan="magnify" viewBox="0 0 375 374.999991" height="500" preserveAspectRatio="xMidYMid meet" version="1.0"><defs><clipPath id="4123255b6e"><path d="M 0 9.886719 L 373 9.886719 L 373 365 L 0 365 Z M 0 9.886719 " clip-rule="nonzero"/></clipPath></defs><rect x="-37.5" width="450" fill="#ffffff" y="-37.499999" height="449.999989" fill-opacity="1"/><rect x="-37.5" width="450" fill="#d9d9d9" y="-37.499999" height="449.999989" fill-opacity="1"/><g clip-path="url(#4123255b6e)"><path fill="#252732" d="M 295.675781 364.554688 C 293.828125 364.570312 292.113281 364.097656 290.53125 363.144531 L 186.519531 300.339844 L 82.503906 363.144531 C 81.679688 363.640625 80.796875 364.007812 79.863281 364.246094 C 78.925781 364.484375 77.976562 364.582031 77.015625 364.542969 C 76.050781 364.5 75.113281 364.320312 74.203125 364.003906 C 73.292969 363.683594 72.445312 363.242188 71.664062 362.671875 C 70.886719 362.105469 70.203125 361.4375 69.621094 360.667969 C 69.039062 359.902344 68.578125 359.0625 68.242188 358.160156 C 67.90625 357.253906 67.707031 356.320312 67.644531 355.359375 C 67.585938 354.394531 67.664062 353.445312 67.882812 352.503906 L 95.496094 234.105469 L 3.472656 154.445312 C 2.746094 153.816406 2.121094 153.089844 1.605469 152.277344 C 1.089844 151.460938 0.703125 150.589844 0.445312 149.660156 C 0.1875 148.730469 0.0703125 147.78125 0.0898438 146.820312 C 0.109375 145.855469 0.269531 144.914062 0.570312 143.996094 C 0.867188 143.078125 1.292969 142.222656 1.84375 141.433594 C 2.394531 140.640625 3.046875 139.945312 3.800781 139.34375 C 4.558594 138.746094 5.382812 138.269531 6.28125 137.910156 C 7.175781 137.554688 8.105469 137.335938 9.066406 137.253906 L 130.15625 126.972656 L 177.492188 15.324219 C 177.929688 14.503906 178.464844 13.757812 179.105469 13.085938 C 179.746094 12.414062 180.464844 11.839844 181.257812 11.359375 C 182.054688 10.882812 182.902344 10.519531 183.792969 10.273438 C 184.6875 10.027344 185.601562 9.902344 186.527344 9.902344 C 187.457031 9.902344 188.367188 10.027344 189.261719 10.273438 C 190.15625 10.519531 191 10.882812 191.796875 11.359375 C 192.59375 11.839844 193.3125 12.414062 193.949219 13.085938 C 194.589844 13.757812 195.128906 14.503906 195.566406 15.324219 L 242.882812 126.972656 L 363.992188 137.253906 C 364.949219 137.339844 365.878906 137.558594 366.773438 137.917969 C 367.667969 138.273438 368.496094 138.75 369.25 139.351562 C 370.003906 139.953125 370.65625 140.648438 371.203125 141.441406 C 371.753906 142.234375 372.175781 143.085938 372.472656 144.003906 C 372.769531 144.921875 372.929688 145.863281 372.949219 146.824219 C 372.96875 147.789062 372.851562 148.734375 372.589844 149.664062 C 372.332031 150.59375 371.945312 151.464844 371.429688 152.277344 C 370.914062 153.09375 370.292969 153.816406 369.5625 154.445312 L 277.621094 234.105469 L 305.234375 352.503906 C 305.316406 352.863281 305.378906 353.226562 305.421875 353.59375 C 305.464844 353.960938 305.488281 354.328125 305.492188 354.695312 C 305.492188 355.0625 305.472656 355.429688 305.433594 355.796875 C 305.394531 356.164062 305.335938 356.527344 305.253906 356.886719 C 305.171875 357.246094 305.074219 357.601562 304.953125 357.949219 C 304.832031 358.296875 304.691406 358.636719 304.535156 358.96875 C 304.375 359.304688 304.199219 359.625 304.003906 359.9375 C 303.808594 360.25 303.59375 360.550781 303.367188 360.839844 C 303.136719 361.128906 302.894531 361.40625 302.632812 361.664062 C 302.371094 361.925781 302.097656 362.171875 301.8125 362.402344 C 301.523438 362.632812 301.222656 362.847656 300.910156 363.042969 C 300.601562 363.238281 300.277344 363.417969 299.945312 363.578125 C 299.613281 363.738281 299.273438 363.878906 298.925781 364.003906 C 298.578125 364.125 298.226562 364.226562 297.867188 364.308594 C 297.507812 364.390625 297.144531 364.453125 296.777344 364.492188 C 296.410156 364.535156 296.042969 364.554688 295.675781 364.554688 Z M 186.519531 279.046875 C 188.339844 279.054688 190.027344 279.535156 191.582031 280.480469 L 280.839844 334.332031 L 257.171875 232.792969 C 256.96875 231.921875 256.886719 231.039062 256.925781 230.148438 C 256.964844 229.257812 257.121094 228.386719 257.398438 227.535156 C 257.675781 226.6875 258.0625 225.890625 258.554688 225.148438 C 259.050781 224.402344 259.632812 223.738281 260.308594 223.15625 L 339.164062 154.839844 L 235.328125 146.027344 C 234.441406 145.953125 233.582031 145.765625 232.746094 145.457031 C 231.910156 145.152344 231.132812 144.738281 230.410156 144.21875 C 229.6875 143.703125 229.046875 143.09375 228.488281 142.402344 C 227.929688 141.710938 227.476562 140.957031 227.125 140.140625 L 186.519531 44.289062 L 145.933594 140.082031 C 145.582031 140.898438 145.125 141.652344 144.566406 142.34375 C 144.011719 143.035156 143.371094 143.640625 142.648438 144.160156 C 141.925781 144.679688 141.144531 145.09375 140.3125 145.398438 C 139.476562 145.707031 138.617188 145.894531 137.730469 145.96875 L 33.890625 154.78125 L 112.746094 223.097656 C 113.421875 223.679688 114.007812 224.34375 114.5 225.089844 C 114.996094 225.832031 115.378906 226.628906 115.65625 227.476562 C 115.933594 228.328125 116.09375 229.195312 116.132812 230.089844 C 116.167969 230.980469 116.089844 231.863281 115.886719 232.730469 L 92.199219 334.332031 L 181.457031 280.480469 C 183.011719 279.535156 184.699219 279.054688 186.519531 279.046875 Z M 186.519531 279.046875 " fill-opacity="1" fill-rule="nonzero"/></g></svg>