<svg xmlns="http://www.w3.org/2000/svg" xmlns:xlink="http://www.w3.org/1999/xlink" width="500" zoomAndPan="magnify" viewBox="0 0 375 374.999991" height="500" preserveAspectRatio="xMidYMid meet" version="1.0"><defs><clipPath id="76b54b7f3c"><path d="M 0 159 L 375 159 L 375 365.625 L 0 365.625 Z M 0 159 " clip-rule="nonzero"/></clipPath><clipPath id="1fe128cd9f"><path d="M 0 9.375 L 132 9.375 L 132 141 L 0 141 Z M 0 9.375 " clip-rule="nonzero"/></clipPath></defs><g clip-path="url(#76b54b7f3c)"><path fill="#252732" d="M 337.5 159.375 L 375 159.375 L 375 365.625 L 337.5 365.625 Z M 281.25 215.625 L 318.75 215.625 L 318.75 365.625 L 281.25 365.625 Z M 225 243.75 L 262.5 243.75 L 262.5 365.625 L 225 365.625 Z M 168.75 262.5 L 206.25 262.5 L 206.25 365.625 L 168.75 365.625 Z M 112.5 300 L 150 300 L 150 365.625 L 112.5 365.625 Z M 56.25 328.125 L 93.75 328.125 L 93.75 365.625 L 56.25 365.625 Z M 0 346.875 L 37.5 346.875 L 37.5 365.625 L 0 365.625 Z M 0 346.875 " fill-opacity="1" fill-rule="nonzero"/></g><path fill="#252732" d="M 375 46.875 L 290.625 46.875 L 375 131.25 Z M 375 46.875 " fill-opacity="1" fill-rule="nonzero"/><g clip-path="url(#1fe128cd9f)"><path fill="#ffffff" d="M 65.625 9.375 C 29.4375 9.375 0 38.8125 0 75 C 0 111.1875 29.4375 140.625 65.625 140.625 C 101.8125 140.625 131.25 111.1875 131.25 75 C 131.25 38.8125 101.8125 9.375 65.625 9.375 Z M 65.625 9.375 " fill-opacity="1" fill-rule="nonzero"/></g><path fill="#ffffff" d="M 74.945312 112.257812 L 60.382812 112.257812 L 60.382812 55.246094 L 43.011719 60.695312 L 43.011719 48.804688 L 73.386719 37.742188 L 74.945312 37.742188 Z M 74.945312 112.257812 " fill-opacity="1" fill-rule="nonzero"/><path fill="#252732" d="M 27.320312 308.570312 L 0.804688 282.054688 L 93.75 189.113281 L 121.875 217.238281 L 220.3125 118.800781 L 248.4375 146.925781 L 333.617188 61.742188 L 360.132812 88.257812 L 248.4375 199.949219 L 220.3125 171.824219 L 121.875 270.261719 L 93.75 242.136719 Z M 27.320312 308.570312 " fill-opacity="1" fill-rule="nonzero"/></svg>