<svg xmlns="http://www.w3.org/2000/svg" xmlns:xlink="http://www.w3.org/1999/xlink" width="500" zoomAndPan="magnify" viewBox="0 0 375 374.999991" height="500" preserveAspectRatio="xMidYMid meet" version="1.0"><defs><clipPath id="14542739f7"><path d="M 23.523438 0 L 351.273438 0 L 351.273438 282 L 23.523438 282 Z M 23.523438 0 " clip-rule="nonzero"/></clipPath></defs><rect x="-37.5" width="450" fill="#ffffff" y="-37.499999" height="449.999989" fill-opacity="1"/><rect x="-37.5" width="450" fill="#d9d9d9" y="-37.499999" height="449.999989" fill-opacity="1"/><g clip-path="url(#14542739f7)"><path fill="#252732" d="M 316.335938 70.375 L 281.195312 70.375 L 281.195312 11.8125 C 281.195312 5.335938 275.949219 0.101562 269.484375 0.101562 L 105.511719 0.101562 C 99.042969 0.101562 93.796875 5.335938 93.796875 11.8125 L 93.796875 70.375 L 58.660156 70.375 C 39.289062 70.375 23.523438 86.140625 23.523438 105.511719 L 23.523438 246.0625 C 23.523438 265.433594 39.289062 281.199219 58.660156 281.199219 L 70.371094 281.199219 L 70.371094 257.773438 L 58.660156 257.773438 C 52.207031 257.773438 46.949219 252.527344 46.949219 246.0625 L 46.949219 105.511719 C 46.949219 99.046875 52.207031 93.800781 58.660156 93.800781 L 316.335938 93.800781 C 322.789062 93.800781 328.046875 99.046875 328.046875 105.511719 L 328.046875 246.0625 C 328.046875 252.527344 322.789062 257.773438 316.335938 257.773438 L 304.621094 257.773438 L 304.621094 281.199219 L 316.335938 281.199219 C 335.707031 281.199219 351.472656 265.433594 351.472656 246.0625 L 351.472656 105.511719 C 351.472656 86.140625 335.707031 70.375 316.335938 70.375 Z M 117.222656 70.375 L 117.222656 23.523438 L 257.773438 23.523438 L 257.773438 70.375 Z M 117.222656 70.375 " fill-opacity="1" fill-rule="nonzero"/></g><path fill="#252732" d="M 304.621094 234.351562 L 304.621094 210.925781 L 70.371094 210.925781 L 70.371094 234.351562 L 93.796875 234.351562 L 93.796875 363.1875 C 93.796875 369.664062 99.042969 374.898438 105.511719 374.898438 L 269.484375 374.898438 C 275.949219 374.898438 281.195312 369.664062 281.195312 363.1875 L 281.195312 234.351562 Z M 257.773438 351.472656 L 117.222656 351.472656 L 117.222656 234.351562 L 257.773438 234.351562 Z M 257.773438 351.472656 " fill-opacity="1" fill-rule="nonzero"/><path fill="#252732" d="M 281.195312 117.226562 L 304.621094 117.226562 L 304.621094 140.648438 L 281.195312 140.648438 Z M 281.195312 117.226562 " fill-opacity="1" fill-rule="nonzero"/><path fill="#252732" d="M 140.648438 257.773438 L 234.347656 257.773438 L 234.347656 281.199219 L 140.648438 281.199219 Z M 140.648438 257.773438 " fill-opacity="1" fill-rule="nonzero"/><path fill="#252732" d="M 140.648438 304.625 L 234.347656 304.625 L 234.347656 328.050781 L 140.648438 328.050781 Z M 140.648438 304.625 " fill-opacity="1" fill-rule="nonzero"/></svg>