<svg xmlns="http://www.w3.org/2000/svg" xmlns:xlink="http://www.w3.org/1999/xlink" width="500" zoomAndPan="magnify" viewBox="0 0 375 374.999991" height="500" preserveAspectRatio="xMidYMid meet" version="1.0"><defs><clipPath id="fc9978a92c"><path d="M 4 190 L 375 190 L 375 353.21875 L 4 353.21875 Z M 4 190 " clip-rule="nonzero"/></clipPath></defs><rect x="-37.5" width="450" fill="#ffffff" y="-37.499999" height="449.999989" fill-opacity="1"/><rect x="-37.5" width="450" fill="#d9d9d9" y="-37.499999" height="449.999989" fill-opacity="1"/><path fill="#02d7c2" d="M 230.363281 166.042969 C 223.535156 164.011719 212.832031 164.011719 201.296875 175.546875 L 157.277344 219.566406 C 164.476562 232.484375 167.335938 246.878906 165.492188 260.535156 L 246.511719 179.515625 C 244.207031 174.257812 238.300781 168.351562 230.363281 166.042969 Z M 230.363281 166.042969 " fill-opacity="1" fill-rule="nonzero"/><path fill="#02d7c2" d="M 110.402344 182.839844 C 121.289062 172.226562 169.644531 125.070312 186.714844 108.09375 C 199.359375 95.449219 225.289062 85.761719 248.636719 92.496094 C 262.292969 96.464844 279.640625 107.628906 289.054688 137.160156 L 306.03125 120.179688 C 306.125 120.089844 306.957031 119.351562 307.046875 119.257812 C 309.722656 116.210938 311.9375 113.167969 313.414062 109.84375 C 322.089844 91.296875 317.382812 67.121094 301.601562 49.863281 C 281.394531 27.625 248.820312 21.71875 214.492188 34.085938 C 205.726562 37.222656 197.882812 42.019531 191.238281 48.203125 L 189.578125 49.773438 L 55.035156 184.039062 C 74.6875 178.410156 93.699219 178.039062 110.402344 182.839844 Z M 110.402344 182.839844 " fill-opacity="1" fill-rule="nonzero"/><path fill="#02d7c2" d="M 245.40625 103.476562 C 225.105469 97.570312 203.601562 107.355469 194.835938 116.210938 C 179.332031 131.714844 137.808594 172.226562 122.304688 187.359375 C 131.53125 191.695312 139.929688 197.511719 146.941406 205.261719 C 148.328125 206.738281 149.527344 208.308594 150.726562 209.96875 L 193.175781 167.519531 C 209.507812 151.1875 225.472656 152.753906 233.59375 155.152344 C 242.453125 157.738281 250.480469 163.921875 255.09375 171.117188 L 279.734375 146.480469 C 273.828125 123.132812 262.109375 108.277344 245.40625 103.476562 Z M 245.40625 103.476562 " fill-opacity="1" fill-rule="nonzero"/><g clip-path="url(#fc9978a92c)"><path fill="#02d7c2" d="M 51.34375 197.140625 C 11.9375 211.261719 0.0351562 252.601562 5.757812 284.992188 C 11.476562 318.027344 36.667969 353.277344 89.914062 353.277344 L 223.351562 353.277344 L 374.964844 201.664062 L 244.019531 201.664062 L 152.757812 293.019531 C 151.925781 293.851562 150.820312 294.773438 149.894531 295.417969 C 133.007812 310.089844 105.601562 312.859375 85.300781 307.691406 C 61.308594 301.601562 47.097656 284.898438 48.390625 264.226562 C 50.144531 235.527344 69.152344 223.902344 84.933594 222.703125 C 101.449219 221.503906 115.476562 230.085938 118.335938 243.28125 C 120.183594 251.585938 118.984375 258.230469 114.832031 263.121094 C 108.554688 270.59375 98.21875 270.320312 97.113281 270.226562 C 93.976562 270.042969 91.484375 267.367188 91.667969 264.226562 C 91.851562 261.089844 94.621094 258.875 97.667969 258.785156 C 99.328125 259.058594 103.941406 258.414062 106.15625 255.738281 C 107.816406 253.707031 108.1875 250.386719 107.171875 245.773438 C 105.511719 238.296875 96.28125 233.316406 85.855469 234.144531 C 74.136719 235.066406 61.214844 243.648438 59.925781 264.964844 C 58.539062 287.296875 81.242188 294.773438 88.160156 296.527344 C 110.308594 302.15625 139.5625 295.789062 150.359375 272.808594 C 159.03125 254.261719 154.324219 230.085938 138.546875 212.828125 C 125.257812 198.25 106.710938 190.683594 85.855469 190.683594 C 74.78125 190.773438 63.152344 192.894531 51.34375 197.140625 Z M 51.34375 197.140625 " fill-opacity="1" fill-rule="nonzero"/></g></svg>