<svg xmlns="http://www.w3.org/2000/svg" xmlns:xlink="http://www.w3.org/1999/xlink" width="500" zoomAndPan="magnify" viewBox="0 0 375 374.999991" height="500" preserveAspectRatio="xMidYMid meet" version="1.0"><rect x="-37.5" width="450" fill="#ffffff" y="-37.499999" height="449.999989" fill-opacity="1"/><rect x="-37.5" width="450" fill="#ffffff" y="-37.499999" height="449.999989" fill-opacity="1"/><path fill="#252732" d="M 254.832031 134.976562 L 103.601562 47.664062 L 36.269531 86.539062 L 187.5 173.851562 Z M 254.832031 134.976562 " fill-opacity="1" fill-rule="nonzero"/><path fill="#252732" d="M 22.664062 284.726562 L 177.199219 373.949219 L 177.199219 191.695312 L 22.664062 102.476562 Z M 22.664062 284.726562 " fill-opacity="1" fill-rule="nonzero"/><path fill="#252732" d="M 338.730469 86.539062 L 187.5 -0.773438 L 124.210938 35.765625 L 275.070312 122.867188 L 274.699219 123.507812 Z M 338.730469 86.539062 " fill-opacity="1" fill-rule="nonzero"/><path fill="#252732" d="M 197.800781 373.949219 L 352.335938 284.726562 L 352.335938 102.476562 L 197.800781 191.695312 Z M 249.3125 251.375 L 311.125 215.683594 L 311.125 256.890625 L 249.3125 292.582031 Z M 249.3125 251.375 " fill-opacity="1" fill-rule="nonzero"/></svg>