<svg xmlns="http://www.w3.org/2000/svg" xmlns:xlink="http://www.w3.org/1999/xlink" width="500" zoomAndPan="magnify" viewBox="0 0 375 374.999991" height="500" preserveAspectRatio="xMidYMid meet" version="1.0"><rect x="-37.5" width="450" fill="#ffffff" y="-37.499999" height="449.999989" fill-opacity="1"/><rect x="-37.5" width="450" fill="#252732" y="-37.499999" height="449.999989" fill-opacity="1"/><path fill="#ffffff" d="M 375 41.015625 L 375 64.453125 C 375 87.058594 356.621094 105.46875 333.984375 105.46875 L 310.546875 105.46875 C 287.910156 105.46875 269.53125 87.058594 269.53125 64.453125 L 269.53125 41.015625 C 269.53125 18.410156 287.910156 0 310.546875 0 L 333.984375 0 C 356.621094 0 375 18.410156 375 41.015625 " fill-opacity="1" fill-rule="nonzero"/><path fill="#ffffff" d="M 375 175.78125 L 375 199.21875 C 375 221.855469 356.621094 240.234375 333.984375 240.234375 L 310.546875 240.234375 C 287.910156 240.234375 269.53125 221.855469 269.53125 199.21875 L 269.53125 175.78125 C 269.53125 153.175781 287.910156 134.765625 310.546875 134.765625 L 333.984375 134.765625 C 356.621094 134.765625 375 153.175781 375 175.78125 " fill-opacity="1" fill-rule="nonzero"/><path fill="#ffffff" d="M 105.46875 175.78125 L 105.46875 199.21875 C 105.46875 221.855469 87.058594 240.234375 64.453125 240.234375 L 41.015625 240.234375 C 18.410156 240.234375 0 221.855469 0 199.21875 L 0 175.78125 C 0 153.144531 18.410156 134.765625 41.015625 134.765625 L 64.453125 134.765625 C 87.058594 134.765625 105.46875 153.175781 105.46875 175.78125 " fill-opacity="1" fill-rule="nonzero"/><path fill="#ffffff" d="M 105.46875 310.546875 L 105.46875 333.984375 C 105.46875 356.621094 87.058594 375 64.453125 375 L 41.015625 375 C 18.410156 375 0 356.621094 0 333.984375 L 0 310.546875 C 0 287.910156 18.410156 269.53125 41.015625 269.53125 L 64.453125 269.53125 C 87.058594 269.53125 105.46875 287.910156 105.46875 310.546875 " fill-opacity="1" fill-rule="nonzero"/><path fill="#ffffff" d="M 105.46875 41.015625 L 105.46875 64.453125 C 105.46875 87.058594 87.058594 105.46875 64.453125 105.46875 L 41.015625 105.46875 C 18.410156 105.46875 0 87.058594 0 64.453125 L 0 41.015625 C 0 18.410156 18.410156 0 41.015625 0 L 64.453125 0 C 87.058594 0 105.46875 18.410156 105.46875 41.015625 " fill-opacity="1" fill-rule="nonzero"/><path fill="#ffffff" d="M 240.234375 41.015625 L 240.234375 64.453125 C 240.234375 87.058594 221.855469 105.46875 199.21875 105.46875 L 175.78125 105.46875 C 153.175781 105.46875 134.765625 87.058594 134.765625 64.453125 L 134.765625 41.015625 C 134.765625 18.410156 153.175781 0 175.78125 0 L 199.21875 0 C 221.855469 0 240.234375 18.410156 240.234375 41.015625 " fill-opacity="1" fill-rule="nonzero"/><path fill="#ffffff" d="M 240.234375 310.546875 L 240.234375 333.984375 C 240.234375 356.621094 221.855469 375 199.21875 375 L 175.78125 375 C 153.175781 375 134.765625 356.621094 134.765625 333.984375 L 134.765625 310.546875 C 134.765625 287.910156 153.175781 269.53125 175.78125 269.53125 L 199.21875 269.53125 C 221.855469 269.53125 240.234375 287.910156 240.234375 310.546875 " fill-opacity="1" fill-rule="nonzero"/><path fill="#ffffff" d="M 240.234375 175.78125 L 240.234375 199.21875 C 240.234375 221.855469 221.855469 240.234375 199.21875 240.234375 L 175.78125 240.234375 C 153.175781 240.234375 134.765625 221.855469 134.765625 199.21875 L 134.765625 175.78125 C 134.765625 153.175781 153.175781 134.765625 175.78125 134.765625 L 199.21875 134.765625 C 221.855469 134.765625 240.234375 153.175781 240.234375 175.78125 " fill-opacity="1" fill-rule="nonzero"/><path fill="#ffffff" d="M 375 310.546875 L 375 333.984375 C 375 356.621094 356.621094 375 333.984375 375 L 310.546875 375 C 287.910156 375 269.53125 356.621094 269.53125 333.984375 L 269.53125 310.546875 C 269.53125 287.910156 287.910156 269.53125 310.546875 269.53125 L 333.984375 269.53125 C 356.621094 269.53125 375 287.910156 375 310.546875 " fill-opacity="1" fill-rule="nonzero"/></svg>