<svg xmlns="http://www.w3.org/2000/svg" xmlns:xlink="http://www.w3.org/1999/xlink" width="500" zoomAndPan="magnify" viewBox="0 0 375 374.999991" height="500" preserveAspectRatio="xMidYMid meet" version="1.0"><rect x="-37.5" width="450" fill="#ffffff" y="-37.499999" height="449.999989" fill-opacity="1"/><rect x="-37.5" width="450" fill="#d9d9d9" y="-37.499999" height="449.999989" fill-opacity="1"/><path fill="#252732" d="M 337.5 0 L 237.5 0 C 236.273438 0 235.046875 0.0625 233.824219 0.183594 C 232.605469 0.304688 231.390625 0.488281 230.1875 0.726562 C 228.984375 0.96875 227.792969 1.265625 226.617188 1.625 C 225.445312 1.980469 224.289062 2.394531 223.15625 2.867188 C 222.023438 3.335938 220.914062 3.859375 219.832031 4.441406 C 218.75 5.019531 217.695312 5.652344 216.675781 6.332031 C 215.65625 7.015625 214.671875 7.746094 213.722656 8.523438 C 212.773438 9.304688 211.863281 10.128906 210.996094 10.996094 C 210.128906 11.863281 209.304688 12.773438 208.523438 13.722656 C 207.746094 14.671875 207.015625 15.65625 206.332031 16.675781 C 205.652344 17.695312 205.019531 18.75 204.441406 19.832031 C 203.859375 20.914062 203.335938 22.023438 202.867188 23.15625 C 202.394531 24.289062 201.980469 25.445312 201.625 26.617188 C 201.265625 27.792969 200.96875 28.984375 200.726562 30.1875 C 200.488281 31.390625 200.304688 32.605469 200.183594 33.824219 C 200.0625 35.046875 200 36.273438 200 37.5 L 200 137.5 C 200 138.726562 200.0625 139.953125 200.183594 141.175781 C 200.304688 142.394531 200.488281 143.609375 200.726562 144.8125 C 200.96875 146.015625 201.265625 147.207031 201.625 148.382812 C 201.980469 149.554688 202.394531 150.710938 202.867188 151.84375 C 203.335938 152.976562 203.859375 154.085938 204.441406 155.167969 C 205.019531 156.25 205.652344 157.304688 206.332031 158.324219 C 207.015625 159.34375 207.746094 160.328125 208.523438 161.277344 C 209.304688 162.226562 210.128906 163.136719 210.996094 164.003906 C 211.863281 164.871094 212.773438 165.695312 213.722656 166.476562 C 214.671875 167.253906 215.65625 167.984375 216.675781 168.667969 C 217.695312 169.347656 218.75 169.980469 219.832031 170.558594 C 220.914062 171.140625 222.023438 171.664062 223.15625 172.132812 C 224.289062 172.605469 225.445312 173.019531 226.617188 173.375 C 227.792969 173.734375 228.984375 174.03125 230.1875 174.273438 C 231.390625 174.511719 232.605469 174.695312 233.824219 174.816406 C 235.046875 174.9375 236.273438 175 237.5 175 L 337.5 175 C 338.726562 175 339.953125 174.9375 341.175781 174.816406 C 342.394531 174.695312 343.609375 174.511719 344.8125 174.273438 C 346.015625 174.03125 347.207031 173.734375 348.382812 173.375 C 349.554688 173.019531 350.710938 172.605469 351.84375 172.132812 C 352.976562 171.664062 354.085938 171.140625 355.167969 170.558594 C 356.25 169.980469 357.304688 169.347656 358.324219 168.667969 C 359.34375 167.984375 360.328125 167.253906 361.277344 166.476562 C 362.226562 165.695312 363.136719 164.871094 364.003906 164.003906 C 364.871094 163.136719 365.695312 162.226562 366.476562 161.277344 C 367.253906 160.328125 367.984375 159.34375 368.667969 158.324219 C 369.347656 157.304688 369.980469 156.25 370.558594 155.167969 C 371.140625 154.085938 371.664062 152.976562 372.132812 151.84375 C 372.605469 150.710938 373.019531 149.554688 373.375 148.382812 C 373.734375 147.207031 374.03125 146.015625 374.273438 144.8125 C 374.511719 143.609375 374.695312 142.394531 374.816406 141.175781 C 374.9375 139.953125 375 138.726562 375 137.5 L 375 37.5 C 375 36.273438 374.9375 35.046875 374.816406 33.824219 C 374.695312 32.605469 374.511719 31.390625 374.273438 30.1875 C 374.03125 28.984375 373.734375 27.792969 373.375 26.617188 C 373.019531 25.445312 372.605469 24.289062 372.132812 23.15625 C 371.664062 22.023438 371.140625 20.914062 370.558594 19.832031 C 369.980469 18.75 369.347656 17.695312 368.667969 16.675781 C 367.984375 15.65625 367.253906 14.671875 366.476562 13.722656 C 365.695312 12.773438 364.871094 11.863281 364.003906 10.996094 C 363.136719 10.128906 362.226562 9.304688 361.277344 8.523438 C 360.328125 7.746094 359.34375 7.015625 358.324219 6.332031 C 357.304688 5.652344 356.25 5.019531 355.167969 4.441406 C 354.085938 3.859375 352.976562 3.335938 351.84375 2.867188 C 350.710938 2.394531 349.554688 1.980469 348.382812 1.625 C 347.207031 1.265625 346.015625 0.96875 344.8125 0.726562 C 343.609375 0.488281 342.394531 0.304688 341.175781 0.183594 C 339.953125 0.0625 338.726562 0 337.5 0 Z M 350 137.5 C 350 138.320312 349.917969 139.132812 349.753906 139.9375 C 349.59375 140.742188 349.355469 141.523438 349.042969 142.28125 C 348.726562 143.039062 348.339844 143.757812 347.886719 144.4375 C 347.429688 145.121094 346.910156 145.75 346.332031 146.332031 C 345.75 146.910156 345.121094 147.429688 344.4375 147.886719 C 343.757812 148.339844 343.039062 148.726562 342.28125 149.042969 C 341.523438 149.355469 340.742188 149.59375 339.9375 149.753906 C 339.132812 149.917969 338.320312 150 337.5 150 L 237.5 150 C 236.679688 150 235.867188 149.917969 235.0625 149.753906 C 234.257812 149.59375 233.476562 149.355469 232.71875 149.042969 C 231.960938 148.726562 231.242188 148.339844 230.5625 147.886719 C 229.878906 147.429688 229.25 146.910156 228.667969 146.332031 C 228.089844 145.75 227.570312 145.121094 227.113281 144.4375 C 226.660156 143.757812 226.273438 143.039062 225.957031 142.28125 C 225.644531 141.523438 225.40625 140.742188 225.246094 139.9375 C 225.082031 139.132812 225 138.320312 225 137.5 L 225 37.5 C 225 36.679688 225.082031 35.867188 225.246094 35.0625 C 225.40625 34.257812 225.644531 33.476562 225.957031 32.71875 C 226.273438 31.960938 226.660156 31.242188 227.113281 30.5625 C 227.570312 29.878906 228.089844 29.25 228.667969 28.667969 C 229.25 28.089844 229.878906 27.570312 230.5625 27.113281 C 231.242188 26.660156 231.960938 26.273438 232.71875 25.957031 C 233.476562 25.644531 234.257812 25.40625 235.0625 25.246094 C 235.867188 25.082031 236.679688 25 237.5 25 L 337.5 25 C 338.320312 25 339.132812 25.082031 339.9375 25.246094 C 340.742188 25.40625 341.523438 25.644531 342.28125 25.957031 C 343.039062 26.273438 343.757812 26.660156 344.4375 27.113281 C 345.121094 27.570312 345.75 28.089844 346.332031 28.667969 C 346.910156 29.25 347.429688 29.878906 347.886719 30.5625 C 348.339844 31.242188 348.726562 31.960938 349.042969 32.71875 C 349.355469 33.476562 349.59375 34.257812 349.753906 35.0625 C 349.917969 35.867188 350 36.679688 350 37.5 Z M 350 137.5 " fill-opacity="1" fill-rule="nonzero"/><path fill="#252732" d="M 337.5 200 L 237.5 200 C 236.273438 200 235.046875 200.0625 233.824219 200.183594 C 232.605469 200.304688 231.390625 200.488281 230.1875 200.726562 C 228.984375 200.96875 227.792969 201.265625 226.617188 201.625 C 225.445312 201.980469 224.289062 202.394531 223.15625 202.867188 C 222.023438 203.335938 220.914062 203.859375 219.832031 204.441406 C 218.75 205.019531 217.695312 205.652344 216.675781 206.332031 C 215.65625 207.015625 214.671875 207.746094 213.722656 208.523438 C 212.773438 209.304688 211.863281 210.128906 210.996094 210.996094 C 210.128906 211.863281 209.304688 212.773438 208.523438 213.722656 C 207.746094 214.671875 207.015625 215.65625 206.332031 216.675781 C 205.652344 217.695312 205.019531 218.75 204.441406 219.832031 C 203.859375 220.914062 203.335938 222.023438 202.867188 223.15625 C 202.394531 224.289062 201.980469 225.445312 201.625 226.617188 C 201.265625 227.792969 200.96875 228.984375 200.726562 230.1875 C 200.488281 231.390625 200.304688 232.605469 200.183594 233.824219 C 200.0625 235.046875 200 236.273438 200 237.5 L 200 337.5 C 200 338.726562 200.0625 339.953125 200.183594 341.175781 C 200.304688 342.394531 200.488281 343.609375 200.726562 344.8125 C 200.96875 346.015625 201.265625 347.207031 201.625 348.382812 C 201.980469 349.554688 202.394531 350.710938 202.867188 351.84375 C 203.335938 352.976562 203.859375 354.085938 204.441406 355.167969 C 205.019531 356.25 205.652344 357.304688 206.332031 358.324219 C 207.015625 359.34375 207.746094 360.328125 208.523438 361.277344 C 209.304688 362.226562 210.128906 363.136719 210.996094 364.003906 C 211.863281 364.871094 212.773438 365.695312 213.722656 366.476562 C 214.671875 367.253906 215.65625 367.984375 216.675781 368.667969 C 217.695312 369.347656 218.75 369.980469 219.832031 370.558594 C 220.914062 371.140625 222.023438 371.664062 223.15625 372.132812 C 224.289062 372.605469 225.445312 373.019531 226.617188 373.375 C 227.792969 373.734375 228.984375 374.03125 230.1875 374.273438 C 231.390625 374.511719 232.605469 374.695312 233.824219 374.816406 C 235.046875 374.9375 236.273438 375 237.5 375 L 337.5 375 C 338.726562 375 339.953125 374.9375 341.175781 374.816406 C 342.394531 374.695312 343.609375 374.511719 344.8125 374.273438 C 346.015625 374.03125 347.207031 373.734375 348.382812 373.375 C 349.554688 373.019531 350.710938 372.605469 351.84375 372.132812 C 352.976562 371.664062 354.085938 371.140625 355.167969 370.558594 C 356.25 369.980469 357.304688 369.347656 358.324219 368.667969 C 359.34375 367.984375 360.328125 367.253906 361.277344 366.476562 C 362.226562 365.695312 363.136719 364.871094 364.003906 364.003906 C 364.871094 363.136719 365.695312 362.226562 366.476562 361.277344 C 367.253906 360.328125 367.984375 359.34375 368.667969 358.324219 C 369.347656 357.304688 369.980469 356.25 370.558594 355.167969 C 371.140625 354.085938 371.664062 352.976562 372.132812 351.84375 C 372.605469 350.710938 373.019531 349.554688 373.375 348.382812 C 373.734375 347.207031 374.03125 346.015625 374.273438 344.8125 C 374.511719 343.609375 374.695312 342.394531 374.816406 341.175781 C 374.9375 339.953125 375 338.726562 375 337.5 L 375 237.5 C 375 236.273438 374.9375 235.046875 374.816406 233.824219 C 374.695312 232.605469 374.511719 231.390625 374.273438 230.1875 C 374.03125 228.984375 373.734375 227.792969 373.375 226.617188 C 373.019531 225.445312 372.605469 224.289062 372.132812 223.15625 C 371.664062 222.023438 371.140625 220.914062 370.558594 219.832031 C 369.980469 218.75 369.347656 217.695312 368.667969 216.675781 C 367.984375 215.65625 367.253906 214.671875 366.476562 213.722656 C 365.695312 212.773438 364.871094 211.863281 364.003906 210.996094 C 363.136719 210.128906 362.226562 209.304688 361.277344 208.523438 C 360.328125 207.746094 359.34375 207.015625 358.324219 206.332031 C 357.304688 205.652344 356.25 205.019531 355.167969 204.441406 C 354.085938 203.859375 352.976562 203.335938 351.84375 202.867188 C 350.710938 202.394531 349.554688 201.980469 348.382812 201.625 C 347.207031 201.265625 346.015625 200.96875 344.8125 200.726562 C 343.609375 200.488281 342.394531 200.304688 341.175781 200.183594 C 339.953125 200.0625 338.726562 200 337.5 200 Z M 350 337.5 C 350 338.320312 349.917969 339.132812 349.753906 339.9375 C 349.59375 340.742188 349.355469 341.523438 349.042969 342.28125 C 348.726562 343.039062 348.339844 343.757812 347.886719 344.4375 C 347.429688 345.121094 346.910156 345.75 346.332031 346.332031 C 345.75 346.910156 345.121094 347.429688 344.4375 347.886719 C 343.757812 348.339844 343.039062 348.726562 342.28125 349.042969 C 341.523438 349.355469 340.742188 349.59375 339.9375 349.753906 C 339.132812 349.917969 338.320312 350 337.5 350 L 237.5 350 C 236.679688 350 235.867188 349.917969 235.0625 349.753906 C 234.257812 349.59375 233.476562 349.355469 232.71875 349.042969 C 231.960938 348.726562 231.242188 348.339844 230.5625 347.886719 C 229.878906 347.429688 229.25 346.910156 228.667969 346.332031 C 228.089844 345.75 227.570312 345.121094 227.113281 344.4375 C 226.65625 343.757812 226.273438 343.039062 225.957031 342.28125 C 225.644531 341.523438 225.40625 340.742188 225.246094 339.9375 C 225.082031 339.132812 225 338.320312 225 337.5 L 225 237.5 C 225 236.679688 225.082031 235.867188 225.246094 235.0625 C 225.40625 234.257812 225.644531 233.476562 225.957031 232.71875 C 226.273438 231.960938 226.65625 231.242188 227.113281 230.5625 C 227.570312 229.878906 228.089844 229.25 228.667969 228.667969 C 229.25 228.089844 229.878906 227.570312 230.5625 227.113281 C 231.242188 226.65625 231.960938 226.273438 232.71875 225.957031 C 233.476562 225.644531 234.257812 225.40625 235.0625 225.246094 C 235.867188 225.082031 236.679688 225 237.5 225 L 337.5 225 C 338.320312 225 339.132812 225.082031 339.9375 225.246094 C 340.742188 225.40625 341.523438 225.644531 342.28125 225.957031 C 343.039062 226.273438 343.757812 226.65625 344.4375 227.113281 C 345.121094 227.570312 345.75 228.089844 346.332031 228.667969 C 346.910156 229.25 347.429688 229.878906 347.886719 230.5625 C 348.339844 231.242188 348.726562 231.960938 349.042969 232.71875 C 349.355469 233.476562 349.59375 234.257812 349.753906 235.0625 C 349.917969 235.867188 350 236.679688 350 237.5 Z M 350 337.5 " fill-opacity="1" fill-rule="nonzero"/><path fill="#252732" d="M 37.5 175 L 137.5 175 C 138.726562 175 139.953125 174.9375 141.175781 174.816406 C 142.394531 174.695312 143.609375 174.511719 144.8125 174.273438 C 146.015625 174.03125 147.207031 173.734375 148.382812 173.375 C 149.554688 173.019531 150.710938 172.605469 151.84375 172.132812 C 152.976562 171.664062 154.085938 171.140625 155.167969 170.558594 C 156.25 169.980469 157.304688 169.347656 158.324219 168.667969 C 159.34375 167.984375 160.328125 167.253906 161.277344 166.476562 C 162.226562 165.695312 163.136719 164.871094 164.003906 164.003906 C 164.871094 163.136719 165.695312 162.226562 166.476562 161.277344 C 167.253906 160.328125 167.984375 159.34375 168.667969 158.324219 C 169.347656 157.304688 169.980469 156.25 170.558594 155.167969 C 171.140625 154.085938 171.664062 152.976562 172.132812 151.84375 C 172.605469 150.710938 173.019531 149.554688 173.375 148.382812 C 173.734375 147.207031 174.03125 146.015625 174.273438 144.8125 C 174.511719 143.609375 174.695312 142.394531 174.816406 141.175781 C 174.9375 139.953125 175 138.726562 175 137.5 L 175 37.5 C 175 36.273438 174.9375 35.046875 174.816406 33.824219 C 174.695312 32.605469 174.511719 31.390625 174.273438 30.1875 C 174.03125 28.984375 173.734375 27.792969 173.375 26.617188 C 173.019531 25.445312 172.605469 24.289062 172.132812 23.15625 C 171.664062 22.023438 171.140625 20.914062 170.558594 19.832031 C 169.980469 18.75 169.347656 17.695312 168.667969 16.675781 C 167.984375 15.65625 167.253906 14.671875 166.476562 13.722656 C 165.695312 12.773438 164.871094 11.863281 164.003906 10.996094 C 163.136719 10.128906 162.226562 9.304688 161.277344 8.523438 C 160.328125 7.746094 159.34375 7.015625 158.324219 6.332031 C 157.304688 5.652344 156.25 5.019531 155.167969 4.441406 C 154.085938 3.859375 152.976562 3.335938 151.84375 2.867188 C 150.710938 2.394531 149.554688 1.980469 148.382812 1.625 C 147.207031 1.265625 146.015625 0.96875 144.8125 0.726562 C 143.609375 0.488281 142.394531 0.304688 141.175781 0.183594 C 139.953125 0.0625 138.726562 0 137.5 0 L 37.5 0 C 36.273438 0 35.046875 0.0625 33.824219 0.183594 C 32.605469 0.304688 31.390625 0.488281 30.1875 0.726562 C 28.984375 0.96875 27.792969 1.265625 26.617188 1.625 C 25.445312 1.980469 24.289062 2.394531 23.15625 2.867188 C 22.023438 3.335938 20.914062 3.859375 19.832031 4.441406 C 18.75 5.019531 17.695312 5.652344 16.675781 6.332031 C 15.65625 7.015625 14.671875 7.746094 13.722656 8.523438 C 12.773438 9.304688 11.863281 10.128906 10.996094 10.996094 C 10.128906 11.863281 9.304688 12.773438 8.523438 13.722656 C 7.746094 14.671875 7.015625 15.65625 6.332031 16.675781 C 5.652344 17.695312 5.019531 18.75 4.441406 19.832031 C 3.859375 20.914062 3.335938 22.023438 2.867188 23.15625 C 2.394531 24.289062 1.980469 25.445312 1.625 26.617188 C 1.265625 27.792969 0.96875 28.984375 0.726562 30.1875 C 0.488281 31.390625 0.304688 32.605469 0.183594 33.824219 C 0.0625 35.046875 0 36.273438 0 37.5 L 0 137.5 C 0 138.726562 0.0625 139.953125 0.183594 141.175781 C 0.304688 142.394531 0.488281 143.609375 0.726562 144.8125 C 0.96875 146.015625 1.265625 147.207031 1.625 148.382812 C 1.980469 149.554688 2.394531 150.710938 2.867188 151.84375 C 3.335938 152.976562 3.859375 154.085938 4.441406 155.167969 C 5.019531 156.25 5.652344 157.304688 6.332031 158.324219 C 7.015625 159.34375 7.746094 160.328125 8.523438 161.277344 C 9.304688 162.226562 10.128906 163.136719 10.996094 164.003906 C 11.863281 164.871094 12.773438 165.695312 13.722656 166.476562 C 14.671875 167.253906 15.65625 167.984375 16.675781 168.667969 C 17.695312 169.347656 18.75 169.980469 19.832031 170.558594 C 20.914062 171.140625 22.023438 171.664062 23.15625 172.132812 C 24.289062 172.605469 25.445312 173.019531 26.617188 173.375 C 27.792969 173.734375 28.984375 174.03125 30.1875 174.273438 C 31.390625 174.511719 32.605469 174.695312 33.824219 174.816406 C 35.046875 174.9375 36.273438 175 37.5 175 Z M 25 37.5 C 25 36.679688 25.082031 35.867188 25.246094 35.0625 C 25.40625 34.257812 25.644531 33.476562 25.957031 32.71875 C 26.273438 31.960938 26.660156 31.242188 27.113281 30.5625 C 27.570312 29.878906 28.089844 29.25 28.667969 28.667969 C 29.25 28.089844 29.878906 27.570312 30.5625 27.113281 C 31.242188 26.660156 31.960938 26.273438 32.71875 25.957031 C 33.476562 25.644531 34.257812 25.40625 35.0625 25.246094 C 35.867188 25.082031 36.679688 25 37.5 25 L 137.5 25 C 138.320312 25 139.132812 25.082031 139.9375 25.246094 C 140.742188 25.40625 141.523438 25.644531 142.28125 25.957031 C 143.039062 26.273438 143.757812 26.660156 144.4375 27.113281 C 145.121094 27.570312 145.75 28.089844 146.332031 28.667969 C 146.910156 29.25 147.429688 29.878906 147.886719 30.5625 C 148.339844 31.242188 148.726562 31.960938 149.042969 32.71875 C 149.355469 33.476562 149.59375 34.257812 149.753906 35.0625 C 149.917969 35.867188 150 36.679688 150 37.5 L 150 137.5 C 150 138.320312 149.917969 139.132812 149.753906 139.9375 C 149.59375 140.742188 149.355469 141.523438 149.042969 142.28125 C 148.726562 143.039062 148.339844 143.757812 147.886719 144.4375 C 147.429688 145.121094 146.910156 145.75 146.332031 146.332031 C 145.75 146.910156 145.121094 147.429688 144.4375 147.886719 C 143.757812 148.339844 143.039062 148.726562 142.28125 149.042969 C 141.523438 149.355469 140.742188 149.59375 139.9375 149.753906 C 139.132812 149.917969 138.320312 150 137.5 150 L 37.5 150 C 36.679688 150 35.867188 149.917969 35.0625 149.753906 C 34.257812 149.59375 33.476562 149.355469 32.71875 149.042969 C 31.960938 148.726562 31.242188 148.339844 30.5625 147.886719 C 29.878906 147.429688 29.25 146.910156 28.667969 146.332031 C 28.089844 145.75 27.570312 145.121094 27.113281 144.4375 C 26.660156 143.757812 26.273438 143.039062 25.957031 142.28125 C 25.644531 141.523438 25.40625 140.742188 25.246094 139.9375 C 25.082031 139.132812 25 138.320312 25 137.5 Z M 25 37.5 " fill-opacity="1" fill-rule="nonzero"/><path fill="#252732" d="M 37.5 375 L 137.5 375 C 138.726562 375 139.953125 374.9375 141.175781 374.816406 C 142.394531 374.695312 143.609375 374.511719 144.8125 374.273438 C 146.015625 374.03125 147.207031 373.734375 148.382812 373.375 C 149.554688 373.019531 150.710938 372.605469 151.84375 372.132812 C 152.976562 371.664062 154.085938 371.140625 155.167969 370.558594 C 156.25 369.980469 157.304688 369.347656 158.324219 368.667969 C 159.34375 367.984375 160.328125 367.253906 161.277344 366.476562 C 162.226562 365.695312 163.136719 364.871094 164.003906 364.003906 C 164.871094 363.136719 165.695312 362.226562 166.476562 361.277344 C 167.253906 360.328125 167.984375 359.34375 168.667969 358.324219 C 169.347656 357.304688 169.980469 356.25 170.558594 355.167969 C 171.140625 354.085938 171.664062 352.976562 172.132812 351.84375 C 172.605469 350.710938 173.019531 349.554688 173.375 348.382812 C 173.734375 347.207031 174.03125 346.015625 174.273438 344.8125 C 174.511719 343.609375 174.695312 342.394531 174.816406 341.175781 C 174.9375 339.953125 175 338.726562 175 337.5 L 175 237.5 C 175 236.273438 174.9375 235.046875 174.816406 233.824219 C 174.695312 232.605469 174.511719 231.390625 174.273438 230.1875 C 174.03125 228.984375 173.734375 227.792969 173.375 226.617188 C 173.019531 225.445312 172.605469 224.289062 172.132812 223.15625 C 171.664062 222.023438 171.140625 220.914062 170.558594 219.832031 C 169.980469 218.75 169.347656 217.695312 168.667969 216.675781 C 167.984375 215.65625 167.253906 214.671875 166.476562 213.722656 C 165.695312 212.773438 164.871094 211.863281 164.003906 210.996094 C 163.136719 210.128906 162.226562 209.304688 161.277344 208.523438 C 160.328125 207.746094 159.34375 207.015625 158.324219 206.332031 C 157.304688 205.652344 156.25 205.019531 155.167969 204.441406 C 154.085938 203.859375 152.976562 203.335938 151.84375 202.867188 C 150.710938 202.394531 149.554688 201.980469 148.382812 201.625 C 147.207031 201.265625 146.015625 200.96875 144.8125 200.726562 C 143.609375 200.488281 142.394531 200.304688 141.175781 200.183594 C 139.953125 200.0625 138.726562 200 137.5 200 L 37.5 200 C 36.273438 200 35.046875 200.0625 33.824219 200.183594 C 32.605469 200.304688 31.390625 200.488281 30.1875 200.726562 C 28.984375 200.96875 27.792969 201.265625 26.617188 201.625 C 25.445312 201.980469 24.289062 202.394531 23.15625 202.867188 C 22.023438 203.335938 20.914062 203.859375 19.832031 204.441406 C 18.75 205.019531 17.695312 205.652344 16.675781 206.332031 C 15.65625 207.015625 14.671875 207.746094 13.722656 208.523438 C 12.773438 209.304688 11.863281 210.128906 10.996094 210.996094 C 10.128906 211.863281 9.304688 212.773438 8.523438 213.722656 C 7.746094 214.671875 7.015625 215.65625 6.332031 216.675781 C 5.652344 217.695312 5.019531 218.75 4.441406 219.832031 C 3.859375 220.914062 3.335938 222.023438 2.867188 223.15625 C 2.394531 224.289062 1.980469 225.445312 1.625 226.617188 C 1.265625 227.792969 0.96875 228.984375 0.726562 230.1875 C 0.488281 231.390625 0.304688 232.605469 0.183594 233.824219 C 0.0625 235.046875 0 236.273438 0 237.5 L 0 337.5 C 0 338.726562 0.0625 339.953125 0.183594 341.175781 C 0.304688 342.394531 0.488281 343.609375 0.726562 344.8125 C 0.96875 346.015625 1.265625 347.207031 1.625 348.382812 C 1.980469 349.554688 2.394531 350.710938 2.867188 351.84375 C 3.335938 352.976562 3.859375 354.085938 4.441406 355.167969 C 5.019531 356.25 5.652344 357.304688 6.332031 358.324219 C 7.015625 359.34375 7.746094 360.328125 8.523438 361.277344 C 9.304688 362.226562 10.128906 363.136719 10.996094 364.003906 C 11.863281 364.871094 12.773438 365.695312 13.722656 366.476562 C 14.671875 367.253906 15.65625 367.984375 16.675781 368.667969 C 17.695312 369.347656 18.75 369.980469 19.832031 370.558594 C 20.914062 371.140625 22.023438 371.664062 23.15625 372.132812 C 24.289062 372.605469 25.445312 373.019531 26.617188 373.375 C 27.792969 373.734375 28.984375 374.03125 30.1875 374.273438 C 31.390625 374.511719 32.605469 374.695312 33.824219 374.816406 C 35.046875 374.9375 36.273438 375 37.5 375 Z M 25 237.5 C 25 236.679688 25.082031 235.867188 25.246094 235.0625 C 25.40625 234.257812 25.644531 233.476562 25.957031 232.71875 C 26.273438 231.960938 26.660156 231.242188 27.113281 230.5625 C 27.570312 229.878906 28.089844 229.25 28.667969 228.667969 C 29.25 228.089844 29.878906 227.570312 30.5625 227.113281 C 31.242188 226.660156 31.960938 226.273438 32.71875 225.957031 C 33.476562 225.644531 34.257812 225.40625 35.0625 225.246094 C 35.867188 225.082031 36.679688 225 37.5 225 L 137.5 225 C 138.320312 225 139.132812 225.082031 139.9375 225.246094 C 140.742188 225.40625 141.523438 225.644531 142.28125 225.957031 C 143.039062 226.273438 143.757812 226.65625 144.4375 227.113281 C 145.121094 227.570312 145.75 228.089844 146.332031 228.667969 C 146.910156 229.25 147.429688 229.878906 147.886719 230.5625 C 148.339844 231.242188 148.726562 231.960938 149.042969 232.71875 C 149.355469 233.476562 149.59375 234.257812 149.753906 235.0625 C 149.917969 235.867188 150 236.679688 150 237.5 L 150 337.5 C 150 338.320312 149.917969 339.132812 149.753906 339.9375 C 149.59375 340.742188 149.355469 341.523438 149.042969 342.28125 C 148.726562 343.039062 148.339844 343.757812 147.886719 344.4375 C 147.429688 345.121094 146.910156 345.75 146.332031 346.332031 C 145.75 346.910156 145.121094 347.429688 144.4375 347.886719 C 143.757812 348.339844 143.039062 348.726562 142.28125 349.042969 C 141.523438 349.355469 140.742188 349.59375 139.9375 349.753906 C 139.132812 349.917969 138.320312 350 137.5 350 L 37.5 350 C 36.679688 350 35.867188 349.917969 35.0625 349.753906 C 34.257812 349.59375 33.476562 349.355469 32.71875 349.042969 C 31.960938 348.726562 31.242188 348.339844 30.5625 347.886719 C 29.878906 347.429688 29.25 346.910156 28.667969 346.332031 C 28.089844 345.75 27.570312 345.121094 27.113281 344.4375 C 26.660156 343.757812 26.273438 343.039062 25.957031 342.28125 C 25.644531 341.523438 25.40625 340.742188 25.246094 339.9375 C 25.082031 339.132812 25 338.320312 25 337.5 Z M 25 237.5 " fill-opacity="1" fill-rule="nonzero"/></svg>