<svg xmlns="http://www.w3.org/2000/svg" xmlns:xlink="http://www.w3.org/1999/xlink" width="500" zoomAndPan="magnify" viewBox="0 0 375 374.999991" height="500" preserveAspectRatio="xMidYMid meet" version="1.0"><rect x="-37.5" width="450" fill="#ffffff" y="-37.499999" height="449.999989" fill-opacity="1"/><rect x="-37.5" width="450" fill="#d9d9d9" y="-37.499999" height="449.999989" fill-opacity="1"/><path fill="#02d7c2" d="M 369.140625 333.984375 L 369.140625 298.828125 C 369.140625 291.199219 364.222656 284.753906 357.421875 282.328125 L 357.421875 269.53125 L 345.703125 269.53125 L 345.703125 282.328125 C 338.894531 284.753906 333.984375 291.199219 333.984375 298.828125 L 333.984375 333.984375 L 322.265625 333.984375 L 322.265625 298.828125 C 322.265625 291.199219 317.347656 284.753906 310.546875 282.328125 L 310.546875 269.53125 L 298.828125 269.53125 L 298.828125 282.328125 C 292.019531 284.753906 287.109375 291.199219 287.109375 298.828125 L 287.109375 333.984375 L 275.390625 333.984375 L 275.390625 298.828125 C 275.390625 291.199219 270.472656 284.753906 263.671875 282.328125 L 263.671875 269.53125 L 251.953125 269.53125 L 251.953125 282.328125 C 245.144531 284.753906 240.234375 291.199219 240.234375 298.828125 L 240.234375 333.984375 L 228.515625 333.984375 L 228.515625 298.828125 C 228.515625 291.199219 223.597656 284.753906 216.796875 282.328125 L 216.796875 269.53125 L 205.078125 269.53125 L 205.078125 282.328125 C 198.269531 284.753906 193.359375 291.199219 193.359375 298.828125 L 193.359375 333.984375 L 181.640625 333.984375 L 181.640625 292.96875 C 181.640625 289.734375 179.015625 287.109375 175.78125 287.109375 L 11.71875 287.109375 C 8.484375 287.109375 5.859375 289.734375 5.859375 292.96875 L 5.859375 333.984375 C 2.625 333.984375 0 336.609375 0 339.84375 L 0 363.28125 C 0 366.515625 2.625 369.140625 5.859375 369.140625 L 23.4375 369.140625 L 23.4375 375 L 35.15625 375 L 35.15625 369.140625 L 339.84375 369.140625 L 339.84375 375 L 351.5625 375 L 351.5625 369.140625 L 369.140625 369.140625 C 372.375 369.140625 375 366.515625 375 363.28125 L 375 339.84375 C 375 336.609375 372.375 333.984375 369.140625 333.984375 Z M 345.703125 298.828125 C 345.703125 295.597656 348.332031 292.96875 351.5625 292.96875 C 354.789062 292.96875 357.421875 295.597656 357.421875 298.828125 L 357.421875 333.984375 L 345.703125 333.984375 Z M 298.828125 298.828125 C 298.828125 295.597656 301.457031 292.96875 304.6875 292.96875 C 307.914062 292.96875 310.546875 295.597656 310.546875 298.828125 L 310.546875 333.984375 L 298.828125 333.984375 Z M 251.953125 298.828125 C 251.953125 295.597656 254.582031 292.96875 257.8125 292.96875 C 261.039062 292.96875 263.671875 295.597656 263.671875 298.828125 L 263.671875 333.984375 L 251.953125 333.984375 Z M 205.078125 298.828125 C 205.078125 295.597656 207.710938 292.96875 210.9375 292.96875 C 214.164062 292.96875 216.796875 295.597656 216.796875 298.828125 L 216.796875 333.984375 L 205.078125 333.984375 Z M 99.609375 333.984375 L 99.609375 322.265625 L 128.90625 322.265625 L 128.90625 333.984375 Z M 58.59375 333.984375 L 58.59375 322.265625 L 87.890625 322.265625 L 87.890625 333.984375 Z M 140.625 322.265625 L 169.921875 322.265625 L 169.921875 333.984375 L 140.625 333.984375 Z M 169.921875 310.546875 L 140.625 310.546875 L 140.625 298.828125 L 169.921875 298.828125 Z M 128.90625 310.546875 L 99.609375 310.546875 L 99.609375 298.828125 L 128.90625 298.828125 Z M 87.890625 310.546875 L 58.59375 310.546875 L 58.59375 298.828125 L 87.890625 298.828125 Z M 17.578125 298.828125 L 46.875 298.828125 L 46.875 310.546875 L 17.578125 310.546875 Z M 17.578125 322.265625 L 46.875 322.265625 L 46.875 333.984375 L 17.578125 333.984375 Z M 363.28125 357.421875 L 11.71875 357.421875 L 11.71875 345.703125 L 363.28125 345.703125 Z M 363.28125 357.421875 " fill-opacity="1" fill-rule="nonzero"/><path fill="#02d7c2" d="M 369.140625 222.65625 L 363.28125 222.65625 L 363.28125 193.359375 C 363.28125 191.800781 362.660156 190.3125 361.558594 189.210938 L 357.421875 185.074219 L 357.421875 164.0625 C 357.421875 160.828125 354.796875 158.203125 351.5625 158.203125 L 328.125 158.203125 C 324.890625 158.203125 322.265625 160.828125 322.265625 164.0625 L 322.265625 185.074219 L 318.121094 189.210938 C 317.019531 190.304688 316.40625 191.800781 316.40625 193.359375 L 316.40625 222.65625 L 304.6875 222.65625 L 304.6875 193.359375 C 304.6875 191.800781 304.066406 190.3125 302.964844 189.210938 L 298.828125 185.074219 L 298.828125 164.0625 C 298.828125 160.828125 296.203125 158.203125 292.96875 158.203125 L 269.53125 158.203125 C 266.296875 158.203125 263.671875 160.828125 263.671875 164.0625 L 263.671875 185.074219 L 259.527344 189.210938 C 258.425781 190.304688 257.8125 191.800781 257.8125 193.359375 L 257.8125 222.65625 L 246.09375 222.65625 L 246.09375 193.359375 C 246.09375 191.800781 245.472656 190.3125 244.371094 189.210938 L 240.234375 185.074219 L 240.234375 164.0625 C 240.234375 160.828125 237.609375 158.203125 234.375 158.203125 L 210.9375 158.203125 C 207.703125 158.203125 205.078125 160.828125 205.078125 164.0625 L 205.078125 185.074219 L 200.933594 189.210938 C 199.832031 190.304688 199.21875 191.800781 199.21875 193.359375 L 199.21875 222.65625 L 152.34375 222.65625 L 152.34375 199.21875 C 152.34375 192.753906 147.089844 187.5 140.625 187.5 L 140.625 164.0625 L 128.90625 164.0625 L 128.90625 187.5 C 126.761719 187.5 124.773438 188.121094 123.046875 189.128906 C 121.316406 188.121094 119.332031 187.5 117.1875 187.5 L 117.1875 164.0625 L 105.46875 164.0625 L 105.46875 187.5 C 103.324219 187.5 101.335938 188.121094 99.609375 189.128906 C 97.878906 188.121094 95.894531 187.5 93.75 187.5 L 93.75 164.0625 L 82.03125 164.0625 L 82.03125 187.5 C 79.886719 187.5 77.902344 188.121094 76.171875 189.128906 C 74.445312 188.121094 72.457031 187.5 70.3125 187.5 L 70.3125 164.0625 L 58.59375 164.0625 L 58.59375 187.5 C 52.132812 187.5 46.875 192.753906 46.875 199.21875 L 46.875 222.65625 L 5.859375 222.65625 C 2.625 222.65625 0 225.28125 0 228.515625 L 0 251.953125 C 0 255.1875 2.625 257.8125 5.859375 257.8125 L 369.140625 257.8125 C 372.375 257.8125 375 255.1875 375 251.953125 L 375 228.515625 C 375 225.28125 372.375 222.65625 369.140625 222.65625 Z M 328.125 195.785156 L 332.261719 191.648438 C 333.363281 190.550781 333.984375 189.058594 333.984375 187.5 L 333.984375 169.921875 L 345.703125 169.921875 L 345.703125 187.5 C 345.703125 189.058594 346.316406 190.546875 347.417969 191.648438 L 351.5625 195.785156 L 351.5625 222.65625 L 328.125 222.65625 Z M 269.53125 195.785156 L 273.667969 191.648438 C 274.769531 190.550781 275.390625 189.058594 275.390625 187.5 L 275.390625 169.921875 L 287.109375 169.921875 L 287.109375 187.5 C 287.109375 189.058594 287.722656 190.546875 288.824219 191.648438 L 292.96875 195.785156 L 292.96875 222.65625 L 269.53125 222.65625 Z M 210.9375 195.785156 L 215.074219 191.648438 C 216.175781 190.550781 216.796875 189.058594 216.796875 187.5 L 216.796875 169.921875 L 228.515625 169.921875 L 228.515625 187.5 C 228.515625 189.058594 229.128906 190.546875 230.230469 191.648438 L 234.375 195.785156 L 234.375 222.65625 L 210.9375 222.65625 Z M 140.625 199.21875 L 140.625 222.65625 L 128.90625 222.65625 L 128.90625 199.21875 Z M 117.1875 199.21875 L 117.1875 222.65625 L 105.46875 222.65625 L 105.46875 199.21875 Z M 93.75 199.21875 L 93.75 222.65625 L 82.03125 222.65625 L 82.03125 199.21875 Z M 58.59375 199.21875 L 70.3125 199.21875 L 70.3125 222.65625 L 58.59375 222.65625 Z M 363.28125 246.09375 L 11.71875 246.09375 L 11.71875 234.375 L 363.28125 234.375 Z M 363.28125 246.09375 " fill-opacity="1" fill-rule="nonzero"/><path fill="#02d7c2" d="M 369.140625 111.328125 L 357.421875 111.328125 L 357.421875 52.734375 C 357.421875 49.5 354.796875 46.875 351.5625 46.875 L 263.671875 46.875 C 260.4375 46.875 257.8125 49.5 257.8125 52.734375 L 257.8125 111.328125 L 216.796875 111.328125 L 216.796875 70.3125 C 216.796875 67.078125 214.171875 64.453125 210.9375 64.453125 L 35.15625 64.453125 C 31.921875 64.453125 29.296875 67.078125 29.296875 70.3125 L 29.296875 111.328125 L 5.859375 111.328125 C 2.625 111.328125 0 113.953125 0 117.1875 L 0 140.625 C 0 143.859375 2.625 146.484375 5.859375 146.484375 L 369.140625 146.484375 C 372.375 146.484375 375 143.859375 375 140.625 L 375 117.1875 C 375 113.953125 372.375 111.328125 369.140625 111.328125 Z M 345.703125 111.328125 L 328.125 111.328125 L 328.125 58.59375 L 345.703125 58.59375 Z M 316.40625 111.328125 L 298.828125 111.328125 L 298.828125 58.59375 L 316.40625 58.59375 Z M 269.53125 58.59375 L 287.109375 58.59375 L 287.109375 111.328125 L 269.53125 111.328125 Z M 205.078125 111.328125 L 181.640625 111.328125 L 181.640625 76.171875 L 205.078125 76.171875 Z M 169.921875 111.328125 L 146.484375 111.328125 L 146.484375 76.171875 L 169.921875 76.171875 Z M 134.765625 111.328125 L 111.328125 111.328125 L 111.328125 76.171875 L 134.765625 76.171875 Z M 99.609375 111.328125 L 76.171875 111.328125 L 76.171875 76.171875 L 99.609375 76.171875 Z M 41.015625 76.171875 L 64.453125 76.171875 L 64.453125 111.328125 L 41.015625 111.328125 Z M 363.28125 134.765625 L 11.71875 134.765625 L 11.71875 123.046875 L 363.28125 123.046875 Z M 363.28125 134.765625 " fill-opacity="1" fill-rule="nonzero"/><path fill="#02d7c2" d="M 369.140625 0 L 5.859375 0 C 2.625 0 0 2.625 0 5.859375 L 0 29.296875 C 0 32.53125 2.625 35.15625 5.859375 35.15625 L 369.140625 35.15625 C 372.375 35.15625 375 32.53125 375 29.296875 L 375 5.859375 C 375 2.625 372.375 0 369.140625 0 Z M 363.28125 23.4375 L 11.71875 23.4375 L 11.71875 11.71875 L 363.28125 11.71875 Z M 363.28125 23.4375 " fill-opacity="1" fill-rule="nonzero"/></svg>