<svg xmlns="http://www.w3.org/2000/svg" xmlns:xlink="http://www.w3.org/1999/xlink" width="500" zoomAndPan="magnify" viewBox="0 0 375 374.999991" height="500" preserveAspectRatio="xMidYMid meet" version="1.0"><path fill="#ffffff" d="M 360.109375 114.742188 C 350.183594 91.640625 336.839844 71.699219 320.070312 54.929688 C 303.304688 38.171875 283.375 24.828125 260.253906 14.898438 C 237.140625 4.960938 212.894531 0 187.507812 0 C 163.585938 0 140.4375 4.503906 118.050781 13.546875 C 95.664062 22.574219 75.777344 35.324219 58.351562 51.753906 L 26.613281 20.265625 C 21.730469 15.21875 16.109375 14.078125 9.757812 16.839844 C 3.25 19.605469 0 24.421875 0 31.253906 L 0 140.628906 C 0 144.855469 1.550781 148.511719 4.636719 151.617188 C 7.742188 154.703125 11.398438 156.253906 15.628906 156.253906 L 125 156.253906 C 131.847656 156.253906 136.644531 152.992188 139.414062 146.476562 C 142.175781 140.128906 141.035156 134.523438 135.988281 129.636719 L 102.542969 95.941406 C 113.9375 85.199219 126.964844 76.949219 141.609375 71.171875 C 156.253906 65.390625 171.558594 62.492188 187.507812 62.492188 C 204.4375 62.492188 220.589844 65.796875 235.96875 72.382812 C 251.347656 78.984375 264.644531 87.894531 275.882812 99.117188 C 287.121094 110.355469 296.03125 123.65625 302.617188 139.03125 C 309.203125 154.410156 312.507812 170.5625 312.507812 187.492188 C 312.507812 204.421875 309.203125 220.574219 302.617188 235.953125 C 296.03125 251.347656 287.121094 264.644531 275.882812 275.882812 C 264.644531 287.105469 251.347656 296.015625 235.96875 302.617188 C 220.589844 309.203125 204.421875 312.496094 187.507812 312.496094 C 168.136719 312.496094 149.828125 308.265625 132.566406 299.804688 C 115.3125 291.332031 100.753906 279.378906 88.875 263.914062 C 87.730469 262.289062 85.859375 261.308594 83.253906 260.976562 C 80.808594 260.976562 78.777344 261.707031 77.15625 263.183594 L 43.707031 296.867188 C 42.402344 298.179688 41.714844 299.835938 41.628906 301.871094 C 41.554688 303.917969 42.078125 305.746094 43.222656 307.375 C 60.957031 328.851562 82.433594 345.5 107.675781 357.296875 C 132.898438 369.085938 159.519531 375 187.507812 375 C 212.894531 375 237.152344 370.023438 260.253906 360.109375 C 283.375 350.171875 303.304688 336.824219 320.070312 320.054688 C 336.839844 303.289062 350.183594 283.359375 360.121094 260.242188 C 370.039062 237.140625 375 212.878906 375 187.492188 C 375 162.105469 370.039062 137.863281 360.109375 114.742188 " fill-opacity="1" fill-rule="nonzero"/></svg>