<svg xmlns="http://www.w3.org/2000/svg" xmlns:xlink="http://www.w3.org/1999/xlink" width="500" zoomAndPan="magnify" viewBox="0 0 375 374.999991" height="500" preserveAspectRatio="xMidYMid meet" version="1.0"><rect x="-37.5" width="450" fill="#ffffff" y="-37.499999" height="449.999989" fill-opacity="1"/><rect x="-37.5" width="450" fill="#252732" y="-37.499999" height="449.999989" fill-opacity="1"/><path fill="#ffffff" d="M 347.457031 159.886719 L 94.390625 159.886719 C 94.390625 159.886719 147.703125 106.960938 149.109375 105.148438 C 152.769531 100.460938 154.964844 94.578125 154.964844 88.179688 C 154.964844 81.105469 152.292969 74.675781 147.925781 69.773438 L 145.6875 67.53125 C 140.792969 63.167969 134.355469 60.484375 127.28125 60.484375 C 120.011719 60.484375 113.40625 63.328125 108.464844 67.917969 C 108.464844 67.917969 6.355469 169.863281 5.835938 170.539062 C 2.222656 175.21875 0.0546875 181.054688 0.0546875 187.425781 C 0.0546875 193.78125 2.222656 199.628906 5.828125 204.300781 C 7.289062 206.191406 109.738281 308.199219 109.738281 308.199219 C 114.488281 312.054688 120.539062 314.367188 127.136719 314.367188 C 142.421875 314.367188 154.820312 301.980469 154.820312 286.695312 C 154.820312 279.988281 152.4375 273.839844 148.472656 269.050781 L 94.390625 214.96875 L 347.457031 214.96875 C 362.667969 214.96875 374.996094 202.632812 374.996094 187.425781 C 374.996094 172.214844 362.667969 159.886719 347.457031 159.886719 " fill-opacity="1" fill-rule="nonzero"/></svg>