<svg xmlns="http://www.w3.org/2000/svg" xmlns:xlink="http://www.w3.org/1999/xlink" width="500" zoomAndPan="magnify" viewBox="0 0 375 374.999991" height="500" preserveAspectRatio="xMidYMid meet" version="1.0"><defs><clipPath id="960c967c38"><path d="M 16.878906 0.246094 L 375 0.246094 L 375 374.746094 L 16.878906 374.746094 Z M 16.878906 0.246094 " clip-rule="nonzero"/></clipPath></defs><rect x="-37.5" width="450" fill="#ffffff" y="-37.499999" height="449.999989" fill-opacity="1"/><rect x="-37.5" width="450" fill="#d9d9d9" y="-37.499999" height="449.999989" fill-opacity="1"/><path fill="#02d7c2" d="M 198.699219 206.445312 L 155.589844 249.371094 C 143.65625 260.667969 152.535156 281.902344 168.898438 281.53125 C 173.84375 281.550781 178.734375 279.511719 182.207031 275.988281 L 257.183594 201.011719 C 258.886719 199.230469 260.226562 197.128906 261.121094 194.828125 C 262.992188 190.261719 262.992188 185.148438 261.121094 180.582031 C 260.226562 178.28125 258.886719 176.179688 257.183594 174.394531 L 182.207031 99.417969 C 178.726562 95.914062 173.839844 93.890625 168.898438 93.90625 C 152.515625 93.519531 143.734375 114.726562 155.589844 126.035156 C 155.589844 126.035156 198.699219 168.960938 198.699219 168.960938 L 18.941406 168.960938 C 8.875 168.761719 0 177.632812 0.199219 187.703125 C 0.00390625 197.773438 8.871094 206.644531 18.941406 206.445312 L 198.699219 206.445312 " fill-opacity="1" fill-rule="nonzero"/><g clip-path="url(#960c967c38)"><path fill="#02d7c2" d="M 187.644531 0.261719 C 117.488281 -0.671875 49.605469 41.179688 18.941406 104.292969 C 16.707031 108.765625 16.339844 113.945312 17.917969 118.691406 C 22.796875 134.421875 45.65625 136.003906 52.683594 121.160156 C 88.351562 46.679688 183.960938 15.582031 256.609375 54.855469 C 330.269531 92.1875 359.214844 188.46875 318.316406 260.222656 C 261.554688 365.074219 105.027344 362.339844 53.433594 254.246094 C 49.085938 245.089844 37.09375 241.105469 28.128906 245.8125 C 18.984375 250.15625 14.976562 262.144531 19.695312 271.117188 C 109.195312 445.144531 367.546875 387.261719 374.945312 192.144531 C 378.554688 88.652344 291.199219 -0.859375 187.644531 0.261719 " fill-opacity="1" fill-rule="nonzero"/></g></svg>