<svg xmlns="http://www.w3.org/2000/svg" xmlns:xlink="http://www.w3.org/1999/xlink" width="500" zoomAndPan="magnify" viewBox="0 0 375 374.999991" height="500" preserveAspectRatio="xMidYMid meet" version="1.0"><defs><clipPath id="0b026d50bc"><path d="M 18.515625 0 L 356.765625 0 L 356.765625 375 L 18.515625 375 Z M 18.515625 0 " clip-rule="nonzero"/></clipPath></defs><g clip-path="url(#0b026d50bc)"><path fill="#252732" d="M 75 0 C 73.15625 0 71.320312 0.0898438 69.488281 0.269531 C 67.652344 0.453125 65.832031 0.722656 64.027344 1.082031 C 62.21875 1.441406 60.433594 1.886719 58.671875 2.421875 C 56.910156 2.957031 55.175781 3.578125 53.472656 4.28125 C 51.773438 4.988281 50.109375 5.773438 48.484375 6.640625 C 46.859375 7.511719 45.28125 8.457031 43.75 9.480469 C 42.21875 10.503906 40.738281 11.597656 39.316406 12.769531 C 37.890625 13.9375 36.527344 15.171875 35.226562 16.476562 C 33.921875 17.777344 32.6875 19.140625 31.519531 20.566406 C 30.347656 21.988281 29.253906 23.46875 28.230469 25 C 27.207031 26.53125 26.261719 28.109375 25.390625 29.734375 C 24.523438 31.359375 23.738281 33.023438 23.03125 34.722656 C 22.328125 36.425781 21.707031 38.160156 21.171875 39.921875 C 20.636719 41.683594 20.191406 43.46875 19.832031 45.277344 C 19.472656 47.082031 19.203125 48.902344 19.019531 50.738281 C 18.839844 52.570312 18.75 54.40625 18.75 56.25 C 18.75 58.09375 18.839844 59.929688 19.019531 61.761719 C 19.203125 63.597656 19.472656 65.417969 19.832031 67.222656 C 20.191406 69.03125 20.636719 70.816406 21.171875 72.578125 C 21.707031 74.339844 22.328125 76.074219 23.03125 77.777344 C 23.738281 79.476562 24.523438 81.140625 25.390625 82.765625 C 26.261719 84.390625 27.207031 85.96875 28.230469 87.5 C 29.253906 89.03125 30.347656 90.511719 31.519531 91.933594 C 32.6875 93.359375 33.921875 94.722656 35.226562 96.023438 C 36.527344 97.328125 37.890625 98.5625 39.316406 99.730469 C 40.738281 100.902344 42.21875 101.996094 43.75 103.019531 C 45.28125 104.042969 46.859375 104.988281 48.484375 105.859375 C 50.109375 106.726562 51.773438 107.511719 53.472656 108.21875 C 55.175781 108.921875 56.910156 109.542969 58.671875 110.078125 C 60.433594 110.613281 62.21875 111.058594 64.027344 111.417969 C 65.832031 111.777344 67.652344 112.046875 69.488281 112.230469 C 71.320312 112.410156 73.15625 112.5 75 112.5 C 76.84375 112.5 78.679688 112.410156 80.511719 112.230469 C 82.347656 112.046875 84.167969 111.777344 85.972656 111.417969 C 87.78125 111.058594 89.566406 110.613281 91.328125 110.078125 C 93.089844 109.542969 94.824219 108.921875 96.527344 108.21875 C 98.226562 107.511719 99.890625 106.726562 101.515625 105.859375 C 103.140625 104.988281 104.71875 104.042969 106.25 103.019531 C 107.78125 101.996094 109.261719 100.902344 110.683594 99.730469 C 112.109375 98.5625 113.472656 97.328125 114.773438 96.023438 C 116.078125 94.722656 117.3125 93.359375 118.480469 91.933594 C 119.652344 90.511719 120.746094 89.03125 121.769531 87.5 C 122.792969 85.96875 123.738281 84.390625 124.609375 82.765625 C 125.476562 81.140625 126.261719 79.476562 126.96875 77.777344 C 127.671875 76.074219 128.292969 74.339844 128.828125 72.578125 C 129.363281 70.816406 129.808594 69.03125 130.167969 67.222656 C 130.527344 65.417969 130.796875 63.597656 130.980469 61.761719 C 131.160156 59.929688 131.25 58.09375 131.25 56.25 C 131.25 54.40625 131.160156 52.570312 130.980469 50.738281 C 130.796875 48.902344 130.527344 47.082031 130.167969 45.277344 C 129.808594 43.46875 129.363281 41.683594 128.828125 39.921875 C 128.292969 38.160156 127.671875 36.425781 126.96875 34.722656 C 126.261719 33.023438 125.476562 31.359375 124.609375 29.734375 C 123.738281 28.109375 122.792969 26.53125 121.769531 25 C 120.746094 23.46875 119.652344 21.988281 118.480469 20.566406 C 117.3125 19.140625 116.078125 17.777344 114.773438 16.476562 C 113.472656 15.171875 112.109375 13.9375 110.683594 12.769531 C 109.261719 11.597656 107.78125 10.503906 106.25 9.480469 C 104.71875 8.457031 103.140625 7.511719 101.515625 6.640625 C 99.890625 5.773438 98.226562 4.988281 96.527344 4.28125 C 94.824219 3.578125 93.089844 2.957031 91.328125 2.421875 C 89.566406 1.886719 87.78125 1.441406 85.972656 1.082031 C 84.167969 0.722656 82.347656 0.453125 80.511719 0.269531 C 78.679688 0.0898438 76.84375 0 75 0 Z M 168.75 37.5 L 168.75 75 L 356.25 75 L 356.25 37.5 Z M 75 131.25 C 44.15625 131.25 18.75 156.65625 18.75 187.5 C 18.75 218.34375 44.15625 243.75 75 243.75 C 105.84375 243.75 131.25 218.34375 131.25 187.5 C 131.25 156.65625 105.84375 131.25 75 131.25 Z M 75 168.75 C 85.578125 168.75 93.75 176.921875 93.75 187.5 C 93.75 198.078125 85.578125 206.25 75 206.25 C 64.421875 206.25 56.25 198.078125 56.25 187.5 C 56.25 176.921875 64.421875 168.75 75 168.75 Z M 168.75 168.75 L 168.75 206.25 L 356.25 206.25 L 356.25 168.75 Z M 75 262.5 C 44.15625 262.5 18.75 287.90625 18.75 318.75 C 18.75 349.59375 44.15625 375 75 375 C 105.84375 375 131.25 349.59375 131.25 318.75 C 131.25 287.90625 105.84375 262.5 75 262.5 Z M 75 300 C 85.578125 300 93.75 308.171875 93.75 318.75 C 93.75 329.328125 85.578125 337.5 75 337.5 C 64.421875 337.5 56.25 329.328125 56.25 318.75 C 56.25 308.171875 64.421875 300 75 300 Z M 168.75 300 L 168.75 337.5 L 356.25 337.5 L 356.25 300 Z M 168.75 300 " fill-opacity="1" fill-rule="nonzero"/></g></svg>