<svg xmlns="http://www.w3.org/2000/svg" xmlns:xlink="http://www.w3.org/1999/xlink" width="500" zoomAndPan="magnify" viewBox="0 0 375 374.999991" height="500" preserveAspectRatio="xMidYMid meet" version="1.0"><defs><clipPath id="db9ff26fd5"><path d="M 0.203125 30 L 374.796875 30 L 374.796875 344.898438 L 0.203125 344.898438 Z M 0.203125 30 " clip-rule="nonzero"/></clipPath><clipPath id="9281eb99b1"><path d="M 229 284 L 291 284 L 291 344.898438 L 229 344.898438 Z M 229 284 " clip-rule="nonzero"/></clipPath><clipPath id="c3f5ea5d35"><path d="M 84 284 L 146 284 L 146 344.898438 L 84 344.898438 Z M 84 284 " clip-rule="nonzero"/></clipPath><clipPath id="fb02bb2284"><path d="M 157 284 L 218 284 L 218 344.898438 L 157 344.898438 Z M 157 284 " clip-rule="nonzero"/></clipPath></defs><g clip-path="url(#db9ff26fd5)"><path fill="#e5e5e5" d="M 135.089844 101.898438 L 239.910156 101.898438 C 242.40625 101.898438 244.46875 103.929688 244.46875 106.457031 C 244.46875 108.984375 242.40625 111.011719 239.910156 111.011719 L 135.089844 111.011719 C 132.5625 111.011719 130.53125 108.984375 130.53125 106.457031 C 130.53125 103.929688 132.5625 101.898438 135.089844 101.898438 Z M 155.839844 79.816406 C 155.90625 79.816406 155.972656 79.816406 156.039062 79.816406 L 218.960938 79.816406 C 221.488281 79.851562 223.515625 81.914062 223.484375 84.441406 C 223.449219 86.902344 221.453125 88.929688 218.960938 88.929688 L 156.039062 88.929688 C 153.511719 88.960938 151.449219 86.933594 151.417969 84.40625 C 151.417969 81.945312 153.378906 79.882812 155.839844 79.816406 Z M 187.132812 29.964844 C 184.839844 30.035156 182.578125 30.53125 180.515625 31.464844 L 0.203125 112.308594 L 0.203125 150.085938 L 24.445312 150.085938 L 24.445312 344.898438 L 59.964844 344.898438 L 59.964844 161.726562 L 315.003906 161.726562 L 315.003906 344.898438 L 350.585938 344.898438 L 350.585938 150.085938 L 374.796875 150.085938 L 374.796875 112.308594 L 194.484375 31.464844 C 192.15625 30.433594 189.660156 29.933594 187.132812 30 L 187.132812 29.964844 " fill-opacity="1" fill-rule="nonzero"/></g><g clip-path="url(#9281eb99b1)"><path fill="#e5e5e5" d="M 234.390625 344.898438 L 285.835938 344.898438 C 288.332031 344.898438 290.359375 342.90625 290.359375 340.410156 L 290.359375 288.765625 C 290.359375 286.269531 288.332031 284.273438 285.835938 284.273438 L 234.390625 284.273438 C 231.898438 284.273438 229.867188 286.269531 229.867188 288.765625 L 229.867188 340.410156 C 229.867188 342.90625 231.898438 344.898438 234.390625 344.898438 " fill-opacity="1" fill-rule="nonzero"/></g><g clip-path="url(#c3f5ea5d35)"><path fill="#e5e5e5" d="M 140.609375 344.898438 C 143.101562 344.898438 145.132812 342.90625 145.132812 340.410156 L 145.132812 288.765625 C 145.132812 286.269531 143.101562 284.273438 140.609375 284.273438 L 89.128906 284.273438 C 86.636719 284.273438 84.640625 286.269531 84.640625 288.765625 L 84.640625 340.410156 C 84.640625 342.90625 86.636719 344.898438 89.128906 344.898438 L 140.609375 344.898438 " fill-opacity="1" fill-rule="nonzero"/></g><g clip-path="url(#fb02bb2284)"><path fill="#e5e5e5" d="M 157.238281 288.765625 L 157.238281 340.410156 C 157.238281 342.90625 159.265625 344.898438 161.761719 344.898438 L 213.238281 344.898438 C 215.699219 344.898438 217.730469 342.90625 217.730469 340.410156 L 217.730469 288.765625 C 217.730469 286.269531 215.699219 284.273438 213.238281 284.273438 L 161.761719 284.273438 C 159.265625 284.273438 157.238281 286.269531 157.238281 288.765625 " fill-opacity="1" fill-rule="nonzero"/></g><path fill="#e5e5e5" d="M 176.925781 270.738281 C 179.386719 270.738281 181.414062 268.746094 181.414062 266.25 L 181.414062 214.605469 C 181.414062 212.109375 179.386719 210.113281 176.925781 210.113281 L 125.445312 210.113281 C 122.949219 210.113281 120.921875 212.109375 120.921875 214.605469 L 120.921875 266.25 C 120.921875 268.746094 122.949219 270.738281 125.445312 270.738281 L 176.925781 270.738281 " fill-opacity="1" fill-rule="nonzero"/><path fill="#e5e5e5" d="M 198.042969 270.738281 L 249.523438 270.738281 C 252.015625 270.738281 254.046875 268.746094 254.046875 266.25 L 254.046875 214.605469 C 254.046875 212.109375 252.015625 210.113281 249.523438 210.113281 L 198.042969 210.113281 C 195.582031 210.113281 193.550781 212.109375 193.550781 214.605469 L 193.550781 266.25 C 193.550781 268.746094 195.582031 270.738281 198.042969 270.738281 " fill-opacity="1" fill-rule="nonzero"/></svg>