<svg xmlns="http://www.w3.org/2000/svg" xmlns:xlink="http://www.w3.org/1999/xlink" width="500" zoomAndPan="magnify" viewBox="0 0 375 374.999991" height="500" preserveAspectRatio="xMidYMid meet" version="1.0"><path fill="#e7e7e7" d="M 162.945312 203.304688 C 162.945312 180.769531 144.617188 162.441406 122.082031 162.441406 C 99.550781 162.441406 81.21875 180.769531 81.21875 203.304688 C 81.21875 225.835938 99.550781 244.167969 122.082031 244.167969 C 144.617188 244.167969 162.945312 225.832031 162.945312 203.304688 Z M 87.171875 203.304688 C 87.171875 184.054688 102.832031 168.394531 122.082031 168.394531 C 141.332031 168.394531 156.992188 184.054688 156.992188 203.304688 C 156.992188 222.554688 141.332031 238.214844 122.082031 238.214844 C 102.832031 238.214844 87.171875 222.550781 87.171875 203.304688 Z M 87.171875 203.304688 " fill-opacity="1" fill-rule="nonzero"/><path fill="#e7e7e7" d="M 132.503906 229.722656 L 132.507812 229.722656 C 132.992188 229.796875 133.46875 229.835938 133.945312 229.835938 C 135.40625 229.835938 136.832031 229.480469 138.128906 228.78125 C 147.863281 223.582031 152.957031 214.761719 152.855469 203.269531 C 152.8125 198.867188 149.648438 195.195312 145.414062 194.539062 C 144.914062 194.445312 144.417969 194.402344 143.84375 194.402344 C 138.921875 194.449219 134.957031 198.492188 135 203.417969 C 135.046875 208.164062 133.472656 211.035156 129.734375 213.023438 C 127.632812 214.140625 126.089844 216.011719 125.394531 218.292969 C 124.695312 220.589844 124.9375 223.011719 126.046875 225.082031 C 127.335938 227.578125 129.691406 229.269531 132.503906 229.722656 Z M 132.503906 229.722656 " fill-opacity="1" fill-rule="nonzero"/><path fill="#e7e7e7" d="M 174.96875 269.441406 L 174.96875 51.664062 C 174.96875 50.019531 173.636719 48.6875 171.992188 48.6875 L 36.25 48.6875 C 36.179688 48.6875 36.117188 48.722656 36.050781 48.730469 C 35.789062 48.746094 35.535156 48.796875 35.285156 48.882812 C 35.179688 48.921875 35.074219 48.957031 34.972656 49.003906 C 34.710938 49.128906 34.46875 49.289062 34.253906 49.488281 C 34.214844 49.523438 34.167969 49.542969 34.132812 49.582031 C 34.125 49.589844 34.113281 49.59375 34.105469 49.601562 L 0.832031 84.242188 C 0.597656 84.488281 0.429688 84.769531 0.292969 85.070312 C 0.253906 85.152344 0.230469 85.238281 0.203125 85.320312 C 0.109375 85.582031 0.0546875 85.851562 0.0390625 86.132812 C 0.03125 86.195312 0 86.246094 0 86.304688 L 0 312.527344 C 0 314.167969 1.332031 315.503906 2.976562 315.503906 L 171.992188 315.503906 C 173.636719 315.503906 174.96875 314.167969 174.96875 312.527344 L 174.96875 306.5 L 176.082031 308.277344 C 178.105469 311.484375 181.507812 313.269531 184.90625 313.269531 C 186.640625 313.269531 188.367188 312.804688 189.914062 311.832031 C 192.707031 310.082031 194.375 306.980469 194.375 303.539062 C 194.375 301.53125 193.804688 299.5625 192.730469 297.851562 Z M 89.730469 237.335938 C 86.875 234.625 84.359375 231.542969 82.257812 228.183594 C 79.351562 223.535156 77.320312 218.550781 76.207031 213.347656 C 74.460938 205.386719 74.820312 197.09375 77.246094 189.363281 C 80.265625 179.644531 86.195312 171.351562 94.402344 165.371094 L 94.632812 165.214844 C 95.460938 164.644531 96.3125 164.054688 97.203125 163.503906 C 119.136719 149.78125 148.15625 156.472656 161.882812 178.417969 C 166.550781 185.894531 169.019531 194.488281 169.019531 203.269531 C 169.019531 217.28125 162.878906 230.417969 152.15625 239.332031 C 150.542969 240.691406 148.800781 241.957031 146.96875 243.09375 C 145.019531 244.304688 143.101562 245.332031 141.253906 246.148438 C 124.082031 253.859375 103.378906 250.3125 89.730469 237.335938 Z M 150.113281 248.152344 C 151.210938 247.46875 152.273438 246.742188 153.308594 245.988281 L 165.238281 265.070312 L 158.675781 269.179688 L 146.742188 250.089844 C 147.855469 249.496094 148.980469 248.855469 150.113281 248.152344 Z M 169.019531 259.890625 L 157.902344 242.105469 C 162.480469 237.902344 166.21875 232.988281 169.019531 227.570312 Z M 33.589844 58.730469 L 34.769531 84.980469 L 9.632812 83.671875 Z M 5.953125 309.550781 L 5.953125 89.445312 L 37.730469 91.09375 C 37.78125 91.097656 37.835938 91.097656 37.886719 91.097656 C 38.667969 91.097656 39.425781 90.789062 39.984375 90.230469 C 40.582031 89.640625 40.898438 88.824219 40.859375 87.988281 L 39.363281 54.640625 L 169.019531 54.640625 L 169.019531 178.957031 C 168.367188 177.707031 167.679688 176.46875 166.929688 175.265625 C 151.460938 150.539062 118.765625 142.992188 94.0625 158.449219 C 93.277344 158.929688 92.523438 159.457031 91.773438 159.96875 L 29.730469 159.96875 C 28.089844 159.96875 26.757812 161.304688 26.757812 162.945312 C 26.757812 164.589844 28.089844 165.921875 29.730469 165.921875 L 84.632812 165.921875 C 79.117188 171.425781 74.949219 178.074219 72.304688 185.507812 L 29.730469 185.507812 C 28.089844 185.507812 26.757812 186.839844 26.757812 188.480469 C 26.757812 190.125 28.089844 191.457031 29.730469 191.457031 L 70.53125 191.457031 C 69.050781 197.855469 68.777344 204.496094 69.742188 211.011719 L 29.730469 211.011719 C 28.089844 211.011719 26.757812 212.34375 26.757812 213.988281 C 26.757812 215.632812 28.089844 216.964844 29.730469 216.964844 L 71.003906 216.964844 C 72.328125 221.980469 74.375 226.8125 77.207031 231.34375 C 78.335938 233.144531 79.578125 234.867188 80.90625 236.519531 L 29.730469 236.519531 C 28.089844 236.519531 26.757812 237.851562 26.757812 239.492188 C 26.757812 241.136719 28.089844 242.46875 29.730469 242.46875 L 86.578125 242.46875 C 96.515625 251.484375 109.148438 256.246094 122.011719 256.246094 C 128.484375 256.246094 134.992188 254.976562 141.25 252.527344 L 169.019531 296.953125 L 169.019531 309.550781 Z M 5.953125 309.550781 " fill-opacity="1" fill-rule="nonzero"/><path fill="#e7e7e7" d="M 101.308594 83.894531 L 157.738281 83.894531 C 159.382812 83.894531 160.714844 82.5625 160.714844 80.917969 C 160.714844 79.277344 159.382812 77.945312 157.738281 77.945312 L 101.308594 77.945312 C 99.667969 77.945312 98.332031 79.277344 98.332031 80.917969 C 98.332031 82.5625 99.667969 83.894531 101.308594 83.894531 Z M 101.308594 83.894531 " fill-opacity="1" fill-rule="nonzero"/><path fill="#e7e7e7" d="M 29.730469 114.90625 L 148.808594 114.90625 C 150.453125 114.90625 151.785156 113.574219 151.785156 111.929688 C 151.785156 110.289062 150.453125 108.957031 148.808594 108.957031 L 29.730469 108.957031 C 28.089844 108.957031 26.757812 110.289062 26.757812 111.929688 C 26.757812 113.574219 28.089844 114.90625 29.730469 114.90625 Z M 29.730469 114.90625 " fill-opacity="1" fill-rule="nonzero"/><path fill="#e7e7e7" d="M 29.730469 140.417969 L 148.808594 140.417969 C 150.453125 140.417969 151.785156 139.082031 151.785156 137.441406 C 151.785156 135.796875 150.453125 134.464844 148.808594 134.464844 L 29.730469 134.464844 C 28.089844 134.464844 26.757812 135.796875 26.757812 137.441406 C 26.757812 139.082031 28.089844 140.417969 29.730469 140.417969 Z M 29.730469 140.417969 " fill-opacity="1" fill-rule="nonzero"/><path fill="#e7e7e7" d="M 292.53125 196.007812 L 219.464844 196.007812 C 210.09375 196.007812 202.46875 203.632812 202.46875 213.003906 L 202.46875 355.800781 C 202.46875 365.1875 210.09375 372.824219 219.464844 372.824219 L 292.53125 372.824219 C 301.898438 372.824219 309.523438 365.1875 309.523438 355.800781 L 309.523438 213.003906 C 309.523438 203.632812 301.898438 196.007812 292.53125 196.007812 Z M 303.570312 355.800781 C 303.570312 361.90625 298.617188 366.871094 292.53125 366.871094 L 219.464844 366.871094 C 213.375 366.871094 208.421875 361.90625 208.421875 355.800781 L 208.421875 213.003906 C 208.421875 206.914062 213.378906 201.960938 219.464844 201.960938 L 292.53125 201.960938 C 298.617188 201.960938 303.570312 206.914062 303.570312 213.003906 Z M 303.570312 355.800781 " fill-opacity="1" fill-rule="nonzero"/><path fill="#e7e7e7" d="M 291.667969 214.40625 L 220.328125 214.40625 C 218.683594 214.40625 217.351562 215.738281 217.351562 217.382812 L 217.351562 239.433594 C 217.351562 241.078125 218.683594 242.410156 220.328125 242.410156 L 291.667969 242.410156 C 293.308594 242.410156 294.644531 241.078125 294.644531 239.433594 L 294.644531 217.382812 C 294.644531 215.734375 293.308594 214.40625 291.667969 214.40625 Z M 288.691406 236.457031 L 223.304688 236.457031 L 223.304688 220.355469 L 288.691406 220.355469 Z M 288.691406 236.457031 " fill-opacity="1" fill-rule="nonzero"/><path fill="#e7e7e7" d="M 255.980469 254.582031 C 249.976562 254.582031 245.089844 259.46875 245.089844 265.476562 C 245.089844 271.480469 249.976562 276.367188 255.980469 276.367188 C 262.007812 276.367188 266.90625 271.480469 266.90625 265.476562 C 266.90625 259.46875 262.007812 254.582031 255.980469 254.582031 Z M 255.980469 270.414062 C 253.257812 270.414062 251.042969 268.195312 251.042969 265.472656 C 251.042969 262.746094 253.257812 260.53125 255.980469 260.53125 C 258.722656 260.53125 260.953125 262.75 260.953125 265.472656 C 260.953125 268.199219 258.722656 270.414062 255.980469 270.414062 Z M 255.980469 270.414062 " fill-opacity="1" fill-rule="nonzero"/><path fill="#e7e7e7" d="M 255.980469 282.054688 C 249.976562 282.054688 245.089844 286.941406 245.089844 292.945312 C 245.089844 298.953125 249.976562 303.839844 255.980469 303.839844 C 262.007812 303.839844 266.90625 298.953125 266.90625 292.945312 C 266.90625 286.941406 262.007812 282.054688 255.980469 282.054688 Z M 255.980469 297.882812 C 253.257812 297.882812 251.042969 295.667969 251.042969 292.945312 C 251.042969 290.21875 253.257812 288.003906 255.980469 288.003906 C 258.722656 288.003906 260.953125 290.21875 260.953125 292.945312 C 260.953125 295.667969 258.722656 297.882812 255.980469 297.882812 Z M 255.980469 297.882812 " fill-opacity="1" fill-rule="nonzero"/><path fill="#e7e7e7" d="M 255.980469 309.519531 C 249.976562 309.519531 245.089844 314.417969 245.089844 320.445312 C 245.089844 326.449219 249.976562 331.335938 255.980469 331.335938 C 262.007812 331.335938 266.90625 326.449219 266.90625 320.445312 C 266.90625 314.421875 262.007812 309.519531 255.980469 309.519531 Z M 255.980469 325.386719 C 253.257812 325.386719 251.042969 323.167969 251.042969 320.445312 C 251.042969 317.707031 253.257812 315.476562 255.980469 315.476562 C 258.722656 315.476562 260.953125 317.707031 260.953125 320.445312 C 260.953125 323.167969 258.722656 325.386719 255.980469 325.386719 Z M 255.980469 325.386719 " fill-opacity="1" fill-rule="nonzero"/><path fill="#e7e7e7" d="M 255.980469 337.023438 C 249.976562 337.023438 245.089844 341.910156 245.089844 347.917969 C 245.089844 353.921875 249.976562 358.808594 255.980469 358.808594 C 262.007812 358.808594 266.90625 353.921875 266.90625 347.917969 C 266.90625 341.910156 262.007812 337.023438 255.980469 337.023438 Z M 255.980469 352.855469 C 253.257812 352.855469 251.042969 350.640625 251.042969 347.917969 C 251.042969 345.195312 253.257812 342.976562 255.980469 342.976562 C 258.722656 342.976562 260.953125 345.195312 260.953125 347.917969 C 260.953125 350.640625 258.722656 352.855469 255.980469 352.855469 Z M 255.980469 352.855469 " fill-opacity="1" fill-rule="nonzero"/><path fill="#e7e7e7" d="M 228.242188 254.582031 C 222.238281 254.582031 217.351562 259.46875 217.351562 265.476562 C 217.351562 271.480469 222.238281 276.367188 228.242188 276.367188 C 234.25 276.367188 239.136719 271.480469 239.136719 265.476562 C 239.136719 259.46875 234.25 254.582031 228.242188 254.582031 Z M 228.242188 270.414062 C 225.519531 270.414062 223.304688 268.195312 223.304688 265.472656 C 223.304688 262.746094 225.519531 260.53125 228.242188 260.53125 C 230.96875 260.53125 233.183594 262.75 233.183594 265.472656 C 233.183594 268.199219 230.96875 270.414062 228.242188 270.414062 Z M 228.242188 270.414062 " fill-opacity="1" fill-rule="nonzero"/><path fill="#e7e7e7" d="M 228.242188 282.054688 C 222.238281 282.054688 217.351562 286.941406 217.351562 292.945312 C 217.351562 298.953125 222.238281 303.839844 228.242188 303.839844 C 234.25 303.839844 239.136719 298.953125 239.136719 292.945312 C 239.136719 286.941406 234.25 282.054688 228.242188 282.054688 Z M 228.242188 297.882812 C 225.519531 297.882812 223.304688 295.667969 223.304688 292.945312 C 223.304688 290.21875 225.519531 288.003906 228.242188 288.003906 C 230.96875 288.003906 233.183594 290.21875 233.183594 292.945312 C 233.183594 295.667969 230.96875 297.882812 228.242188 297.882812 Z M 228.242188 297.882812 " fill-opacity="1" fill-rule="nonzero"/><path fill="#e7e7e7" d="M 228.242188 309.519531 C 222.238281 309.519531 217.351562 314.417969 217.351562 320.445312 C 217.351562 326.449219 222.238281 331.335938 228.242188 331.335938 C 234.25 331.335938 239.136719 326.449219 239.136719 320.445312 C 239.136719 314.421875 234.25 309.519531 228.242188 309.519531 Z M 228.242188 325.386719 C 225.519531 325.386719 223.304688 323.167969 223.304688 320.445312 C 223.304688 317.707031 225.519531 315.476562 228.242188 315.476562 C 230.96875 315.476562 233.183594 317.707031 233.183594 320.445312 C 233.183594 323.167969 230.96875 325.386719 228.242188 325.386719 Z M 228.242188 325.386719 " fill-opacity="1" fill-rule="nonzero"/><path fill="#e7e7e7" d="M 228.242188 337.023438 C 222.238281 337.023438 217.351562 341.910156 217.351562 347.917969 C 217.351562 353.921875 222.238281 358.808594 228.242188 358.808594 C 234.25 358.808594 239.136719 353.921875 239.136719 347.917969 C 239.136719 341.910156 234.25 337.023438 228.242188 337.023438 Z M 228.242188 352.855469 C 225.519531 352.855469 223.304688 350.640625 223.304688 347.917969 C 223.304688 345.195312 225.519531 342.976562 228.242188 342.976562 C 230.96875 342.976562 233.183594 345.195312 233.183594 347.917969 C 233.183594 350.640625 230.96875 352.855469 228.242188 352.855469 Z M 228.242188 352.855469 " fill-opacity="1" fill-rule="nonzero"/><path fill="#e7e7e7" d="M 283.75 254.582031 C 277.742188 254.582031 272.855469 259.46875 272.855469 265.476562 C 272.855469 271.480469 277.742188 276.367188 283.75 276.367188 C 289.757812 276.367188 294.644531 271.480469 294.644531 265.476562 C 294.644531 259.46875 289.757812 254.582031 283.75 254.582031 Z M 283.75 270.414062 C 281.027344 270.414062 278.808594 268.195312 278.808594 265.472656 C 278.808594 262.746094 281.027344 260.53125 283.75 260.53125 C 286.476562 260.53125 288.691406 262.75 288.691406 265.472656 C 288.691406 268.199219 286.472656 270.414062 283.75 270.414062 Z M 283.75 270.414062 " fill-opacity="1" fill-rule="nonzero"/><path fill="#e7e7e7" d="M 283.75 282.054688 C 277.742188 282.054688 272.855469 286.941406 272.855469 292.945312 C 272.855469 298.953125 277.742188 303.839844 283.75 303.839844 C 289.757812 303.839844 294.644531 298.953125 294.644531 292.945312 C 294.644531 286.941406 289.757812 282.054688 283.75 282.054688 Z M 283.75 297.882812 C 281.027344 297.882812 278.808594 295.667969 278.808594 292.945312 C 278.808594 290.21875 281.027344 288.003906 283.75 288.003906 C 286.476562 288.003906 288.691406 290.21875 288.691406 292.945312 C 288.691406 295.667969 286.472656 297.882812 283.75 297.882812 Z M 283.75 297.882812 " fill-opacity="1" fill-rule="nonzero"/><path fill="#e7e7e7" d="M 283.75 309.519531 C 277.742188 309.519531 272.855469 314.417969 272.855469 320.445312 C 272.855469 326.449219 277.742188 331.335938 283.75 331.335938 C 289.757812 331.335938 294.644531 326.449219 294.644531 320.445312 C 294.644531 314.421875 289.757812 309.519531 283.75 309.519531 Z M 283.75 325.386719 C 281.027344 325.386719 278.808594 323.167969 278.808594 320.445312 C 278.808594 317.707031 281.027344 315.476562 283.75 315.476562 C 286.476562 315.476562 288.691406 317.707031 288.691406 320.445312 C 288.691406 323.167969 286.472656 325.386719 283.75 325.386719 Z M 283.75 325.386719 " fill-opacity="1" fill-rule="nonzero"/><path fill="#e7e7e7" d="M 283.75 337.023438 C 277.742188 337.023438 272.855469 341.910156 272.855469 347.917969 C 272.855469 353.921875 277.742188 358.808594 283.75 358.808594 C 289.757812 358.808594 294.644531 353.921875 294.644531 347.917969 C 294.644531 341.910156 289.757812 337.023438 283.75 337.023438 Z M 283.75 352.855469 C 281.027344 352.855469 278.808594 350.640625 278.808594 347.917969 C 278.808594 345.195312 281.027344 342.976562 283.75 342.976562 C 286.476562 342.976562 288.691406 345.195312 288.691406 347.917969 C 288.691406 350.640625 286.472656 352.855469 283.75 352.855469 Z M 283.75 352.855469 " fill-opacity="1" fill-rule="nonzero"/><path fill="#e7e7e7" d="M 360.058594 301.84375 C 358.417969 301.84375 357.082031 303.175781 357.082031 304.820312 L 357.082031 346.1875 C 357.082031 348.929688 355.070312 351.207031 352.441406 351.65625 L 352.441406 214.078125 C 352.441406 213.898438 352.367188 213.742188 352.339844 213.570312 C 352.304688 213.390625 352.320312 213.207031 352.253906 213.03125 L 346.894531 198.746094 C 345.925781 196.164062 343.910156 194.257812 341.429688 193.402344 L 341.429688 183.632812 C 341.429688 181.988281 340.097656 180.65625 338.457031 180.65625 C 336.8125 180.65625 335.480469 181.988281 335.480469 183.632812 L 335.480469 193.398438 C 333 194.257812 330.980469 196.160156 330.015625 198.742188 L 324.628906 213.027344 C 324.5625 213.199219 324.574219 213.371094 324.542969 213.546875 C 324.507812 213.726562 324.433594 213.890625 324.433594 214.078125 L 324.433594 354.730469 C 324.433594 356.375 325.769531 357.707031 327.410156 357.707031 L 329.195312 357.707031 L 329.195312 365.59375 C 329.195312 368.105469 330.171875 370.4375 331.886719 372.105469 C 333.609375 373.878906 335.945312 374.851562 338.457031 374.851562 C 343.558594 374.851562 347.710938 370.695312 347.710938 365.59375 L 347.710938 357.707031 L 351.492188 357.707031 C 357.855469 357.707031 363.039062 352.542969 363.039062 346.191406 L 363.039062 304.820312 C 363.035156 303.175781 361.703125 301.84375 360.058594 301.84375 Z M 346.488281 228.925781 L 346.488281 276.542969 L 330.386719 276.542969 L 330.386719 228.925781 Z M 346.488281 282.496094 L 346.488281 340.621094 L 330.386719 340.621094 L 330.386719 282.496094 Z M 335.582031 200.832031 C 336.277344 198.980469 337.957031 198.835938 338.453125 198.835938 C 338.949219 198.835938 340.625 198.980469 341.320312 200.832031 L 345.167969 211.097656 L 331.710938 211.097656 Z M 341.757812 365.59375 C 341.757812 367.414062 340.273438 368.894531 338.453125 368.894531 C 337.5625 368.894531 336.742188 368.558594 336.09375 367.894531 C 335.484375 367.300781 335.148438 366.480469 335.148438 365.59375 L 335.148438 357.707031 L 341.757812 357.707031 Z M 341.757812 365.59375 " fill-opacity="1" fill-rule="nonzero"/><path fill="#e7e7e7" d="M 211.398438 95.445312 C 209.757812 95.445312 208.421875 96.777344 208.421875 98.417969 L 208.421875 174.371094 C 208.421875 176.015625 209.757812 177.347656 211.398438 177.347656 L 231.636719 177.347656 C 233.28125 177.347656 234.613281 176.015625 234.613281 174.371094 L 234.613281 98.417969 C 234.613281 96.777344 233.28125 95.445312 231.636719 95.445312 Z M 228.660156 171.394531 L 214.375 171.394531 L 214.375 101.394531 L 228.660156 101.394531 Z M 228.660156 171.394531 " fill-opacity="1" fill-rule="nonzero"/><path fill="#e7e7e7" d="M 246.488281 66.578125 C 244.84375 66.578125 243.511719 67.910156 243.511719 69.554688 L 243.511719 174.375 C 243.511719 176.019531 244.84375 177.351562 246.488281 177.351562 L 266.726562 177.351562 C 268.367188 177.351562 269.703125 176.019531 269.703125 174.375 L 269.703125 69.554688 C 269.703125 67.910156 268.367188 66.578125 266.726562 66.578125 Z M 263.75 171.394531 L 249.464844 171.394531 L 249.464844 72.53125 L 263.75 72.53125 Z M 263.75 171.394531 " fill-opacity="1" fill-rule="nonzero"/><path fill="#e7e7e7" d="M 281.605469 113.777344 C 279.964844 113.777344 278.632812 115.109375 278.632812 116.753906 L 278.632812 174.371094 C 278.632812 176.015625 279.964844 177.347656 281.605469 177.347656 L 301.816406 177.347656 C 303.457031 177.347656 304.792969 176.015625 304.792969 174.371094 L 304.792969 116.753906 C 304.792969 115.109375 303.457031 113.777344 301.816406 113.777344 Z M 298.839844 171.394531 L 284.582031 171.394531 L 284.582031 119.730469 L 298.839844 119.730469 Z M 298.839844 171.394531 " fill-opacity="1" fill-rule="nonzero"/><path fill="#e7e7e7" d="M 339.910156 174.371094 L 339.910156 47.410156 C 339.910156 45.769531 338.578125 44.433594 336.933594 44.433594 L 316.695312 44.433594 C 315.054688 44.433594 313.71875 45.769531 313.71875 47.410156 L 313.71875 174.375 C 313.71875 176.019531 315.054688 177.351562 316.695312 177.351562 L 336.933594 177.351562 C 338.578125 177.347656 339.910156 176.019531 339.910156 174.371094 Z M 333.957031 171.394531 L 319.671875 171.394531 L 319.671875 50.386719 L 333.957031 50.386719 Z M 333.957031 171.394531 " fill-opacity="1" fill-rule="nonzero"/><path fill="#e7e7e7" d="M 372.023438 26.128906 L 351.785156 26.128906 C 350.144531 26.128906 348.808594 27.460938 348.808594 29.105469 L 348.808594 174.371094 C 348.808594 176.015625 350.144531 177.347656 351.785156 177.347656 L 372.023438 177.347656 C 373.667969 177.347656 375 176.015625 375 174.371094 L 375 29.105469 C 375 27.460938 373.667969 26.128906 372.023438 26.128906 Z M 369.046875 171.394531 L 354.761719 171.394531 L 354.761719 32.082031 L 369.046875 32.082031 Z M 369.046875 171.394531 " fill-opacity="1" fill-rule="nonzero"/><path fill="#e7e7e7" d="M 271.550781 33.84375 C 273.109375 34.316406 274.378906 35.375 275.105469 36.804688 C 277.109375 40.8125 281.152344 43.304688 285.65625 43.304688 C 287.601562 43.304688 289.4375 42.859375 291.105469 41.988281 L 336.632812 18.324219 L 340.972656 26.121094 C 341.476562 27.027344 342.414062 27.605469 343.449219 27.648438 C 343.492188 27.648438 343.53125 27.652344 343.574219 27.652344 C 344.5625 27.652344 345.488281 27.160156 346.042969 26.339844 L 360.65625 4.644531 C 361.28125 3.710938 361.332031 2.511719 360.789062 1.53125 C 360.242188 0.554688 359.179688 -0.0234375 358.074219 0.0078125 L 331.945312 1.019531 C 330.90625 1.058594 329.96875 1.632812 329.464844 2.535156 C 328.957031 3.4375 328.957031 4.539062 329.460938 5.445312 L 333.738281 13.125 L 288.359375 36.714844 C 287.542969 37.140625 286.636719 37.355469 285.660156 37.355469 C 283.429688 37.355469 281.425781 36.128906 280.425781 34.132812 C 278.941406 31.21875 276.398438 29.097656 273.273438 28.15625 C 270.164062 27.21875 266.902344 27.582031 264.085938 29.167969 L 191.945312 69.671875 C 190.511719 70.480469 190 72.292969 190.804688 73.726562 C 191.355469 74.699219 192.363281 75.242188 193.40625 75.242188 C 193.898438 75.242188 194.398438 75.121094 194.859375 74.863281 L 267 34.34375 C 268.394531 33.558594 270.007812 33.382812 271.550781 33.84375 Z M 271.550781 33.84375 " fill-opacity="1" fill-rule="nonzero"/></svg>