<svg xmlns="http://www.w3.org/2000/svg" xmlns:xlink="http://www.w3.org/1999/xlink" width="500" zoomAndPan="magnify" viewBox="0 0 375 374.999991" height="500" preserveAspectRatio="xMidYMid meet" version="1.0"><rect x="-37.5" width="450" fill="#ffffff" y="-37.499999" height="449.999989" fill-opacity="1"/><rect x="-37.5" width="450" fill="#d9d9d9" y="-37.499999" height="449.999989" fill-opacity="1"/><path fill="#02d7c2" d="M 323.972656 144.667969 L 344.078125 109.84375 C 345.75 106.949219 344.757812 103.25 341.867188 101.582031 L 267.554688 58.675781 C 256.808594 24.699219 224.984375 0 187.5 0 C 150.015625 0 118.191406 24.699219 107.445312 58.675781 L 33.132812 101.582031 C 30.242188 103.253906 29.25 106.953125 30.921875 109.84375 L 51.027344 144.667969 L 30.921875 179.492188 C 29.25 182.386719 30.242188 186.085938 33.132812 187.753906 L 51.960938 198.625 L 51.960938 294.191406 C 51.960938 296.351562 53.113281 298.347656 54.984375 299.429688 L 184.476562 374.191406 C 185.410156 374.730469 186.457031 375 187.5 375 C 188.542969 375 189.589844 374.730469 190.523438 374.191406 L 320.015625 299.425781 C 321.886719 298.347656 323.039062 296.351562 323.039062 294.191406 L 323.039062 198.621094 L 341.867188 187.753906 C 344.757812 186.082031 345.75 182.382812 344.078125 179.492188 Z M 187.5 212.445312 L 70.105469 144.667969 L 111.949219 120.507812 C 125.5625 148.527344 154.3125 167.886719 187.5 167.886719 C 220.6875 167.886719 249.4375 148.527344 263.050781 120.507812 L 304.894531 144.667969 Z M 330.578125 109.03125 L 314.777344 136.40625 L 267.574219 109.152344 C 270.085938 101.191406 271.445312 92.722656 271.445312 83.945312 C 271.445312 80.78125 271.261719 77.660156 270.921875 74.585938 Z M 187.5 12.097656 C 227.117188 12.097656 259.347656 44.328125 259.347656 83.945312 C 259.347656 123.558594 227.117188 155.789062 187.5 155.789062 C 147.882812 155.789062 115.652344 123.558594 115.652344 83.945312 C 115.652344 44.328125 147.882812 12.097656 187.5 12.097656 Z M 104.082031 74.585938 C 103.738281 77.660156 103.554688 80.78125 103.554688 83.945312 C 103.554688 92.722656 104.914062 101.191406 107.425781 109.152344 L 60.222656 136.40625 L 44.421875 109.03125 Z M 60.222656 152.929688 L 179.238281 221.640625 L 163.433594 249.015625 L 44.421875 180.300781 Z M 64.058594 205.605469 L 162.625 262.515625 C 163.550781 263.050781 164.597656 263.324219 165.648438 263.324219 C 166.171875 263.324219 166.699219 263.257812 167.214844 263.121094 C 168.761719 262.703125 170.085938 261.691406 170.886719 260.300781 L 181.453125 242.003906 L 181.453125 358.476562 L 64.058594 290.699219 Z M 310.941406 290.699219 L 193.546875 358.476562 L 193.546875 242.003906 L 204.113281 260.300781 C 204.914062 261.691406 206.238281 262.703125 207.785156 263.121094 C 208.300781 263.257812 208.828125 263.324219 209.351562 263.324219 C 210.402344 263.324219 211.449219 263.050781 212.375 262.515625 L 310.941406 205.605469 Z M 211.566406 249.015625 L 195.761719 221.640625 L 314.777344 152.929688 L 330.582031 180.300781 Z M 164.847656 119.625 C 168.28125 123.058594 172.785156 124.773438 177.292969 124.773438 C 181.800781 124.773438 186.308594 123.058594 189.738281 119.625 C 199.441406 109.921875 209.230469 99.996094 218.695312 90.394531 C 224.394531 84.617188 230.09375 78.835938 235.804688 73.070312 C 242.621094 66.191406 242.585938 55.042969 235.722656 48.222656 C 232.402344 44.921875 228.003906 43.105469 223.324219 43.105469 C 223.300781 43.105469 223.277344 43.105469 223.253906 43.105469 C 218.554688 43.121094 214.148438 44.96875 210.847656 48.304688 L 177.246094 82.242188 L 164.140625 69.132812 C 157.277344 62.269531 146.109375 62.269531 139.246094 69.132812 C 135.925781 72.457031 134.09375 76.878906 134.09375 81.578125 C 134.09375 86.28125 135.925781 90.703125 139.25 94.027344 Z M 147.800781 77.6875 C 148.875 76.613281 150.285156 76.078125 151.695312 76.078125 C 153.105469 76.078125 154.511719 76.613281 155.585938 77.6875 L 172.992188 95.09375 C 174.125 96.226562 175.664062 96.863281 177.269531 96.863281 C 177.273438 96.863281 177.277344 96.863281 177.285156 96.863281 C 178.894531 96.859375 180.433594 96.214844 181.566406 95.070312 L 219.445312 56.816406 C 220.46875 55.78125 221.839844 55.207031 223.300781 55.199219 C 223.308594 55.199219 223.316406 55.199219 223.324219 55.199219 C 224.785156 55.199219 226.160156 55.769531 227.195312 56.796875 C 229.335938 58.925781 229.34375 62.40625 227.214844 64.554688 C 221.492188 70.328125 215.789062 76.113281 210.082031 81.902344 C 200.632812 91.488281 190.859375 101.398438 181.1875 111.070312 C 179.042969 113.21875 175.546875 113.21875 173.402344 111.070312 L 147.800781 85.472656 C 146.761719 84.433594 146.191406 83.050781 146.191406 81.578125 C 146.191406 80.109375 146.761719 78.726562 147.800781 77.6875 Z M 147.800781 77.6875 " fill-opacity="1" fill-rule="nonzero"/></svg>