<svg xmlns="http://www.w3.org/2000/svg" xmlns:xlink="http://www.w3.org/1999/xlink" width="500" zoomAndPan="magnify" viewBox="0 0 375 374.999991" height="500" preserveAspectRatio="xMidYMid meet" version="1.0"><defs><clipPath id="fdde6a0e96"><path d="M 18.046875 255 L 140 255 L 140 375 L 18.046875 375 Z M 18.046875 255 " clip-rule="nonzero"/></clipPath><clipPath id="263b19460d"><path d="M 78.054688 194 L 356.867188 194 L 356.867188 316 L 78.054688 316 Z M 78.054688 194 " clip-rule="nonzero"/></clipPath></defs><rect x="-37.5" width="450" fill="#ffffff" y="-37.499999" height="449.999989" fill-opacity="1"/><rect x="-37.5" width="450" fill="#ffffff" y="-37.499999" height="449.999989" fill-opacity="1"/><path fill="#252732" d="M 316.855469 110.191406 C 316.855469 161.03125 275.492188 202.390625 224.652344 202.390625 C 173.8125 202.390625 132.453125 161.03125 132.453125 110.191406 C 132.453125 59.351562 173.8125 17.988281 224.652344 17.988281 C 275.492188 17.988281 316.855469 59.351562 316.855469 110.191406 Z M 114.460938 110.191406 C 114.460938 171.046875 163.796875 220.382812 224.652344 220.382812 C 285.511719 220.382812 334.84375 171.046875 334.84375 110.191406 C 334.84375 49.335938 285.511719 0 224.652344 0 C 163.796875 0 114.460938 49.335938 114.460938 110.191406 " fill-opacity="1" fill-rule="nonzero"/><path fill="#252732" d="M 217.273438 40.183594 L 217.273438 57.234375 C 201.371094 60.679688 192.027344 72.15625 192.027344 88.714844 C 192.027344 117.40625 234.324219 119.207031 234.324219 132.324219 C 234.324219 138.71875 231.046875 141.507812 222.847656 141.507812 C 215.964844 141.507812 209.078125 138.882812 200.226562 132.324219 L 188.09375 151.34375 C 196.289062 158.722656 207.929688 162.65625 217.273438 163.804688 L 217.273438 180.199219 L 235.636719 180.199219 L 235.636719 162.820312 C 252.851562 158.722656 261.214844 146.257812 261.214844 130.355469 C 261.214844 100.519531 218.914062 99.863281 218.914062 87.402344 C 218.914062 80.84375 222.355469 78.878906 229.40625 78.878906 C 235.472656 78.878906 240.558594 81.5 246.460938 86.746094 L 260.394531 70.679688 C 253.835938 63.792969 245.96875 58.546875 235.636719 56.90625 L 235.636719 40.183594 L 217.273438 40.183594 " fill-opacity="1" fill-rule="nonzero"/><g clip-path="url(#fdde6a0e96)"><path fill="#252732" d="M 114.671875 371.828125 L 137.441406 348.855469 C 140.46875 345.800781 140.507812 340.890625 137.53125 337.789062 L 128.984375 328.882812 L 62.0625 264.632812 L 54.273438 257.703125 C 51.074219 254.855469 46.191406 255.066406 43.25 258.171875 L 21.105469 281.546875 C 18.113281 284.703125 18.226562 289.683594 21.355469 292.703125 L 103.542969 371.957031 C 106.664062 374.964844 111.621094 374.910156 114.671875 371.828125 " fill-opacity="1" fill-rule="nonzero"/></g><g clip-path="url(#263b19460d)"><path fill="#252732" d="M 289.40625 275.609375 L 289.339844 275.609375 C 289.414062 275.589844 289.441406 275.589844 289.40625 275.609375 Z M 256.472656 314.371094 C 261.242188 312.628906 265.082031 309.0625 268.769531 305.566406 C 302.925781 273.203125 367.921875 204.652344 355.253906 195.3125 C 354.574219 195.046875 353.894531 194.832031 353.203125 194.664062 C 345.136719 192.6875 336.511719 197.210938 329.171875 201.605469 C 312.359375 211.664062 295.550781 221.71875 278.742188 231.777344 C 276.554688 233.089844 275.675781 235.835938 276.71875 238.164062 C 279.300781 243.898438 279.722656 249.402344 278.730469 254.554688 C 276.164062 267.882812 264.242188 277.351562 250.671875 277.351562 L 182.117188 277.351562 C 179.695312 277.351562 177.734375 275.390625 177.734375 272.972656 L 177.734375 269.742188 C 177.734375 267.3125 179.710938 265.347656 182.140625 265.363281 C 200.273438 265.457031 218.402344 265.558594 236.53125 265.652344 C 248.1875 265.71875 263.710938 262.351562 264.199219 250.707031 C 264.453125 244.558594 259.585938 239.132812 253.910156 236.75 C 248.238281 234.371094 241.890625 234.382812 235.738281 234.429688 C 218.167969 234.566406 197.777344 235.964844 179.78125 231.273438 C 160.328125 226.203125 145.488281 219.207031 125.066406 226.246094 C 106.945312 232.496094 91.78125 245.234375 78.554688 259.109375 C 94.363281 274.417969 110.175781 289.722656 125.984375 305.03125 C 129.769531 308.699219 133.707031 312.464844 138.652344 314.292969 C 142.875 315.859375 147.496094 315.878906 152.003906 315.882812 C 182.488281 315.882812 212.972656 315.890625 243.460938 315.894531 C 247.851562 315.894531 252.347656 315.878906 256.472656 314.371094 " fill-opacity="1" fill-rule="nonzero"/></g></svg>