<svg xmlns="http://www.w3.org/2000/svg" xmlns:xlink="http://www.w3.org/1999/xlink" width="500" zoomAndPan="magnify" viewBox="0 0 375 374.999991" height="500" preserveAspectRatio="xMidYMid meet" version="1.0"><rect x="-37.5" width="450" fill="#ffffff" y="-37.499999" height="449.999989" fill-opacity="1"/><rect x="-37.5" width="450" fill="#ffffff" y="-37.499999" height="449.999989" fill-opacity="1"/><path fill="#e7e7e7" d="M 79.175781 315.359375 C 62.726562 315.359375 49.347656 328.738281 49.347656 345.1875 C 49.347656 361.636719 62.726562 375.015625 79.175781 375.015625 C 95.625 375.015625 109.003906 361.636719 109.003906 345.1875 C 109.003906 328.738281 95.625 315.359375 79.175781 315.359375 Z M 79.175781 315.359375 " fill-opacity="1" fill-rule="nonzero"/><path fill="#e7e7e7" d="M 230.316406 315.359375 C 213.871094 315.359375 200.488281 328.738281 200.488281 345.1875 C 200.488281 361.636719 213.871094 375.015625 230.316406 375.015625 C 246.765625 375.015625 260.148438 361.636719 260.148438 345.1875 C 260.148438 328.738281 246.765625 315.359375 230.316406 315.359375 Z M 230.316406 315.359375 " fill-opacity="1" fill-rule="nonzero"/><path fill="#e7e7e7" d="M 338.199219 107.652344 L 316.890625 107.652344 C 301.441406 107.652344 287.410156 116.164062 280.269531 129.851562 C 279.410156 131.480469 278.667969 133.152344 277.839844 134.796875 L 54.484375 134.796875 C 41.921875 134.796875 31.695312 145.015625 31.695312 157.585938 C 31.695312 161.464844 32.691406 165.289062 34.566406 168.671875 C 50.097656 196.550781 60.816406 226.628906 66.433594 258.042969 C 66.664062 259.320312 67.046875 260.539062 67.507812 261.722656 C 67.558594 261.886719 67.636719 262.003906 67.703125 262.140625 C 70.464844 268.714844 76.660156 273.359375 83.984375 273.910156 L 229.046875 284.796875 C 229.160156 284.796875 229.261719 284.796875 229.371094 284.796875 C 229.390625 284.796875 229.40625 284.796875 229.421875 284.796875 C 229.472656 284.796875 229.507812 284.8125 229.542969 284.8125 C 229.875 284.828125 230.207031 284.847656 230.539062 284.847656 C 240.640625 284.847656 248.984375 277.203125 249.75 267 C 253.296875 220.210938 266.097656 175.398438 287.785156 133.796875 C 293.464844 122.933594 304.601562 116.171875 316.867188 116.171875 L 338.171875 116.171875 C 340.515625 116.171875 342.433594 114.273438 342.433594 111.910156 C 342.460938 109.558594 340.550781 107.652344 338.199219 107.652344 Z M 67.226562 224.617188 C 65.890625 220.074219 64.457031 215.558594 62.898438 211.097656 L 67.226562 211.097656 Z M 67.226562 202.585938 L 59.753906 202.585938 C 56.453125 193.976562 52.765625 185.503906 48.65625 177.214844 L 67.226562 177.214844 Z M 67.226562 168.691406 L 44.222656 168.691406 C 43.484375 167.308594 42.785156 165.894531 42.015625 164.523438 C 40.839844 162.417969 40.21875 160.015625 40.21875 157.59375 C 40.21875 149.71875 46.621094 143.328125 54.484375 143.328125 L 67.226562 143.328125 Z M 106.808594 267.066406 L 84.648438 265.40625 C 80.667969 265.117188 77.371094 262.621094 75.75 259.125 L 75.75 245.011719 L 106.808594 245.011719 Z M 106.808594 236.472656 L 75.75 236.472656 L 75.75 211.109375 L 106.808594 211.109375 Z M 106.808594 202.585938 L 75.75 202.585938 L 75.75 177.214844 L 106.808594 177.214844 Z M 106.808594 168.691406 L 75.75 168.691406 L 75.75 143.316406 L 106.808594 143.316406 Z M 146.378906 270.035156 L 115.328125 267.707031 L 115.328125 245.003906 L 146.378906 245.003906 Z M 146.378906 236.472656 L 115.328125 236.472656 L 115.328125 211.109375 L 146.378906 211.109375 Z M 146.378906 202.585938 L 115.328125 202.585938 L 115.328125 177.214844 L 146.378906 177.214844 Z M 146.378906 168.691406 L 115.328125 168.691406 L 115.328125 143.316406 L 146.378906 143.316406 Z M 185.949219 273.007812 L 154.890625 270.683594 L 154.890625 244.996094 L 185.949219 244.996094 Z M 185.949219 236.472656 L 154.890625 236.472656 L 154.890625 211.109375 L 185.949219 211.109375 Z M 185.949219 202.585938 L 154.890625 202.585938 L 154.890625 177.214844 L 185.949219 177.214844 Z M 185.949219 168.691406 L 154.890625 168.691406 L 154.890625 143.316406 L 185.949219 143.316406 Z M 225.519531 275.972656 L 194.472656 273.65625 L 194.472656 245.011719 L 225.519531 245.011719 Z M 225.519531 236.472656 L 194.472656 236.472656 L 194.472656 211.109375 L 225.519531 211.109375 Z M 225.519531 202.585938 L 194.472656 202.585938 L 194.472656 177.214844 L 225.519531 177.214844 Z M 225.519531 168.691406 L 194.472656 168.691406 L 194.472656 143.316406 L 225.519531 143.316406 Z M 241.269531 266.351562 C 240.9375 270.808594 238.003906 274.40625 234.035156 275.761719 L 234.035156 245.003906 L 243.605469 245.003906 C 242.652344 252.066406 241.824219 259.175781 241.269531 266.351562 Z M 244.910156 236.472656 L 234.042969 236.472656 L 234.042969 211.109375 L 249.921875 211.109375 C 247.933594 219.476562 246.28125 227.949219 244.910156 236.472656 Z M 252.121094 202.585938 L 234.035156 202.585938 L 234.035156 177.214844 L 259.816406 177.214844 C 256.917969 185.566406 254.386719 194.046875 252.121094 202.585938 Z M 262.976562 168.691406 L 234.035156 168.691406 L 234.035156 143.316406 L 273.65625 143.316406 C 269.753906 151.660156 266.214844 160.125 262.976562 168.691406 Z M 262.976562 168.691406 " fill-opacity="1" fill-rule="nonzero"/><path fill="#e7e7e7" d="M 199.96875 315.425781 L 168.058594 289.890625 C 161.515625 284.667969 152.265625 284.515625 145.578125 289.59375 L 112.203125 314.847656 C 110.328125 316.261719 109.941406 318.9375 111.375 320.820312 C 112.796875 322.6875 115.457031 323.054688 117.339844 321.640625 L 150.714844 296.386719 C 154.296875 293.691406 159.230469 293.734375 162.734375 296.558594 L 194.640625 322.089844 C 195.425781 322.722656 196.371094 323.019531 197.308594 323.019531 C 198.554688 323.019531 199.789062 322.472656 200.640625 321.417969 C 202.097656 319.585938 201.808594 316.910156 199.96875 315.425781 Z M 199.96875 315.425781 " fill-opacity="1" fill-rule="nonzero"/><path fill="#e7e7e7" d="M 140.0625 69.699219 C 139.558594 71.292969 140.027344 73.03125 141.273438 74.148438 L 166.191406 96.699219 C 166.976562 97.414062 168 97.796875 169.046875 97.796875 C 169.21875 97.796875 169.390625 97.796875 169.558594 97.773438 C 170.796875 97.621094 171.886719 96.945312 172.578125 95.921875 L 191.378906 68.054688 C 192.296875 66.664062 192.347656 64.867188 191.488281 63.453125 C 190.609375 62.027344 189.007812 61.261719 187.347656 61.441406 L 168.007812 63.785156 C 156.027344 26.796875 122.488281 1.3125 83.34375 0 C 81.222656 -0.253906 79.015625 1.765625 78.9375 4.109375 C 78.859375 6.460938 80.703125 8.4375 83.054688 8.515625 C 118.023438 9.691406 148.066406 32.113281 159.382812 64.832031 L 143.609375 66.75 C 141.972656 66.964844 140.582031 68.113281 140.0625 69.699219 Z M 140.0625 69.699219 " fill-opacity="1" fill-rule="nonzero"/></svg>