<svg xmlns="http://www.w3.org/2000/svg" xmlns:xlink="http://www.w3.org/1999/xlink" width="500" zoomAndPan="magnify" viewBox="0 0 375 374.999991" height="500" preserveAspectRatio="xMidYMid meet" version="1.0"><defs><clipPath id="973b4c55ce"><path d="M 0 52.03125 L 222 52.03125 L 222 118 L 0 118 Z M 0 52.03125 " clip-rule="nonzero"/></clipPath><clipPath id="ad01f65221"><path d="M 58 110.277344 L 161.800781 110.277344 L 161.800781 322.683594 L 58 322.683594 Z M 58 110.277344 " clip-rule="nonzero"/></clipPath><clipPath id="d1a961b201"><path d="M 155 119 L 313 119 L 313 322.683594 L 155 322.683594 Z M 155 119 " clip-rule="nonzero"/></clipPath></defs><rect x="-37.5" width="450" fill="#ffffff" y="-37.499999" height="449.999989" fill-opacity="1"/><rect x="-37.5" width="450" fill="#ffffff" y="-37.499999" height="449.999989" fill-opacity="1"/><path fill="#e7e7e7" d="M 70.003906 115.546875 L 158.761719 158.429688 L 209.480469 145.429688 L 209.480469 79.796875 Z M 158.121094 164.84375 L 52.457031 113.792969 L 212.308594 72.820312 L 215.535156 73.035156 L 215.535156 150.128906 L 158.121094 164.84375 " fill-opacity="1" fill-rule="nonzero"/><path fill="#e7e7e7" d="M 215.535156 80.71875 L 215.535156 143.878906 L 300.949219 121.984375 Z M 209.480469 151.679688 L 209.234375 71.050781 L 318.496094 123.738281 L 209.480469 151.679688 " fill-opacity="1" fill-rule="nonzero"/><path fill="#e7e7e7" d="M 162.769531 163.65625 L 188.683594 217.609375 L 338.90625 178.472656 L 308.265625 126.359375 Z M 185.382812 224.726562 L 154.113281 159.621094 L 309.300781 119.84375 L 311.566406 120.027344 L 348.1875 182.3125 L 185.382812 224.726562 " fill-opacity="1" fill-rule="nonzero"/><path fill="#e7e7e7" d="M 31.457031 164.726562 L 125.628906 213.054688 L 154.207031 162.957031 L 62.285156 118.539062 Z M 128.015625 221.085938 L 22.648438 167.015625 L 59.859375 111.265625 L 59.957031 111.125 L 62.023438 111.691406 L 162.675781 160.324219 L 128.015625 221.085938 " fill-opacity="1" fill-rule="nonzero"/><g clip-path="url(#973b4c55ce)"><path fill="#e7e7e7" d="M 20.507812 96.761719 L 61.382812 111.507812 L 203.503906 75.078125 L 167.96875 58.707031 Z M 61.078125 117.832031 L 0 95.800781 L 168.542969 52.304688 L 221.519531 76.710938 L 61.078125 117.832031 " fill-opacity="1" fill-rule="nonzero"/></g><path fill="#e7e7e7" d="M 222.648438 77.425781 L 310.199219 119.730469 L 354.792969 113.113281 L 267.59375 70.65625 Z M 309.242188 125.992188 L 202.375 74.359375 L 268.550781 64.390625 L 375.027344 116.226562 L 309.242188 125.992188 " fill-opacity="1" fill-rule="nonzero"/><g clip-path="url(#ad01f65221)"><path fill="#e7e7e7" d="M 61.792969 111.582031 L 58.203125 110.796875 L 58.203125 124.65625 L 62.285156 118.542969 L 68.09375 121.347656 L 155.414062 163.535156 L 155.414062 314.546875 L 64.257812 268.457031 L 64.257812 181.5625 L 58.203125 178.453125 L 58.203125 272.179688 L 158.089844 322.683594 L 161.46875 320.792969 L 161.46875 159.738281 L 61.792969 111.582031 " fill-opacity="1" fill-rule="nonzero"/></g><g clip-path="url(#d1a961b201)"><path fill="#e7e7e7" d="M 306.695312 186.863281 L 306.695312 278.34375 L 161.46875 315.570312 L 161.46875 163.984375 L 302.160156 127.925781 L 308.265625 126.359375 L 312.746094 133.984375 L 312.746094 119.964844 L 310.199219 119.730469 L 155.414062 159.289062 L 155.414062 321.332031 L 158.089844 322.683594 L 312.746094 283.046875 L 312.746094 185.285156 L 306.695312 186.863281 " fill-opacity="1" fill-rule="nonzero"/></g></svg>