<svg xmlns="http://www.w3.org/2000/svg" xmlns:xlink="http://www.w3.org/1999/xlink" width="500" zoomAndPan="magnify" viewBox="0 0 375 374.999991" height="500" preserveAspectRatio="xMidYMid meet" version="1.0"><defs><clipPath id="f47cc605cd"><path d="M 0 5.390625 L 375 5.390625 L 375 369.890625 L 0 369.890625 Z M 0 5.390625 " clip-rule="nonzero"/></clipPath></defs><rect x="-37.5" width="450" fill="#ffffff" y="-37.499999" height="449.999989" fill-opacity="1"/><rect x="-37.5" width="450" fill="#ffffff" y="-37.499999" height="449.999989" fill-opacity="1"/><g clip-path="url(#f47cc605cd)"><path fill="#e7e7e7" d="M 102.261719 217.464844 C 102.261719 221.449219 99.027344 224.695312 95.035156 224.695312 L 92.539062 224.695312 L 92.539062 219.839844 C 92.539062 206.191406 84.820312 194.308594 73.515625 188.320312 C 77.34375 184.242188 79.6875 178.761719 79.6875 172.746094 C 79.6875 160.171875 69.46875 149.941406 56.890625 149.941406 C 44.324219 149.941406 34.089844 160.171875 34.089844 172.746094 C 34.089844 178.761719 36.433594 184.242188 40.265625 188.320312 C 28.96875 194.308594 21.238281 206.191406 21.238281 219.839844 L 21.238281 224.695312 L 18.742188 224.695312 C 14.753906 224.695312 11.519531 221.449219 11.519531 217.464844 L 11.519531 137.347656 C 20.679688 143.042969 32.632812 141.917969 40.511719 134.5 C 49.679688 143.070312 64.113281 143.070312 73.265625 134.5 C 81.144531 141.914062 93.09375 143.046875 102.261719 137.347656 Z M 45.441406 172.746094 C 45.441406 179.058594 50.578125 184.195312 56.890625 184.195312 C 63.210938 184.195312 68.339844 179.058594 68.339844 172.746094 C 68.339844 166.429688 63.210938 161.296875 56.890625 161.296875 C 50.578125 161.296875 45.441406 166.429688 45.441406 172.746094 Z M 81.191406 224.695312 L 81.191406 219.839844 C 81.191406 206.445312 70.285156 195.546875 56.890625 195.546875 C 43.5 195.546875 32.59375 206.445312 32.59375 219.839844 L 32.59375 224.695312 Z M 26.386719 100.878906 L 87.394531 100.878906 L 102.125 118.84375 C 101.226562 124.921875 95.976562 129.597656 89.648438 129.597656 C 84.828125 129.597656 80.5 126.917969 78.347656 122.605469 C 76.265625 118.429688 70.277344 118.425781 68.191406 122.605469 C 63.550781 131.90625 50.234375 131.902344 45.59375 122.605469 C 43.507812 118.429688 37.523438 118.429688 35.4375 122.605469 C 33.277344 126.917969 28.953125 129.597656 24.136719 129.597656 C 17.8125 129.597656 12.550781 124.921875 11.652344 118.84375 Z M 94.46875 91.605469 C 93.394531 90.289062 91.785156 89.523438 90.082031 89.523438 L 23.699219 89.523438 C 21.996094 89.523438 20.386719 90.289062 19.3125 91.605469 L 1.453125 113.382812 C 0.621094 114.398438 0.164062 115.667969 0.164062 116.980469 L 0.164062 217.464844 C 0.164062 227.710938 8.496094 236.042969 18.742188 236.042969 L 95.035156 236.042969 C 105.28125 236.042969 113.617188 227.710938 113.617188 217.464844 L 113.617188 116.980469 C 113.617188 115.667969 113.160156 114.398438 112.328125 113.382812 Z M 363.398438 217.464844 C 363.398438 221.449219 360.148438 224.695312 356.167969 224.695312 L 353.671875 224.695312 L 353.671875 219.839844 C 353.671875 206.191406 345.945312 194.308594 334.648438 188.320312 C 338.476562 184.242188 340.824219 178.761719 340.824219 172.746094 C 340.824219 160.171875 330.589844 149.941406 318.023438 149.941406 C 305.449219 149.941406 295.222656 160.171875 295.222656 172.746094 C 295.222656 178.761719 297.570312 184.242188 301.398438 188.320312 C 290.089844 194.308594 282.375 206.191406 282.375 219.839844 L 282.375 224.695312 L 279.875 224.695312 C 275.890625 224.695312 272.648438 221.449219 272.648438 217.464844 L 272.648438 137.347656 C 281.808594 143.046875 293.75 141.910156 301.648438 134.5 C 310.800781 143.070312 325.230469 143.070312 334.402344 134.5 C 342.289062 141.917969 354.226562 143.042969 363.398438 137.347656 Z M 306.570312 172.746094 C 306.570312 179.058594 311.703125 184.195312 318.019531 184.195312 C 324.335938 184.195312 329.46875 179.058594 329.46875 172.746094 C 329.46875 166.429688 324.335938 161.296875 318.019531 161.296875 C 311.703125 161.296875 306.570312 166.429688 306.570312 172.746094 Z M 342.320312 224.695312 L 342.320312 219.839844 C 342.320312 206.445312 331.417969 195.546875 318.019531 195.546875 C 304.621094 195.546875 293.726562 206.445312 293.726562 219.839844 L 293.726562 224.695312 Z M 287.515625 100.878906 L 348.527344 100.878906 L 363.261719 118.84375 C 362.359375 124.921875 357.097656 129.597656 350.773438 129.597656 C 345.964844 129.597656 341.632812 126.917969 339.476562 122.605469 C 337.386719 118.421875 331.40625 118.429688 329.320312 122.605469 C 324.675781 131.90625 311.359375 131.90625 306.722656 122.605469 C 304.636719 118.425781 298.644531 118.433594 296.5625 122.605469 C 294.414062 126.917969 290.082031 129.597656 285.261719 129.597656 C 278.933594 129.597656 273.6875 124.921875 272.785156 118.84375 Z M 373.464844 113.382812 L 355.601562 91.605469 C 354.523438 90.289062 352.914062 89.523438 351.210938 89.523438 L 284.832031 89.523438 C 283.128906 89.523438 281.515625 90.289062 280.441406 91.605469 L 262.582031 113.382812 C 261.75 114.398438 261.296875 115.667969 261.296875 116.980469 L 261.296875 217.464844 C 261.296875 227.710938 269.632812 236.042969 279.871094 236.042969 L 356.167969 236.042969 C 366.414062 236.042969 374.746094 227.710938 374.746094 217.464844 L 374.746094 116.980469 C 374.746094 115.667969 374.292969 114.398438 373.464844 113.382812 Z M 246.230469 328.507812 C 243.238281 333.585938 241.925781 339.59375 242.335938 346.375 L 242.335938 358.308594 L 190.535156 358.308594 L 190.535156 346.375 C 190.96875 339.269531 190.433594 333.296875 188.933594 328.113281 C 186.808594 320.824219 175.355469 305.976562 170.40625 297.308594 C 169.109375 295.027344 168.394531 292.945312 168.023438 290.347656 L 166.152344 277.148438 C 163.582031 263.347656 155.914062 253.328125 143.359375 247.363281 C 134.605469 243.203125 131.179688 238.164062 132.394531 235.53125 C 133.683594 232.757812 139.953125 230.949219 148.410156 234.730469 L 173.59375 247.503906 C 177.351562 249.414062 181.828125 246.667969 181.832031 242.449219 L 181.953125 145.058594 C 181.953125 141.902344 184.515625 139.339844 187.675781 139.339844 C 190.832031 139.339844 193.394531 141.902344 193.394531 145.058594 L 193.394531 232.910156 C 193.394531 236.046875 195.9375 238.589844 199.070312 238.589844 C 202.203125 238.589844 204.746094 236.046875 204.746094 232.910156 C 204.746094 229.757812 207.308594 227.195312 210.464844 227.195312 C 213.617188 227.195312 216.183594 229.757812 216.183594 232.910156 L 216.183594 242.941406 C 216.183594 246.070312 218.722656 248.617188 221.855469 248.617188 C 224.996094 248.617188 227.53125 246.070312 227.53125 242.941406 C 227.53125 239.785156 230.109375 237.222656 233.253906 237.222656 C 236.410156 237.222656 238.976562 239.785156 238.976562 242.941406 L 238.976562 252.964844 C 238.976562 256.101562 241.515625 258.640625 244.648438 258.640625 C 247.785156 258.640625 250.324219 256.101562 250.324219 252.964844 C 250.324219 249.8125 252.890625 247.246094 256.046875 247.246094 C 259.199219 247.246094 261.769531 249.816406 261.769531 252.964844 C 261.769531 280.847656 260.621094 304.113281 246.230469 328.507812 Z M 163.160156 140.601562 L 171.191406 140.601562 C 173.164062 133.34375 179.804688 127.988281 187.675781 127.988281 C 195.542969 127.988281 202.183594 133.339844 204.152344 140.601562 L 211.753906 140.601562 L 211.753906 135.746094 C 211.753906 122.351562 200.851562 111.453125 187.453125 111.453125 C 174.0625 111.453125 163.160156 122.351562 163.160156 135.746094 Z M 198.90625 88.644531 C 198.90625 94.964844 193.765625 100.101562 187.453125 100.101562 C 181.132812 100.101562 176.007812 94.964844 176.007812 88.644531 C 176.007812 82.332031 181.132812 77.195312 187.453125 77.195312 C 193.765625 77.195312 198.90625 82.332031 198.90625 88.644531 Z M 151.804688 135.75 C 151.804688 122.097656 159.527344 110.214844 170.828125 104.230469 C 167 100.152344 164.65625 94.667969 164.65625 88.648438 C 164.65625 76.078125 174.878906 65.847656 187.453125 65.847656 C 200.027344 65.847656 210.253906 76.078125 210.253906 88.648438 C 210.253906 94.667969 207.910156 100.152344 204.082031 104.230469 C 215.386719 110.214844 223.105469 122.097656 223.105469 135.75 L 223.105469 140.601562 L 225.601562 140.601562 C 229.589844 140.601562 232.828125 137.355469 232.828125 133.367188 L 232.828125 53.253906 C 223.667969 58.949219 211.714844 57.8125 203.832031 50.40625 C 194.664062 58.972656 180.25 58.976562 171.078125 50.40625 C 163.199219 57.808594 151.242188 58.945312 142.082031 53.253906 L 142.082031 133.367188 C 142.082031 137.355469 145.324219 140.601562 149.308594 140.601562 L 151.804688 140.601562 Z M 156.953125 16.78125 L 217.957031 16.78125 L 232.695312 34.746094 C 231.792969 40.824219 226.539062 45.503906 220.214844 45.503906 C 215.394531 45.503906 211.066406 42.824219 208.90625 38.507812 C 206.816406 34.320312 200.828125 34.339844 198.75 38.507812 C 194.109375 47.816406 180.804688 47.8125 176.160156 38.507812 C 174.082031 34.347656 168.097656 34.308594 166.003906 38.507812 C 163.84375 42.824219 159.515625 45.503906 154.695312 45.503906 C 148.367188 45.503906 143.121094 40.824219 142.21875 34.746094 Z M 256.046875 235.894531 C 253.679688 235.894531 251.414062 236.386719 249.355469 237.257812 C 246.082031 228.007812 235.636719 223.363281 226.5625 227.234375 C 223.4375 218.394531 213.679688 213.636719 204.746094 216.828125 L 204.746094 151.949219 L 225.601562 151.949219 C 235.847656 151.949219 244.179688 143.617188 244.179688 133.367188 L 244.179688 32.886719 C 244.179688 31.574219 243.730469 30.300781 242.894531 29.289062 L 225.03125 7.507812 C 223.960938 6.195312 222.351562 5.429688 220.644531 5.429688 L 154.261719 5.429688 C 152.566406 5.429688 150.953125 6.195312 149.875 7.507812 L 132.015625 29.289062 C 131.183594 30.300781 130.734375 31.574219 130.734375 32.886719 L 130.734375 133.367188 C 130.734375 143.613281 139.0625 151.949219 149.308594 151.949219 L 170.597656 151.949219 L 170.488281 233.207031 L 153.417969 224.550781 C 153.351562 224.515625 153.277344 224.476562 153.199219 224.441406 C 138.082031 217.597656 125.890625 222.589844 122.105469 230.757812 C 118.761719 237.972656 121.046875 249.332031 138.492188 257.621094 C 147.792969 262.039062 153.035156 268.871094 154.96875 279.113281 L 156.785156 291.941406 C 157.355469 295.9375 158.546875 299.429688 160.546875 302.933594 C 164.082031 309.121094 176.734375 326.847656 178.035156 331.292969 C 179.1875 335.234375 179.566406 339.996094 179.191406 345.84375 C 179.1875 345.964844 179.1875 346.082031 179.1875 346.199219 L 179.1875 363.984375 C 179.1875 367.117188 181.726562 369.65625 184.859375 369.65625 L 248.007812 369.65625 C 251.144531 369.65625 253.683594 367.117188 253.683594 363.984375 L 253.683594 346.199219 C 253.683594 346.078125 253.683594 345.953125 253.679688 345.832031 C 253.375 341.222656 254.140625 337.445312 256 334.277344 C 271.863281 307.410156 273.117188 282.605469 273.117188 252.964844 C 273.117188 243.554688 265.460938 235.894531 256.046875 235.894531 Z M 256.046875 235.894531 " fill-opacity="1" fill-rule="evenodd"/></g></svg>