<svg xmlns="http://www.w3.org/2000/svg" xmlns:xlink="http://www.w3.org/1999/xlink" width="500" zoomAndPan="magnify" viewBox="0 0 375 374.999991" height="500" preserveAspectRatio="xMidYMid meet" version="1.0"><defs><clipPath id="0b33d682fd"><path d="M 23.125 0 L 351.625 0 L 351.625 375 L 23.125 375 Z M 23.125 0 " clip-rule="nonzero"/></clipPath></defs><rect x="-37.5" width="450" fill="#ffffff" y="-37.499999" height="449.999989" fill-opacity="1"/><rect x="-37.5" width="450" fill="#ffffff" y="-37.499999" height="449.999989" fill-opacity="1"/><g clip-path="url(#0b33d682fd)"><path fill="#e7e7e7" d="M 197.890625 153.304688 L 226.09375 133.9375 L 197.890625 114.570312 L 197.890625 119.8125 C 197.890625 122.652344 195.613281 124.929688 192.773438 124.929688 L 159.183594 124.929688 L 159.183594 142.9375 L 192.773438 142.9375 C 195.613281 142.9375 197.890625 145.214844 197.890625 148.054688 Z M 237.960938 138.210938 L 195.65625 167.285156 C 193.304688 168.886719 190.125 168.277344 188.527344 165.949219 C 187.917969 165.050781 187.625 164.058594 187.625 163.066406 L 187.625 153.210938 L 154.066406 153.210938 C 151.222656 153.210938 148.917969 150.90625 148.917969 148.066406 L 148.917969 119.8125 C 148.917969 116.96875 151.222656 114.667969 154.066406 114.667969 L 187.625 114.667969 L 187.625 104.8125 C 187.625 101.96875 189.929688 99.691406 192.773438 99.691406 C 193.960938 99.691406 195.074219 100.101562 195.949219 100.789062 L 238.027344 129.71875 C 240.382812 131.292969 240.964844 134.496094 239.390625 136.832031 C 239.003906 137.40625 238.515625 137.867188 237.960938 138.210938 Z M 124.066406 210.777344 L 182.429688 210.777344 C 185.273438 210.777344 187.550781 213.082031 187.550781 215.898438 L 187.550781 272.105469 L 254.3125 254.125 L 254.3125 80.070312 L 124.066406 44.941406 Z M 87.105469 210.777344 L 113.800781 210.777344 L 113.800781 32.277344 C 113.800781 29.433594 116.101562 27.15625 118.945312 27.15625 L 319.945312 27.15625 C 322.789062 27.15625 325.09375 29.433594 325.09375 32.277344 L 325.09375 290.796875 L 351.761719 290.796875 L 351.761719 0 L 87.105469 0 Z M 133.457031 221.042969 L 133.457031 282.621094 C 133.457031 283.785156 133.046875 285 132.199219 285.96875 C 130.359375 288.097656 127.128906 288.320312 124.988281 286.480469 L 100.304688 265.050781 L 75.941406 286.214844 C 75.015625 287.167969 73.730469 287.75 72.300781 287.75 C 69.457031 287.75 67.15625 285.445312 67.15625 282.628906 L 67.15625 221.054688 L 23.320312 221.054688 L 23.320312 375.015625 L 177.285156 375.015625 L 177.285156 221.054688 L 133.457031 221.054688 Z M 77.414062 221.042969 L 77.414062 271.351562 L 96.949219 254.390625 C 98.917969 252.695312 101.832031 252.765625 103.722656 254.460938 L 123.183594 271.351562 L 123.183594 221.042969 Z M 148.550781 315.863281 C 151.394531 315.863281 153.695312 318.167969 153.695312 321.011719 C 153.695312 323.851562 151.394531 326.15625 148.550781 326.15625 L 116.324219 326.15625 C 113.484375 326.15625 111.179688 323.851562 111.179688 321.011719 C 111.179688 318.167969 113.484375 315.863281 116.324219 315.863281 Z M 148.550781 344.890625 C 151.394531 344.890625 153.695312 347.191406 153.695312 350.035156 C 153.695312 352.875 151.394531 355.179688 148.550781 355.179688 L 116.324219 355.179688 C 113.484375 355.179688 111.179688 352.875 111.179688 350.035156 C 111.179688 347.191406 113.484375 344.890625 116.324219 344.890625 Z M 148.550781 344.890625 " fill-opacity="1" fill-rule="nonzero"/></g></svg>